<svg xmlns="http://www.w3.org/2000/svg" xmlns:xlink="http://www.w3.org/1999/xlink" width="434.513" height="318.423" viewBox="0 0 434.513 318.423">
  <defs>
    <clipPath id="clip-path">
      <rect width="434.513" height="318.423" fill="none"/>
    </clipPath>
  </defs>
  <g id="Repeat_Grid_11" data-name="Repeat Grid 11" transform="translate(0)" clip-path="url(#clip-path)">
    <g id="Group_243" data-name="Group 243" transform="translate(-227 -264)">
      <g id="Group_72" data-name="Group 72" transform="translate(227 300)">
        <path id="Path_2872" data-name="Path 2872" d="M901.279,741.566c-2.612,9.946-11.764,16.162-11.764,16.162s-4.918-9.911-2.306-19.857,11.764-16.162,11.764-16.162S903.891,731.62,901.279,741.566Z" transform="translate(-578.126 -478.89)" fill="#3f3d56"/>
        <path id="Path_2873" data-name="Path 2873" d="M901.9,755.937c-7.316,7.228-8.134,18.261-8.134,18.261s11.042-.685,18.358-7.912,8.134-18.261,8.134-18.261S909.218,748.709,901.9,755.937Z" transform="translate(-582.711 -495.365)" fill="#6c63ff"/>
        <path id="Path_2874" data-name="Path 2874" d="M186.109,647.621h13.777l33.951-13.285s24.11-9.841,22.142,8.857-5.412,43.791-5.412,43.791-10.825-4.92-16.729-3.444-1.968-30.014-1.968-30.014-48.22,23.126-52.648,20.174-5.412-23.618-5.412-23.618Z" transform="translate(-131.985 -422.571)" fill="#2f2e41"/>
        <path id="Path_2875" data-name="Path 2875" d="M186.109,647.621h13.777l33.951-13.285s24.11-9.841,22.142,8.857-5.412,43.791-5.412,43.791-10.825-4.92-16.729-3.444-1.968-30.014-1.968-30.014-48.22,23.126-52.648,20.174-5.412-23.618-5.412-23.618Z" transform="translate(-131.985 -422.571)" opacity="0.1"/>
        <path id="Path_2876" data-name="Path 2876" d="M244.059,558.82l16.673,23.955L299.6,615.25s35.919,8.365,31,14.269-34.935-5.9-34.935-5.9-44.776-32.474-46.252-34.935S231.7,563.094,231.7,563.094Z" transform="translate(-168.229 -376.915)" fill="#a0616a"/>
        <path id="Path_2877" data-name="Path 2877" d="M244.059,558.82l16.673,23.955L299.6,615.25s35.919,8.365,31,14.269-34.935-5.9-34.935-5.9-44.776-32.474-46.252-34.935S231.7,563.094,231.7,563.094Z" transform="translate(-168.229 -376.915)" opacity="0.1"/>
        <path id="Path_2878" data-name="Path 2878" d="M211.1,507.092l10.825,21.158s-2.46,10.333-6.4,11.317-20.666-12.793-20.666-12.793Z" transform="translate(-145.165 -344.531)" fill="#d0cde1"/>
        <path id="Path_2879" data-name="Path 2879" d="M211.1,507.092l10.825,21.158s-2.46,10.333-6.4,11.317-20.666-12.793-20.666-12.793Z" transform="translate(-145.165 -344.531)" opacity="0.1"/>
        <path id="Path_2880" data-name="Path 2880" d="M566.411,643.847l3.2,13.19a.824.824,0,0,1-.016.445l-14.5,45.328a.824.824,0,0,1-1.6-.158l-2.007-17.658a.824.824,0,0,1,.035-.348l13.314-40.86a.824.824,0,0,1,1.584.061Z" transform="translate(-368.419 -429.751)" fill="#2f2e41"/>
        <path id="Path_2881" data-name="Path 2881" d="M504.889,575.493l2.952,11.317-12.793,41.331L492.1,615.348Z" transform="translate(-308.073 -360.283)" fill="#f2f2f2"/>
        <path id="Path_2882" data-name="Path 2882" d="M415.777,774.459c.492,1.476,51.172-.492,51.664-.984a10.681,10.681,0,0,0,1.082-1.968c.463-.984.886-1.968.886-1.968l-1.968-15.932-50.188-1.781s-1.255,13.5-1.511,19.682A14.778,14.778,0,0,0,415.777,774.459Z" transform="translate(-283.419 -497.744)" fill="#2f2e41"/>
        <path id="Path_2883" data-name="Path 2883" d="M439.571,689.965l.984,13.777H418.413V689.965Z" transform="translate(-261.945 -431.948)" opacity="0.1"/>
        <path id="Path_2884" data-name="Path 2884" d="M377.26,701.762l.132-.026-.624,5.931h-12.3v-5.9Z" transform="translate(-228.172 -439.317)" opacity="0.1"/>
        <path id="Path_2885" data-name="Path 2885" d="M415.777,807.408c.492,1.476,51.172-.492,51.664-.984a10.683,10.683,0,0,0,1.082-1.968H415.743A14.767,14.767,0,0,0,415.777,807.408Z" transform="translate(-283.419 -530.693)" opacity="0.1"/>
        <circle id="Ellipse_207" data-name="Ellipse 207" cx="22.142" cy="22.142" r="22.142" transform="translate(51.172 111.389)" fill="#a0616a"/>
        <path id="Path_2886" data-name="Path 2886" d="M197.645,450.164s-7.381,12.793-8.857,19.682-22.142-13.777-22.142-13.777l-2.706-7.135s19.436-9.1,17.959-16.483S197.645,450.164,197.645,450.164Z" transform="translate(-125.807 -296.952)" fill="#a0616a"/>
        <path id="Path_2887" data-name="Path 2887" d="M225.057,584.722l20.174,26.57,48.22,35.919s34.935,7.381,27.062,12.793-30.506-4.92-30.506-4.92-48.712-26.078-59.045-36.9-29.522-29.03-29.522-29.03Z" transform="translate(-149.283 -393.13)" fill="#a0616a"/>
        <path id="Path_2888" data-name="Path 2888" d="M118.917,690.113l5.9,9.349,35.238-11.086a27.707,27.707,0,0,1,23.068,2.783c6.151,3.875,10.087,10.025,1.23,19.128-17.713,18.205-29.522,8.365-29.522,8.365S95.3,746.7,85.459,732.92s-10.333-20.666-10.333-20.666S113.013,688.637,118.917,690.113Z" transform="translate(-70.206 -457.19)" fill="#2f2e41"/>
        <path id="Path_2889" data-name="Path 2889" d="M303.1,774.673s15.745,10.333-2.952,15.253-32.475-1.968-32.475-1.968-16.237,0-16.237-8.365,5.412-9.349,5.412-9.349l16.729,2.46S293.753,767.293,303.1,774.673Z" transform="translate(-180.584 -509.276)" fill="#d0cde1"/>
        <path id="Path_2890" data-name="Path 2890" d="M227.144,369.659a16.509,16.509,0,0,0,4.64,1.662,4.235,4.235,0,0,0,4.279-1.834,5.756,5.756,0,0,0,.486-2.6c.059-2.7-.136-5.623-1.848-7.714-1.09-1.331-2.68-2.17-3.808-3.468a16.388,16.388,0,0,1-1.925-3.146c-2.194-4.12-5.442-8.08-9.955-9.267a21.59,21.59,0,0,0-5.811-.444l-11.367.16a19.79,19.79,0,0,0-5.468.589c-3.659,1.106-6.323,4.183-8.763,7.125a44.562,44.562,0,0,0-5.025,6.936,24.337,24.337,0,0,0-2.885,11.924,11.157,11.157,0,0,0,.409,3.155,17.506,17.506,0,0,0,1.24,2.724c2.132,4.187,3.4,9.417,1,13.456,4.17-1.7,8.3-3.937,11.048-7.5,1.231-1.6,2.2-3.464,3.836-4.635s4.312-1.273,5.365.446a4.808,4.808,0,0,1,.543,2.252,10.322,10.322,0,0,0,.622,3.8,2.848,2.848,0,0,0,3.094,1.765c2.142-.6,1.937-3.891,3.587-5.385,1.253-1.134,3.186-.917,4.8-1.432a7.118,7.118,0,0,0,4.085-4.024c.61-1.367.6-4.945,1.754-5.685C222.515,367.585,225.8,369.061,227.144,369.659Z" transform="translate(-135.667 -241.698)" fill="#2f2e41"/>
        <path id="Path_2891" data-name="Path 2891" d="M98.344,472.232a5.839,5.839,0,0,1,3.04.008c3.159.848,10.239,3.093,11.757,6.509,1.968,4.428,8.857,11.317,8.857,11.317s9.349,9.349,7.381,15.745-9.349,13.777-9.349,13.777,1.968,30.506-7.873,38.379-13.777,2.46-13.777,9.841-30.507,30.506-36.411,16.237c0,0,2.952-26.57,1.968-35.919C62.966,538.911,64.386,481.425,98.344,472.232Z" transform="translate(-61.968 -322.583)" fill="#d0cde1"/>
        <path id="Path_2892" data-name="Path 2892" d="M162.986,503.613S193,525.755,187.588,535.1c0,0-18.205,8.857-22.142,8.365s-19.19-17.713-23.126-19.19S136.416,496.232,162.986,503.613Z" transform="translate(-110.83 -341.544)" fill="#d0cde1"/>
        <circle id="Ellipse_208" data-name="Ellipse 208" cx="24.307" cy="24.307" r="24.307" transform="translate(161.947 64.492)" fill="#f2f2f2"/>
        <path id="Path_2893" data-name="Path 2893" d="M868.863,177.71H732.649v-28.5H868.863Zm-135.614-.6H868.262v-27.3H733.249Z" transform="translate(-481.843 -120.479)" fill="#3f3d56"/>
        <rect id="Rectangle_777" data-name="Rectangle 777" width="135.613" height="27.903" transform="translate(241.505 34.428)" fill="#6c63ff"/>
        <circle id="Ellipse_209" data-name="Ellipse 209" cx="2.1" cy="2.1" r="2.1" transform="translate(153.677 3.6)" fill="#6c63ff"/>
        <circle id="Ellipse_210" data-name="Ellipse 210" cx="2.1" cy="2.1" r="2.1" transform="translate(160.878 3.6)" fill="#6c63ff"/>
        <circle id="Ellipse_211" data-name="Ellipse 211" cx="2.1" cy="2.1" r="2.1" transform="translate(168.079 3.6)" fill="#6c63ff"/>
        <path id="Path_2894" data-name="Path 2894" d="M715.111,236.8H462.487V72.386H715.112Zm-252.024-.6H714.511V72.986H463.087Z" transform="translate(-312.71 -72.386)" fill="#3f3d56"/>
        <rect id="Rectangle_778" data-name="Rectangle 778" width="252.025" height="0.6" transform="translate(150.077 9.101)" fill="#3f3d56"/>
        <path id="Path_2895" data-name="Path 2895" d="M476.12,83.605a2.4,2.4,0,1,1,2.4-2.4,2.4,2.4,0,0,1-2.4,2.4Zm0-4.2a1.8,1.8,0,1,0,1.8,1.8,1.8,1.8,0,0,0-1.8-1.8Z" transform="translate(-319.742 -76.404)" fill="#3f3d56"/>
        <path id="Path_2896" data-name="Path 2896" d="M495.375,83.605a2.4,2.4,0,1,1,2.4-2.4,2.4,2.4,0,0,1-2.4,2.4Zm0-4.2a1.8,1.8,0,1,0,1.8,1.8,1.8,1.8,0,0,0-1.8-1.8Z" transform="translate(-331.797 -76.404)" fill="#3f3d56"/>
        <path id="Path_2897" data-name="Path 2897" d="M514.63,83.605a2.4,2.4,0,1,1,2.4-2.4A2.4,2.4,0,0,1,514.63,83.605Zm0-4.2a1.8,1.8,0,1,0,1.8,1.8,1.8,1.8,0,0,0-1.8-1.8Z" transform="translate(-343.852 -76.404)" fill="#3f3d56"/>
        <rect id="Rectangle_779" data-name="Rectangle 779" width="0.6" height="154.948" transform="translate(228.902 9.401)" fill="#3f3d56"/>
        <rect id="Rectangle_780" data-name="Rectangle 780" width="44.104" height="6.001" transform="translate(257.556 85.583)" fill="#f2f2f2"/>
        <rect id="Rectangle_781" data-name="Rectangle 781" width="44.104" height="6.001" transform="translate(326.863 85.583)" fill="#f2f2f2"/>
        <path id="Path_2898" data-name="Path 2898" d="M801.021,299.02h-44.7v-6.6h44.7Zm-44.1-.6h43.5v-5.4h-43.5Z" transform="translate(-496.66 -210.137)" fill="#3f3d56"/>
        <rect id="Rectangle_782" data-name="Rectangle 782" width="44.104" height="6.001" transform="translate(257.556 132.088)" fill="#f2f2f2"/>
        <path id="Path_2899" data-name="Path 2899" d="M801.021,423.378h-44.7v-6.6h44.7Zm-44.1-.6h43.5v-5.4h-43.5Z" transform="translate(-496.66 -287.99)" fill="#3f3d56"/>
        <rect id="Rectangle_783" data-name="Rectangle 783" width="113.411" height="6.001" transform="translate(257.706 108.235)" fill="#f2f2f2"/>
        <path id="Path_2900" data-name="Path 2900" d="M870.731,361.2H756.718v-6.6H870.729Zm-113.412-.6H870.129v-5.4H757.318Z" transform="translate(-496.912 -249.064)" fill="#3f3d56"/>
        <path id="Path_2901" data-name="Path 2901" d="M986.353,299.02h-44.7v-6.6h44.7Zm-44.1-.6h43.5v-5.4h-43.5Z" transform="translate(-612.688 -210.137)" fill="#3f3d56"/>
        <path id="Path_2902" data-name="Path 2902" d="M529.713,275.206a24.681,24.681,0,1,1,24.681-24.681A24.681,24.681,0,0,1,529.713,275.206Zm0-48.614a23.933,23.933,0,1,0,23.933,23.933A23.933,23.933,0,0,0,529.713,226.592Z" transform="translate(-339.345 -168.457)" fill="#3f3d56"/>
        <rect id="Rectangle_784" data-name="Rectangle 784" width="105.83" height="0.748" transform="translate(279.744 278.395)" fill="#3f3d56"/>
      </g>
      <g id="Group_75" data-name="Group 75" transform="translate(346 264)">
        <rect id="Rectangle_785" data-name="Rectangle 785" width="290.475" height="185.849" transform="translate(25.038 17.552)" fill="#3f3d56"/>
        <rect id="Rectangle_786" data-name="Rectangle 786" width="130.783" height="152.12" transform="translate(176.47 51.108)" fill="#f2f2f2"/>
        <path id="Path_3144" data-name="Path 3144" d="M169.687,609.424C173.662,616.8,182.1,619.96,182.1,619.96s1.992-8.788-1.983-16.16S167.7,593.264,167.7,593.264,165.712,602.052,169.687,609.424Z" transform="translate(-156.371 -416.423)" fill="#3f3d56"/>
        <path id="Path_3145" data-name="Path 3145" d="M153.423,625.781c7.177,4.318,9.941,12.894,9.941,12.894s-8.872,1.576-16.048-2.742-9.94-12.894-9.94-12.894S146.247,621.463,153.423,625.781Z" transform="translate(-137.375 -435.205)" fill="#6c63ff"/>
        <rect id="Rectangle_787" data-name="Rectangle 787" width="79.32" height="3.198" transform="translate(220.705 65.263)" fill="#fff"/>
        <rect id="Rectangle_788" data-name="Rectangle 788" width="79.32" height="3.198" transform="translate(220.705 72.299)" fill="#fff"/>
        <rect id="Rectangle_789" data-name="Rectangle 789" width="26.866" height="3.198" transform="translate(220.705 79.335)" fill="#fff"/>
        <rect id="Rectangle_790" data-name="Rectangle 790" width="79.32" height="3.198" transform="translate(57.825 161.284)" fill="#fff"/>
        <rect id="Rectangle_791" data-name="Rectangle 791" width="79.32" height="3.198" transform="translate(57.825 168.321)" fill="#fff"/>
        <rect id="Rectangle_792" data-name="Rectangle 792" width="26.866" height="3.198" transform="translate(57.825 175.357)" fill="#fff"/>
        <rect id="Rectangle_793" data-name="Rectangle 793" width="79.32" height="3.198" transform="translate(202.121 104.497)" fill="#fff"/>
        <rect id="Rectangle_794" data-name="Rectangle 794" width="79.32" height="3.198" transform="translate(202.121 111.534)" fill="#fff"/>
        <rect id="Rectangle_795" data-name="Rectangle 795" width="79.32" height="3.198" transform="translate(202.121 118.417)" fill="#fff"/>
        <rect id="Rectangle_796" data-name="Rectangle 796" width="79.32" height="3.198" transform="translate(202.121 125.301)" fill="#fff"/>
        <rect id="Rectangle_797" data-name="Rectangle 797" width="79.32" height="3.198" transform="translate(202.121 132.184)" fill="#fff"/>
        <rect id="Rectangle_798" data-name="Rectangle 798" width="79.32" height="3.198" transform="translate(202.121 139.067)" fill="#fff"/>
        <rect id="Rectangle_799" data-name="Rectangle 799" width="79.32" height="3.198" transform="translate(202.121 145.95)" fill="#fff"/>
        <rect id="Rectangle_800" data-name="Rectangle 800" width="79.32" height="3.198" transform="translate(202.121 152.834)" fill="#fff"/>
        <rect id="Rectangle_801" data-name="Rectangle 801" width="79.32" height="3.198" transform="translate(202.121 159.717)" fill="#fff"/>
        <rect id="Rectangle_802" data-name="Rectangle 802" width="79.32" height="3.198" transform="translate(202.121 166.6)" fill="#fff"/>
        <rect id="Rectangle_803" data-name="Rectangle 803" width="79.32" height="3.198" transform="translate(202.121 173.483)" fill="#fff"/>
        <path id="Path_3146" data-name="Path 3146" d="M384.026,359.721a28.831,28.831,0,0,1-10.728,22.47,28.5,28.5,0,0,1-3.954,2.695,27.932,27.932,0,0,1-2.588,1.3,28.618,28.618,0,0,1-9.255,2.344q-1.177.1-2.378.1a28.563,28.563,0,0,1-4.729-.389c-.551-.086-1.094-.193-1.631-.317a27.807,27.807,0,0,1-2.777-.771,28.836,28.836,0,0,1-10.142-5.9,26.308,26.308,0,0,1-2.151-2.141,28.9,28.9,0,1,1,50.334-19.387Z" transform="translate(-257.639 -249.292)" fill="#6c63ff"/>
        <path id="Path_3147" data-name="Path 3147" d="M679.061,284.862c.041,9.251-5.444,12.5-12.227,12.535q-.236,0-.47,0-.472-.008-.933-.039c-6.124-.406-10.9-3.781-10.934-12.384-.04-8.9,11.29-20.19,12.139-21.024h0l.049-.048S679.02,275.612,679.061,284.862Z" transform="translate(-466.687 -206.676)" fill="#6c63ff"/>
        <path id="Path_3148" data-name="Path 3148" d="M678.44,295.985l4.465-6.3-4.473,6.986-.009.721q-.472-.008-.933-.039l.443-9.257,0-.072.008-.014.042-.875-4.546-6.963,4.557,6.308.012.185.335-6.994-3.9-7.2,3.939,5.97.316-14.5v0l-.013,11.433,3.827-4.549-3.839,5.534-.074,6.261,3.567-6.024-3.577,6.945-.041,3.482,5.178-8.387-5.193,9.6Z" transform="translate(-478.747 -206.677)" fill="#3f3d56"/>
        <path id="Path_3149" data-name="Path 3149" d="M781.761,378.786a48.183,48.183,0,0,0-48.183,48.182h0a14.111,14.111,0,0,1-14.111,14.111h-23.4a41.988,41.988,0,0,0-41.988,41.988H781.761V378.786Z" transform="translate(-466.421 -279.839)" fill="#3f3d56"/>
        <rect id="Rectangle_804" data-name="Rectangle 804" width="6.195" height="185.849" transform="translate(167.006 17.552)" fill="#2f2e41"/>
        <path id="Path_3150" data-name="Path 3150" d="M372.19,121.137v-4.818a9.981,9.981,0,0,0-19.962,0v4.818H333.3v10.669h57.82V121.137Zm-9.981-12.046a5.851,5.851,0,1,1-5.851,5.851,5.851,5.851,0,0,1,5.851-5.851Z" transform="translate(-262.144 -106.339)" fill="#6c63ff"/>
        <path id="Path_3151" data-name="Path 3151" d="M391.232,404.166s-2.875,8.182-1.106,9.441-5.971,11.539-5.971,11.539l-9.288-2.518,5.086-8.6s.663-8.6.663-9.86S391.232,404.166,391.232,404.166Z" transform="translate(-288.615 -295.645)" fill="#ffb8b8"/>
        <path id="Path_3152" data-name="Path 3152" d="M391.232,404.166s-2.875,8.182-1.106,9.441-5.971,11.539-5.971,11.539l-9.288-2.518,5.086-8.6s.663-8.6.663-9.86S391.232,404.166,391.232,404.166Z" transform="translate(-288.615 -295.645)" opacity="0.1"/>
        <circle id="Ellipse_249" data-name="Ellipse 249" cx="7.553" cy="7.553" r="7.553" transform="translate(89.19 99.5)" fill="#ffb8b8"/>
        <path id="Path_3153" data-name="Path 3153" d="M383.412,457.322a27.8,27.8,0,0,1-2.777-.771l1.445-9.912.447-3.056,2.292.86c.31.114.661.248,1.063.4a2.418,2.418,0,0,0,1.92-.069c2.216-1.015,3.535-4.966,3.535-4.966s.089,1.108.206,2.984c.21,3.294.513,8.959.606,15.143q-1.177.1-2.378.1a28.566,28.566,0,0,1-4.729-.389C384.493,457.553,383.949,457.446,383.412,457.322Z" transform="translate(-292.288 -318.696)" fill="#d0cde1"/>
        <path id="Path_3154" data-name="Path 3154" d="M365.235,429.351l-.644,5.9-.313,2.853-1.094,10.026a27.814,27.814,0,0,1-2.777-.771,28.836,28.836,0,0,1-10.143-5.9l-1.394-4.973a5.883,5.883,0,0,1,.089-.884.013.013,0,0,1,0-.01,6.25,6.25,0,0,1,.172-.771.027.027,0,0,0,0-.01,5.713,5.713,0,0,1,1.411-2.519c1.68-1.68,12.8-6.925,12.8-6.925l.21.441Z" transform="translate(-272.059 -309.499)" fill="#d0cde1"/>
        <path id="Path_3155" data-name="Path 3155" d="M388.1,371.668c1.674-.06,3.466-.089,4.878.813a7.141,7.141,0,0,1,1.686,1.65c1.375,1.738,2.563,3.925,2.052,6.082l-.593-.231a3.883,3.883,0,0,0,.375,1.664c-.083-.243-.363.15-.288.4l.653,2.144a2.018,2.018,0,0,0-2.574,1.536c-.075-2.49-.333-5.345-2.353-6.8a8.138,8.138,0,0,0-3.548-1.159,7.137,7.137,0,0,0-3.44.017,2.474,2.474,0,0,0-1.781,2.629,1.171,1.171,0,0,0-1.32.651,3.418,3.418,0,0,0-.27,1.564c-.539.381-1.152-.375-1.371-1a9,9,0,0,1-.7-4.537,3.46,3.46,0,0,1,3.067-2.984,1.075,1.075,0,0,1-.28-.757l1.276-.108a1.411,1.411,0,0,1-.843-.444C383.241,373.357,387.27,371.7,388.1,371.668Z" transform="translate(-291.517 -275.29)" fill="#2f2e41"/>
        <path id="Path_3156" data-name="Path 3156" d="M414.174,434.072c-.2,1.573-1.318,6.016-2.45,10.287a27.944,27.944,0,0,1-2.588,1.3A28.62,28.62,0,0,1,399.881,448q-1.177.1-2.378.1a28.556,28.556,0,0,1-4.729-.389c.585-2.258,1.373-5.978,2.11-9.623.224-1.1.444-2.2.651-3.245.809-4.123,1.435-7.482,1.435-7.482a17.993,17.993,0,0,1,4-3.036,1.292,1.292,0,0,1,.644-.107c1.229.2,2.908,3.142,2.908,3.142s7.537,2.512,9.3,5.366A2.087,2.087,0,0,1,414.174,434.072Z" transform="translate(-300.018 -308.766)" fill="#d0cde1"/>
        <path id="Path_3157" data-name="Path 3157" d="M353,451.365l-.441,9.416a28.612,28.612,0,0,1-3.621-2.767,26.3,26.3,0,0,1-2.151-2.141c.361-1.587.664-2.922.847-3.717a.013.013,0,0,1,0-.01c.1-.441.158-.712.172-.771a.027.027,0,0,0,0-.01Z" transform="translate(-270.732 -326.059)" fill="#d0cde1"/>
        <path id="Path_3158" data-name="Path 3158" d="M442.9,454.54a28.493,28.493,0,0,1-3.954,2.695,27.94,27.94,0,0,1-2.588,1.3l-.836-4.873.84-9.23,4.684,1.17.351.089Z" transform="translate(-327.241 -321.641)" fill="#d0cde1"/>
      </g>
    </g>
  </g>
</svg>
