<svg xmlns="http://www.w3.org/2000/svg" xmlns:xlink="http://www.w3.org/1999/xlink" width="417.373" height="315.093" viewBox="0 0 417.373 315.093">
  <defs>
    <style>
      .cls-1, .cls-11, .cls-2 {
        fill: #6c63ff;
      }

      .cls-1, .cls-12, .cls-22, .cls-24 {
        opacity: 0.1;
      }

      .cls-3 {
        fill: #444053;
      }

      .cls-4, .cls-5 {
        fill: none;
        stroke: #444053;
        stroke-miterlimit: 10;
      }

      .cls-5 {
        stroke-width: 0.75px;
      }

      .cls-6 {
        fill: url(#linear-gradient);
      }

      .cls-7 {
        fill: #fff;
      }

      .cls-10, .cls-24, .cls-8, .cls-9 {
        fill: #5a5773;
      }

      .cls-8 {
        opacity: 0.04;
      }

      .cls-10, .cls-11 {
        opacity: 0.2;
      }

      .cls-13 {
        fill: #ffd037;
      }

      .cls-14 {
        fill: #65617d;
      }

      .cls-15 {
        fill: #9d9cb5;
      }

      .cls-16 {
        fill: url(#linear-gradient-2);
      }

      .cls-17 {
        fill: #fbbebe;
      }

      .cls-18 {
        fill: #e7effd;
      }

      .cls-19 {
        fill: #3f3d56;
      }

      .cls-20 {
        fill: #5f5d7e;
      }

      .cls-21 {
        fill: #7c5c5c;
      }

      .cls-23 {
        fill: #e6e8ec;
      }

      .cls-25 {
        fill: url(#linear-gradient-3);
      }

      .cls-26 {
        fill: #2d293d;
      }

      .cls-27 {
        fill: #575988;
      }

      .cls-28, .cls-29 {
        opacity: 0.05;
      }

      .cls-30 {
        fill: #ffcdd3;
      }

      .cls-31 {
        fill: #dce6f2;
      }

      .cls-32 {
        fill: #656691;
      }
    </style>
    <linearGradient id="linear-gradient" x1="0.5" y1="1" x2="0.5" gradientUnits="objectBoundingBox">
      <stop offset="0" stop-color="gray" stop-opacity="0.251"/>
      <stop offset="0.54" stop-color="gray" stop-opacity="0.122"/>
      <stop offset="1" stop-color="gray" stop-opacity="0.102"/>
    </linearGradient>
    <linearGradient id="linear-gradient-2" x1="0.5" y1="1" x2="0.5" y2="0" xlink:href="#linear-gradient"/>
    <linearGradient id="linear-gradient-3" x1="3.499" y1="1.031" x2="3.499" y2="0.019" xlink:href="#linear-gradient"/>
  </defs>
  <g id="Group_88" data-name="Group 88" transform="translate(0 0.077)">
    <ellipse id="Ellipse_252" data-name="Ellipse 252" class="cls-1" cx="36.552" cy="9.029" rx="36.552" ry="9.029" transform="translate(337.235 295.453)"/>
    <ellipse id="Ellipse_253" data-name="Ellipse 253" class="cls-1" cx="36.552" cy="9.029" rx="36.552" ry="9.029" transform="translate(14.579 296.958)"/>
    <path id="Path_3217" data-name="Path 3217" class="cls-2" d="M544,109.85s-5.137-2.085-21.472,5.411-18.387,6.539-22.608,5.393-6.572-1.417-11.121-7.667c0,0-3.2-17.336-6.291-20.023s-16.248,1.53-16.248,1.53S450.5,98.111,447.49,77.037c0,0,2.132-15.886-.77-20.76,0,0,5.842,2.53,15.532-1.552s17.412,4.381,17.412,4.381,2.439,6.316,2.191,10.081,1.289,5.177,5.9,3.359c0,0,2.264-3.224-.946-8.551s-5.5-9.3-4.6-13.436,3.469-9.858,11.742-12.743,19.512-3.425,24.908-5.67,6.7-3.706,6.7-3.706-3.326,3.337,4.506,17.434,2.837,20.22,2.837,20.22-4.162,9.917-22.528,9.128c0,0-17.7.646-8.033,8.153,0,0,6.181-1.26,15.419-4.2s15.908,9.183,17.562,17.617S544,109.85,544,109.85Z" transform="translate(-293.996 -24.874)"/>
    <path id="Path_3218" data-name="Path 3218" class="cls-3" d="M623.754,57.706l.1-.026c.708,2.691-7.2,13.509-13.962,22.1l-.08-.062C619.351,67.593,624.305,59.776,623.754,57.706Z" transform="translate(-397.54 -43.438)"/>
    <path id="Path_3219" data-name="Path 3219" class="cls-3" d="M576.691,117.55l.04.11c-5.4,6.868-12.191,15.061-17.628,21.129-.519.581-1.033,1.187-1.53,1.807l-.153-.128c.5-.621,1.015-1.23,1.534-1.826C564.386,132.593,571.294,124.414,576.691,117.55Z" transform="translate(-364.278 -81.449)"/>
    <path id="Path_3220" data-name="Path 3220" class="cls-3" d="M535.921,179.88l.106.183c-9.895,12.352-10.548,31.531-10.588,31.7l-2.088-2.41C523.394,209.184,525.957,192.316,535.921,179.88Z" transform="translate(-342.647 -121.021)"/>
    <path id="Path_3221" data-name="Path 3221" class="cls-4" d="M547.843,162.664s-11.684-6.065-20.757-3.888-29.574-7.689-29.574-7.689-8.693-3.534-10.439-7.558c0,0-5.962-6.3-6.3-9.566s-6.145-11.465-9.931-11.782" transform="translate(-309.309 -84.388)"/>
    <path id="Path_3222" data-name="Path 3222" class="cls-4" d="M667.993,234.149s-5.886-3.958-5.192-8.569" transform="translate(-431.147 -150.036)"/>
    <path id="Path_3223" data-name="Path 3223" class="cls-4" d="M636.355,236.96s-8.4-3.052-9.245-15.01" transform="translate(-408.523 -147.731)"/>
    <path id="Path_3224" data-name="Path 3224" class="cls-4" d="M605.029,239.713a18.8,18.8,0,0,1-5.364-18.3" transform="translate(-390.754 -147.388)"/>
    <path id="Path_3225" data-name="Path 3225" class="cls-4" d="M566.224,230.438s-5.349-11.213-.592-18.508" transform="translate(-368.24 -141.369)"/>
    <path id="Path_3226" data-name="Path 3226" class="cls-4" d="M673.5,212.82s-6.079,1.928-4.776,5.112" transform="translate(-434.825 -141.934)"/>
    <path id="Path_3227" data-name="Path 3227" class="cls-4" d="M647.525,182.61s-8.131,2.581-8.325,14.082" transform="translate(-416.199 -122.755)"/>
    <path id="Path_3228" data-name="Path 3228" class="cls-4" d="M619.034,175.34s-7.4,9.128-6.853,17.434" transform="translate(-399.026 -118.139)"/>
    <path id="Path_3229" data-name="Path 3229" class="cls-4" d="M584.188,185.15s-7.35,7.025-6.411,10.935" transform="translate(-377.149 -124.367)"/>
    <path id="Path_3230" data-name="Path 3230" class="cls-4" d="M569.677,176.566s-6.893,1.238-7.857-1.026" transform="translate(-367.071 -118.266)"/>
    <path id="Path_3231" data-name="Path 3231" class="cls-4" d="M558.81,155.56s3.483,4.611,4.381,3.578" transform="translate(-365.16 -105.581)"/>
    <path id="Path_3232" data-name="Path 3232" class="cls-4" d="M616.308,140.656S598.936,141.908,595,136.68" transform="translate(-388.137 -93.594)"/>
    <path id="Path_3233" data-name="Path 3233" class="cls-4" d="M548.8,91.91s8.153,17.5,14.072,19.716" transform="translate(-358.805 -65.17)"/>
    <path id="Path_3234" data-name="Path 3234" class="cls-4" d="M572.22,69.08s5.009,16.1,11.213,21.122" transform="translate(-373.674 -50.676)"/>
    <path id="Path_3235" data-name="Path 3235" class="cls-5" d="M636.618,111.076s-13.214,5.67-21.147-.066" transform="translate(-401.133 -77.297)"/>
    <path id="Path_3236" data-name="Path 3236" class="cls-5" d="M604.46,59.68s3.02,11.833,7.087,14.692" transform="translate(-394.143 -44.708)"/>
    <path id="Path_3237" data-name="Path 3237" class="cls-5" d="M650.188,74.89s-7.423,2.811-10.2.657" transform="translate(-416.7 -54.365)"/>
    <path id="Path_3238" data-name="Path 3238" class="cls-4" d="M536.508,166.15s0,10.314-2.808,11.048" transform="translate(-349.218 -112.304)"/>
    <path id="Path_3239" data-name="Path 3239" class="cls-4" d="M478.52,194.408s11.151.957,16.3-4.8" transform="translate(-314.185 -127.199)"/>
    <path id="Path_3240" data-name="Path 3240" class="cls-4" d="M515.873,132.78s-2.7,10.461-10.143,13.279" transform="translate(-331.461 -91.118)"/>
    <path id="Path_3241" data-name="Path 3241" class="cls-4" d="M460.2,165.193a14.6,14.6,0,0,0,14.681-4.243" transform="translate(-302.554 -109.003)"/>
    <path id="Path_3242" data-name="Path 3242" class="cls-4" d="M499.775,108.15s-.73,8.883-5.575,13.042" transform="translate(-324.14 -75.481)"/>
    <path id="Path_3243" data-name="Path 3243" class="cls-4" d="M461,131.858s6.55.047,8.084-2.088" transform="translate(-303.062 -89.207)"/>
    <path id="Path_3244" data-name="Path 3244" class="cls-1" d="M249.282,68.68c-26.069,4.349-52.179,2.008-77.313-1.234s-50.211-7.383-76.335-6.572c-16.8.526-35.478,3.826-47.1,13.955C37.355,84.573,35.756,97.9,35.862,109.945c.08,9.062.931,18.449,7.069,25.737,4.261,5.057,10.775,8.73,15.7,13.407,17.16,16.277,12.293,41.492,1.428,62.844-5.112,10.019-11.359,19.851-14.787,30.122s-3.768,21.334,2.687,29.837c6.4,8.431,18.654,13.287,31.4,15.89,25.883,5.283,54.61,2.556,82.4-1.238,61.5-8.438,122.314-22.086,182.952-35.708,22.444-5.039,44.986-10.106,66.579-17.526,11.99-4.111,24.189-9.285,31.867-17.467,9.745-10.388,9.833-24.726.2-33.423-16.153-14.6-52.288-11.859-64.844-28.479-6.915-9.128-4.1-21.4,1.183-32.192,11.319-23.148,33.5-45.877,30.3-69.138-2.191-15.977-17.664-29.355-38.22-33.054-21.542-3.874-49.075,2.6-61.259,18.482C297.974,54.44,272.3,64.846,249.282,68.68Z" transform="translate(-33.145 -18.54)"/>
    <rect id="Rectangle_839" data-name="Rectangle 839" class="cls-6" width="346.98" height="196.552" rx="12.49" transform="translate(27.855 54.758)"/>
    <rect id="Rectangle_840" data-name="Rectangle 840" class="cls-7" width="345.917" height="193.135" rx="12.49" transform="translate(28.406 57.522)"/>
    <rect id="Rectangle_841" data-name="Rectangle 841" class="cls-7" width="345.917" height="193.135" rx="12.49" transform="translate(28.406 57.522)"/>
    <rect id="Rectangle_842" data-name="Rectangle 842" class="cls-8" width="345.917" height="193.135" rx="12.49" transform="translate(28.406 57.522)"/>
    <path id="Path_3245" data-name="Path 3245" class="cls-9" d="M450.366,170.15H107.946a1.756,1.756,0,0,0-1.756,1.756v7.426H452.107v-7.412A1.756,1.756,0,0,0,450.366,170.15Z" transform="translate(-77.799 -114.844)"/>
    <g id="buttons" transform="translate(32.941 57.522)">
      <circle id="Ellipse_254" data-name="Ellipse 254" class="cls-7" cx="2.373" cy="2.373" r="2.373"/>
      <circle id="Ellipse_255" data-name="Ellipse 255" class="cls-7" cx="2.373" cy="2.373" r="2.373" transform="translate(6.39)"/>
      <circle id="Ellipse_256" data-name="Ellipse 256" class="cls-7" cx="2.373" cy="2.373" r="2.373" transform="translate(12.779)"/>
    </g>
    <rect id="Rectangle_843" data-name="Rectangle 843" class="cls-7" width="288.441" height="143.41" rx="10.19" transform="translate(51.562 107.244)"/>
    <rect id="Rectangle_844" data-name="Rectangle 844" class="cls-10" width="82.969" height="8.708" rx="3.86" transform="translate(39.33 74.234)"/>
    <rect id="Rectangle_845" data-name="Rectangle 845" class="cls-11" width="82.969" height="8.708" rx="3.86" transform="translate(195.782 123.889)"/>
    <rect id="Rectangle_846" data-name="Rectangle 846" class="cls-11" width="129.554" height="8.708" rx="3.86" transform="translate(195.782 148.272)"/>
    <rect id="Rectangle_847" data-name="Rectangle 847" class="cls-11" width="129.554" height="8.708" rx="3.86" transform="translate(195.782 162.511)"/>
    <rect id="Rectangle_848" data-name="Rectangle 848" class="cls-11" width="129.554" height="8.708" rx="3.86" transform="translate(195.782 176.751)"/>
    <rect id="Rectangle_849" data-name="Rectangle 849" class="cls-11" width="129.554" height="8.708" rx="3.86" transform="translate(195.782 190.99)"/>
    <rect id="Rectangle_850" data-name="Rectangle 850" class="cls-11" width="258.136" height="8.708" rx="3.86" transform="translate(67.199 206.69)"/>
    <rect id="Rectangle_851" data-name="Rectangle 851" class="cls-11" width="258.136" height="8.708" rx="3.86" transform="translate(67.199 220.93)"/>
    <rect id="Rectangle_852" data-name="Rectangle 852" class="cls-11" width="258.136" height="8.708" rx="3.86" transform="translate(67.199 235.169)"/>
    <path id="Path_3246" data-name="Path 3246" class="cls-2" d="M747.373,678.54s2.165,2.83-1,7.105-5.772,7.883-4.717,10.548c0,0,4.772-7.938,8.661-8.033S751.649,683.312,747.373,678.54Z" transform="translate(-481.095 -437.613)"/>
    <path id="Path_3247" data-name="Path 3247" class="cls-12" d="M747.585,678.54a3.512,3.512,0,0,1,.442.887c3.794,4.454,5.813,8.613,2.169,8.715-3.4.1-7.47,6.17-8.445,7.7a2.832,2.832,0,0,0,.117.365s4.772-7.938,8.661-8.033S751.86,683.312,747.585,678.54Z" transform="translate(-481.306 -437.613)"/>
    <path id="Path_3248" data-name="Path 3248" class="cls-13" d="M767.887,687.312c0,1-.109,1.8-.248,1.8s-.248-.807-.248-1.8.139-.526.278-.526S767.887,686.316,767.887,687.312Z" transform="translate(-497.585 -442.778)"/>
    <path id="Path_3249" data-name="Path 3249" class="cls-13" d="M769.567,690.459c-.876.475-1.639.763-1.705.643s.591-.606,1.46-1.1.529-.131.6,0S770.44,689.98,769.567,690.459Z" transform="translate(-497.882 -444.734)"/>
    <path id="Path_3250" data-name="Path 3250" class="cls-2" d="M717.961,678.54s-2.165,2.83,1,7.105,5.776,7.883,4.721,10.548c0,0-4.776-7.938-8.661-8.033S713.686,683.312,717.961,678.54Z" transform="translate(-463.118 -437.613)"/>
    <path id="Path_3251" data-name="Path 3251" class="cls-12" d="M717.961,678.54a3.427,3.427,0,0,0-.445.887c-3.79,4.454-5.809,8.613-2.165,8.715,3.4.1,7.467,6.17,8.441,7.7a2.787,2.787,0,0,1-.113.365s-4.776-7.938-8.661-8.033S713.686,683.312,717.961,678.54Z" transform="translate(-463.118 -437.613)"/>
    <path id="Path_3252" data-name="Path 3252" class="cls-13" d="M715.38,687.319c0,1,.113,1.8.252,1.8s.248-.807.248-1.8-.139-.519-.274-.519S715.38,686.322,715.38,687.319Z" transform="translate(-464.564 -442.785)"/>
    <path id="Path_3253" data-name="Path 3253" class="cls-13" d="M710.679,690.459c.876.475,1.639.763,1.705.643s-.591-.606-1.46-1.1-.529-.131-.6,0S709.8,689.98,710.679,690.459Z" transform="translate(-461.243 -444.734)"/>
    <ellipse id="Ellipse_257" data-name="Ellipse 257" class="cls-1" cx="22.637" cy="3.472" rx="22.637" ry="3.472" transform="translate(237.924 273.291)"/>
    <path id="Path_3254" data-name="Path 3254" class="cls-14" d="M733.455,714.161l-.11.884-.15,1.249-.066.522-.15,1.249-.066.522-.153,1.245-1.731,14.2c-.157,1.267-2.227,2.256-4.747,2.256H717.3c-2.5,0-4.568-.99-4.721-2.256l-1.738-14.192-.15-1.245-.066-.522-.153-1.249-.062-.522-.153-1.249-.109-.884c-.084-.73,1.037-1.322,2.45-1.322H731C732.414,712.839,733.535,713.441,733.455,714.161Z" transform="translate(-461.236 -459.396)"/>
    <path id="Path_3255" data-name="Path 3255" class="cls-15" d="M705.106,700.32l-.15,1.249H682.173l-.153-1.249Z" transform="translate(-433.004 -444.672)"/>
    <path id="Path_3256" data-name="Path 3256" class="cls-15" d="M705.265,705.16l-.15,1.249H682.763l-.153-1.249Z" transform="translate(-433.379 -447.744)"/>
    <path id="Path_3257" data-name="Path 3257" class="cls-15" d="M705.431,710.01l-.153,1.249H683.36l-.15-1.249Z" transform="translate(-433.76 -450.824)"/>
    <rect id="Rectangle_853" data-name="Rectangle 853" class="cls-11" width="110.265" height="80.888" rx="8.5" transform="translate(67.199 119.059)"/>
    <path id="Path_3258" data-name="Path 3258" class="cls-16" d="M1032.661,513.624c.139-.365-.891-2.454-.891-2.556s-1.062-1.26-1.062-1.906-1.406-2.045-1.406-2.045a3.546,3.546,0,0,1-2.092-2.486c-.2-1.705-2.26-1.734-2.264-1.734h0v-.391a5.377,5.377,0,0,0-.252-1.99,2,2,0,0,0-1.165-.989,4.406,4.406,0,0,0-.617-1.738,1.953,1.953,0,0,1-.482-1.826c.208-.643-.274-2.278-1.267-2.519s-2.129-.613-2.129-.613l-.274.047-.135-.047a5.7,5.7,0,0,1-.73.091.9.9,0,0,1-.581-.19,12.087,12.087,0,0,0-3.651-1.1,8.348,8.348,0,0,1-1.99-.683s-1.03-.781-1.46-1.125a9.585,9.585,0,0,1-1.293-1.778v-.026h0a6.277,6.277,0,0,1-.31-.895h0a8.052,8.052,0,0,0,1.274-1.756c.036-.066.069-.131.1-.2a.767.767,0,0,0,.223-.033l.091-.037a1.482,1.482,0,0,0,.73-.869h0a2.285,2.285,0,0,0,.066-.226v-.077l.033-.153a.75.75,0,0,1,0-.088l.022-.153v-.088a.507.507,0,0,1,.026-.194h0a6.818,6.818,0,0,1,.106-.73h0a13.171,13.171,0,0,1,1.154-2.556h0c.055-.12.11-.245.157-.365s.095-.274.135-.413l.033-.128c.026-.1.047-.2.069-.307s0-.091.026-.139q.033-.208.055-.427a5.281,5.281,0,0,0-.365-2.391c-.255-.639-.639-1.216-.9-1.855-.394-.968-.5-2.067-.978-2.99a3.56,3.56,0,0,0-4.272-1.738c-.73.277-1.395.814-2.151,1.055a7.166,7.166,0,0,1-3.147-.062,3.925,3.925,0,0,0-3.052.526c-.971.789-1.234,2.271-2.147,3.136-.365.365-.858.6-1.263.931a2.062,2.062,0,0,0-.635.869l-.022.069a.651.651,0,0,0-.022.091.854.854,0,0,0-.018.1.425.425,0,0,0,0,.069.767.767,0,0,0,0,.183h0a1.428,1.428,0,0,0,.026.172v.047a.427.427,0,0,0,.044.142c.018.047,0,.018,0,.026s.04.106.062.157l.033.077a.061.061,0,0,0,.029.062,4.549,4.549,0,0,1,.318.792.88.88,0,0,1-.033.522,1.542,1.542,0,0,1-.365.5,7.064,7.064,0,0,0-1.548,2.479q-.062.161-.109.318h.047a2.058,2.058,0,0,0,.3.062,1.462,1.462,0,0,0,.172,0,2.676,2.676,0,0,0,.7-.051l.175-.044a3.974,3.974,0,0,0,.694-.252v.325a8.1,8.1,0,0,0,4.5,7.244,1.5,1.5,0,0,0,.029.219l.022.186-.091-.088s-.617-.307-1.2.577a3.877,3.877,0,0,1-1.679,1.3s-6.244.986-6.484,1.8l-2.921.172s-1.03.135-1.132,2.282-.65,2.348-.65,2.348-1.2,2.114-1.1,3.2a1.786,1.786,0,0,1-.927,1.636l-.135,1.942a1.34,1.34,0,0,0-1.46,1.157,4.618,4.618,0,0,1-.854,1.939s-1.887,1.57-1.99,2.9l-1.168.73s-2.709-.613-3.326-1.7c0,0-.073-.073-.19-.179v-.026h0a11,11,0,0,0-1.132-1,.822.822,0,0,1,.055.548l-.2-.223-.54-.6s-4.381-4.1-6.937-4.429h0c-.033-.066-.2-.73-.639-.31a3.578,3.578,0,0,0-.026,5.247l4.1,3.83.106.077.88,1.132a10.239,10.239,0,0,0-.365,1.015v.033l-.066.2a.453.453,0,0,0-.018.066c-.022.066-.04.128-.058.19l-.033.11v.066c-.1.343-.161.606-.19.752l-.23-.073.223.1v.106l.212.091c1.2.522,7.2,3.155,7.5,3.553a4.413,4.413,0,0,0,4.666.646,4.913,4.913,0,0,0,2.5-2.757,28.794,28.794,0,0,0,2.059-3.169c.069-.409,1.61-.884,1.61-.884s.139,4.56-.65,6.233-2.264,9.058-2.264,9.058a1.045,1.045,0,0,1,.292,0l-.088.427a.992.992,0,0,1,.365,0c-.109.84-.73,4.746-.73,4.746a9.726,9.726,0,0,1-.548,2.384,17.071,17.071,0,0,0-.365,3.816l-.551,2.315s.073.161.208.4h0a5.925,5.925,0,0,0,1.577,2.041,4.036,4.036,0,0,1-.277,1.059,3.725,3.725,0,0,0-.274,1.636,21.249,21.249,0,0,0-.515,3.37,12.876,12.876,0,0,1-.365,2.589l-.617,5.926a56.078,56.078,0,0,0-.2,6.539,12.554,12.554,0,0,1-.139,3.286s.413,4.053.31,4.495a8.384,8.384,0,0,0-.31,3.407,18.6,18.6,0,0,1,.139,3.951s.2,3.815.445,5.042a8.632,8.632,0,0,1-.069,2.793,23.018,23.018,0,0,1-.343,2.622c-.1,0-.993,1.8.821,3.574s.69,1.5.69,1.5-1.46-.73-1.271.752c.161,1.391.387,1.03.409.99l-.343,1.121.241.033-.2.237a5.118,5.118,0,0,1-.694.73,1.487,1.487,0,0,0-.445.986,26.747,26.747,0,0,1-4.9,4.155,14.181,14.181,0,0,0-2.786,1.873c-.424.46-.365.833.522,1.125a13.362,13.362,0,0,0,7.441.135,8.7,8.7,0,0,0,3.651-2.348,5.167,5.167,0,0,1,2.921-.478c1.46.274,4.323-1.6,4.323-1.6l-.055-.482-.15-1.395a1.1,1.1,0,0,1-.241-.847,4.378,4.378,0,0,0-.12-1.227c-.026-.135-.051-.27-.077-.394l.263-.051s-.34-1.734.278-2.078.442-4.8.442-4.8a5.384,5.384,0,0,0-1.2-1.19c-.413-.168-.036-2.286.036-2.556s.617-5.553.617-5.553a7.11,7.11,0,0,1,.066-2.38c.274-.716-.343-3.476-.343-3.476a.635.635,0,0,1,.172-.748c.365-.409.241-4.053.241-4.053s-.033-1.826-.033-2.318a8.225,8.225,0,0,1,.789-2.789,5.363,5.363,0,0,0,.135-2.384h0l.022-.135a.508.508,0,0,1,.029-.193l.029-.183a26.555,26.555,0,0,1,.672-2.957c.445-1.428.96-3.947.96-3.947l3.187-8.317.036-.1a13.135,13.135,0,0,1,1.46,5.247,33.1,33.1,0,0,1,.277,3.848c-.088.818.237,4.662.237,4.662s.445,5.517.445,5.754a33.886,33.886,0,0,0,.895,5.144c.343.65-.343,2.622-.551,2.826a42.905,42.905,0,0,0,.069,5.21s-.515,3.951-.617,4.768-.515,3.951-.172,5.177.2,1.395.2,1.395,1.238,1.263.515,1.366a1.888,1.888,0,0,0-1.373,2.483,32.724,32.724,0,0,0,1.512,3.651l.57-.12v.405l.04,2.03a11.834,11.834,0,0,1,.1,2.384c-.1.321-.237,1.847-.3,2.647-.026.292-.04.486-.04.486s0,1.8,3.808,1.26,4.491-2.045,4.491-2.045l.029-.186c.055-.343.179-1.073.281-1.482.135-.544-1.1-3-1.1-3a6.219,6.219,0,0,0-.548-2.041,1.825,1.825,0,0,1-.277-.73c-.029-.139-.058-.281-.08-.42a2.468,2.468,0,0,1,.256.044s-.208-1.19.584-1.566a1.122,1.122,0,0,0,.478-1.5,11.561,11.561,0,0,1,.307-2.249,1.1,1.1,0,0,1,.274-1.1c.482-.478.858-3.815.858-3.815l.069-12.874a12.38,12.38,0,0,0-.033-3.2c-.274-.92-.548-2.691-.172-3.169s.033-2.687.033-2.687,0-4.666.515-5.842.343-8.482.343-8.482l.135-4.8s1.121-1.059.858-6.572a8.936,8.936,0,0,1,2.746.047c.365.307,2.811,1.873,4.254.884a19.093,19.093,0,0,0,1.712-1.325l-.606-10.223.606.946c0-1.428,4.049-6.061,4.049-6.061a65.409,65.409,0,0,1,4.593-5.448c.822-.577,2.435-3.651,2.435-3.651a14.825,14.825,0,0,1,.825-1.7C1033.76,515.632,1032.526,514,1032.661,513.624Zm-8.847,3.574c-1.029.1-3.191,2.454-3.224,2.965a2.1,2.1,0,0,1-.456.913c0-.2-.033-.413-.051-.624a62.927,62.927,0,0,1-.365-7.032,20.784,20.784,0,0,0,.135-3.374h0l.04-.055a17.354,17.354,0,0,0,2.837,4.659s.365,1.1.825,1.121S1023.814,517.2,1023.814,517.2Z" transform="translate(-621.888 -304.604)"/>
    <path id="Path_3259" data-name="Path 3259" class="cls-14" d="M978.65,587.382s1.252-6.572,5.272-6.572l2.943,6.05-1.961,1.351S980.644,588.328,978.65,587.382Z" transform="translate(-631.711 -375.566)"/>
    <path id="Path_3260" data-name="Path 3260" class="cls-12" d="M986.865,586.823l-1.961,1.351a23.215,23.215,0,0,1-5.141-.431,5.921,5.921,0,0,1-1.114-.365l.022-.106v-.022a14.6,14.6,0,0,1,.76-2.41c.124-.3.263-.6.416-.9a6.114,6.114,0,0,1,2.556-2.793,3.463,3.463,0,0,1,1.34-.365h.179l.066.135.993,2.045Z" transform="translate(-631.711 -375.547)"/>
    <path id="Path_3261" data-name="Path 3261" class="cls-14" d="M1087.258,639.326s4.224-.405,4.6-.1,2.771,1.858,4.188.876.475-4.381.475-4.527-.135-4.969-.135-4.969l-2.534-3.414-3.177-5.981-6.492-.643.168,9.493-.033,4.867Z" transform="translate(-698.71 -400.809)"/>
    <path id="Path_3262" data-name="Path 3262" class="cls-12" d="M1087.258,639.326s4.224-.405,4.6-.1,2.771,1.858,4.188.876.475-4.381.475-4.527-.135-4.969-.135-4.969l-2.534-3.414-3.177-5.981-6.492-.643.168,9.493-.033,4.867Z" transform="translate(-698.71 -400.809)"/>
    <path id="Path_3263" data-name="Path 3263" class="cls-17" d="M974,569.48s-.34,4.122-2.921,4.192c0,0-.73-.438-1.709-1.172-2.256-1.69-5.842-4.936-4.849-7.956,1.42-4.327,8.314,3.651,8.314,3.651l.533.6Z" transform="translate(-622.634 -364.422)"/>
    <path id="Path_3264" data-name="Path 3264" class="cls-12" d="M982.349,579.075s-.339,4.122-2.921,4.191c0,0-.73-.438-1.709-1.172l-.219-.281a3.364,3.364,0,0,0,1.409.365,1.9,1.9,0,0,0,1.826-1.158,14.587,14.587,0,0,0,.73-1.639,5.1,5.1,0,0,0,.259-1.011Z" transform="translate(-630.98 -374.017)"/>
    <path id="Path_3265" data-name="Path 3265" class="cls-18" d="M981.612,585.968l-.577-.73-1.946-2.5-.989-1.282a3.336,3.336,0,0,0,1.406.365,1.891,1.891,0,0,0,1.826-1.157,14.309,14.309,0,0,0,.712-1.636c.321-.913.314-1.38.2-1.541a9.039,9.039,0,0,1,1.117.993h0l.186.175.069.139,1.019,1.972a.507.507,0,0,1,0,.084C984.708,581.466,985.037,585.405,981.612,585.968Z" transform="translate(-631.361 -373.439)"/>
    <path id="Path_3266" data-name="Path 3266" class="cls-14" d="M1010.466,829.566s-2.841,1.862-4.261,1.588a5.11,5.11,0,0,0-2.873.475,8.529,8.529,0,0,1-3.582,2.333,13.122,13.122,0,0,1-7.335-.135c-.862-.289-.931-.661-.515-1.117a15.58,15.58,0,0,1,2.746-1.858,26.546,26.546,0,0,0,4.834-4.122,1.461,1.461,0,0,1,.438-.982,5.035,5.035,0,0,0,.683-.73c.365-.427.7-.876.7-.876l8.365.314s.142.6.256,1.22a4.41,4.41,0,0,1,.117,1.216,1.1,1.1,0,0,0,.237.844l.15,1.38Z" transform="translate(-639.966 -530.052)"/>
    <path id="Path_3267" data-name="Path 3267" class="cls-14" d="M1076.252,833.059c-.1.405-.223,1.128-.277,1.46a.614.614,0,0,1-.026.186s-.676,1.486-4.429,2.026-3.75-1.249-3.75-1.249l.036-.486c.066-.789.2-2.3.3-2.625a11.989,11.989,0,0,0-.1-2.366l-.04-2.015-.029-1.4,6.207-.643a12.043,12.043,0,0,0,.2,1.384,1.783,1.783,0,0,0,.274.73,6.251,6.251,0,0,1,.54,2.026S1076.4,832.518,1076.252,833.059Z" transform="translate(-688.291 -531.201)"/>
    <path id="Path_3268" data-name="Path 3268" class="cls-12" d="M1025.172,824.524s.142.6.255,1.219c-.9.164-4.845.847-5.842.365a15.468,15.468,0,0,0-3.516-.843l.04-.139c.365-.427.7-.876.7-.876Z" transform="translate(-655.468 -530.122)"/>
    <path id="Path_3269" data-name="Path 3269" class="cls-12" d="M1074.679,827.364c-1.574-.266-5.031.365-6.39.657l-.029-1.4,6.207-.643A12.007,12.007,0,0,0,1074.679,827.364Z" transform="translate(-688.602 -531.221)"/>
    <path id="Path_3270" data-name="Path 3270" class="cls-19" d="M1043.976,653.772l-.131,4.747s.168,7.266-.34,8.4-.507,5.78-.507,5.78.34,2.191-.033,2.669-.1,2.231.168,3.144a12.354,12.354,0,0,1,.033,3.176l-.066,12.779s-.365,3.312-.847,3.786a1.113,1.113,0,0,0-.27,1.1,11.392,11.392,0,0,0-.3,2.231,1.122,1.122,0,0,1-.471,1.486c-.774.372-.577,1.555-.577,1.555-1.858-.442-7.131.73-7.131.73a32.3,32.3,0,0,1-1.49-3.618,1.873,1.873,0,0,1,1.354-2.468c.708-.1-.507-1.351-.507-1.351s.135-.168-.2-1.387.069-4.327.172-5.137.606-4.746.606-4.746a43.027,43.027,0,0,1-.066-5.17c.2-.2.876-2.165.54-2.8a33.843,33.843,0,0,1-.88-5.112c0-.245-.438-5.714-.438-5.714a45.576,45.576,0,0,1-.3-4.63,29.85,29.85,0,0,0-.274-3.819,12.978,12.978,0,0,0-1.461-5.207l-.036.1-3.14,8.31s-.507,2.5-.946,3.921a25.759,25.759,0,0,0-.661,2.921l-.029.183-.029.19-.022.135h0a5.409,5.409,0,0,1-.139,2.366,8.439,8.439,0,0,0-.774,2.771c0,.475.033,2.3.033,2.3s.135,3.615-.237,4.016a.632.632,0,0,0-.168.73s.606,2.738.336,3.447a7.127,7.127,0,0,0-.066,2.366s-.54,5.239-.61,5.51-.438,2.366-.033,2.534a5.409,5.409,0,0,1,1.183,1.183s.168,4.429-.438,4.765-.274,2.063-.274,2.063-4.9.946-6.013.405a15.427,15.427,0,0,0-3.516-.844l.336-1.1c-.022.04-.245.4-.4-.982-.172-1.46,1.249-.73,1.249-.73s1.117.27-.675-1.486-.913-3.549-.811-3.549a22.685,22.685,0,0,0,.336-2.6,8.6,8.6,0,0,0,.069-2.771c-.237-1.216-.438-5-.438-5a18.319,18.319,0,0,0-.139-3.921,8.311,8.311,0,0,1,.307-3.381c.1-.46-.307-4.462-.307-4.462a12.517,12.517,0,0,0,.139-3.286,55.469,55.469,0,0,1,.2-6.492l.61-5.878a12.15,12.15,0,0,0,.365-2.556,20.49,20.49,0,0,1,.507-3.344,3.711,3.711,0,0,1,.27-1.625,12.484,12.484,0,0,0,.475-2.921l3.246-7.434,1.588-6.572,21.462-.2s.077.57.208,1.6.314,2.556.518,4.451c.186,1.716.391,3.735.591,5.981C1045.331,652.487,1043.976,653.772,1043.976,653.772Z" transform="translate(-654.384 -408.866)"/>
    <path id="Path_3271" data-name="Path 3271" class="cls-17" d="M1070.173,517.776l-5,5.349s-6.419-2.556-5.743-3.45a5,5,0,0,0,.069-2.6c-.238-1.873-.73-4.016-.73-4.016s11.22-1.826,10.271.066a3.112,3.112,0,0,0-.069,2.246,8.5,8.5,0,0,0,1.2,2.4Z" transform="translate(-682.578 -332.051)"/>
    <path id="Path_3272" data-name="Path 3272" class="cls-12" d="M1069.026,513.078c-.343.694-.508.76-.292,1.5-1.46,1.574-3.334,3.286-5.656,3.286a8,8,0,0,1-3.578-.84c-.237-1.873-.73-4.016-.73-4.016S1069.975,511.187,1069.026,513.078Z" transform="translate(-682.577 -332.019)"/>
    <path id="Path_3273" data-name="Path 3273" class="cls-17" d="M1064.631,491.042a8.045,8.045,0,1,1-16.091,0v-.117a8.044,8.044,0,0,1,16.087.117Z" transform="translate(-676.083 -313.429)"/>
    <path id="Path_3274" data-name="Path 3274" class="cls-12" d="M1056.452,642.753c-1.066,0-4.615.036-8.58.1h-.047l-1.311.022h-.04c-4.7.073-9.336-.843-11.2-.672-3.954.365,1.42-3.651,1.42-3.651a33.152,33.152,0,0,0,9.007.909l1.139-.058a49.838,49.838,0,0,0,9.091-1.1C1056.065,639.347,1056.247,640.866,1056.452,642.753Z" transform="translate(-666.739 -412.072)"/>
    <path id="Path_3275" data-name="Path 3275" class="cls-20" d="M1056.452,642.2c-1.066,0-4.615.04-8.58.1h-.047l-1.311.022h-.04c-4.7.077-9.336-.843-11.2-.668-3.954.365,1.42-3.651,1.42-3.651a33,33,0,0,0,9.007.909l1.139-.058a49.5,49.5,0,0,0,9.091-1.1C1056.065,638.793,1056.247,640.312,1056.452,642.2Z" transform="translate(-666.739 -411.723)"/>
    <path id="Path_3276" data-name="Path 3276" class="cls-12" d="M1045.508,531.384,1039.3,534.3l-4.8,37.11s2.841-1.285,4.462-.475,6.623.069,6.623.069,3.651-.2,4.192.2,6.9-1.691,6.9-1.691,1.15-2.556.27-2.976.27-4.381.27-4.381l-.54-26.77-1.1-3.447-2.921-1.76-2.972,2.366-1.42.2Z" transform="translate(-667.169 -343.428)"/>
    <path id="Path_3277" data-name="Path 3277" class="cls-18" d="M1045.489,530.28l-6.207,2.921-4.812,37.114s2.841-1.285,4.462-.475,6.623.069,6.623.069,3.651-.2,4.192.2,6.9-1.687,6.9-1.687,1.15-2.556.27-2.976.27-4.381.27-4.381l-.54-26.77-1.1-3.447-2.921-1.76-2.972,2.366-1.42.2Z" transform="translate(-667.15 -342.729)"/>
    <path id="Path_3278" data-name="Path 3278" class="cls-12" d="M1055.939,536.149s1.793,2.129,1.76,2.556-.1,1.49-.1,1.49l-1.351,2.735s-.73,3.414-.73,4.126-1.183,6.861-1.183,6.861l-1.45,9.475L1051.09,575.8l1.826,3.144,2.165-1.826,2.873-22.1.606-4.359s.643-7.843.643-8.653a27.6,27.6,0,0,0-.365-2.939,3.462,3.462,0,0,1,2.267-2.5c1.826-.471-.139-.1-.139-.1l-1.044-.843-.913.365S1056.479,535.2,1055.939,536.149Z" transform="translate(-677.701 -346.875)"/>
    <path id="Path_3279" data-name="Path 3279" class="cls-2" d="M1055.439,535.558s1.789,2.129,1.756,2.556-.1,1.486-.1,1.486l-1.351,2.738s-.73,3.414-.73,4.122-1.183,6.86-1.183,6.86l-1.417,9.464L1050.62,575.2l1.825,3.144,2.161-1.826,2.874-22.1.61-4.359s.643-7.843.643-8.653a27.667,27.667,0,0,0-.365-2.943,3.46,3.46,0,0,1,2.264-2.5c1.825-.475-.135-.1-.135-.1l-1.048-.847-.913.365S1055.98,534.612,1055.439,535.558Z" transform="translate(-677.403 -346.488)"/>
    <path id="Path_3280" data-name="Path 3280" class="cls-12" d="M1058.224,526.79s-.27.2-.34,1.555a27.068,27.068,0,0,1-1.015,4.381s3.516-2.432,5.272-2.161Z" transform="translate(-681.371 -341.269)"/>
    <path id="Path_3281" data-name="Path 3281" class="cls-18" d="M1058.224,525.68s-.27.2-.34,1.555a27.068,27.068,0,0,1-1.015,4.381s3.516-2.432,5.272-2.161Z" transform="translate(-681.371 -340.565)"/>
    <path id="Path_3282" data-name="Path 3282" class="cls-12" d="M1077.233,523.83l-5.542,4.867a56.48,56.48,0,0,1,5.272,3.447c.61.676,1.216-6.623,1.216-6.623Z" transform="translate(-690.78 -339.39)"/>
    <path id="Path_3283" data-name="Path 3283" class="cls-18" d="M1077.782,522.72l-5.542,4.867a56.009,56.009,0,0,1,5.272,3.447c.606.675,1.216-6.623,1.216-6.623Z" transform="translate(-691.129 -338.685)"/>
    <path id="Path_3284" data-name="Path 3284" class="cls-12" d="M1033.138,526.7s-.606-.3-1.183.577a3.815,3.815,0,0,1-1.654,1.281s-6.152.982-6.39,1.793l-2.873.168s-1.015.135-1.1,2.267-.643,2.329-.643,2.329a8.315,8.315,0,0,0-1.1,3.177,1.778,1.778,0,0,1-.913,1.625l4.224,10.983s.135,4.531-.643,6.185-2.231,8.993-2.231,8.993.61-.135.573.27-.73,4.834-.73,4.834a9.835,9.835,0,0,1-.54,2.366,17.245,17.245,0,0,0-.365,3.783l-.54,2.3s1.281,2.874,3.242,2.468,5.506-8.08,5.506-8.08l2.264-8.281,1.76-8.179.507-5.542.811-12.271,1.183-8.109S1033.613,527.279,1033.138,526.7Z" transform="translate(-656.084 -341.182)"/>
    <path id="Path_3285" data-name="Path 3285" class="cls-14" d="M1032.582,525.592s-.61-.3-1.183.577a3.838,3.838,0,0,1-1.658,1.282s-6.152.982-6.389,1.793l-2.87.168s-1.015.135-1.117,2.264-.643,2.333-.643,2.333a8.313,8.313,0,0,0-1.1,3.176,1.771,1.771,0,0,1-.913,1.625l4.239,11s.135,4.531-.643,6.185-2.231,8.993-2.231,8.993.61-.135.577.27-.73,4.83-.73,4.83a9.633,9.633,0,0,1-.54,2.366,17.017,17.017,0,0,0-.365,3.786l-.54,2.3s1.285,2.873,3.246,2.464,5.509-8.076,5.509-8.076l2.264-8.281,1.756-8.179.486-5.564.811-12.271,1.183-8.109S1033.053,526.169,1032.582,525.592Z" transform="translate(-655.728 -340.477)"/>
    <path id="Path_3286" data-name="Path 3286" class="cls-12" d="M986.516,586.48l-1.961,1.351a23.218,23.218,0,0,1-5.141-.431l-1.1-.486-.219-.095.226.073a4.476,4.476,0,0,0,2.705.095c2.775-.935,2.468-5.513,2.359-6.55a.969.969,0,0,0-.022-.2h0v.026a1.81,1.81,0,0,0,.128.179l.124.131h0l1.015,1.95a.535.535,0,0,1,0,.084Z" transform="translate(-631.361 -375.204)"/>
    <path id="Path_3287" data-name="Path 3287" class="cls-14" d="M993.644,561.14l-.946.27-.135,1.924a1.308,1.308,0,0,0-1.42,1.15,4.642,4.642,0,0,1-.844,1.928s-1.858,1.555-1.961,2.873l-1.15.708s-2.669-.61-3.286-1.691c0,0,1.219,8.719-5.272,6.572,0,0,7.266,3.176,7.605,3.618a4.248,4.248,0,0,0,4.6.643A4.82,4.82,0,0,0,993.3,576.4a28.241,28.241,0,0,0,2.026-3.144c.066-.405,1.588-.88,1.588-.88l2.921-7.028Z" transform="translate(-631.698 -363.078)"/>
    <path id="Path_3288" data-name="Path 3288" class="cls-12" d="M1083.578,527.182l.979-4.462a5.248,5.248,0,0,0,.88,1.793l1.46,1.1a8.572,8.572,0,0,0,1.961.676,11.85,11.85,0,0,1,3.582,1.1c.336.365,1.69.1,1.69.1s1.114.365,2.1.61,1.46,1.859,1.249,2.5a1.953,1.953,0,0,0,.475,1.826,4.362,4.362,0,0,1,.61,1.723,1.98,1.98,0,0,1,1.146.979,6.757,6.757,0,0,1,.237,2.366l-5.035,7.1a20.876,20.876,0,0,1-.135,3.348c-.2.61.708,10.953.708,10.953l1.048,17.777a18.464,18.464,0,0,1-1.69,1.318c-.3.135-.606-6.287-.606-6.521s-7.81-11.684-7.81-11.684a10.488,10.488,0,0,1-1.048-2.063c0-.372-.979-3.786-.979-3.786l-1.486-6.572Z" transform="translate(-697.904 -338.685)"/>
    <path id="Path_3289" data-name="Path 3289" class="cls-14" d="M1101.053,537.108v.387l-5.031,7.091h0a20.475,20.475,0,0,1-.135,3.348c-.117.365.139,3.991.365,6.977.172,2.154.329,3.972.329,3.972l.445,7.54.6,10.223a18.456,18.456,0,0,1-1.691,1.318c-.3.135-.606-6.287-.606-6.525s-7.81-11.684-7.81-11.684a10.491,10.491,0,0,1-1.048-2.063c0-.372-.979-3.786-.979-3.786l-1.486-6.572.676-20.143.573-4.462a9.577,9.577,0,0,0,1.285,1.789l1.461,1.117a8.574,8.574,0,0,0,1.961.675,11.845,11.845,0,0,1,3.582,1.1c.336.365,1.691.1,1.691.1s1.117.365,2.1.61,1.46,1.859,1.249,2.5a1.957,1.957,0,0,0,.475,1.826,4.358,4.358,0,0,1,.61,1.723,1.98,1.98,0,0,1,1.146.979A5.477,5.477,0,0,1,1101.053,537.108Z" transform="translate(-698.602 -338.692)"/>
    <path id="Path_3290" data-name="Path 3290" class="cls-12" d="M1017.53,808.76c.168,0,7.266.27,7.131,1.42S1017.53,808.76,1017.53,808.76Z" transform="translate(-656.395 -520.288)"/>
    <path id="Path_3291" data-name="Path 3291" class="cls-12" d="M1021.88,814s4.765.778,3.516,1.486S1021.88,814,1021.88,814Z" transform="translate(-659.157 -523.615)"/>
    <path id="Path_3292" data-name="Path 3292" class="cls-12" d="M1070.39,806.73s7.908.676,6.725,1.552-3.987,1.015-4.122,1.048S1070.39,806.73,1070.39,806.73Z" transform="translate(-689.955 -518.999)"/>
    <path id="Path_3293" data-name="Path 3293" class="cls-12" d="M1067.8,816.26s4.381.73,4.527,1.588S1067.8,816.26,1067.8,816.26Z" transform="translate(-688.311 -525.049)"/>
    <path id="Path_3294" data-name="Path 3294" class="cls-12" d="M1074.46,760.53s4.016.946,4.261,1.588Z" transform="translate(-692.539 -489.667)"/>
    <path id="Path_3295" data-name="Path 3295" class="cls-12" d="M1030.346,768.49s-2.1.61-.066,1.826S1030.346,768.49,1030.346,768.49Z" transform="translate(-663.928 -494.721)"/>
    <path id="Path_3296" data-name="Path 3296" class="cls-12" d="M1057.43,678.115c.237,0,3.921-1.216,5.207-.675a8.567,8.567,0,0,0,2.87.54Z" transform="translate(-681.727 -436.826)"/>
    <path id="Path_3297" data-name="Path 3297" class="cls-12" d="M1050.394,686.836l-.036.336-3.151,8.252s-.507,2.5-.946,3.921a25.766,25.766,0,0,0-.661,2.921l2.789-17.3Z" transform="translate(-674.216 -441.695)"/>
    <path id="Path_3298" data-name="Path 3298" class="cls-19" d="M1068.481,644.207l-1.311.022h-.04l-.77-3.407,1.139-.062Z" transform="translate(-687.396 -413.627)"/>
    <path id="Path_3299" data-name="Path 3299" class="cls-17" d="M1092.18,633.256l-.84.694-2.812,2.311s-7.6,4.056-9.7.2c-1.847-3.4,6.773-5.82,8.85-6.349l.442-.106Z" transform="translate(-695.151 -406.802)"/>
    <path id="Path_3300" data-name="Path 3300" class="cls-12" d="M1026.88,547.9s1.486.675,1.825,1.621S1026.88,547.9,1026.88,547.9Z" transform="translate(-662.331 -354.672)"/>
    <path id="Path_3301" data-name="Path 3301" class="cls-12" d="M1011.692,575.67s-2.161,2.636-1.285,3.651S1011.692,575.67,1011.692,575.67Z" transform="translate(-651.739 -372.302)"/>
    <path id="Path_3302" data-name="Path 3302" class="cls-12" d="M1116.546,552s-2.026.2-2.1,1.961Z" transform="translate(-717.928 -357.275)"/>
    <path id="Path_3303" data-name="Path 3303" class="cls-12" d="M1068.72,616.532c.2-.2,4.867-7.1,5.951-6.488Z" transform="translate(-688.895 -394.102)"/>
    <path id="Path_3304" data-name="Path 3304" class="cls-12" d="M1064.663,491.073a8.034,8.034,0,0,1-.953,3.8h-.059c-.511-.11-.778-.7-1.165-1.073a1.581,1.581,0,0,0-1.825-.256,1.854,1.854,0,0,0-.9,1.734c-.256-1.1-.175-2.234-.427-3.319s-1.008-2.191-2.045-2.191c-.445,0-.968.164-1.289-.172a3.2,3.2,0,0,1-.365-.763c-.73-1.2-2.994-.6-3.914.022a23.828,23.828,0,0,1-3.133,2.121,8.044,8.044,0,1,1,16.087.117Z" transform="translate(-676.114 -313.461)"/>
    <path id="Path_3305" data-name="Path 3305" class="cls-21" d="M1052.022,481.061a5.119,5.119,0,0,0,.365.767c.321.332.844.161,1.289.168,1.037.018,1.8,1.117,2.045,2.191s.172,2.234.431,3.315a1.825,1.825,0,0,1,.895-1.731,1.588,1.588,0,0,1,1.825.252c.387.365.654.968,1.165,1.073s1-.383,1.183-.92a14.061,14.061,0,0,0,.292-1.683,21.852,21.852,0,0,1,1.3-2.921,5.3,5.3,0,0,0-.033-3.775c-.255-.635-.632-1.2-.887-1.826-.391-.96-.493-2.048-.968-2.965a3.505,3.505,0,0,0-4.21-1.731c-.73.277-1.373.811-2.118,1.052a6.955,6.955,0,0,1-3.1-.066,3.815,3.815,0,0,0-3.009.522c-.957.785-1.22,2.256-2.118,3.114-.365.365-.847.591-1.245.924a1.716,1.716,0,0,0-.7,1.373c.062.7.73,1.336.493,1.986a1.541,1.541,0,0,1-.365.493,7.077,7.077,0,0,0-1.636,2.786c1.826.562,3.768-1.431,5.181-2.373C1049.028,480.47,1051.281,479.864,1052.022,481.061Z" transform="translate(-672.514 -305.913)"/>
    <path id="Path_3306" data-name="Path 3306" class="cls-12" d="M1107.79,633.256l-.84.694a24.118,24.118,0,0,0-3.79-3.706l.131-.128.442-.106Z" transform="translate(-710.76 -406.802)"/>
    <path id="Path_3307" data-name="Path 3307" class="cls-18" d="M1108.956,630.118s-.3.752-.613,1.4-.654,1.241-.668.763c-.036-.949-3.954-4.126-3.954-4.126l.529-.518.617-.6Z" transform="translate(-711.116 -404.917)"/>
    <path id="Path_3308" data-name="Path 3308" class="cls-12" d="M1109.148,614.863l.445,7.54c-1.052-1.632-3.932-5.816-5.783-5.681l4.495-5.17a6,6,0,0,0,.515-.661C1108.991,613.044,1109.148,614.863,1109.148,614.863Z" transform="translate(-711.173 -394.663)"/>
    <path id="Path_3309" data-name="Path 3309" class="cls-12" d="M1109.876,630.118s-.3.752-.613,1.4c-1.179-1.614-2.8-3.523-4.093-3.881l.617-.6Z" transform="translate(-712.036 -404.916)"/>
    <path id="Path_3310" data-name="Path 3310" class="cls-14" d="M1112.743,560.58l1.216.946s2.03.036,2.231,1.723a3.523,3.523,0,0,0,2.063,2.468s1.384,1.387,1.384,2.03,1.048,1.789,1.048,1.891,1.015,2.161.88,2.534,1.1,1.994.708,2.6a15.615,15.615,0,0,0-.811,1.691s-1.588,3.041-2.4,3.615a64.733,64.733,0,0,0-4.527,5.411s-3.991,4.593-3.991,6.013c0,0-3.885-6.488-6.185-6.32l4.495-5.17a3.5,3.5,0,0,0,.814-1.351c.036-.5,2.161-2.841,3.177-2.943,0,0,.168-1.384-.27-1.42s-.811-1.1-.811-1.1-2.976-3.516-3.009-5.747S1112.743,560.58,1112.743,560.58Z" transform="translate(-711.522 -362.722)"/>
    <path id="Path_3311" data-name="Path 3311" class="cls-12" d="M1128.2,569.37s-2.84,2.1-2.231,2.775S1128.2,569.37,1128.2,569.37Z" transform="translate(-725.188 -368.303)"/>
    <path id="Path_3312" data-name="Path 3312" class="cls-12" d="M1132.6,591.764s5.272-1.691,5.813,0Z" transform="translate(-729.451 -382.043)"/>
    <path id="Path_3313" data-name="Path 3313" class="cls-12" d="M1010.466,838.168s-2.841,1.862-4.261,1.588a5.113,5.113,0,0,0-2.873.475,8.529,8.529,0,0,1-3.582,2.333,13.12,13.12,0,0,1-7.335-.135c-.862-.288-.931-.661-.515-1.117,1.983.394,6.419,1.179,7.613.61a31.683,31.683,0,0,0,3.786-2.366s2.921-.405,3.312-.405a36.137,36.137,0,0,0,3.8-1.461Z" transform="translate(-639.966 -538.655)"/>
    <path id="Path_3314" data-name="Path 3314" class="cls-12" d="M1076,849.45a.617.617,0,0,1-.026.186s-.676,1.486-4.429,2.026-3.75-1.249-3.75-1.249l.036-.486C1069.023,850.381,1071.615,850.881,1076,849.45Z" transform="translate(-688.311 -546.121)"/>
    <path id="Path_3315" data-name="Path 3315" class="cls-12" d="M1029.257,568.26s0,7.708-.657,8.467S1029.257,568.26,1029.257,568.26Z" transform="translate(-663.306 -367.598)"/>
    <path id="Path_3316" data-name="Path 3316" class="cls-12" d="M1114.17,575.07l.982,2.753S1115.539,575.121,1114.17,575.07Z" transform="translate(-717.75 -371.922)"/>
    <g id="Group_85" data-name="Group 85" class="cls-22" transform="translate(370.424 171.668)">
      <path id="Path_3317" data-name="Path 3317" d="M1047.679,490.785c.248-.632-.4-1.256-.486-1.935a1.246,1.246,0,0,0-.109.61,11.913,11.913,0,0,0,.522,1.46A.834.834,0,0,0,1047.679,490.785Z" transform="translate(-1045.58 -488.85)"/>
      <path id="Path_3318" data-name="Path 3318" d="M1056.286,501.786c-.241-1.066-.168-2.191-.416-3.26s-1.008-2.191-2.045-2.191c-.445,0-.968.161-1.289-.172-.2-.2-.234-.518-.365-.767-.73-1.2-2.994-.588-3.917.026-1.38.916-3.286,2.841-5.053,2.4-.084.2-.164.413-.23.628,1.825.562,3.768-1.431,5.181-2.373.924-.613,3.176-1.22,3.917-.022a5.119,5.119,0,0,0,.365.767c.321.332.843.161,1.289.168,1.037.018,1.8,1.117,2.045,2.191s.171,2.234.431,3.315A1.829,1.829,0,0,1,1056.286,501.786Z" transform="translate(-1042.97 -492.571)"/>
      <path id="Path_3319" data-name="Path 3319" d="M1084.54,509.6c-.182.537-.664,1.03-1.187.92s-.774-.7-1.161-1.073a1.592,1.592,0,0,0-1.825-.255,1.847,1.847,0,0,0-.9,1.639,1.763,1.763,0,0,1,.8-.978,1.589,1.589,0,0,1,1.826.252c.387.365.653.968,1.165,1.073s1-.383,1.183-.92a4.3,4.3,0,0,0,.186-.971,2.343,2.343,0,0,1-.084.314Z" transform="translate(-1066.142 -501.65)"/>
      <path id="Path_3320" data-name="Path 3320" d="M1095.288,496.692a23.422,23.422,0,0,0-1.3,2.921c-.044.212-.073.431-.1.65a22.505,22.505,0,0,1,1.3-2.921,5.087,5.087,0,0,0,.31-1.4A5.144,5.144,0,0,1,1095.288,496.692Z" transform="translate(-1075.298 -493.351)"/>
    </g>
    <circle id="Ellipse_258" data-name="Ellipse 258" class="cls-23" cx="0.084" cy="0.084" r="0.084" transform="translate(341.485 199.315)"/>
    <rect id="Rectangle_854" data-name="Rectangle 854" class="cls-7" width="66.152" height="76.024" rx="6.61" transform="translate(310.026 201.283)"/>
    <rect id="Rectangle_855" data-name="Rectangle 855" class="cls-24" width="66.152" height="76.024" rx="6.61" transform="translate(310.026 201.283)"/>
    <rect id="Rectangle_856" data-name="Rectangle 856" class="cls-7" width="59.404" height="68.269" rx="6.61" transform="translate(313.4 205.16)"/>
    <rect id="Rectangle_857" data-name="Rectangle 857" class="cls-2" width="40.754" height="14.064" rx="6.03" transform="translate(322.042 218.852)"/>
    <rect id="Rectangle_858" data-name="Rectangle 858" class="cls-2" width="37.764" height="2.87" transform="translate(323.539 238.061)"/>
    <rect id="Rectangle_859" data-name="Rectangle 859" class="cls-2" width="51.963" height="2.87" transform="translate(317.121 244.118)"/>
    <rect id="Rectangle_860" data-name="Rectangle 860" class="cls-2" width="51.963" height="2.87" transform="translate(317.121 250.493)"/>
    <rect id="Rectangle_861" data-name="Rectangle 861" class="cls-2" width="51.963" height="2.87" transform="translate(317.121 256.868)"/>
    <rect id="Rectangle_862" data-name="Rectangle 862" class="cls-7" width="155.762" height="76.024" rx="6.61" transform="translate(0 176.152)"/>
    <rect id="Rectangle_863" data-name="Rectangle 863" class="cls-24" width="155.762" height="76.024" rx="6.61" transform="translate(0 176.152)"/>
    <rect id="Rectangle_864" data-name="Rectangle 864" class="cls-7" width="139.868" height="68.269" rx="6.61" transform="translate(7.945 180.029)"/>
    <rect id="Rectangle_865" data-name="Rectangle 865" class="cls-2" width="95.956" height="14.064" rx="6.03" transform="translate(28.3 193.725)"/>
    <rect id="Rectangle_866" data-name="Rectangle 866" class="cls-2" width="88.916" height="2.87" transform="translate(31.82 212.93)"/>
    <rect id="Rectangle_867" data-name="Rectangle 867" class="cls-2" width="122.35" height="2.87" transform="translate(16.704 218.987)"/>
    <rect id="Rectangle_868" data-name="Rectangle 868" class="cls-2" width="122.35" height="2.87" transform="translate(16.704 225.362)"/>
    <rect id="Rectangle_869" data-name="Rectangle 869" class="cls-2" width="122.35" height="2.87" transform="translate(16.704 231.737)"/>
    <path id="Path_3321" data-name="Path 3321" class="cls-25" d="M132.666,624.474c.434-1.585.73-2.979.73-2.979a6.206,6.206,0,0,1,.811-3.019v-.438h0l.124-3.217a10.707,10.707,0,0,0-.73-1.716c-.54-1.033.183-4.717.183-4.717s2.348-5.137,1.953-8.471,4.973-14.543,4.973-14.543a14.416,14.416,0,0,0-.336-3.286,2.521,2.521,0,0,1-.037-.683.653.653,0,0,1,0-.084v.026c.157-2.191,2.041-6.207,2.041-6.207l.069-7.813a23.02,23.02,0,0,1,1.1-10.753c.712-2.132,1.179-3.841,1.486-5.163.037-.15.069-.292.1-.431-3.68-.708-6.492-1.285-6.492-1.285s2.494-8.9,4.016-10.417,2.859-6.415,2.859-6.415,1-6.317-.146-8.215a12.38,12.38,0,0,1-1.2-5.112s-2.709-2.129-3.023-3.038a14.894,14.894,0,0,1-.774-4.016c.04-1.059.427-2.008.332-2.574s.916-2.662.489-3.691a2.826,2.826,0,0,1-.146-.982v-.029h0a13.661,13.661,0,0,1,.347-2.625,7.447,7.447,0,0,1,2.811-1.366l.069-.241.183-.624a3.059,3.059,0,0,1,.277-.153l.018-.23.058-.909-.351-2.074c-.73-3.6,4.06-3.947,4.06-3.947a2.508,2.508,0,0,1,1.391-1.132c.971-.3-.044,5.371-.508,5.718a19.378,19.378,0,0,0-1.99,2.866h0l-.088.142a1.97,1.97,0,0,1,.212.237l-.23,1.23-.036.186a5.112,5.112,0,0,1,.712,1.325,2.753,2.753,0,0,0-.774,1.994,6.422,6.422,0,0,1-.365,2.457c.051-.055.69-.694,1.3-.511s2.293.763,2.293.763,1.267.274,1.139.551.814,1.548.814,1.548l3.553-3.114c.04-.1.077-.194.113-.292a8.158,8.158,0,0,0,.365-1.413,7.632,7.632,0,0,1-1.1-.391,2.384,2.384,0,0,1-.927-.643,3.833,3.833,0,0,1-.493-1.5,21.039,21.039,0,0,0-1.165-2.888,9.234,9.234,0,0,1-.489-5.112,3.4,3.4,0,0,1,.584-1.46c.591-.748,1.617-1.022,2.381-1.607s1.274-1.508,2.151-1.935a4.144,4.144,0,0,1,2.614-.124,13.969,13.969,0,0,1,4.765,1.939,2.476,2.476,0,0,0,1.607.6,2.216,2.216,0,0,0,1.2-.814.272.272,0,0,1,0-.051l.04-.04a6.021,6.021,0,0,1,.431,2.585,1.928,1.928,0,0,1-.029.409v.142a.665.665,0,0,0,0,.12h0a.6.6,0,0,0,.022.179,1.282,1.282,0,0,0,.3.478,2.606,2.606,0,0,1,.263.391.521.521,0,0,0-.04-.142,2.037,2.037,0,0,1,.314,1.1,1.07,1.07,0,0,1-.288.763,3.391,3.391,0,0,1-.577.431,6.554,6.554,0,0,1-3.388,6.678c-.044.095-.088.194-.128.292a8.164,8.164,0,0,0-.767,3.713.876.876,0,0,0,.029.274c.029.091.084.1.12.15h0s5.659.274,7.039-.884,3.25,3.078,3.25,3.078,2.015.471,2.435.095,2.789.051,2.789.051a5.112,5.112,0,0,1,3.585-1.157,10.473,10.473,0,0,1,2.654-1.344h0l.066-.022h0a2.865,2.865,0,0,1,1.282-.113,25.731,25.731,0,0,0,3.731-3.4c.858-1.209,4.885-5.637,4.885-5.659l.026-.219.069-.665a2.239,2.239,0,0,0,.343.044l.088-.23a12.531,12.531,0,0,1,.895-1.855s.033-.843-.2-1.062.23-3.286.23-3.286,2.735-5.769,4.812-1.3c0,0,4.14,3,.445,6.159,0,0-1.46.635-1.669,1.172-.146.365-.668,1.322-1.019,1.968l-.157.288.04.036-.073.548-.029.215c.654.405,1.1.8.975,1.1a6.207,6.207,0,0,0-.464,1.5s-5.163,5.951-5.9,8.576c0,0-13.531,7.354-17.891,7.748l.6,3.958a31.556,31.556,0,0,1,.051,3.209c-.091.84.343,4.677.343,4.677s.537,5.645,1.146,6.455.365,4.177.365,4.177a28.444,28.444,0,0,0,.686,4.8,12.277,12.277,0,0,1,0,4.779s2.012,5.137-3.136,1.508c0,0-2.585-.259-5.564-.475v.3c0,.387-.018.8-.029,1.241-.073,2.9-.208,6.882-.456,9.895-.438,5.327-2.468,15.82-2.468,15.82l-.2,5.3a7.024,7.024,0,0,1,.095,1.523,9.858,9.858,0,0,1-1.632,5.254l-.544,3.523a13.884,13.884,0,0,0-1.114,3.684,1.655,1.655,0,0,0,.029.34,2.708,2.708,0,0,1,.026.544,29.792,29.792,0,0,1-1.125,5.411s-.208,3.874-.8,4.075c-.5.175.577,2.26.9,2.859a.591.591,0,0,0,.026-.109l.069.117a2.754,2.754,0,0,1,.142.99,1.413,1.413,0,0,1-.7,1.336c-1.128.632-1.742,1.168-.814,1.431a10.3,10.3,0,0,1,1.015.252l.055-.128a.624.624,0,0,1,.365.694,2.837,2.837,0,0,1-.4,1.3,14.15,14.15,0,0,1-1.68,2.8l-.445-.066a2.228,2.228,0,0,0,.241.486,1.854,1.854,0,0,0,.635.61,2.031,2.031,0,0,0,.781.3,2.253,2.253,0,0,1,1.614.865,1.709,1.709,0,0,1-.307,2.654l-4.2,1.271s-7.171.654-6.733-.931.73-2.979.73-2.979a6.335,6.335,0,0,1,.686-2.819,3.78,3.78,0,0,1,.27-.409l-.252-.036s-.416-3.56-1.1-4.25c-.153-.164-.186-.285-.146-.365-.062-.193.12-.3.365-.365a.568.568,0,0,0,.047.139,3.521,3.521,0,0,1,.694-.048s.3-1.844-.424-2.556a.694.694,0,0,1-.124-.555,2.843,2.843,0,0,1,.106-.752.272.272,0,0,0,.026.044A27.632,27.632,0,0,1,155.635,608a5.365,5.365,0,0,0-.318-2.377c-.438-.694.413-9.15.413-9.15a27.729,27.729,0,0,1,.577-5.992,6.749,6.749,0,0,0-.478-4.181.58.58,0,0,1,.018-.12.15.15,0,0,0,0-.033s.037-.252.095-.643v.04c.161-1.1.456-3.034.654-3.94.281-1.282.23-7.47.23-7.47l-.946-2.665-2.034,4.476-2.191,5.988a5.152,5.152,0,0,0-1.1,2.556v.193a3.044,3.044,0,0,1,0,.405,3.622,3.622,0,0,1-.686,2.136s-.632,2.844-1.46,3.542a3.309,3.309,0,0,0-.895,2.1,35.957,35.957,0,0,1-1.639,4.83,7.265,7.265,0,0,0-.515,2.808h0v.15s-.194,1.482-.237,2.731v.442a.081.081,0,0,1,0-.029,4.231,4.231,0,0,0,.08,1.011v-.15a10.622,10.622,0,0,1,.2,2.6,6.67,6.67,0,0,1-1.274,4.257c-1.636,1.738-2.611,1.461-2.611,1.461s.668,2.275,1.577,2.76a.581.581,0,0,1,.1.066.225.225,0,0,1,.026-.128,1.1,1.1,0,0,1,.241.847,6.054,6.054,0,0,1-1.278,3.286,1.825,1.825,0,0,1-.8.431,1.384,1.384,0,0,0,.142.1,2.867,2.867,0,0,0,.314.161,1.551,1.551,0,0,0,.467.142,2.22,2.22,0,0,1,1.614.865,1.706,1.706,0,0,1-.307,2.651l-4.2,1.271S132.224,626.059,132.666,624.474Z" transform="translate(-94.595 -317.593)"/>
    <path id="Path_3322" data-name="Path 3322" class="cls-26" d="M195.7,855.421l4.071-1.274a1.748,1.748,0,0,0,.3-2.658,2.132,2.132,0,0,0-1.559-.858,1.906,1.906,0,0,1-.759-.3,1.825,1.825,0,0,1-.61-.606,2.994,2.994,0,0,1-.4-1.57s-4.359-1.46-5.615-.215a3.288,3.288,0,0,0-.559.763,6.573,6.573,0,0,0-.672,2.819s-.277,1.391-.7,2.979S195.7,855.421,195.7,855.421Z" transform="translate(-130.487 -544.841)"/>
    <path id="Path_3323" data-name="Path 3323" class="cls-26" d="M142.081,847.906l4.071-1.274a1.744,1.744,0,0,0,.3-2.654,2.132,2.132,0,0,0-1.563-.862,1.434,1.434,0,0,1-.453-.139,2.839,2.839,0,0,1-.3-.164,2.577,2.577,0,0,1-1.011-2.191s-4.359-1.461-5.615-.215a3.228,3.228,0,0,0-.445.555,6.371,6.371,0,0,0-.789,3.027s-.281,1.395-.7,2.979S142.081,847.906,142.081,847.906Z" transform="translate(-96.438 -540.06)"/>
    <path id="Path_3324" data-name="Path 3324" class="cls-12" d="M193.555,847.935a3.288,3.288,0,0,0-.555.763h0l6.572,1.019a2.994,2.994,0,0,1-.4-1.57S194.826,846.69,193.555,847.935Z" transform="translate(-132.913 -544.84)"/>
    <path id="Path_3325" data-name="Path 3325" class="cls-12" d="M139.607,840.976l-.047,1.238c.964,1.734,5.948,1.555,7.423.763a2.88,2.88,0,0,1-.3-.164,2.577,2.577,0,0,1-1.011-2.191s-4.359-1.46-5.616-.215A3.232,3.232,0,0,0,139.607,840.976Z" transform="translate(-98.985 -540.06)"/>
    <path id="Path_3326" data-name="Path 3326" class="cls-27" d="M137.765,714.643a11.342,11.342,0,0,1,.73,1.716l-.179,4.433c1.052,1.9,6.915,1.5,7.74.526s1.767-3.589.887-4.071-1.526-2.76-1.526-2.76.946.263,2.534-1.46,1.289-5.743,1.041-6.707a19.6,19.6,0,0,1,.164-4.155,8.312,8.312,0,0,1,.507-2.961,36.752,36.752,0,0,0,1.592-4.831,3.3,3.3,0,0,1,.865-2.1c.814-.7,1.431-3.545,1.431-3.545a3.673,3.673,0,0,0,.654-2.391,4.916,4.916,0,0,1,1.066-2.884l2.143-5.988,1.972-4.48.909,2.676s.044,6.189-.23,7.47-.73,4.7-.73,4.7A6.943,6.943,0,0,1,159.8,692a28.847,28.847,0,0,0-.57,5.992s-.832,8.46-.409,9.15a5.5,5.5,0,0,1,.3,2.373s-2.49,4.852-1.789,5.557.409,2.556.409,2.556-1.57-.062-.924.639.993,4.232.993,4.232l6.758,1.048a14.3,14.3,0,0,0,1.628-2.808c.979-2.041-.095-1.858-.989-2.118s-.3-.8.789-1.431.533-2.172.533-2.172-1.523-2.815-.949-3.016.774-4.075.774-4.075,1.3-4.564,1.066-5.809,1.062-4.177,1.062-4.177l.526-3.52a9.723,9.723,0,0,0,1.493-6.634l.212-5.448s1.986-10.475,2.432-15.821c.277-3.41.416-8.073.478-10.983.037-1.636.051-2.716.051-2.716l-24.16-3.461a19.939,19.939,0,0,1-.581,3.585,53.326,53.326,0,0,1-1.46,5.166,23.746,23.746,0,0,0-1.1,10.753l-.077,7.814s-2.337,5.141-1.953,6.955a14.837,14.837,0,0,1,.321,3.286s-5.2,11.2-4.82,14.521-1.9,8.474-1.9,8.474S137.243,713.609,137.765,714.643Z" transform="translate(-97.723 -419.087)"/>
    <path id="Path_3327" data-name="Path 3327" class="cls-28" d="M166.4,747.278,159.05,746S163.07,750.44,166.4,747.278Z" transform="translate(-111.359 -480.442)"/>
    <path id="Path_3328" data-name="Path 3328" class="cls-12" d="M161.845,726.39s-.365,2.6,1.209,3.651C163.039,730.034,160.209,729.475,161.845,726.39Z" transform="translate(-112.81 -467.992)"/>
    <path id="Path_3329" data-name="Path 3329" class="cls-12" d="M164.85,703.67s5.977,5.32,8.237,4.988S164.85,703.67,164.85,703.67Z" transform="translate(-115.041 -453.568)"/>
    <path id="Path_3330" data-name="Path 3330" class="cls-12" d="M204,757s4.648,1.249,4.717,3.133S204,757,204,757Z" transform="translate(-139.897 -487.426)"/>
    <path id="Path_3331" data-name="Path 3331" class="cls-28" d="M196.58,821s6.572,1.49,4.666,2.26a31.824,31.824,0,0,1-5.028,1.325S194.078,824.622,196.58,821Z" transform="translate(-134.415 -528.059)"/>
    <g id="Group_86" data-name="Group 86" class="cls-29" transform="translate(39.854 233.552)">
      <path id="Path_3332" data-name="Path 3332" d="M212.858,829.375a1.314,1.314,0,0,0,.643-.935l.062.12s.562,1.537-.533,2.191c-.124.069-.241.142-.365.212-.194-.044-.405-.08-.606-.139C211.168,830.55,211.763,830.01,212.858,829.375Z" transform="translate(-184.592 -766.334)"/>
      <path id="Path_3333" data-name="Path 3333" d="M191.448,826.867c-.175-.175-.15-.606,0-1.157a3.136,3.136,0,0,1,.314,1.643A1.278,1.278,0,0,0,191.448,826.867Z" transform="translate(-171.704 -764.601)"/>
      <path id="Path_3334" data-name="Path 3334" d="M197.235,752.48a7.636,7.636,0,0,1,.365,2.085,7.961,7.961,0,0,0-.46-1.438S197.18,752.874,197.235,752.48Z" transform="translate(-175.395 -718.108)"/>
      <path id="Path_3335" data-name="Path 3335" d="M156.094,741.737a2.681,2.681,0,0,1-.04-.617c.069.424.113.814.139,1.157C156.164,742.1,156.131,741.923,156.094,741.737Z" transform="translate(-149.308 -710.896)"/>
      <path id="Path_3336" data-name="Path 3336" d="M195.508,804.992a3.721,3.721,0,0,1-.117-1.252,4.224,4.224,0,0,1,.263,1.584A1.543,1.543,0,0,0,195.508,804.992Z" transform="translate(-174.278 -750.652)"/>
      <path id="Path_3337" data-name="Path 3337" d="M190.179,836a22.054,22.054,0,0,1,.639,3.48l6.758,1.048a14.147,14.147,0,0,0,1.632-2.808c.088-.179.153-.34.212-.486.4.2.544.632-.04,1.844a14.323,14.323,0,0,1-1.628,2.8l-6.773-1.041s-.365-3.556-1.019-4.254C189.657,836.241,189.884,836.084,190.179,836Z" transform="translate(-170.746 -771.134)"/>
      <path id="Path_3338" data-name="Path 3338" d="M214.575,713.476s-.2,3.874-.774,4.075h0c-.259-.654-.427-1.267-.172-1.358.57-.2.778-4.075.778-4.075s1.3-4.56,1.066-5.809,1.059-4.173,1.059-4.173l.529-3.523a9.723,9.723,0,0,0,1.493-6.634l.208-5.448s1.979-10.493,2.41-15.82c.274-3.41.413-8.073.478-10.983,0-.526.022-.993.029-1.387l.194.029s0,1.1-.051,2.713c-.062,2.921-.2,7.576-.478,10.986-.431,5.323-2.406,15.82-2.406,15.82l-.212,5.444a9.734,9.734,0,0,1-1.49,6.634l-.533,3.523s-1.3,2.921-1.062,4.177S214.575,713.476,214.575,713.476Z" transform="translate(-185.783 -658.34)"/>
      <path id="Path_3339" data-name="Path 3339" d="M147.189,837.745a6.571,6.571,0,0,0,1.176-2.625c.668.65-.219,3.049-1,3.98s-6.689,1.373-7.74-.522l.04-1.07C141.121,839.071,146.408,838.673,147.189,837.745Z" transform="translate(-138.877 -770.575)"/>
      <path id="Path_3340" data-name="Path 3340" d="M137.6,823.924a11.348,11.348,0,0,1,.73,1.716l-.033.785a12.252,12.252,0,0,0-.518-1.146,3.384,3.384,0,0,1-.19-1.4Z" transform="translate(-137.584 -763.439)"/>
      <path id="Path_3341" data-name="Path 3341" d="M159.124,813.086a10.973,10.973,0,0,1-.5-1.355s.946.259,2.53-1.479c1.154-1.267,1.311-3.731,1.216-5.353.248.968.544,4.969-1.041,6.707A4.049,4.049,0,0,1,159.124,813.086Z" transform="translate(-150.939 -751.389)"/>
      <path id="Path_3342" data-name="Path 3342" d="M168.589,740.418a30.013,30.013,0,0,0-.241,3.326,4.754,4.754,0,0,0-.095-.526,19.9,19.9,0,0,1,.161-4.155,8.4,8.4,0,0,1,.508-2.961,37.306,37.306,0,0,0,1.592-4.83,3.315,3.315,0,0,1,.869-2.1c.814-.7,1.431-3.545,1.431-3.545a3.7,3.7,0,0,0,.654-2.391,4.916,4.916,0,0,1,1.066-2.885l2.143-5.988,1.972-4.48.909,2.68v.854l-.73-2.191-1.972,4.476-2.143,5.992a4.866,4.866,0,0,0-1.066,2.884,3.673,3.673,0,0,1-.654,2.391s-.617,2.844-1.431,3.542a3.3,3.3,0,0,0-.865,2.1,37.508,37.508,0,0,1-1.592,4.834A8.512,8.512,0,0,0,168.589,740.418Z" transform="translate(-157.006 -691.062)"/>
    </g>
    <path id="Path_3343" data-name="Path 3343" class="cls-30" d="M167.158,501.249l.343,2.067-.058.913-.044.672,2.333.332.281-.475h0a21.373,21.373,0,0,1,1.931-2.87c.445-.347,1.439-6.017.5-5.718a2.464,2.464,0,0,0-1.351,1.132S166.468,497.652,167.158,501.249Z" transform="translate(-116.462 -321.822)"/>
    <path id="Path_3344" data-name="Path 3344" class="cls-12" d="M167.94,518.533l2.333.332.281-.475h0a2.07,2.07,0,0,0-2.556-.526Z" transform="translate(-117.003 -335.455)"/>
    <path id="Path_3345" data-name="Path 3345" class="cls-31" d="M166.2,520.008l3.063.836.08-.46.223-1.23a2.129,2.129,0,0,0-2.976-.522l-.175.624Z" transform="translate(-115.898 -335.841)"/>
    <path id="Path_3346" data-name="Path 3346" class="cls-30" d="M303.74,499.118l3.228,1.9s.135-.259.325-.613c.34-.646.843-1.617.986-1.968.215-.537,1.617-1.176,1.617-1.176,3.582-3.166-.424-6.156-.424-6.156-2.008-4.465-4.659,1.307-4.659,1.307s-.456,3.078-.226,3.286.2,1.063.2,1.063a12.419,12.419,0,0,0-.869,1.855C303.8,498.917,303.74,499.118,303.74,499.118Z" transform="translate(-203.22 -317.537)"/>
    <path id="Path_3347" data-name="Path 3347" class="cls-12" d="M303.74,515.159l3.228,1.9s.135-.259.325-.613c-.453-.405-2.052-1.826-2.6-1.767a3.905,3.905,0,0,1-.781,0C303.8,514.958,303.74,515.159,303.74,515.159Z" transform="translate(-203.22 -333.578)"/>
    <path id="Path_3348" data-name="Path 3348" class="cls-31" d="M302.71,516.422l3.651,1.968.1-.8.073-.548s-2.074-1.921-2.709-1.877a3.446,3.446,0,0,1-.971-.04l-.066.665Z" transform="translate(-202.566 -333.866)"/>
    <path id="Path_3349" data-name="Path 3349" class="cls-30" d="M190.45,526.775s16.091,2.446,13.108,1.351a4.052,4.052,0,0,1-2.979-3.625,8.478,8.478,0,0,1,.73-3.717,16.288,16.288,0,0,1,1.559-2.863s-12.093-7.269-9.858-1a9.911,9.911,0,0,1,.588,2.954,8.324,8.324,0,0,1-.431,2.95A8.835,8.835,0,0,1,190.45,526.775Z" transform="translate(-131.294 -333.386)"/>
    <path id="Path_3350" data-name="Path 3350" class="cls-12" d="M197.02,516.924a9.911,9.911,0,0,1,.588,2.954c1.125,1.019,2.4,1,4.042,1.066,1.26.051,2.64.409,3.651-.161a16.291,16.291,0,0,1,1.559-2.862S194.786,510.651,197.02,516.924Z" transform="translate(-135.29 -333.386)"/>
    <circle id="Ellipse_259" data-name="Ellipse 259" class="cls-30" cx="6.685" cy="6.685" r="6.685" transform="translate(60.134 174.629)"/>
    <path id="Path_3351" data-name="Path 3351" class="cls-12" d="M190.45,540.42s16.091,2.446,13.108,1.351a4.053,4.053,0,0,1-2.979-3.626,8.887,8.887,0,0,0-3.388-1.968,4.867,4.867,0,0,0-2.921-.161,4.017,4.017,0,0,0-1.1.456A8.835,8.835,0,0,1,190.45,540.42Z" transform="translate(-131.294 -347.031)"/>
    <path id="Path_3352" data-name="Path 3352" class="cls-12" d="M166.2,521.633l3.063.836.08-.46a2.727,2.727,0,0,0-2.921-1.128Z" transform="translate(-115.898 -337.467)"/>
    <path id="Path_3353" data-name="Path 3353" class="cls-12" d="M302.71,517.61l3.651,1.968.1-.8A27.653,27.653,0,0,0,302.776,517Z" transform="translate(-202.566 -335.054)"/>
    <path id="Path_3354" data-name="Path 3354" class="cls-12" d="M168.65,652.945c6.207,1.23,15.079,2.859,16.507,2.483,1.187-.31,4.929-.128,8.182.109.037-1.636.051-2.716.051-2.716l-24.16-3.461A19.94,19.94,0,0,1,168.65,652.945Z" transform="translate(-117.454 -419.087)"/>
    <path id="Path_3355" data-name="Path 3355" class="cls-32" d="M151.72,567.559s20.468,4.33,22.706,3.742,13.564.577,13.564.577c4.977,3.622,3.038-1.512,3.038-1.512a12.357,12.357,0,0,0,0-4.779,29.21,29.21,0,0,1-.661-4.8s.245-3.366-.343-4.173-1.1-6.455-1.1-6.455-.413-3.838-.325-4.677-.044-3.209-.044-3.209l-.581-3.958c4.232-.4,17.336-7.766,17.336-7.766.73-2.614,5.729-8.609,5.729-8.609a6.487,6.487,0,0,1,.453-1.5c.365-.884-4.611-2.873-4.611-2.873s-3.947,4.458-4.765,5.663a24.784,24.784,0,0,1-3.618,3.4,2.741,2.741,0,0,0-1.241.113H197.2a10.03,10.03,0,0,0-2.556,1.347,4.892,4.892,0,0,0-3.476,1.157s-2.289-.423-2.695-.047-2.359-.091-2.359-.091-1.826-4.228-3.144-3.071-6.817.891-6.817.891a8.075,8.075,0,0,0-3.538-2.165,4.838,4.838,0,0,0-2.921-.161,3.792,3.792,0,0,0-1.179.515l-3.447,3.125s-.909-1.271-.785-1.548-1.1-.548-1.1-.548-1.61-.57-2.22-.76-1.2.453-1.256.511a6.492,6.492,0,0,0,.365-2.457,2.823,2.823,0,0,1,.748-2c-1.778-4.9-6.368-1.03-6.368-1.03s-.61,2.618-.2,3.651-.57,3.125-.482,3.691-.281,1.508-.321,2.574a15.841,15.841,0,0,0,.73,4.016c.288.905,2.921,3.038,2.921,3.038a12.77,12.77,0,0,0,1.154,5.112c1.106,1.906.135,8.215.135,8.215s-1.314,4.9-2.779,6.415S151.72,567.559,151.72,567.559Z" transform="translate(-106.705 -335.409)"/>
    <path id="Path_3356" data-name="Path 3356" class="cls-12" d="M237.71,550.658s.69-1.826,1.256-1.975a12.919,12.919,0,0,0,1.658-.668l-.336-.7s-2.132.5-2.49,1.1A4.926,4.926,0,0,0,237.71,550.658Z" transform="translate(-161.237 -354.297)"/>
    <path id="Path_3357" data-name="Path 3357" class="cls-12" d="M269.22,544.069c.091.566,5.068,1.263,5.068,1.263L271.86,542.7H271.8A10.03,10.03,0,0,0,269.22,544.069Z" transform="translate(-181.304 -351.37)"/>
    <circle id="Ellipse_260" data-name="Ellipse 260" class="cls-27" cx="0.449" cy="0.449" r="0.449" transform="translate(102.221 185.097)"/>
    <circle id="Ellipse_261" data-name="Ellipse 261" class="cls-27" cx="0.449" cy="0.449" r="0.449" transform="translate(101.612 185.973)"/>
    <circle id="Ellipse_262" data-name="Ellipse 262" class="cls-27" cx="0.449" cy="0.449" r="0.449" transform="translate(101.016 186.78)"/>
    <circle id="Ellipse_263" data-name="Ellipse 263" class="cls-27" cx="0.449" cy="0.449" r="0.449" transform="translate(100.396 187.657)"/>
    <circle id="Ellipse_264" data-name="Ellipse 264" class="cls-27" cx="0.365" cy="0.365" r="0.365" transform="translate(47.556 185.656)"/>
    <circle id="Ellipse_265" data-name="Ellipse 265" class="cls-27" cx="0.365" cy="0.365" r="0.365" transform="translate(47.469 186.481)"/>
    <circle id="Ellipse_266" data-name="Ellipse 266" class="cls-27" cx="0.365" cy="0.365" r="0.365" transform="translate(47.385 187.306)"/>
    <path id="Path_3358" data-name="Path 3358" class="cls-12" d="M196.748,598.15c.055-.062-13.217,15.433-22.688,5.82C174.06,603.97,189.5,606.672,196.748,598.15Z" transform="translate(-120.888 -386.574)"/>
    <path id="Path_3359" data-name="Path 3359" class="cls-12" d="M240.377,621.679s-7.583-.084-8.46,2.063l-.088,2.267a1.46,1.46,0,0,0,1.409.055c.781-.383,5.448-2.534,7.021-1.351Z" transform="translate(-157.566 -401.513)"/>
    <path id="Path_3360" data-name="Path 3360" class="cls-32" d="M240.641,621.659s-7.248-.08-8.087,1.968l-.084,2.161a1.387,1.387,0,0,0,1.347.051c.73-.365,5.21-2.413,6.714-1.289Z" transform="translate(-157.972 -401.5)"/>
    <path id="Path_3361" data-name="Path 3361" class="cls-12" d="M231.9,576.2a24.609,24.609,0,0,1-3.129,4.925A19.742,19.742,0,0,1,224,585.39S231.737,577.222,231.9,576.2Z" transform="translate(-152.594 -372.639)"/>
    <path id="Path_3362" data-name="Path 3362" class="cls-12" d="M245.011,552.36s-1.46,5.407-4.8,7.134Z" transform="translate(-162.886 -357.503)"/>
    <path id="Path_3363" data-name="Path 3363" class="cls-12" d="M250.858,554.067c.036-.1.957,4.359-4.458,6.6C246.4,560.665,248.689,559.982,250.858,554.067Z" transform="translate(-166.816 -358.586)"/>
    <path id="Path_3364" data-name="Path 3364" class="cls-12" d="M162.408,540.555a38.028,38.028,0,0,0-3.458,2.4C158.968,542.95,160.812,540.38,162.408,540.555Z" transform="translate(-111.295 -350.003)"/>
    <path id="Path_3365" data-name="Path 3365" class="cls-26" d="M197.786,505.574a1.435,1.435,0,0,1-.559.884,1.377,1.377,0,0,1-.635.113,13.433,13.433,0,0,1-6.017-.8,2.271,2.271,0,0,1-.895-.643,3.682,3.682,0,0,1-.478-1.5,21.723,21.723,0,0,0-1.125-2.884,9.493,9.493,0,0,1-.464-5.112,3.421,3.421,0,0,1,.566-1.461c.57-.748,1.566-1.022,2.3-1.61s1.234-1.508,2.088-1.939a3.855,3.855,0,0,1,2.527-.124,13.261,13.261,0,0,1,4.637,1.946,2.333,2.333,0,0,0,1.552.6,2.161,2.161,0,0,0,1.19-.84,6.207,6.207,0,0,1,.387,2.921,1.258,1.258,0,0,0,0,.438,1.333,1.333,0,0,0,.292.478,1.7,1.7,0,0,1,.241,2.107c-.226.248-.566.365-.785.632-.394.453-.3,1.132-.31,1.734a.913.913,0,0,1-.168.588.873.873,0,0,1-.832.164,2.268,2.268,0,0,0-.876-.117,1.46,1.46,0,0,0-.785.555A10.352,10.352,0,0,0,197.786,505.574Z" transform="translate(-129.392 -318.133)"/>
    <g id="Group_87" data-name="Group 87" class="cls-22" transform="translate(60.025 173.961)">
      <path id="Path_3366" data-name="Path 3366" d="M192.892,514.9a2.242,2.242,0,0,0,.895.646,13.483,13.483,0,0,0,6.017.8,1.332,1.332,0,0,0,.635-.117,1.417,1.417,0,0,0,.559-.88,10.382,10.382,0,0,1,1.855-3.888,1.46,1.46,0,0,1,.785-.559,2.343,2.343,0,0,1,.876.117.862.862,0,0,0,.832-.164.9.9,0,0,0,.168-.584,2.586,2.586,0,0,1,.31-1.738c.219-.252.559-.365.785-.628a1.322,1.322,0,0,0,.179-1.336,1.529,1.529,0,0,1,.026,1.793c-.226.248-.562.365-.785.632-.394.453-.292,1.132-.307,1.734a.9.9,0,0,1-.172.588.869.869,0,0,1-.832.164,2.251,2.251,0,0,0-.873-.117,1.46,1.46,0,0,0-.789.559,10.479,10.479,0,0,0-1.855,3.885,1.055,1.055,0,0,1-1.19,1,13.508,13.508,0,0,1-6.021-.8,2.285,2.285,0,0,1-.895-.643,1.753,1.753,0,0,1-.267-.551A.675.675,0,0,0,192.892,514.9Z" transform="translate(-192.83 -502.393)"/>
      <path id="Path_3367" data-name="Path 3367" d="M228.909,498.405a.9.9,0,0,1-.19-.365,1.259,1.259,0,0,1,0-.438,6.226,6.226,0,0,0-.219-2.432l.036-.04a6.16,6.16,0,0,1,.391,2.921A1.98,1.98,0,0,0,228.909,498.405Z" transform="translate(-215.476 -495.13)"/>
    </g>
    <path id="Path_3368" data-name="Path 3368" class="cls-12" d="M202.771,542.4s-8.4.785-9.091-.5" transform="translate(-133.345 -350.862)"/>
    <path id="Path_3369" data-name="Path 3369" class="cls-12" d="M164.555,532.092s-4.641-.172-5.725,1.526" transform="translate(-111.219 -344.632)"/>
  </g>
</svg>
