<svg xmlns="http://www.w3.org/2000/svg" xmlns:xlink="http://www.w3.org/1999/xlink" width="1366" height="678" viewBox="0 0 1366 678">
  <defs>
    <clipPath id="clip-path">
      <rect width="1366" height="678" fill="none"/>
    </clipPath>
    <radialGradient id="radial-gradient" cx="0.5" cy="0.5" r="1.353" gradientTransform="translate(0.252) scale(0.496 1)" gradientUnits="objectBoundingBox">
      <stop offset="0" stop-color="#3acbe8"/>
      <stop offset="0.142" stop-color="#2eb8e4"/>
      <stop offset="0.427" stop-color="#0d85d8"/>
      <stop offset="0.707" stop-color="#0160c9"/>
      <stop offset="1" stop-color="#3acbe8"/>
    </radialGradient>
    <clipPath id="clip-path-2">
      <rect width="551.208" height="512.48" fill="none"/>
    </clipPath>
    <linearGradient id="linear-gradient" x1="0.454" y1="1" x2="0.454" gradientUnits="objectBoundingBox">
      <stop offset="0" stop-color="gray" stop-opacity="0.251"/>
      <stop offset="0.54" stop-color="gray" stop-opacity="0.122"/>
      <stop offset="1" stop-color="gray" stop-opacity="0.102"/>
    </linearGradient>
  </defs>
  <g id="Component_843_1" data-name="Component 843 – 1" clip-path="url(#clip-path)">
    <g id="Rectangle_956" data-name="Rectangle 956" stroke="#707070" stroke-width="1" fill="url(#radial-gradient)">
      <rect width="1366" height="678" stroke="none"/>
      <rect x="0.5" y="0.5" width="1365" height="677" fill="none"/>
    </g>
    <g id="Component_842_3" data-name="Component 842 – 3" transform="translate(788 112.52)" clip-path="url(#clip-path-2)">
      <circle id="Ellipse_146" data-name="Ellipse 146" cx="256" cy="256" r="256" transform="translate(0 0.48)" fill="rgba(158,206,239,0.39)"/>
      <g id="Group_53" data-name="Group 53" transform="translate(-792 -227.52)">
        <g id="Group_50" data-name="Group 50" transform="translate(863 227.52)">
          <path id="Path_2425" data-name="Path 2425" d="M456.036,153.313V121.241H436.992v32.073H414.441V103.7H397.9V66.617H384.373V28.53H356.309V66.617H342.778V103.7H326.742V59.1h-9.021V36.548h-5.512V59.1H280.136V201.423H255.58V186.389H240.546v15.034H215.99V153.313h-44.1V121.241H152.847v32.073h-1v61.64H131.8V178.871H107.745v36.082H87.7V103.7H72.164V66.617H15.034V103.7H0V299.646H478.587V153.313Z" transform="translate(0 -28.53)" fill="#6c63ff" opacity="0.25"/>
          <rect id="Rectangle_710" data-name="Rectangle 710" width="21.048" height="12.027" transform="translate(9.522 86.697)" fill="#fff" opacity="0.4"/>
          <rect id="Rectangle_711" data-name="Rectangle 711" width="21.048" height="12.027" transform="translate(77.676 98.724) rotate(180)" fill="#fff" opacity="0.4"/>
          <rect id="Rectangle_712" data-name="Rectangle 712" width="21.048" height="12.027" transform="translate(9.522 110.25)" fill="#fff" opacity="0.4"/>
          <rect id="Rectangle_713" data-name="Rectangle 713" width="21.048" height="12.027" transform="translate(77.676 122.278) rotate(180)" fill="#fff" opacity="0.4"/>
          <rect id="Rectangle_714" data-name="Rectangle 714" width="21.048" height="12.027" transform="translate(9.522 133.804)" fill="#fff" opacity="0.4"/>
          <rect id="Rectangle_715" data-name="Rectangle 715" width="21.048" height="12.027" transform="translate(77.676 145.831) rotate(180)" fill="#fff" opacity="0.4"/>
          <rect id="Rectangle_716" data-name="Rectangle 716" width="21.048" height="12.027" transform="translate(9.522 157.357)" fill="#fff" opacity="0.4"/>
          <rect id="Rectangle_717" data-name="Rectangle 717" width="21.048" height="12.027" transform="translate(77.676 169.385) rotate(180)" fill="#fff" opacity="0.4"/>
          <rect id="Rectangle_718" data-name="Rectangle 718" width="21.048" height="12.027" transform="translate(9.522 180.911)" fill="#fff" opacity="0.4"/>
          <rect id="Rectangle_719" data-name="Rectangle 719" width="21.048" height="12.027" transform="translate(77.676 192.938) rotate(180)" fill="#fff" opacity="0.4"/>
          <rect id="Rectangle_720" data-name="Rectangle 720" width="21.048" height="12.027" transform="translate(9.522 204.464)" fill="#fff" opacity="0.4"/>
          <rect id="Rectangle_721" data-name="Rectangle 721" width="21.048" height="12.027" transform="translate(77.676 216.492) rotate(180)" fill="#fff" opacity="0.4"/>
          <rect id="Rectangle_722" data-name="Rectangle 722" width="21.048" height="12.027" transform="translate(9.522 228.018)" fill="#fff" opacity="0.4"/>
          <rect id="Rectangle_723" data-name="Rectangle 723" width="21.048" height="12.027" transform="translate(77.676 240.045) rotate(180)" fill="#fff" opacity="0.4"/>
          <rect id="Rectangle_724" data-name="Rectangle 724" width="49.112" height="6.014" transform="translate(95.216 198.451)" fill="#fff" opacity="0.4"/>
          <rect id="Rectangle_725" data-name="Rectangle 725" width="49.112" height="6.014" transform="translate(95.216 207.471)" fill="#fff" opacity="0.4"/>
          <rect id="Rectangle_726" data-name="Rectangle 726" width="49.112" height="6.014" transform="translate(95.216 216.492)" fill="#fff" opacity="0.4"/>
          <rect id="Rectangle_727" data-name="Rectangle 727" width="49.112" height="6.014" transform="translate(223.508 201.457)" fill="#fff" opacity="0.4"/>
          <rect id="Rectangle_728" data-name="Rectangle 728" width="49.112" height="6.014" transform="translate(223.508 210.478)" fill="#fff" opacity="0.4"/>
          <rect id="Rectangle_729" data-name="Rectangle 729" width="49.112" height="6.014" transform="translate(223.508 219.498)" fill="#fff" opacity="0.4"/>
          <rect id="Rectangle_730" data-name="Rectangle 730" width="49.112" height="6.014" transform="translate(95.216 225.512)" fill="#fff" opacity="0.4"/>
          <rect id="Rectangle_731" data-name="Rectangle 731" width="49.112" height="6.014" transform="translate(95.216 234.533)" fill="#fff" opacity="0.4"/>
          <rect id="Rectangle_732" data-name="Rectangle 732" width="49.112" height="6.014" transform="translate(95.216 243.553)" fill="#fff" opacity="0.4"/>
          <rect id="Rectangle_733" data-name="Rectangle 733" width="13.531" height="17.54" transform="translate(162.369 136.31)" fill="#fff" opacity="0.4"/>
          <rect id="Rectangle_734" data-name="Rectangle 734" width="13.531" height="17.54" transform="translate(205.467 153.849) rotate(180)" fill="#fff" opacity="0.4"/>
          <rect id="Rectangle_735" data-name="Rectangle 735" width="13.531" height="17.54" transform="translate(162.369 164.373)" fill="#fff" opacity="0.4"/>
          <rect id="Rectangle_736" data-name="Rectangle 736" width="13.531" height="17.54" transform="translate(205.467 181.913) rotate(180)" fill="#fff" opacity="0.4"/>
          <rect id="Rectangle_737" data-name="Rectangle 737" width="13.531" height="17.54" transform="translate(162.369 192.437)" fill="#fff" opacity="0.4"/>
          <rect id="Rectangle_738" data-name="Rectangle 738" width="13.531" height="17.54" transform="translate(205.467 209.977) rotate(180)" fill="#fff" opacity="0.4"/>
          <rect id="Rectangle_739" data-name="Rectangle 739" width="13.531" height="17.54" transform="translate(162.369 220.501)" fill="#fff" opacity="0.4"/>
          <rect id="Rectangle_740" data-name="Rectangle 740" width="13.531" height="17.54" transform="translate(205.467 238.041) rotate(180)" fill="#fff" opacity="0.4"/>
          <rect id="Rectangle_741" data-name="Rectangle 741" width="18.041" height="23.052" transform="translate(280.136 42.096)" fill="#fff" opacity="0.4"/>
          <rect id="Rectangle_742" data-name="Rectangle 742" width="18.041" height="23.052" transform="translate(280.136 75.171)" fill="#fff" opacity="0.4"/>
          <rect id="Rectangle_743" data-name="Rectangle 743" width="18.041" height="23.052" transform="translate(280.136 108.246)" fill="#fff" opacity="0.4"/>
          <rect id="Rectangle_744" data-name="Rectangle 744" width="18.041" height="23.052" transform="translate(280.136 141.321)" fill="#fff" opacity="0.4"/>
          <rect id="Rectangle_745" data-name="Rectangle 745" width="18.041" height="23.052" transform="translate(280.136 174.396)" fill="#fff" opacity="0.4"/>
          <rect id="Rectangle_746" data-name="Rectangle 746" width="18.041" height="23.052" transform="translate(280.136 207.471)" fill="#fff" opacity="0.4"/>
          <rect id="Rectangle_747" data-name="Rectangle 747" width="67.152" height="19.544" transform="translate(337.015 89.203)" fill="#fff" opacity="0.4"/>
          <rect id="Rectangle_748" data-name="Rectangle 748" width="67.152" height="19.544" transform="translate(337.266 131.298)" fill="#fff" opacity="0.4"/>
          <rect id="Rectangle_749" data-name="Rectangle 749" width="67.152" height="19.544" transform="translate(337.516 173.394)" fill="#fff" opacity="0.4"/>
          <rect id="Rectangle_750" data-name="Rectangle 750" width="67.152" height="19.544" transform="translate(337.767 215.489)" fill="#fff" opacity="0.4"/>
          <rect id="Rectangle_751" data-name="Rectangle 751" width="9.02" height="19.043" transform="translate(15.034 48.61)" fill="#fff" opacity="0.4"/>
          <rect id="Rectangle_752" data-name="Rectangle 752" width="22.551" height="29.066" transform="translate(456.036 136.31)" fill="#fff" opacity="0.4"/>
          <rect id="Rectangle_753" data-name="Rectangle 753" width="22.551" height="29.066" transform="translate(456.036 178.405)" fill="#fff" opacity="0.4"/>
          <rect id="Rectangle_754" data-name="Rectangle 754" width="22.551" height="29.066" transform="translate(456.036 220.501)" fill="#fff" opacity="0.4"/>
          <path id="Path_2426" data-name="Path 2426" d="M350.289,162.513h-3.448a2.415,2.415,0,1,0,0-4.826H318.913a2.415,2.415,0,0,0,0,4.826h3.448a2.415,2.415,0,1,0,0,4.826h-4.826a2.415,2.415,0,0,0,0,4.826h27.928a2.415,2.415,0,0,0,0-4.826h4.826a2.415,2.415,0,1,0,0-4.826Z" transform="translate(-217.648 -138.619)" fill="#252223" opacity="0.1"/>
          <path id="Path_2427" data-name="Path 2427" d="M596.07,283.513h-3.448a2.415,2.415,0,1,0,0-4.826H564.694a2.415,2.415,0,0,0,0,4.826h3.448a2.415,2.415,0,1,0,0,4.826h-4.826a2.415,2.415,0,1,0,0,4.826h27.928a2.415,2.415,0,1,0,0-4.826h4.826a2.415,2.415,0,1,0,0-4.826Z" transform="translate(-340.149 -198.982)" fill="#252223" opacity="0.1"/>
          <path id="Path_2428" data-name="Path 2428" d="M1015.07,125.513h-3.448a2.415,2.415,0,1,0,0-4.826H983.694a2.415,2.415,0,0,0,0,4.826h3.448a2.415,2.415,0,1,0,0,4.826h-4.826a2.415,2.415,0,1,0,0,4.826h27.928a2.415,2.415,0,1,0,0-4.826h4.826a2.415,2.415,0,1,0,0-4.826Z" transform="translate(-549.172 -120.161)" fill="#252223" opacity="0.1"/>
          <path id="Path_2439" data-name="Path 2439" d="M324.425,444.59l-.055.17A1,1,0,0,0,324.425,444.59Z" transform="translate(-222.208 -281.745)" fill="url(#linear-gradient)"/>
          <path id="Path_2463" data-name="Path 2463" d="M235.62,630.164c-3.849-2.37,4.44-36.418,5.923-38.192.646-.777,2.661-.421,4.721.231-2.335-.817-4.866-1.418-5.608-.5-1.5,1.774-9.772,35.821-5.923,38.192a6.982,6.982,0,0,0,2.145.977A10.853,10.853,0,0,1,235.62,630.164Z" transform="translate(-176.987 -354.903)" fill="#fff" opacity="0.5"/>
          <path id="Path_2464" data-name="Path 2464" d="M603.819,710.34c.4,1,.281,2.2-1.378,3.217-3.849,2.37-34.934,9.772-34.934,9.772a14.832,14.832,0,0,1-.847-1.438,15.8,15.8,0,0,0,1.143,2.03s31.071-7.4,34.934-9.772C604.727,712.926,604.5,711.463,603.819,710.34Z" transform="translate(-343.077 -414.318)" fill="#fff" opacity="0.5"/>
          <path id="Path_2471" data-name="Path 2471" d="M543.32,692.516c-3.568,1.839-7.307,3.428-10.995,5.011-13.626,5.753-27.457,11.556-42.1,13.531-27.472,3.7-55.847-6.324-82.853-.085-22.626,5.222-41.339,21.223-63.444,28.349a103.077,103.077,0,0,1-31.762,4.611h-1.418q-2-.025-3.979-.1a216.082,216.082,0,0,1-32.649-4.1c-33.862-6.515-68.325-18.457-94.214-40.442C255.3,685.495,410.574,664.357,543.32,692.516Z" transform="translate(-149.149 -408.427)" fill="#252223" opacity="0.1"/>
          <path id="Path_2472" data-name="Path 2472" d="M735.295,534.72a23.243,23.243,0,0,1,4.24,24.175c-5.492,14.443,9.421,38.462,9.421,38.462l-.456-.075a28.333,28.333,0,0,1-18.808-43.374C733.821,547.589,737.214,540.182,735.295,534.72Z" transform="translate(-422.098 -326.708)" fill="#6c63ff"/>
          <path id="Path_2473" data-name="Path 2473" d="M743.229,534.72s5.513,11.932,0,21.664-.942,37.049,13.656,40.973" transform="translate(-430.033 -326.708)" fill="none" stroke="#535461" stroke-miterlimit="10" stroke-width="1"/>
          <path id="Path_2474" data-name="Path 2474" d="M710.89,613.149s11.105-1.769,12.118,8.184,21.358,11.331,21.358,11.331l-.381.256c-16.8,11.025-32.855,7.016-30.434-7.617C714.453,619.859,714.373,614.392,710.89,613.149Z" transform="translate(-415.028 -365.772)" fill="#6c63ff"/>
          <path id="Path_2475" data-name="Path 2475" d="M710.89,613.149s11.105-1.769,12.118,8.184,21.358,11.331,21.358,11.331l-.381.256c-16.8,11.025-32.855,7.016-30.434-7.617C714.453,619.859,714.373,614.392,710.89,613.149Z" transform="translate(-415.028 -365.772)" fill="#f5f5f5" opacity="0.2"/>
          <path id="Path_2476" data-name="Path 2476" d="M710.89,613.27s8.62,1.894,7.913,9.732,12.8,17.234,25.558,9.787" transform="translate(-415.028 -365.893)" fill="none" stroke="#535461" stroke-miterlimit="10" stroke-width="1"/>
          <path id="Path_2477" data-name="Path 2477" d="M768.3,649.174s-6.986-1.4-8.845-3.257-10.243-5.122-11.175-2.791-12.574,10.243-4.655,11.642,18.627,1.864,20.953.932S768.3,649.174,768.3,649.174Z" transform="translate(-429.991 -380.383)" fill="#a8a8a8"/>
          <path id="Path_2478" data-name="Path 2478" d="M743.638,660.671c7.918,1.4,18.627,1.864,20.953.932,1.774-.712,3.007-4.114,3.508-5.7l.231.05s-1.4,5.588-3.724,6.515-13.03.466-20.953-.932c-2.285-.4-2.937-1.348-2.691-2.551C741.142,659.769,741.959,660.37,743.638,660.671Z" transform="translate(-430.005 -387.16)" opacity="0.2"/>
          <path id="Path_2479" data-name="Path 2479" d="M1043.5,608.553s6.62-22.486-1.243-39.034a35.515,35.515,0,0,1-2.872-22.281,59.729,59.729,0,0,1,3.152-10.459" transform="translate(-578.573 -327.735)" fill="none" stroke="#535461" stroke-miterlimit="10" stroke-width="2"/>
          <path id="Path_2480" data-name="Path 2480" d="M1036.58,511.364c0,2.756,5.012,10.744,5.012,10.744s5.011-7.993,5.011-10.744a5.011,5.011,0,0,0-9.978,0Z" transform="translate(-577.503 -312.793)" fill="#6c63ff"/>
          <path id="Path_2481" data-name="Path 2481" d="M1019.54,539.037c1.5,2.315,10.023,6.309,10.023,6.309s-.155-9.421-1.654-11.732a5.011,5.011,0,0,0-8.379,5.422Z" transform="translate(-568.711 -325.201)" fill="#6c63ff"/>
          <path id="Path_2482" data-name="Path 2482" d="M1017.7,588.776c2.461,1.243,11.842.386,11.842.386s-4.891-8.053-7.352-9.3a5.011,5.011,0,1,0-4.51,8.91Z" transform="translate(-566.51 -348.856)" fill="#6c63ff"/>
          <path id="Path_2483" data-name="Path 2483" d="M1028.606,628.955c2.215,1.639,11.606,2.38,11.606,2.38s-3.458-8.765-5.673-10.4a5.011,5.011,0,0,0-5.933,8.018Z" transform="translate(-572.701 -369.361)" fill="#6c63ff"/>
          <path id="Path_2484" data-name="Path 2484" d="M1049.865,551.771c-1.974,1.919-11.185,3.909-11.185,3.909s2.255-9.146,4.229-11.065a5.011,5.011,0,0,1,6.956,7.156Z" transform="translate(-578.55 -331.09)" fill="#6c63ff"/>
          <path id="Path_2485" data-name="Path 2485" d="M1059.672,596.436c-2.461,1.243-11.842.386-11.842.386s4.891-8.053,7.352-9.3a5.011,5.011,0,1,1,4.51,8.91Z" transform="translate(-583.115 -352.677)" fill="#6c63ff"/>
          <path id="Path_2486" data-name="Path 2486" d="M1063.9,643.5c-2.215,1.639-11.606,2.38-11.606,2.38s3.458-8.765,5.673-10.4a5.011,5.011,0,0,1,5.933,8.018Z" transform="translate(-585.34 -376.619)" fill="#6c63ff"/>
          <path id="Path_2487" data-name="Path 2487" d="M1029.7,663.776s-12.1-2.421-15.33-5.648-17.75-8.875-19.364-4.841-21.784,17.75-8.068,20.171,32.273,3.227,36.3,1.614S1029.7,663.776,1029.7,663.776Z" transform="translate(-550.367 -385.158)" fill="#a8a8a8"/>
          <path id="Path_2488" data-name="Path 2488" d="M986.952,683.709c13.716,2.421,32.273,3.227,36.3,1.614,3.072-1.228,5.207-7.131,6.049-9.883l.406.085s-2.42,9.682-6.455,11.3-22.591.807-36.3-1.614c-3.959-.7-5.091-2.34-4.666-4.415C982.627,682.145,984.005,683.188,986.952,683.709Z" transform="translate(-550.375 -396.907)" opacity="0.2"/>
        </g>
        <g id="Group_52" data-name="Group 52" transform="translate(891.795 364.688)">
          <ellipse id="Ellipse_133" data-name="Ellipse 133" cx="11.573" cy="1.775" rx="11.573" ry="1.775" transform="translate(13.865 171.852)" fill="#6c63ff" opacity="0.1"/>
          <ellipse id="Ellipse_134" data-name="Ellipse 134" cx="11.573" cy="1.775" rx="11.573" ry="1.775" transform="translate(180.783 174.267)" fill="#6c63ff" opacity="0.1"/>
          <ellipse id="Ellipse_135" data-name="Ellipse 135" cx="11.573" cy="1.775" rx="11.573" ry="1.775" transform="translate(152.273 190.712)" fill="#6c63ff" opacity="0.1"/>
          <ellipse id="Ellipse_136" data-name="Ellipse 136" cx="11.573" cy="1.775" rx="11.573" ry="1.775" transform="translate(51.365 158.607)" fill="#6c63ff" opacity="0.1"/>
          <ellipse id="Ellipse_137" data-name="Ellipse 137" cx="66.382" cy="14.31" rx="66.382" ry="14.31" transform="translate(0 178.943)" fill="#6c63ff" opacity="0.1"/>
          <path id="Path_2491" data-name="Path 2491" d="M845.152,121.851h-.369a.9.9,0,0,0,.45-.732h0c0-.576-.707-1.048-1.571-1.048H832.648c-.864,0-1.574.472-1.574,1.048h0c0,.579.71,1.051,1.574,1.051h.369a.905.905,0,0,0-.45.732c0,.492.514.908,1.2,1.02h-3.176c-.867,0-1.574.472-1.574,1.048s.707,1.051,1.574,1.051H841.61c.867,0,1.574-.472,1.574-1.051,0-.492-.514-.906-1.2-1.018h3.173c.864,0,1.571-.472,1.571-1.051S846.016,121.851,845.152,121.851Z" transform="translate(-628.689 -120.07)" fill="#6c63ff" opacity="0.1"/>
          <path id="Path_2492" data-name="Path 2492" d="M417.992,157.613h-.369a.917.917,0,0,0,.45-.732h0c0-.579-.707-1.051-1.574-1.051H405.483c-.867,0-1.574.472-1.574,1.051h0c0,.576.707,1.048,1.574,1.048h.366a.914.914,0,0,0-.447.732c0,.495.514.909,1.2,1.02h-3.17c-.867,0-1.574.472-1.574,1.051s.707,1.048,1.574,1.048H414.45c.867,0,1.574-.472,1.574-1.048,0-.495-.517-.908-1.2-1.02h3.173c.864,0,1.571-.472,1.571-1.051S418.856,157.613,417.992,157.613Z" transform="translate(-320.937 -145.834)" fill="#6c63ff" opacity="0.1"/>
          <path id="Path_2493" data-name="Path 2493" d="M905.612,310.681h-.369a.917.917,0,0,0,.45-.732h0c0-.576-.707-1.048-1.574-1.048H893.1c-.867,0-1.574.472-1.574,1.048h0c0,.576.707,1.048,1.574,1.048h.366a.911.911,0,0,0-.447.732c0,.492.514.909,1.2,1.02h-3.173c-.864,0-1.571.472-1.571,1.048s.707,1.051,1.571,1.051H902.07c.864,0,1.574-.472,1.574-1.051,0-.492-.517-.906-1.2-1.017h3.173c.864,0,1.571-.472,1.571-1.051S906.476,310.681,905.612,310.681Z" transform="translate(-672.248 -256.115)" fill="#6c63ff" opacity="0.1"/>
          <path id="Path_2494" data-name="Path 2494" d="M226.507,601.47l128.8,14.474v4.106L226.18,605.085Z" transform="translate(-162.954 -456.443)" fill="#eaecf0"/>
          <path id="Path_2495" data-name="Path 2495" d="M220.353,499.652H217.91V438.97l1.758.534.02,1.82Z" transform="translate(-156.996 -339.368)" fill="#eaecf0"/>
          <path id="Path_2496" data-name="Path 2496" d="M225.961,500.05l-1.076.978L224.22,442.7l-.02-1.82h1.272l.017,1.929Z" transform="translate(-161.528 -340.744)" fill="#d3dae1"/>
          <path id="Path_2497" data-name="Path 2497" d="M92.83,614.94l35.649-12.42v1.174L92.83,616.016Z" transform="translate(-66.88 -457.199)" fill="#d3dae1"/>
          <path id="Path_2498" data-name="Path 2498" d="M93.467,621.877l-.637-2.834,35.649-12.322v2.443Z" transform="translate(-66.88 -460.225)" fill="#eaecf0"/>
          <path id="Path_2499" data-name="Path 2499" d="M683.077,425.14v80.194h-1.859l-.1-74.393,0-2.379Z" transform="translate(-490.721 -329.404)" fill="#eaecf0"/>
          <path id="Path_2500" data-name="Path 2500" d="M689.487,423.74v79.9l-1.367.685V424.131Z" transform="translate(-495.764 -328.395)" fill="#d3dae1"/>
          <path id="Path_2501" data-name="Path 2501" d="M586.13,667.372l26.629-14.882,1.881,1.093-28.51,15.548Z" transform="translate(-422.284 -493.201)" fill="#d3dae1"/>
          <path id="Path_2502" data-name="Path 2502" d="M586.963,675.274l-.833-3.326L614.64,656.4v3.226Z" transform="translate(-422.284 -496.018)" fill="#eaecf0"/>
          <path id="Path_2503" data-name="Path 2503" d="M574.76,468.448l.1,84.694H577.5l-.391-85.673Z" transform="translate(-414.093 -359.901)" fill="#eaecf0"/>
          <path id="Path_2504" data-name="Path 2504" d="M584.823,464.67v85.771l-1.272.685-.391-85.673.157-.073Z" transform="translate(-420.145 -357.884)" fill="#d3dae1"/>
          <path id="Path_2505" data-name="Path 2505" d="M83.793,507.456h-2.25l-.772-75.76-.011-1.305h2.152l.017,1.49Z" transform="translate(-58.185 -333.186)" fill="#eaecf0"/>
          <path id="Path_2506" data-name="Path 2506" d="M90.9,506.869l-1.563.587-.864-75.576-.017-1.49h1.663l.014,1.635Z" transform="translate(-63.732 -333.186)" fill="#d3dae1"/>
          <path id="Path_2507" data-name="Path 2507" d="M583.72,465.38l1.507-.71V468l-1.467.489Z" transform="translate(-420.548 -357.884)" opacity="0.1"/>
          <path id="Path_2508" data-name="Path 2508" d="M684.444,423.74v5.085l-1.367.458-1.954.649,0-2.379,1.957-3.422Z" transform="translate(-490.721 -328.395)" opacity="0.1"/>
          <path id="Path_2509" data-name="Path 2509" d="M613.867,388.75v14.083l-30.512,10.172-.2-15.062Z" transform="translate(-420.145 -303.186)" fill="#d48a9b"/>
          <path id="Path_2510" data-name="Path 2510" d="M79.36,365.6l40.1-7.626,131.439,8.6-30.707,9.194Z" transform="translate(-57.176 -281.01)" fill="#efc6cd"/>
          <path id="Path_2511" data-name="Path 2511" d="M84.576,430.39l.014,1.635-1.66-.145-2.158-.185-.011-1.305Z" transform="translate(-58.185 -333.186)" opacity="0.1"/>
          <path id="Path_2512" data-name="Path 2512" d="M220.957,441.433l-1.269-.109-1.778-.151v-2.2l1.758.534h1.272Z" transform="translate(-156.996 -339.368)" opacity="0.1"/>
          <path id="Path_2513" data-name="Path 2513" d="M79.36,385.25v13.108l141.027,12.126-.2-15.062Z" transform="translate(-57.176 -300.665)" fill="#d48a9b"/>
          <path id="Path_2514" data-name="Path 2514" d="M431.9,423.774H413.48V417.09l18.419,1.3Z" transform="translate(-297.897 -323.604)" fill="#d48a9b"/>
          <path id="Path_2515" data-name="Path 2515" d="M431.9,423.774H413.48V417.09l18.419,1.3Z" transform="translate(-297.897 -323.604)" opacity="0.1"/>
          <path id="Path_2516" data-name="Path 2516" d="M324.96,411.85v10.561l70.709,5.378V416.543l-27.579-1.565-2.74,2.446-11.246-.783-4.009-2.935Z" transform="translate(-234.121 -319.829)" opacity="0.1"/>
          <path id="Path_2517" data-name="Path 2517" d="M323.56,410.44V421l70.709,5.378V415.136l-27.579-1.565-2.737,2.446-11.249-.783L348.7,412.3Z" transform="translate(-233.113 -318.813)" fill="#fff"/>
          <path id="Path_2518" data-name="Path 2518" d="M163.157,400.3l16.722,1.174-.2,5.314H168.764l-7.3-2.871Z" transform="translate(-116.326 -311.508)" fill="#d48a9b"/>
          <path id="Path_2519" data-name="Path 2519" d="M163.157,400.3l16.722,1.174-.2,5.314H168.764l-7.3-2.871Z" transform="translate(-116.326 -311.508)" opacity="0.1"/>
          <path id="Path_2520" data-name="Path 2520" d="M87.76,395.05v9.487l64.157,5.085V399.548l-24.745-1.465-2.639,1.954-9.977-.584-4.106-2.544Z" transform="translate(-63.228 -307.725)" opacity="0.1"/>
          <path id="Path_2521" data-name="Path 2521" d="M86.36,393.65v9.488l64.157,5.085V398.151l-24.745-1.468-2.639,1.957-9.977-.587-4.106-2.544Z" transform="translate(-62.219 -306.716)" fill="#fff"/>
          <path id="Path_2522" data-name="Path 2522" d="M96.65,649.091l.439-.151-.221,3.12-.218.078Z" transform="translate(-69.633 -490.643)" opacity="0.1"/>
          <path id="Path_2523" data-name="Path 2523" d="M543.149,393.78l8.993.59-14.9,4.461-7.589-.551Z" transform="translate(-381.593 -306.81)" opacity="0.1"/>
          <path id="Path_2524" data-name="Path 2524" d="M543.149,392.38l8.993.59-14.9,4.459-7.589-.548Z" transform="translate(-381.593 -305.801)" fill="#fff"/>
          <path id="Path_2525" data-name="Path 2525" d="M686.46,433.288c.355-.151.732.134,1.118.207.215.042.439,0,.654.042.442.059.881.355,1.3.2" transform="translate(-525.98 -345.7)" fill="#d3dae1"/>
          <path id="Path_2526" data-name="Path 2526" d="M684.8,434.254c.352-.154.732.131,1.118.2.215.042.439,0,.657.042.442.059.878.355,1.3.2" transform="translate(-524.784 -346.396)" fill="#d3dae1"/>
          <path id="Path_2527" data-name="Path 2527" d="M681,436.178c.355-.151.735.134,1.118.207.215.042.439,0,.657.042.442.059.878.355,1.3.2" transform="translate(-522.046 -347.783)" fill="#d3dae1"/>
          <circle id="Ellipse_138" data-name="Ellipse 138" cx="2.625" cy="2.625" r="2.625" transform="translate(11.352 180.361)" fill="#535461"/>
          <circle id="Ellipse_139" data-name="Ellipse 139" cx="2.625" cy="2.625" r="2.625" transform="translate(16.048 190.628)" fill="#535461"/>
          <circle id="Ellipse_140" data-name="Ellipse 140" cx="2.625" cy="2.625" r="2.625" transform="translate(62.879 192.487)" fill="#535461"/>
          <circle id="Ellipse_141" data-name="Ellipse 141" cx="2.625" cy="2.625" r="2.625" transform="translate(73.342 179.089)" fill="#535461"/>
          <rect id="Rectangle_766" data-name="Rectangle 766" width="3.287" height="20.538" transform="translate(43.063 136.63)" fill="#535461"/>
          <rect id="Rectangle_767" data-name="Rectangle 767" width="3.287" height="3.327" transform="translate(43.063 153.841)" opacity="0.1"/>
          <rect id="Rectangle_768" data-name="Rectangle 768" width="4.556" height="22.788" transform="translate(42.428 154.624)" fill="#3a3768"/>
          <path id="Path_2528" data-name="Path 2528" d="M305.212,751.052,275.38,749.83v4.8H310A5.289,5.289,0,0,0,305.212,751.052Z" transform="translate(-229.813 -573.788)" fill="#3a3768"/>
          <path id="Path_2529" data-name="Path 2529" d="M156.318,751.052l29.832-1.222v4.8H151.53A5.286,5.286,0,0,1,156.318,751.052Z" transform="translate(-140.583 -573.788)" fill="#3a3768"/>
          <path id="Path_2530" data-name="Path 2530" d="M194.121,750.326,170.3,762.067a6.038,6.038,0,0,0-3.354,5.409v.358l27.814-12.126,3.914-.294,23.129,14.768h0a6.032,6.032,0,0,0-2.491-5.731L198.678,749.84Z" transform="translate(-151.693 -573.795)" fill="#3a3768"/>
          <path id="Path_2531" data-name="Path 2531" d="M269.707,608.83v2.214q-.864.036-1.761.036c-.517,0-1.026,0-1.526-.028V608.83Z" transform="translate(-223.357 -472.203)" opacity="0.1"/>
          <ellipse id="Ellipse_142" data-name="Ellipse 142" cx="12.129" cy="3.547" rx="12.129" ry="3.547" transform="translate(32.46 131)" fill="#3a3768"/>
          <path id="Path_2532" data-name="Path 2532" d="M252.368,592.247a1.448,1.448,0,0,1-.517,1.026c-1.5,1.459-6.13,2.516-11.609,2.516-5.359,0-9.9-1.018-11.509-2.424a1.537,1.537,0,0,1-.623-1.118c0-1.957,5.431-3.547,12.132-3.547S252.368,590.288,252.368,592.247Z" transform="translate(-195.756 -457.7)" opacity="0.1"/>
          <path id="Path_2533" data-name="Path 2533" d="M252.738,592.262a1.448,1.448,0,0,1-.517,1.026c-1.543-.386-2.611-.7-2.611-.7s-10.692.6-20.507.8a1.538,1.538,0,0,1-.623-1.118c0-1.957,5.431-3.547,12.132-3.547S252.738,590.3,252.738,592.262Z" transform="translate(-196.023 -457.715)" opacity="0.1"/>
          <path id="Path_2534" data-name="Path 2534" d="M162.083,425s4.011,10.955,3.816,17.507-3.326,18.874-3.326,18.874-3.128,9.977,4.892,10.857,34.229-.587,34.229-.587,9.784,2.932,12.909,1.66a7.78,7.78,0,0,0,3.1-2.72,5.689,5.689,0,0,0-1.476-8.121,16.947,16.947,0,0,0-4.716-2.024,3.788,3.788,0,0,0-1.076-.131l-34.173.674s-3.813-.587-3.128-4.4,1.856-15.551,1.856-15.551.2-14.279-6.65-18.287S162.083,425,162.083,425Z" transform="translate(-148.106 -337.176)" fill="#3a3768"/>
          <path id="Path_2535" data-name="Path 2535" d="M162.083,424.872s4.011,10.952,3.816,17.5-3.326,18.877-3.326,18.877-3.128,9.974,4.892,10.854,34.229-.59,34.229-.59,9.784,2.935,12.909,1.677a7.824,7.824,0,0,0,3.1-2.72,5.691,5.691,0,0,0-1.476-8.123,17.113,17.113,0,0,0-4.716-2.024,3.686,3.686,0,0,0-1.076-.129l-34.173.663s-3.813-.587-3.128-4.4,1.856-15.548,1.856-15.548.2-14.279-6.65-18.29S162.083,424.872,162.083,424.872Z" transform="translate(-148.106 -337.081)" opacity="0.1"/>
          <path id="Path_2536" data-name="Path 2536" d="M164.882,423.6s4.011,10.955,3.816,17.507-3.327,18.874-3.327,18.874-3.128,9.977,4.889,10.857,34.229-.587,34.229-.587,9.784,2.932,12.912,1.677a7.809,7.809,0,0,0,3.1-2.723,5.689,5.689,0,0,0-1.476-8.121,16.945,16.945,0,0,0-4.716-2.038,3.787,3.787,0,0,0-1.076-.131l-34.173.674s-3.813-.587-3.128-4.4,1.856-15.551,1.856-15.551.2-14.279-6.65-18.287S164.882,423.6,164.882,423.6Z" transform="translate(-150.122 -336.168)" fill="#3a3768"/>
          <path id="Path_2537" data-name="Path 2537" d="M413.011,743.148v3.536s16.892.3,20.613.3,8.842-1.828,9.146-3.293-4.269-2.684-5.977-2.742-1.767-.732-3.964-1.892a22.875,22.875,0,0,1-4.523-4.081c-1.082-1.18-1.879-2.139-1.879-2.139s-9.088-.182-11.71,1.28a3.181,3.181,0,0,0-1.305,1.817C412.469,738.67,413.011,743.148,413.011,743.148Z" transform="translate(-328.859 -561.543)" fill="#434175"/>
          <path id="Path_2538" data-name="Path 2538" d="M414.85,735.939c1.906-.662,13.06-.92,14.894-.959-1.082-1.18-1.879-2.139-1.879-2.139s-9.088-.182-11.71,1.28A3.172,3.172,0,0,0,414.85,735.939Z" transform="translate(-330.295 -561.543)" opacity="0.1"/>
          <path id="Path_2539" data-name="Path 2539" d="M239.54,535.944l.984.6.369.224,1.434.861c7.665,4.621,28.572,17.141,29.718,17.052.3-.025,1.2-.159,2.443-.363.33-.053.685-.109,1.057-.173,4.789-.8,12.747-2.236,13.636-2.633,1.219-.559.976,1.89.486,3.964s-.853,12.02-.3,13.295a8.125,8.125,0,0,1,.3,3.354l-.73,11.159.489,2.37s-1.647,1.342-.976,2.133.061,4.21.061,4.21c1.957-.732,15.185-.975,15.185-.975s-.559-4.881-.061-6.038.123-8.051.123-8.051.3-5.244-.243-6.463.182-9.026.182-9.026.489-4.635.609-14.089-5.367-9.756-5.367-9.756-.73-.059-1.842-.165c-2.172-.21-5.795-.607-8.216-1.118a14.167,14.167,0,0,1-1.468-.391c-2.988-1.018-13.049-1.057-14.7-.324a4.4,4.4,0,0,1-3.287,0h0l-1.28-2.074-12.233,1.043-1.294.112L242.581,535.7l-.839.073Z" transform="translate(-203.991 -417.945)" fill="#565387"/>
          <path id="Path_2540" data-name="Path 2540" d="M410.243,552.48c3.553,1.733,6.944-4.408,8.523-7.872-2.172-.21-5.795-.607-8.216-1.118C408.96,546.148,406.835,550.822,410.243,552.48Z" transform="translate(-325.663 -425.128)" opacity="0.1"/>
          <path id="Path_2541" data-name="Path 2541" d="M376.759,411.795a3.686,3.686,0,0,0,.43,1.191,95.98,95.98,0,0,0,5.118,8.14,8.817,8.817,0,0,1,2.8,2.8c1.037,1.77,1.342,5.915,1.342,5.915s2.317,9.208,3.413,10.491c.559.64.3,1.02-.075,1.241a5.432,5.432,0,0,0-1.923,1.8c-1.6,2.569-4.151,7.671-.559,9.42,4.878,2.379,9.454-10.089,9.454-10.089s-.917-8.842-1.16-10.365-1.708-7.807-1.708-7.807-1.037-2.684-1.646-4.573a15.5,15.5,0,0,0-2.438-4.087s-3.3-6.586-4.21-7.562c-.425-.453-1.02-1.023-1.535-1.5-.6-.559-1.087-1-1.087-1S376.7,410.336,376.759,411.795Z" transform="translate(-302.852 -325.935)" fill="#ee8e9e"/>
          <path id="Path_2542" data-name="Path 2542" d="M228.85,732.36l11.1,4.939s14.382.3,16.9-.366,1.957-3.475-1.342-4.025-4.084-2.01-5.183-2.681a52.277,52.277,0,0,1-5-5.233c-.785-.892-1.342-1.537-1.342-1.537s-2.136-5.672-8.051-4.392a6.074,6.074,0,0,0-2.882,1.523c-3.19,2.952-3.466,8.792-3.466,8.792Z" transform="translate(-196.289 -551.488)" fill="#434175"/>
          <path id="Path_2543" data-name="Path 2543" d="M244.38,536.085l1.434.861c7.665,4.621,28.572,17.141,29.718,17.052.3-.025,1.2-.159,2.443-.363.33-.053.685-.109,1.057-.173l.042-.07a13.981,13.981,0,0,0,1.4-3.419c1.28-4.878-5.062-8.6-5.062-8.6l-1.342-1.043c-1.523-2.566-12.5-4.993-12.5-4.993l-1.414-.964-.758-.509-.2-.131-1.716-1.154-8.6.609-2.555,1.641-.28.173-.934.612Z" transform="translate(-207.478 -417.268)" opacity="0.1"/>
          <path id="Path_2544" data-name="Path 2544" d="M243.86,720.61c2.334,8.076,12.084,5.437,12.084,5.437l.185-1.023c-.786-.892-1.342-1.537-1.342-1.537s-2.136-5.672-8.051-4.392a6.074,6.074,0,0,0-2.876,1.515Z" transform="translate(-207.104 -551.509)" opacity="0.1"/>
          <path id="Path_2545" data-name="Path 2545" d="M228.022,550.352c3.6,0,12.859,4.33,12.859,4.33a6.137,6.137,0,0,0,4.45.976s-4.5,4.573-4.378,6.466-2.563,5-2.563,5l-8.294,16.4c.612,11.648,12.562,8.417,12.562,8.417l.489-2.745c.732-.366,1.831-4.025,1.831-4.025s0-1.462.73-1.89,2.256-4.819,2.256-4.819,3.293-5.549,3.108-6.278,2.379-4.45,2.379-4.45,4.33-4.268,4.146-5.032,3.483-4.668,3.483-4.668a12.272,12.272,0,0,0,3.237-3.779,14.011,14.011,0,0,0,1.4-3.416c1.031-3.93-2.882-7.109-4.445-8.2-.377-.263-.618-.4-.618-.4L259.31,541.2c-.693-1.168-3.34-2.309-6.024-3.2-1.934-.646-3.886-1.166-5.135-1.476-.839-.2-1.342-.319-1.342-.319l-1.414-.95-.5-.335-.456-.3-1.719-1.154-3.824.28-4.774.338-2.552,1.644-1.219.783-4.766,3.075s-.126,1.171-.165,2.748v.372C225.358,545.866,225.7,550.352,228.022,550.352Z" transform="translate(-193.815 -417.902)" fill="#565387"/>
          <path id="Path_2546" data-name="Path 2546" d="M300.4,334.294l1.286,4.573s2.259,7.869,2.5,8.417a84.453,84.453,0,0,0,6.4,6.22c.254.12,3.464,1.957,3.464,1.957s.254-10.063,0-12.987a8.355,8.355,0,0,1,.159-1.918,71.95,71.95,0,0,1,2.189-8.249c.682-2.172,1.25-3.8,1.25-3.8s-14.27-.612-13.781.791a5.033,5.033,0,0,1-.053,2.306c-.3,1.465-.909,2.93-1.289,2.818a5.016,5.016,0,0,0-1.132-.126C300.878,334.274,300.4,334.294,300.4,334.294Z" transform="translate(-247.838 -270.146)" fill="#ee8e9e"/>
          <path id="Path_2547" data-name="Path 2547" d="M312.65,331.585a10.555,10.555,0,0,0,12.579.7c.682-2.172,1.25-3.8,1.25-3.8s-14.27-.612-13.781.791A4.944,4.944,0,0,1,312.65,331.585Z" transform="translate(-256.664 -270.131)" opacity="0.1"/>
          <path id="Path_2548" data-name="Path 2548" d="M299.09,282.439a10.5,10.5,0,1,0,3.077-7.475A10.553,10.553,0,0,0,299.09,282.439Z" transform="translate(-246.894 -229.45)" fill="#ee8e9e"/>
          <path id="Path_2549" data-name="Path 2549" d="M300.4,349.53l1.286,4.573s2.259,7.869,2.5,8.417a84.471,84.471,0,0,0,6.4,6.22c.254.12,3.464,1.957,3.464,1.957s.254-10.063,0-12.987a8.355,8.355,0,0,1,.159-1.918l-.839,3.38.061,6.77.486.366-1.1,1.646v-1.222s-3.914-3.779-4.514-5.367a26.078,26.078,0,0,0-2.8-4.456s-2.516-4.193-2.561-4.934a8,8,0,0,0-1.56-2.443C300.878,349.51,300.4,349.53,300.4,349.53Z" transform="translate(-247.838 -285.381)" opacity="0.1"/>
          <path id="Path_2550" data-name="Path 2550" d="M376.759,411.817a3.685,3.685,0,0,0,.43,1.191,7.528,7.528,0,0,0,6.877-6.172c-.6-.559-1.087-1-1.087-1S376.7,410.357,376.759,411.817Z" transform="translate(-302.852 -325.957)" opacity="0.1"/>
          <path id="Path_2551" data-name="Path 2551" d="M225.39,542.643c1.23-.872,2.4-2.06,3.1-2.387a13.5,13.5,0,0,0,2.622-2.074s.4-.28,1.02-.637a12.338,12.338,0,0,1,4.408-1.741c1.272-.106,5.5-.377,8.831-.584l4.341-.28s3.964-1.4,5.672-.489a17.981,17.981,0,0,0,3.841,1.4v-.364h0l-1.28-2.074-13.527,1.155L242.7,533.41l-8.6.609-2.552,1.644-2.2.187.984.6-4.766,3.075S225.418,540.885,225.39,542.643Z" transform="translate(-193.797 -417.866)" opacity="0.1"/>
          <path id="Path_2552" data-name="Path 2552" d="M216.988,409.821a5.555,5.555,0,0,0,1.786-.911h0c1.227-.869,2.4-2.055,3.092-2.382a13.5,13.5,0,0,0,2.622-2.074s3.234-2.2,5.429-2.379c.6-.05,1.851-.137,3.354-.235l4.979-.319,2.583-.162,2.256-.137s3.964-1.4,5.672-.489a18,18,0,0,0,3.841,1.4,35.1,35.1,0,0,1,.559-6.038c.5-1.769,1.157-5,1.157-5s.559-4.45,1.1-6.463S258.1,371.4,259.2,370.653s1.705.559,1.705.559,7.318-.123,7.441-8.171c0,0-3.416-3.416-3.659-4.269s-3.475-4.025-3.475-4.025-1.831-3.416-3.914-3.477a16.418,16.418,0,0,0-2.935.092l-1.761,7.165.061,6.77.489.366-1.1,1.647v-1.2s-3.914-3.782-4.512-5.367a26.079,26.079,0,0,0-2.8-4.459s-2.5-4.193-2.561-4.934-1.769-2.692-1.769-2.692a4.338,4.338,0,0,0-1.037,0,1.117,1.117,0,0,1-.453-.064,6.125,6.125,0,0,0-3.047-.173c-2.108.439-5.311,1.238-6.195,2.2-1.342,1.465-3.293,2.868-5.49,8.965l11.83,4.269-1.012,1.926-9.415,17.89s-.313.509-.735,1.171h0c-.559.861-1.283,1.987-1.767,2.605-.853,1.1-.609,4.573-.609,4.573a4.895,4.895,0,0,1-.791,2.259c-.609.612-.492,2.862-.492,2.862l-1.585,5.915s-1.465,1.342-1.465,1.957A7.988,7.988,0,0,1,217,407.328S215.227,410.246,216.988,409.821Z" transform="translate(-187.181 -284.504)" fill="#dfe5ee"/>
          <path id="Path_2553" data-name="Path 2553" d="M247.16,429.857h0a9.217,9.217,0,0,1,.187,1.02s4.816,11.282,5.426,11.953c.187.207.9,1.222,1.786,2.516l1.02,1.507c1.842,2.737,3.914,5.845,3.914,5.845L264,456.662s9.817.786,12.937-2.4c-.377-.263-.618-.4-.618-.4l-1.342-1.043c-.693-1.168-3.341-2.309-6.024-3.2-2.471.017-4.492.218-4.492.218l-.643-1.694-.671-1.767-3.422-8.967s-2.2-11.341-2.932-11.892-.559-2.256-.559-2.256,1.342-4.816.853-5.487.794-5.613.794-5.613a5.063,5.063,0,0,0-.587-1.367l-9.415,17.89S247.582,429.186,247.16,429.857Z" transform="translate(-209.481 -329.523)" opacity="0.1"/>
          <path id="Path_2554" data-name="Path 2554" d="M253.484,401.006s-1.28,4.939-.791,5.61-.855,5.487-.855,5.487-.182,1.708.559,2.256,2.932,11.892,2.932,11.892l4.724,12.442s14.785-1.465,13.261,3.17-13.722,3.659-13.722,3.659l-4.512-3.964s-6.1-9.208-6.709-9.879-5.429-11.953-5.429-11.953a7.292,7.292,0,0,0-1.28-3.416c-1.037-1.16-.243-3.117-.243-3.117s-1.28-14.751.062-16.518S252.086,395.7,253.484,401.006Z" transform="translate(-204.948 -318.744)" fill="#ee8e9e"/>
          <path id="Path_2555" data-name="Path 2555" d="M429.562,584.07s-3.844,1.283-4.872,3.111S429.562,584.07,429.562,584.07Z" transform="translate(-337.298 -454.364)" opacity="0.1"/>
          <path id="Path_2556" data-name="Path 2556" d="M422.672,569.68c-.12.182-5.261,5.339-4.939,6.586S422.672,569.68,422.672,569.68Z" transform="translate(-332.362 -443.997)" opacity="0.1"/>
          <path id="Path_2557" data-name="Path 2557" d="M318.337,582.77s-5.733,2.7-6.223,3.88S318.337,582.77,318.337,582.77Z" transform="translate(-256.26 -453.428)" opacity="0.1"/>
          <path id="Path_2558" data-name="Path 2558" d="M317.867,595.2s-5.174,2.194-5.87,2.745S317.867,595.2,317.867,595.2Z" transform="translate(-256.156 -462.383)" opacity="0.1"/>
          <path id="Path_2559" data-name="Path 2559" d="M314.911,611.117s-2.292,1.708-3.556.366S314.911,611.117,314.911,611.117Z" transform="translate(-255.58 -473.604)" opacity="0.1"/>
          <path id="Path_2560" data-name="Path 2560" d="M329.632,452.74c-.123.185-7.746,13.9-9.759,14.941S329.632,452.74,329.632,452.74Z" transform="translate(-261.701 -359.746)" opacity="0.1"/>
          <path id="Path_2561" data-name="Path 2561" d="M331.465,471.29c0,.3-7.441,16.213-8.666,16.4S331.465,471.29,331.465,471.29Z" transform="translate(-263.901 -373.111)" opacity="0.1"/>
          <path id="Path_2562" data-name="Path 2562" d="M239.471,507.94s-3.589,7.673-4.987,8.123S239.471,507.94,239.471,507.94Z" transform="translate(-200.205 -399.516)" opacity="0.1"/>
          <path id="Path_2563" data-name="Path 2563" d="M245.194,495.72s-1.238,2.684-1.99,2.684S245.194,495.72,245.194,495.72Z" transform="translate(-206.537 -390.712)" opacity="0.1"/>
          <path id="Path_2564" data-name="Path 2564" d="M299.09,282.428a10.5,10.5,0,0,0,.668,3.693,9.963,9.963,0,0,1,10.407-10.237c.512.022,1.118.143,1.325.607a2.548,2.548,0,0,1,.126.772c.154,1.185,1.356,1.926,2.485,2.312a7.44,7.44,0,0,1,3.206,1.5,8.059,8.059,0,0,1,1.331,2.971,4.265,4.265,0,0,0,1.029,1.677,10.553,10.553,0,1,0-20.577-3.3Z" transform="translate(-246.895 -229.439)" opacity="0.1"/>
          <path id="Path_2565" data-name="Path 2565" d="M312.735,249.019c-.867-1.177-2.4-1.585-3.74-2.178a11.867,11.867,0,0,1-6.65-8.081,4.165,4.165,0,0,0,.408,5.194c-2.429-.165-5.113-.444-6.759-2.236-.375,1.291.746,2.759.134,3.955-.525,1.029-1.957,1.118-2.882,1.817a4.246,4.246,0,0,0-1.375,3.287,14.775,14.775,0,0,1-.3,3.659,11.6,11.6,0,0,0-.895,2.642,4.528,4.528,0,0,0,.447,2,18.1,18.1,0,0,0,2.773,4.607,9.979,9.979,0,0,1,10.206-12.02c.512.022,1.118.145,1.325.609a2.515,2.515,0,0,1,.126.772c.154,1.182,1.356,1.923,2.485,2.309a7.472,7.472,0,0,1,3.206,1.5,8.058,8.058,0,0,1,1.331,2.971c.369,1.031,1.082,2.111,2.169,2.236a17.9,17.9,0,0,0,.347-4.629c-.168-1.663-1.286-2.605-1.677-4.053C312.992,251.867,313.8,250.461,312.735,249.019Z" transform="translate(-240.835 -205.582)" fill="#603556"/>
          <path id="Path_2566" data-name="Path 2566" d="M244.058,379.024l-3.841,2.317s-1.1,3.718-1.957,4.193c0,0,7.685-4.269,13.477,5.549a2.226,2.226,0,0,1,.609-1.89c.791-.609.609-3.231.609-3.231a11.058,11.058,0,0,0,.559-1.283C254.046,383.351,251.18,375.67,244.058,379.024Z" transform="translate(-203.069 -306.031)" opacity="0.1"/>
          <path id="Path_2567" data-name="Path 2567" d="M243.57,378.145l-3.844,2.317s-1.1,3.721-1.957,4.21c0,0,7.684-4.271,13.477,5.549a2.221,2.221,0,0,1,.612-1.89c.794-.609.609-3.234.609-3.234a10.462,10.462,0,0,0,.559-1.28C253.569,382.475,250.693,374.79,243.57,378.145Z" transform="translate(-202.716 -305.398)" fill="#dfe5ee"/>
          <g id="Group_51" data-name="Group 51" transform="translate(49.844 34.439)" opacity="0.1">
            <path id="Path_2568" data-name="Path 2568" d="M309.806,252.415c-.014-1-.607-2.091-.319-3.075l.05.053C309.607,250.411,310.172,251.481,309.806,252.415Z" transform="translate(-304.173 -247.643)"/>
            <path id="Path_2569" data-name="Path 2569" d="M294.84,277.871a19.048,19.048,0,0,1-.21,3.324c.092-.853.042-1.73.087-2.591a7.182,7.182,0,0,1,.159-1.213C294.859,277.561,294.845,277.712,294.84,277.871Z" transform="translate(-293.526 -267.852)"/>
            <path id="Path_2570" data-name="Path 2570" d="M290.679,302.584a3.033,3.033,0,0,1,.12-.654,4.659,4.659,0,0,0,.45,1.926,18.052,18.052,0,0,0,2.488,4.249,9.681,9.681,0,0,0,.162,1.09,18.1,18.1,0,0,1-2.773-4.607A4.528,4.528,0,0,1,290.679,302.584Z" transform="translate(-290.679 -285.532)"/>
            <path id="Path_2571" data-name="Path 2571" d="M331.082,246.471c-.235-.014-.475-.031-.713-.05a4.3,4.3,0,0,1-.405-3.15A4.12,4.12,0,0,0,331.082,246.471Z" transform="translate(-318.886 -243.27)"/>
            <path id="Path_2572" data-name="Path 2572" d="M304.485,285.784a10.142,10.142,0,0,1,8.048-3.511c.512.025,1.118.145,1.328.609a2.621,2.621,0,0,1,.126.771c.154,1.183,1.353,1.926,2.485,2.309a7.387,7.387,0,0,1,3.2,1.5,8.027,8.027,0,0,1,1.333,2.969c.369,1.029,1.079,2.108,2.164,2.236l-.117.732c-1.087-.117-1.8-1.2-2.169-2.236a8,8,0,0,0-1.331-2.971,7.44,7.44,0,0,0-3.206-1.5c-1.129-.383-2.331-1.118-2.485-2.309a2.517,2.517,0,0,0-.126-.772,1.449,1.449,0,0,0-1.325-.609A9.929,9.929,0,0,0,302.21,291,10.1,10.1,0,0,1,304.485,285.784Z" transform="translate(-298.987 -271.365)"/>
          </g>
          <path id="Path_2573" data-name="Path 2573" d="M404.826,339.65v10.938l-10.466-.839v-10.1Z" transform="translate(-284.121 -267.812)" fill="#3a3768"/>
          <path id="Path_2574" data-name="Path 2574" d="M404.826,373.419v.895l-10.466-.839v-.894Z" transform="translate(-284.121 -291.536)" opacity="0.1"/>
          <path id="Path_2575" data-name="Path 2575" d="M513.65,412.732l-16.28-.839h0a1.593,1.593,0,0,1,1.593-1.593l13.093.839A1.593,1.593,0,0,1,513.65,412.732Z" transform="translate(-389.748 -329.17)" fill="#3a3768"/>
          <path id="Path_2576" data-name="Path 2576" d="M477.186,288.927l-56.313-1.677a1.711,1.711,0,0,1-1.714-1.714V252.271a1.711,1.711,0,0,1,1.714-1.711l56.313,1.677a1.714,1.714,0,0,1,1.714,1.711v33.265A1.714,1.714,0,0,1,477.186,288.927Z" transform="translate(-333.401 -214.083)" fill="#3a3768"/>
          <path id="Path_2577" data-name="Path 2577" d="M368.388,260.129l-57.1-1.677V228.48l57.1,1.677Z" transform="translate(-224.273 -187.718)" fill="#6c63ff"/>
          <ellipse id="Ellipse_143" data-name="Ellipse 143" cx="0.503" cy="0.498" rx="0.503" ry="0.498" transform="translate(115.063 38.716)" fill="#fff"/>
          <path id="Path_2578" data-name="Path 2578" d="M404.872,346.628l-10.432-.168v.355h10.432Z" transform="translate(-284.179 -272.718)" opacity="0.1"/>
          <path id="Path_2579" data-name="Path 2579" d="M352.294,383.88l14.287.936-3.044,4.375-15.707-1.677Z" transform="translate(-250.598 -299.678)" opacity="0.1"/>
          <path id="Path_2580" data-name="Path 2580" d="M351.294,382.88l14.287.936-3.044,4.375-15.707-1.677Z" transform="translate(-249.878 -298.957)" fill="#3a3768"/>
          <path id="Path_2581" data-name="Path 2581" d="M355.024,384.04l12.459.76-2.653,3.564L351.13,387Z" transform="translate(-252.976 -299.793)" fill="#d5e1f4"/>
          <ellipse id="Ellipse_144" data-name="Ellipse 144" cx="17.946" cy="2.753" rx="17.946" ry="2.753" transform="translate(229.006 196.194)" fill="#6c63ff" opacity="0.1"/>
          <path id="Path_2582" data-name="Path 2582" d="M1017.74,599.29s1.993,2.608-.922,6.547-5.311,7.268-4.347,9.717c0,0,4.4-7.315,7.978-7.416S1021.688,603.681,1017.74,599.29Z" transform="translate(-760.703 -465.33)" fill="#6c63ff"/>
          <path id="Path_2583" data-name="Path 2583" d="M1018.025,599.29a3.267,3.267,0,0,1,.405.816c3.494,4.106,5.356,7.936,2,8.031-3.128.089-6.88,5.68-7.78,7.095a3.292,3.292,0,0,0,.106.322s4.4-7.315,7.978-7.416S1021.973,603.681,1018.025,599.29Z" transform="translate(-760.988 -465.33)" opacity="0.1"/>
          <path id="Path_2584" data-name="Path 2584" d="M1043.951,609.653c0,.917-.1,1.677-.229,1.677s-.232-.746-.232-1.677.129-.486.257-.486S1043.951,608.736,1043.951,609.653Z" transform="translate(-783.207 -472.369)" fill="#ffd037"/>
          <path id="Path_2585" data-name="Path 2585" d="M1045.638,613.478c-.8.439-1.509.7-1.568.593s.542-.559,1.347-1,.489-.117.559,0S1046.446,613.039,1045.638,613.478Z" transform="translate(-783.622 -475.099)" fill="#ffd037"/>
          <path id="Path_2586" data-name="Path 2586" d="M982.651,599.29s-2,2.608.92,6.547,5.311,7.268,4.347,9.717c0,0-4.4-7.315-7.978-7.416S978.712,603.681,982.651,599.29Z" transform="translate(-736.149 -465.33)" fill="#6c63ff"/>
          <path id="Path_2587" data-name="Path 2587" d="M982.651,599.29a3.208,3.208,0,0,0-.408.816c-3.492,4.106-5.353,7.936-2,8.031,3.128.089,6.879,5.68,7.777,7.095a2.712,2.712,0,0,1-.106.322s-4.4-7.315-7.978-7.416S978.712,603.681,982.651,599.29Z" transform="translate(-736.149 -465.33)" opacity="0.1"/>
          <path id="Path_2588" data-name="Path 2588" d="M980.93,609.653c0,.917.1,1.677.229,1.677s.229-.746.229-1.677-.129-.486-.254-.486S980.93,608.736,980.93,609.653Z" transform="translate(-738.135 -472.369)" fill="#ffd037"/>
          <path id="Path_2589" data-name="Path 2589" d="M975.085,613.478c.808.439,1.51.7,1.571.593s-.559-.559-1.35-1-.486-.117-.559,0S974.28,613.039,975.085,613.478Z" transform="translate(-733.564 -475.099)" fill="#ffd037"/>
          <ellipse id="Ellipse_145" data-name="Ellipse 145" cx="20.854" cy="3.201" rx="20.854" ry="3.201" transform="translate(230.915 163.776)" fill="#6c63ff" opacity="0.1"/>
          <path id="Path_2590" data-name="Path 2590" d="M996.094,641.749l-.1.816-.14,1.149-.059.481-.14,1.149-.059.481-.14,1.149-1.6,13.082c-.142,1.168-2.052,2.077-4.355,2.077h-8.291c-2.3,0-4.207-.909-4.35-2.077l-1.6-13.082-.14-1.149-.059-.481-.143-1.149-.059-.481-.14-1.149-.1-.816c-.081-.66.951-1.219,2.253-1.219h16.96C995.135,640.53,996.175,641.089,996.094,641.749Z" transform="translate(-733.591 -495.042)" fill="#65617d"/>
          <path id="Path_2591" data-name="Path 2591" d="M883.894,610.4l-.14,1.149H862.77l-.14-1.149Z" transform="translate(-621.492 -462.877)" fill="#9d9cb5"/>
          <path id="Path_2592" data-name="Path 2592" d="M884.2,616.23l-.14,1.152H863.473l-.143-1.152Z" transform="translate(-621.997 -467.077)" fill="#9d9cb5"/>
          <path id="Path_2593" data-name="Path 2593" d="M884.521,622.06l-.14,1.152H864.19l-.14-1.152Z" transform="translate(-622.515 -471.277)" fill="#9d9cb5"/>
        </g>
      </g>
    </g>
  </g>
</svg>
