<svg xmlns="http://www.w3.org/2000/svg" xmlns:xlink="http://www.w3.org/1999/xlink" width="1366" height="678.403" viewBox="0 0 1366 678.403">
  <defs>
    <clipPath id="clip-path">
      <rect width="1366" height="678.403" fill="none"/>
    </clipPath>
    <linearGradient id="linear-gradient" x1="0.5" x2="0.5" y2="1" gradientUnits="objectBoundingBox">
      <stop offset="0" stop-color="#f3f3f3"/>
      <stop offset="0.155" stop-color="#c3dced"/>
      <stop offset="0.414" stop-color="#a1cce9"/>
      <stop offset="0.791" stop-color="#7dbbe5"/>
      <stop offset="0.954" stop-color="#3acbe8"/>
      <stop offset="1" stop-color="#0d85d8"/>
      <stop offset="1" stop-color="#3acbe8"/>
    </linearGradient>
    <linearGradient id="linear-gradient-2" x1="0.5" x2="0.544" y2="1.495" gradientUnits="objectBoundingBox">
      <stop offset="0" stop-color="#4fddf8"/>
      <stop offset="0.364" stop-color="#65e1f9"/>
      <stop offset="0.469" stop-color="#79e5fa"/>
      <stop offset="0.636" stop-color="#83e7fa"/>
      <stop offset="1" stop-color="#fff"/>
    </linearGradient>
    <linearGradient id="linear-gradient-3" x1="0.5" y1="1" x2="0.5" y2="-0.442" gradientUnits="objectBoundingBox">
      <stop offset="0" stop-color="#0160c9"/>
      <stop offset="0.339" stop-color="#3983d5"/>
      <stop offset="0.527" stop-color="#5091da"/>
      <stop offset="0.724" stop-color="#71a6e1"/>
      <stop offset="1" stop-color="#fff"/>
    </linearGradient>
    <linearGradient id="linear-gradient-4" x1="0.5" x2="0.5" y2="1" gradientUnits="objectBoundingBox">
      <stop offset="0" stop-color="#3acbe8"/>
      <stop offset="1" stop-color="#e0eff9"/>
      <stop offset="1" stop-color="#fefefe"/>
    </linearGradient>
  </defs>
  <g id="Component_843_1" data-name="Component 843 – 1" clip-path="url(#clip-path)">
    <g id="Rectangle_957" data-name="Rectangle 957" transform="translate(0 0.373)" stroke="#707070" stroke-width="1" fill="url(#linear-gradient)">
      <rect width="1366" height="678" stroke="none"/>
      <rect x="0.5" y="0.5" width="1365" height="677" fill="none"/>
    </g>
    <g id="Group_242" data-name="Group 242" transform="translate(-1 -89.627)">
      <g id="Group_243" data-name="Group 243" transform="translate(1 515)">
        <path id="Path_3539" data-name="Path 3539" d="M1365-873.046s14.767,38.39,73.384,71.646c27.081,15.365,87.993,2.585,117.364,33.179,92.652,96.51,210.572,10.565,245.317-16.458,14.754-11.475,52.906-49.249,105.43-61.063,33.057-7.435,92.111-19.382,145.845-18.008,37.828.968,56.024,9.486,112.75,18.008,34.057,5.116,65.18,11.646,85.546,19.615,177.582,69.487,194.241,66.4,267.591-10.808s212.76-58.679,212.76-58.679l-.257,199.425-1365.26.219Z" transform="translate(-1365 949)" fill="url(#linear-gradient-2)"/>
        <path id="Path_3540" data-name="Path 3540" d="M1365-695c2.371-3,43.883-121.8,140.859-148.42,42.223-11.592,146.061-1.589,210.859,24.33,26.185,10.474,102.436,48.732,145.844,52.984,67.4,6.6,106.274-24.4,146.187-25.12,95.288-1.715,141.99,79.98,210.027,74.86,33.141-2.494-14.545,12.481-14.545,12.481s85.455-177.38,219.268-115.2c29.038,13.492,112.336,78.009,143.22,74.059,38.612-4.938,66.605-27.606,91.67-55.985,30.616-34.665,52.707-119.989,63.984-144.577,5.4-11.774,8.115,23.477,8.115,23.477L2731-694.984Z" transform="translate(-1365 948)" fill="url(#linear-gradient-3)"/>
      </g>
    </g>
    <path id="Path_2147" data-name="Path 2147" d="M1365-1343.409s102.326-110.258,173.161-104.455,138.946,29.015,163.466,40.621,98.079,40.621,217.954-26.114c65.451-36.437,129.433-31.007,174.954-31.917,37.294-.745,61.041,5.553,79.594,17.409,40.866,26.114,110.525,84.144,219.5,72.538s179.813-43.523,247.923-72.538c28.334-12.07,48.875,9.638,59.925,9.548,14.921-.123,27.652-28.854,27.652-28.854l-646.212-1.2-717.919.6Z" transform="translate(-1365 1468.373)" fill="url(#linear-gradient-4)"/>
  </g>
</svg>
