<svg xmlns="http://www.w3.org/2000/svg" xmlns:xlink="http://www.w3.org/1999/xlink" width="1366" height="678" viewBox="0 0 1366 678">
  <defs>
    <clipPath id="clip-path">
      <rect width="1366" height="678" fill="none"/>
    </clipPath>
    <linearGradient id="linear-gradient" x1="0.5" x2="0.5" y2="1" gradientUnits="objectBoundingBox">
      <stop offset="0" stop-color="#0041c7"/>
      <stop offset="0.322" stop-color="#0160c9"/>
      <stop offset="0.64" stop-color="#0d85d8"/>
      <stop offset="1" stop-color="#3acbe8"/>
    </linearGradient>
  </defs>
  <g id="Component_842_1" data-name="Component 842 – 1" clip-path="url(#clip-path)">
    <g id="Rectangle_956" data-name="Rectangle 956" stroke="#707070" stroke-width="1" fill="url(#linear-gradient)">
      <rect width="1366" height="678" stroke="none"/>
      <rect x="0.5" y="0.5" width="1365" height="677" fill="none"/>
    </g>
    <path id="Path_3542" data-name="Path 3542" d="M256.5,0C398.161,0,513,117.078,513,261.5S398.161,523,256.5,523,0,405.922,0,261.5,114.839,0,256.5,0Z" transform="translate(398 121)" fill="rgba(255,255,255,0.19)"/>
    <ellipse id="Ellipse_305" data-name="Ellipse 305" cx="166.5" cy="173.5" rx="166.5" ry="173.5" transform="translate(712 30)" fill="rgba(255,255,255,0.19)"/>
    <ellipse id="Ellipse_306" data-name="Ellipse 306" cx="195.5" cy="204" rx="195.5" ry="204" transform="translate(776 263)" fill="rgba(255,255,255,0.19)"/>
    <ellipse id="Ellipse_307" data-name="Ellipse 307" cx="222.5" cy="232" rx="222.5" ry="232" transform="translate(911 60)" fill="rgba(255,255,255,0.19)"/>
    <g id="Group_244" data-name="Group 244" transform="translate(286.094 14)">
      <g id="Group_19" data-name="Group 19" transform="translate(209 80)">
        <circle id="Ellipse_77" data-name="Ellipse 77" cx="18.38" cy="18.38" r="18.38" transform="translate(629.03 184.894)" fill="#6c63ff" opacity="0.4"/>
        <circle id="Ellipse_78" data-name="Ellipse 78" cx="26.201" cy="26.201" r="26.201" transform="translate(233.679 68.131)" fill="#6c63ff" opacity="0.4"/>
        <circle id="Ellipse_79" data-name="Ellipse 79" cx="18.38" cy="18.38" r="18.38" transform="translate(193.008 88.466)" fill="#6c63ff" opacity="0.4"/>
        <path id="Path_2111" data-name="Path 2111" d="M930.15,590.2c-14.523,15.9-15.05,39.061-15.05,39.061s23.019-2.618,37.542-18.518,15.05-39.061,15.05-39.061S944.673,574.3,930.15,590.2Z" transform="translate(-267.346 -181.383)" fill="#3f3d56"/>
        <path id="Path_2112" data-name="Path 2112" d="M936.895,591.268c-4.395,21.081-22.868,35.062-22.868,35.062s-11.348-20.2-6.953-41.279,22.867-35.062,22.867-35.062S941.288,570.187,936.895,591.268Z" transform="translate(-265.886 -177.88)" fill="#6c63ff"/>
        <path id="Path_2113" data-name="Path 2113" d="M679.072,233.581V484.887l-83.769,69.2H166.746V290.641l125.046-57.06Z" transform="translate(-26.926 -37.722)" fill="#3f3d56"/>
        <path id="Path_2114" data-name="Path 2114" d="M679.072,233.581v1.007L649,254.717l-53.7,35.924H166.746l125.046-57.06Z" transform="translate(-26.926 -37.722)" opacity="0.1"/>
        <path id="Path_2115" data-name="Path 2115" d="M761.612,233.581V484.887l-83.769,69.2.607-264.054,53.09-35.317,29.587-21.136Z" transform="translate(-109.466 -37.722)" opacity="0.1"/>
        <path id="Path_2116" data-name="Path 2116" d="M592.822,272.741H331.8l19.425-10.927H601.321Z" transform="translate(-53.582 -42.282)" fill="#2f2e41"/>
        <path id="Path_2117" data-name="Path 2117" d="M1044.87,738.332s5.06,21.161.46,22.081-27.141.623-32.661,1.543-17.021-.623-17.021-4.763,11.96-6.9,11.96-6.9,17.021-9.2,17.481-9.66S1044.87,738.332,1044.87,738.332Z" transform="translate(-280.354 -208.297)" fill="#2f2e41"/>
        <path id="Path_2118" data-name="Path 2118" d="M1044.449,589.214s-1.38,15.641-1.38,17.021,1.38,23,0,23.921.92,7.36.92,9.66,7.36,40.481,5.52,55.2,2.76,13.34,1.38,14.72-1.38,1.38-1.38,4.14-14.72,5.06-14.72,5.06l-16.1-101.663,8.281-30.361Z" transform="translate(-284.075 -183.844)" fill="#575a89"/>
        <path id="Path_2119" data-name="Path 2119" d="M1044.449,589.214s-1.38,15.641-1.38,17.021,1.38,23,0,23.921.92,7.36.92,9.66,7.36,40.481,5.52,55.2,2.76,13.34,1.38,14.72-1.38,1.38-1.38,4.14-14.72,5.06-14.72,5.06l-16.1-101.663,8.281-30.361Z" transform="translate(-284.075 -183.844)" opacity="0.1"/>
        <path id="Path_2120" data-name="Path 2120" d="M1037.1,745.56s4.6,16.561,0,17.481-27.141-1.054-32.661-.134-17.021,1.054-17.021-3.086,11.96-6.9,11.96-6.9,17.021-9.2,17.481-9.66S1037.1,745.56,1037.1,745.56Z" transform="translate(-279.025 -209.085)" fill="#2f2e41"/>
        <path id="Path_2121" data-name="Path 2121" d="M1045.582,567.713s5.52,13.34-.92,20.241-13.8,20.7-13.8,21.621,12.88,92.464,11.04,98.444-1.38,9.66-.92,10.58-4.6,5.98-10.12,5.98-13.8-4.14-14.72-7.82,1.38-35.421.92-41.4-2.76-14.721-3.68-16.561-5.98-3.68-6.9-9.2-8.28-75.9-5.98-78.2S1045.582,567.713,1045.582,567.713Z" transform="translate(-281.066 -180.743)" fill="#575a89"/>
        <circle id="Ellipse_80" data-name="Ellipse 80" cx="15.641" cy="15.641" r="15.641" transform="translate(713.916 249.885)" fill="#ffb9b9"/>
        <path id="Path_2122" data-name="Path 2122" d="M1020.1,431.793s-3.22,17.021-.92,18.861-17.481,4.6-17.481,4.6-2.3-22.541-2.76-24.841S1020.1,431.793,1020.1,431.793Z" transform="translate(-280.885 -158.447)" fill="#ffb9b9"/>
        <path id="Path_2123" data-name="Path 2123" d="M997.255,456.164s5.52-16.1,28.061-11.5c0,0,4.14,1.38,2.76,2.76s-2.76,1.38-.92,2.76,4.14,0,2.76,1.38,12.421,9.66,11.5,25.3,3.22,37.721,0,41.4,2.3,19.781,1.38,23,5.52,7.36,2.76,8.74-52.442,9.66-53.822,0-.46-2.76-1.84-5.06-1.84-6.44-.92-11.5,3.22-17.481,2.3-22.081,0-43.242,2.76-47.842S997.255,456.164,997.255,456.164Z" transform="translate(-279.199 -160.737)" fill="#6c63ff"/>
        <path id="Path_2124" data-name="Path 2124" d="M1008.51,592.223s6.9,26.221-1.84,26.221-8.28-27.141-8.28-27.141Z" transform="translate(-280.796 -184.552)" fill="#ffb9b9"/>
        <path id="Path_2125" data-name="Path 2125" d="M1004.43,418.7c0,1.334,1.932,2.18,4.927,2.374h0a25.067,25.067,0,0,0,3.809-.074c1.914-.175,2.7,1.624,3.032,4,.533,3.915-.212,9.4.649,10.263,1.187,1.187,9.84,0,12.545-2.7a2.5,2.5,0,0,0,.8-1.444,7.687,7.687,0,0,1,2.309-4.292c1.6-1.743,3.869-3.676,6.431-6.748,4.6-5.52,0-5.98-1.38-10.12s-3.68-5.52-3.68-8.28-10.58-5.06-19.321-4.6-6.9,11.5-6.9,11.5-.52,1.334-1.141,3.055a47.976,47.976,0,0,0-2.043,6.633,3.354,3.354,0,0,0-.037.432Z" transform="translate(-281.772 -153.177)" fill="#2f2e41"/>
        <path id="Path_2126" data-name="Path 2126" d="M1005.334,466.766s15.641-.92,17.021,22.081.92,44.622.92,45.082-6.44,44.162-12.421,44.162-10.58-.92-11.96-3.22,3.68-35.421,3.68-35.421,2.3-34.961-1.38-46S997.056,468.146,1005.334,466.766Z" transform="translate(-280.84 -164.439)" opacity="0.1"/>
        <path id="Path_2127" data-name="Path 2127" d="M1002.594,464.023s15.64-.92,17.021,22.081.92,44.622.92,45.082-6.44,44.162-12.42,44.162-10.58-.92-11.96-3.22,3.68-35.421,3.68-35.421,2.3-34.961-1.38-46S994.313,465.4,1002.594,464.023Z" transform="translate(-280.397 -163.996)" fill="#6c63ff"/>
        <path id="Path_2128" data-name="Path 2128" d="M692.091,193.075s-6.816-19.313-11.739-13.254,7.574,16.283,7.574,16.283Z" transform="translate(-229.249 -117.91)" fill="#a0616a"/>
        <path id="Path_2129" data-name="Path 2129" d="M725.448,173.273l-4.1,1.52s-1.958,8.7-1.2,10.219,1.136.379,0,3.408-4.544,10.982-4.923,12.118-21.963-7.195-21.963-11.36c0,0-4.544,5.3-6.816,6.438,0,0,24.993,18.177,28.4,20.449s5.3,1.136,8.331-1.515,15.9-24.614,15.9-24.614Z" transform="translate(-230.419 -117.042)" fill="#575a89"/>
        <path id="Path_2130" data-name="Path 2130" d="M712.349,333.128s.379,4.166,1.136,4.544,6.438,9.846,0,11.739-10.224,1.136-11.739,1.893-28.022,2.272-28.4-1.893,12.875-4.923,12.875-4.923,12.118-7.952,14.011-12.118S712.349,333.128,712.349,333.128Z" transform="translate(-228.302 -142.466)" fill="#2f2e41"/>
        <path id="Path_2131" data-name="Path 2131" d="M806.517,342.628s9.088,15.526,6.816,17.419-24.4,8.793-27.644,9.088c-4.165.379-7.195-3.029-3.787-4.923s10.6-9.846,10.6-12.5V344.9Z" transform="translate(-245.597 -144.392)" fill="#2f2e41"/>
        <path id="Path_2132" data-name="Path 2132" d="M802.673,221.6s7.952,9.846-4.544,25.75L777.3,273.854s12.875,20.449,13.254,31.052,3.029,8.331,3.787,12.875,4.165,2.272,1.515,5.68-12.5,6.438-15.526,3.787a9.388,9.388,0,0,1-3.029-7.574c0-1.515-5.3-10.224-5.68-12.875s-14.39-24.235-14.39-24.235-4.544-12.875.757-20.07,8.8-17.4,8.8-17.4-15.621,18.914-26.6,23.458c0,0-4.165.757-3.408,2.651s0,3.029-1.136,4.923-9.088,23.857-11.739,29.537-1.515,9.088-4.544,10.982-16.662.379-16.662-1.515,1.893-6.816,3.029-9.467,10.224-33.324,9.467-38.625.379-12.5,6.059-15.526,34.46-27.644,35.975-27.644S802.673,221.6,802.673,221.6Z" transform="translate(-233.044 -124.846)" fill="#2f2e41"/>
        <circle id="Ellipse_81" data-name="Ellipse 81" cx="15.905" cy="15.905" r="15.905" transform="translate(477.61 5.488)" fill="#a0616a"/>
        <path id="Path_2133" data-name="Path 2133" d="M743.531,133.531s4.923,8.71,10.982,9.846-15.9,18.555-15.9,18.555-5.3-16.662-9.846-17.419S743.531,133.531,743.531,133.531Z" transform="translate(-237.141 -110.624)" fill="#a0616a"/>
        <path id="Path_2134" data-name="Path 2134" d="M727.992,170.625c0,4.923,14.769,18.934,14.769,18.934L756.772,201.3s.379,4.165,1.893,4.544,3.408.379,1.893,2.651-5.3,7.195-1.893,7.952a27.828,27.828,0,0,0,3.1.3c.909.053,1.977.1,3.177.148,2.8.1,6.309.163,10.107.136q1.619-.006,3.295-.038c14.318-.284,30.9-1.931,29.548-7.358-2.272-9.088-.757-12.118-5.68-17.041s-12.875-21.963-12.875-21.963-15.9-26.886-29.158-26.886l-2.753-.723a6.3,6.3,0,0,0-6.881,2.643c-2.658,4.048-6.85,10.13-9.3,12.091-3.787,3.029-4.378.856-4.378.856S727.992,165.7,727.992,170.625Z" transform="translate(-237.129 -112.122)" fill="#575a89"/>
        <path id="Path_2135" data-name="Path 2135" d="M766.954,244.628s-10.982,17.041-4.165,20.07,10.6-17.8,10.6-17.8Z" transform="translate(-242.388 -128.566)" fill="#a0616a"/>
        <path id="Path_2136" data-name="Path 2136" d="M738.263,125.808c-.611-.077-.8-.847-.906-1.454-.55-3.248-2.971-6.329-6.224-6.853a8.812,8.812,0,0,0-3.708.3,14.07,14.07,0,0,0-4.758,2.342,7.849,7.849,0,0,1-2.378,1.493c-.6.175-3.131,1.3-3.723,1.492-1.3.419-2.379,1.782-3.72,1.512-1.283-.258-1.77-1.807-1.976-3.1-.47-2.943,1.215-7.335,2.89-9.8a10.4,10.4,0,0,1,5.573-3.648,40.041,40.041,0,0,1,7.729-1.536c3.538-.418,7.2-.639,10.592.454s6.477,3.768,7.11,7.274c.132.73.157,1.478.318,2.2.394,1.767,1.563,3.252,2.245,4.929a9.49,9.49,0,0,1-.29,7.694c-.944,1.9-2.586,3.724-2.232,5.815l-2.922-2.3a2.123,2.123,0,0,1-.975-2.484l.425-3.659a3.22,3.22,0,0,0-.19-1.978C739.845,122.229,739.281,125.936,738.263,125.808Z" transform="translate(-234.351 -106.212)" fill="#2f2e41"/>
        <path id="Path_2137" data-name="Path 2137" d="M773.948,203.183l-3.567,14.833c3.6.129,8.357.2,13.4.1,1.272-3.817,2.488-7.8,3.419-11.523,3.408-13.632-2.272-34.46-5.3-44.306s-10.6-12.5-10.6-12.5a34.533,34.533,0,0,0-8.71,4.544C757.666,157.741,773.948,203.183,773.948,203.183Z" transform="translate(-242.566 -113.25)" opacity="0.1"/>
        <path id="Path_2138" data-name="Path 2138" d="M771.65,203.889l-3.715,15.443c.909.053,1.977.1,3.177.148,2.8.1,6.309.163,10.107.136,1.367-4.056,2.689-8.335,3.685-12.318,3.408-13.632-2.272-34.46-5.3-44.306s-9.656.947-9.656.947,2.651-6.438-2.272-3.029S771.65,203.889,771.65,203.889Z" transform="translate(-243.297 -114.713)" opacity="0.1"/>
        <path id="Path_2139" data-name="Path 2139" d="M769.491,148.886s7.574,2.651,10.6,12.5,8.71,30.673,5.3,44.306-10.6,30.673-10.6,30.673-7.195-5.3-9.846-4.165l7.195-29.916s-16.284-45.442-11.361-48.85a34.535,34.535,0,0,1,8.71-4.544Z" transform="translate(-242.274 -113.104)" fill="#575a89"/>
        <path id="Path_2140" data-name="Path 2140" d="M581.57,227.15,476.8,8.828,301.62,92.894,366.047,227.15Z" transform="translate(-48.708 -1.425)" fill="#f2f2f2"/>
        <rect id="Rectangle_626" data-name="Rectangle 626" width="103.204" height="6.406" transform="matrix(0.902, -0.433, 0.433, 0.902, 299.596, 137.751)" fill="#3f3d56"/>
        <rect id="Rectangle_627" data-name="Rectangle 627" width="103.204" height="6.406" transform="matrix(0.902, -0.433, 0.433, 0.902, 324.231, 189.087)" fill="#3f3d56"/>
        <rect id="Rectangle_628" data-name="Rectangle 628" width="25.623" height="25.623" transform="matrix(0.902, -0.433, 0.433, 0.902, 411.098, 73.982)" fill="#3f3d56"/>
        <rect id="Rectangle_629" data-name="Rectangle 629" width="25.623" height="25.623" transform="matrix(0.902, -0.433, 0.433, 0.902, 435.733, 125.317)" fill="#3f3d56"/>
        <path id="Path_2141" data-name="Path 2141" d="M515.077,55.924l-9.514,27.069-12.825-4.508-1.755,4.993,17.8,6.256L520.07,57.679Z" transform="translate(-79.289 -9.031)" fill="#57b894"/>
        <path id="Path_2142" data-name="Path 2142" d="M544.457,117.146l-9.514,27.069-12.824-4.507-1.755,4.992,17.8,6.256L549.45,118.9Z" transform="translate(-84.034 -18.918)" fill="#57b894"/>
        <g id="woman" transform="translate(0 249.637)">
          <rect id="Rectangle_630" data-name="Rectangle 630" width="48.402" height="48.402" transform="translate(57.445 217.251) rotate(167.942)" fill="#f2f2f2"/>
          <path id="right_hand" data-name="right hand" d="M207.07,591.492s-17.386,12.418-11.59,17.386,17.386-14.9,17.386-14.9Z" transform="translate(-150.939 -434.22)" fill="#ffb9b9"/>
          <path id="left_leg" data-name="left leg" d="M300.066,613.955s-3.312,41.395-4.139,47.19-1.656,57.952-3.312,63.748-3.312,19.869-3.312,19.869h-9.934s.828-25.665-1.656-35.6-1.656-37.255-1.656-37.255-4.967-48.846-2.484-55.469S300.066,613.955,300.066,613.955Z" transform="translate(-163.63 -437.642)" fill="#ffb9b9"/>
          <path id="left_shoe" data-name="left shoe" d="M287.432,767.239s4.139,2.484,4.139,4.139-.828,5.8,0,7.451,6.623,8.279,3.312,9.935-18.214,0-18.214,0,.828-11.591,1.656-12.418-.828-9.107-.828-9.107Z" transform="translate(-164.242 -462.603)" fill="#2f2e41"/>
          <path id="right_leg" data-name="right leg" d="M228.981,612.96s-1.052,41.513-.837,47.364-4.436,57.806-3.4,63.743,1.208,20.107,1.208,20.107l9.88,1.043s1.871-25.61,5.383-35.229,5.557-36.875,5.557-36.875,10.067-48.054,8.292-54.9S228.981,612.96,228.981,612.96Z" transform="translate(-155.832 -437.661)" fill="#ffb9b9"/>
          <path id="right_shoe" data-name="right shoe" d="M227.447,766.842s-4.377,2.036-4.551,3.682.215,5.85-.782,7.41-7.456,7.538-4.336,9.532,18.113,1.912,18.113,1.912.393-11.613-.343-12.523,1.779-8.97,1.779-8.97Z" transform="translate(-154.595 -462.539)" fill="#2f2e41"/>
          <path id="pants" d="M280.793,540.15s6.623.828,9.107,14.9,11.59,49.673,4.139,52.157-29.8,7.451-30.632,5.8-2.484-5.8-2.484-5.8,2.484,7.451-.828,7.451-35.6-4.967-34.771-7.451,2.484-20.7,2.484-20.7,4.967-30.632,9.935-35.6a13.577,13.577,0,0,0,4.139-10.763Z" transform="translate(-155.947 -425.929)" fill="#2f2e41"/>
          <path id="left_hand" data-name="left hand" d="M303.842,532.079s-10.763-2.484-12.418.828,4.139,8.279,6.623,8.279,6.623-2.484,6.623-2.484Z" transform="translate(-166.577 -424.481)" fill="#ffb9b9"/>
          <circle id="head" cx="14.902" cy="14.902" r="14.902" transform="translate(100.009 7.423)" fill="#ffb9b9"/>
          <path id="neck" d="M271.407,441.9s-2.484,11.59-.828,11.59-12.418,7.451-12.418,7.451L247.4,459.285l-3.312-4.967s17.386-11.59,17.386-18.214S271.407,441.9,271.407,441.9Z" transform="translate(-158.98 -408.812)" fill="#ffb9b9"/>
          <path id="upper_body" data-name="upper body" d="M260.608,456.894s2.484-1.656,3.312-1.656h6.623c.828,0,11.59,2.484,11.59,2.484l6.623,37.255s-11.59,19.042-3.312,33.944c0,0-2.484-1.656-14.074-.828s-32.288,3.312-33.116,3.312-.828-6.623,0-8.279-.828-.828-.828-4.967-2.484-11.59-2.484-11.59l-11.59-42.222s14.9-8.279,17.386-7.451,9.935,3.312,11.59,2.484A76.6,76.6,0,0,1,260.608,456.894Z" transform="translate(-155.631 -412.216)" fill="#6c63ff"/>
          <path id="left_arm" data-name="left arm" d="M290.492,459.019l2.484-.828s4.967-.828,10.763,4.139S331.059,482.2,331.059,482.2s8.279,6.623,5.8,14.074-6.623,25.665-19.042,24.837c0,0-7.451,9.935-11.59,8.279s-7.451-8.279-4.967-9.107,9.107-9.107,9.107-9.107l-8.279-15.73H299.6l-9.107-4.967Z" transform="translate(-166.474 -412.684)" fill="#6c63ff"/>
          <path id="right_arm" data-name="right arm" d="M227.223,465.112l-6.623.828s-5.8,2.484-4.967,13.246-4.967,59.608-2.484,65.4c0,0-8.279,28.148-6.623,28.976s11.59,5.8,10.763,2.484,9.107-26.492,9.107-26.492,11.59-12.418,6.623-29.8V505.678Z" transform="translate(-152.878 -413.811)" fill="#6c63ff"/>
          <path id="hair" d="M286.257,440.662l-10.525,2.293-1.353-5.182.52,5.364-16.979,3.7-.747-2.861.287,2.961L246.587,449.3l-2.326-22.331c-2.392-9.164,6.337-18.93,15.5-21.322l4.065-1.061c6.73-1.757,18.964-.159,20.721,6.571C281.473,422.9,276.231,435.76,286.257,440.662Z" transform="translate(-158.943 -403.93)" fill="#2f2e41"/>
        </g>
      </g>
    </g>
  </g>
</svg>
