<svg id="Group_241" data-name="Group 241" xmlns="http://www.w3.org/2000/svg" xmlns:xlink="http://www.w3.org/1999/xlink" width="719.178" height="602.366" viewBox="0 0 719.178 602.366">
  <defs>
    <linearGradient id="linear-gradient" x1="0.5" y1="1" x2="0.5" gradientUnits="objectBoundingBox">
      <stop offset="0" stop-color="gray" stop-opacity="0.251"/>
      <stop offset="0.54" stop-color="gray" stop-opacity="0.122"/>
      <stop offset="1" stop-color="gray" stop-opacity="0.102"/>
    </linearGradient>
    <linearGradient id="linear-gradient-3" xlink:href="#linear-gradient"/>
    <linearGradient id="linear-gradient-4" x1="0" y1="0.5" x2="1" y2="0.5" xlink:href="#linear-gradient"/>
  </defs>
  <rect id="Rectangle_919" data-name="Rectangle 919" width="316.761" height="427.79" fill="url(#linear-gradient)"/>
  <rect id="Rectangle_920" data-name="Rectangle 920" width="292.269" height="413.095" transform="translate(18.777 6.531)" fill="#fff"/>
  <rect id="Rectangle_921" data-name="Rectangle 921" width="13.879" height="413.095" transform="translate(4.898 6.531)" fill="#f5f5f5"/>
  <rect id="Rectangle_922" data-name="Rectangle 922" width="195.934" height="4.898" transform="translate(66.944 312.679)" fill="#e0e0e0"/>
  <rect id="Rectangle_923" data-name="Rectangle 923" width="195.934" height="4.898" transform="translate(66.944 331.456)" fill="#69f0ae" opacity="0.4"/>
  <rect id="Rectangle_924" data-name="Rectangle 924" width="195.934" height="4.898" transform="translate(66.944 350.233)" fill="#ff0" opacity="0.4"/>
  <rect id="Rectangle_925" data-name="Rectangle 925" width="195.934" height="4.898" transform="translate(66.944 369.01)" fill="#e0e0e0"/>
  <rect id="Rectangle_926" data-name="Rectangle 926" width="195.934" height="4.898" transform="translate(66.944 387.787)" fill="#e0e0e0"/>
  <path id="Path_3469" data-name="Path 3469" d="M307.356,164.077c.082-.906.131-1.821.131-2.743a30.47,30.47,0,0,0-1.183-8.406l-3.552.169-1.633-4.474,2.294-2.506a30.794,30.794,0,0,0-7.266-8.523l-2.8,2.172-3.9-2.727.449-3.372a30.345,30.345,0,0,0-10.834-2.817l-1.053,3.388h-4.76l-1.567-3.021a30.476,30.476,0,0,0-14.8,7.045l1.633,3.135-3.364,3.364-3.266-1.021a30.443,30.443,0,0,0-4.678,10.172l3.168,1.633-.816,4.686-3.266,1.021v.073a30.411,30.411,0,0,0,2.033,10.94l3.527-.482,2.008,4.311-2.065,2.694a30.826,30.826,0,0,0,7.968,7.87l2.6-2.449,4.123,2.384-.147,3.413a30.436,30.436,0,0,0,10.531,1.87h.514l.751-3.47,4.743-.416,1.829,2.874a30.469,30.469,0,0,0,10.107-4.817l-1.371-3.266,3.649-3.061,3.135,1.3a30.574,30.574,0,0,0,5.543-9.731l-3-1.894L304,164.8ZM276.9,184.226a22.859,22.859,0,1,1,22.859-22.859A22.859,22.859,0,0,1,276.9,184.226Z" transform="translate(-175.468 -90.969)" fill="#0d85d8"/>
  <path id="Path_3470" data-name="Path 3470" d="M353.356,233.077c.082-.906.131-1.821.131-2.743a30.471,30.471,0,0,0-1.183-8.406l-3.552.169-1.633-4.474,2.294-2.506a30.794,30.794,0,0,0-7.266-8.523l-2.8,2.172-3.9-2.727.449-3.372a30.346,30.346,0,0,0-10.834-2.817l-1.053,3.388h-4.76l-1.568-3.021a30.476,30.476,0,0,0-14.8,7.045l1.633,3.135-3.364,3.364-3.266-1.021a30.442,30.442,0,0,0-4.678,10.172l3.168,1.633-.816,4.686-3.266,1.021v.073a30.413,30.413,0,0,0,2.033,10.94l3.527-.482,2.008,4.311-2.065,2.694a30.826,30.826,0,0,0,7.968,7.87l2.6-2.449,4.123,2.384-.147,3.413a30.436,30.436,0,0,0,10.531,1.87h.514l.751-3.47,4.743-.416,1.829,2.874a30.468,30.468,0,0,0,10.107-4.817l-1.372-3.266,3.649-3.061,3.135,1.3a30.575,30.575,0,0,0,5.543-9.731l-3-1.894L350,233.8ZM322.9,253.226a22.859,22.859,0,1,1,22.859-22.859A22.859,22.859,0,0,1,322.9,253.226Z" transform="translate(-183.914 -103.638)" fill="#0d85d8" opacity="0.6"/>
  <path id="Path_3471" data-name="Path 3471" d="M400.356,164.077c.082-.906.131-1.821.131-2.743a30.469,30.469,0,0,0-1.183-8.406l-3.552.169-1.633-4.474,2.294-2.506a30.794,30.794,0,0,0-7.266-8.523l-2.8,2.172-3.9-2.727.449-3.372a30.345,30.345,0,0,0-10.833-2.817l-1.053,3.388h-4.76l-1.568-3.021a30.476,30.476,0,0,0-14.8,7.045l1.633,3.135-3.364,3.364-3.266-1.021a30.444,30.444,0,0,0-4.678,10.172l3.168,1.633-.816,4.686-3.266,1.021v.073a30.411,30.411,0,0,0,2.033,10.94l3.527-.482,2.008,4.311-2.065,2.694a30.825,30.825,0,0,0,7.968,7.87l2.6-2.449,4.123,2.384-.147,3.413a30.437,30.437,0,0,0,10.531,1.87h.514l.751-3.47,4.743-.416,1.829,2.874a30.469,30.469,0,0,0,10.107-4.817l-1.372-3.266,3.649-3.061,3.135,1.3a30.574,30.574,0,0,0,5.543-9.731l-3-1.894L397,164.8ZM369.9,184.226a22.859,22.859,0,1,1,22.859-22.859A22.859,22.859,0,0,1,369.9,184.226Z" transform="translate(-192.543 -90.969)" fill="#3acbe8" opacity="0.4"/>
  <path id="Path_3472" data-name="Path 3472" d="M457.356,233.077c.082-.906.131-1.821.131-2.743a30.471,30.471,0,0,0-1.183-8.406l-3.552.169-1.633-4.474,2.294-2.506a30.794,30.794,0,0,0-7.266-8.523l-2.8,2.172-3.9-2.727.449-3.372a30.345,30.345,0,0,0-10.834-2.817l-1.053,3.388h-4.76l-1.567-3.021a30.476,30.476,0,0,0-14.8,7.045l1.633,3.135-3.364,3.364-3.266-1.021a30.442,30.442,0,0,0-4.678,10.172l3.168,1.633-.816,4.686-3.266,1.021v.073a30.41,30.41,0,0,0,2.033,10.94l3.527-.482,2.008,4.311-2.065,2.694a30.827,30.827,0,0,0,7.968,7.87l2.6-2.449,4.123,2.384-.147,3.413a30.436,30.436,0,0,0,10.531,1.87h.514l.751-3.47,4.743-.416,1.829,2.874a30.468,30.468,0,0,0,10.107-4.817l-1.372-3.266,3.649-3.061,3.135,1.3a30.574,30.574,0,0,0,5.543-9.731l-3-1.894L454,233.8ZM426.9,253.226a22.859,22.859,0,1,1,22.859-22.859A22.859,22.859,0,0,1,426.9,253.226Z" transform="translate(-203.009 -103.638)" fill="#0d85d8"/>
  <line id="Line_30" data-name="Line 30" x1="4.898" transform="translate(126.745 17.961)" fill="none" stroke="#3acbe8" stroke-miterlimit="10" stroke-width="1"/>
  <line id="Line_31" data-name="Line 31" x1="57.09" transform="translate(59.278 17.961)" fill="none" stroke="#3acbe8" stroke-miterlimit="10" stroke-width="1" stroke-dasharray="12.71 12.71"/>
  <path id="Path_3473" data-name="Path 3473" d="M65.148,22h-4.9v4.9" transform="translate(-11.062 -4.039)" fill="none" stroke="#3acbe8" stroke-miterlimit="10" stroke-width="1"/>
  <line id="Line_32" data-name="Line 32" y2="69.393" transform="translate(49.188 32.109)" fill="none" stroke="#3acbe8" stroke-miterlimit="10" stroke-width="1" stroke-dasharray="11.33 11.33"/>
  <line id="Line_33" data-name="Line 33" y2="4.898" transform="translate(49.188 106.131)" fill="none" stroke="#3acbe8" stroke-miterlimit="10" stroke-width="1"/>
  <path id="Path_3474" data-name="Path 3474" d="M207.75,200.651H318.78V103.5" transform="translate(-38.144 -19.003)" fill="none" stroke="#3acbe8" stroke-miterlimit="10" stroke-width="1" stroke-dasharray="12"/>
  <rect id="Rectangle_927" data-name="Rectangle 927" width="250.633" height="65.311" transform="translate(84.089 213.079)" fill="url(#linear-gradient)"/>
  <rect id="Rectangle_928" data-name="Rectangle 928" width="244.918" height="57.964" transform="translate(86.538 217.161)" fill="#0d85d8"/>
  <rect id="Rectangle_929" data-name="Rectangle 929" width="71.843" height="3.266" transform="translate(151.849 231.039)" fill="#0041c7"/>
  <rect id="Rectangle_930" data-name="Rectangle 930" width="71.843" height="3.266" transform="translate(151.849 238.387)" opacity="0.2"/>
  <rect id="Rectangle_931" data-name="Rectangle 931" width="140.42" height="3.266" transform="translate(151.849 250.633)" fill="#fff"/>
  <circle id="Ellipse_287" data-name="Ellipse 287" cx="15.511" cy="15.511" r="15.511" transform="translate(98.784 230.223)" fill="#0160c9"/>
  <circle id="Ellipse_288" data-name="Ellipse 288" cx="15.511" cy="15.511" r="15.511" transform="translate(98.784 230.223)" opacity="0.2"/>
  <path id="Path_3475" data-name="Path 3475" d="M738.714,535.887a1.094,1.094,0,0,0,.147-1.257c-3.51-7.029-7.029-5.266-17.414-25.357-11.054-21.365-8.3-28.525-12.442-32.607-1.633-1.633-3.315-7.086-5.535-8.042l-1.437-5.764a7.4,7.4,0,0,0,3.812-.588,15.477,15.477,0,0,0,5.568-4.9,37.189,37.189,0,0,0,5.715-9.666,26.415,26.415,0,0,0,1.633-7.944h0a27.174,27.174,0,0,0-.073-4.082,16.4,16.4,0,0,0,7.062-2.98,12.246,12.246,0,0,0,4.474-8.041h0c0-.318.073-.629.09-.947a9.826,9.826,0,0,0,0-1.127,12.246,12.246,0,0,0-5.633-9.568,15.977,15.977,0,0,0-9.8-2.033,42.625,42.625,0,0,0-9.919,2.441,31.716,31.716,0,0,0-3.062,1.061,22.672,22.672,0,0,0-7.152-1.167c-3.968,0-7.854,1.045-11.683,2.074l-12.891,3.453c-2.857.767-5.837,1.633-7.968,3.649a6.766,6.766,0,0,0-.531.58l-.1.122a7.238,7.238,0,0,0-.465.661h0c-1.274,2.057-1.551,4.784,0,6.6a7.855,7.855,0,0,0,2.768,1.91,30.862,30.862,0,0,0,3.894,1.486,21.227,21.227,0,0,0-3.666,11.952c0,.245,0,.482,0,.727v.727a21.3,21.3,0,0,0,21.3,21.3h.351l.62,5a44.084,44.084,0,0,0-7.274,10.172,11.341,11.341,0,0,0-3.568,8.784c-.041,3.543.923,7.878,1.861,13.879l-30.28-12.866-18.907,40.722,14.548,5.364c-6.833.31-10.613,5.307-10.556,10.393a10.058,10.058,0,0,0,2.988,7.519c5.266,5.266,11.658,60.111,11.658,60.111h2.661v5.756c-10.785.653-21.724,1.984-21.724,4.686a8.793,8.793,0,0,0,3.445,6.7c-.155-.188-.31-.392-.457-.6a11.646,11.646,0,0,0,2.759,2.1h58.576v-12.1h.1V622.71s-2.123,0-5.421.057v-5.176h2.661c2.376-21.406-7.984-49.18-10.229-54.862,3.649,0,7.486-.049,11.291-.261,16.156.727,43.938.547,49.531-8.776C746.257,543.389,741.285,537.879,738.714,535.887Zm-81.174,25.8s1.216.122,3.266.278c2.2,6.262,3.821,16.548,4.972,26.59a176.644,176.644,0,0,0-8.237-26.868Zm23.373-95.061a21.363,21.363,0,0,0,4.531.49h.163l.131,1.07a21.142,21.142,0,0,1-4.825-1.567Zm-10.058,156.3h-.441v-.212s-1.9,0-4.9.049v-5.168h5.323Z" transform="translate(-245.514 -142.385)" fill="url(#linear-gradient-3)"/>
  <path id="Path_3476" data-name="Path 3476" d="M534.087,512,521,642.623l15.536.816L556.1,512Z" transform="translate(-95.659 -94.006)" fill="url(#linear-gradient-4)"/>
  <path id="Path_3477" data-name="Path 3477" d="M535.8,512,526,640.99h9.8L549.675,512Z" transform="translate(-96.577 -94.006)" fill="#0d85d8"/>
  <path id="Path_3478" data-name="Path 3478" d="M861.84,506l12.866,131.439H859.391L847.08,506Z" transform="translate(-155.529 -92.905)" fill="url(#linear-gradient)"/>
  <path id="Path_3479" data-name="Path 3479" d="M861.879,507l9.8,128.99h-9.8L848,507Z" transform="translate(-155.698 -93.088)" fill="#0d85d8"/>
  <path id="Path_3480" data-name="Path 3480" d="M581.164,505,569,636.439h16.246L598.39,505Z" transform="translate(-104.472 -92.721)" fill="url(#linear-gradient)"/>
  <path id="Path_3481" data-name="Path 3481" d="M582.8,505,573,633.99h9.8L596.675,505Z" transform="translate(-105.206 -92.721)" fill="#0d85d8"/>
  <path id="Path_3482" data-name="Path 3482" d="M817.708,507l12.5,134.7H815.258L800,507Z" transform="translate(-146.885 -93.088)" fill="url(#linear-gradient)"/>
  <path id="Path_3483" data-name="Path 3483" d="M817.879,512l9.8,128.99h-9.8L804,512Z" transform="translate(-147.62 -94.006)" fill="#0d85d8"/>
  <rect id="Rectangle_932" data-name="Rectangle 932" width="293.085" height="13.879" transform="translate(418.81 410.646)" fill="url(#linear-gradient)"/>
  <rect id="Rectangle_933" data-name="Rectangle 933" width="235.121" height="12.246" transform="translate(421.259 410.646)" fill="#0d85d8"/>
  <rect id="Rectangle_934" data-name="Rectangle 934" width="53.882" height="12.246" transform="translate(656.38 410.646)" fill="#0d85d8"/>
  <rect id="Rectangle_935" data-name="Rectangle 935" width="53.882" height="12.246" transform="translate(656.756 410.646)" opacity="0.2"/>
  <rect id="Rectangle_936" data-name="Rectangle 936" width="110.213" height="69.393" transform="translate(513.512 332.272)" fill="url(#linear-gradient)"/>
  <rect id="Rectangle_937" data-name="Rectangle 937" width="102.866" height="64.495" transform="translate(515.961 334.721)" fill="#fff"/>
  <rect id="Rectangle_938" data-name="Rectangle 938" width="33.472" height="17.144" transform="translate(551.882 393.502)" fill="url(#linear-gradient)"/>
  <rect id="Rectangle_939" data-name="Rectangle 939" width="28.574" height="17.144" transform="translate(553.107 393.502)" fill="#fff"/>
  <rect id="Rectangle_940" data-name="Rectangle 940" width="3.266" height="64.495" transform="translate(618.826 334.721)" fill="#f5f5f5"/>
  <rect id="Rectangle_941" data-name="Rectangle 941" width="2.449" height="17.144" transform="translate(581.272 393.502)" fill="#f5f5f5"/>
  <rect id="Rectangle_942" data-name="Rectangle 942" width="8.164" height="8.164" transform="translate(563.312 357.58)" fill="url(#linear-gradient)"/>
  <rect id="Rectangle_943" data-name="Rectangle 943" width="6.531" height="6.531" transform="translate(564.128 358.397)" fill="#f5f5f5"/>
  <path id="Path_3484" data-name="Path 3484" d="M495.937,430.1l53.384,22.688-17.969,34.133L478.58,467.475Z" transform="translate(-87.87 -78.969)" fill="#0160c9"/>
  <rect id="Rectangle_944" data-name="Rectangle 944" width="14.662" height="12.213" transform="translate(410.254 460.136)" fill="#f8c198"/>
  <rect id="Rectangle_945" data-name="Rectangle 945" width="14.662" height="12.213" transform="translate(429.807 460.136)" fill="#f8c198"/>
  <circle id="Ellipse_289" data-name="Ellipse 289" cx="19.544" cy="19.544" r="19.544" transform="translate(423.651 287.828)" fill="#f8c198"/>
  <path id="Path_3485" data-name="Path 3485" d="M560.915,406.524h-17.1L541.37,386.98h14.662Z" transform="translate(-99.399 -71.052)" fill="#f8c198"/>
  <path id="Path_3486" data-name="Path 3486" d="M719.585,558.83s9.8,4.9,2.449,17.144-56.2,7.348-56.2,7.348,12.246,29.317,9.8,51.31H656.053s-5.862-50.355-10.67-55.254c-6.229-6.229-1.518-18.14,10.7-15.7S719.585,558.83,719.585,558.83Z" transform="translate(-248.24 -169.549)" fill="#263238"/>
  <g id="Group_222" data-name="Group 222" transform="translate(394.379 388.84)" opacity="0.2">
    <path id="Path_3487" data-name="Path 3487" d="M675.95,588.22s8.589.816,19.1.955c-7.625.082-14.7-.31-18.957-.612Z" transform="translate(-648.735 -563.785)" fill="#fff"/>
    <path id="Path_3488" data-name="Path 3488" d="M670.71,563.646c19.079-.367,54.029-5.356,54.029-5.356a7.354,7.354,0,0,1,.735.449C715.522,560.094,685.315,563.988,670.71,563.646Z" transform="translate(-647.773 -558.29)" fill="#fff"/>
    <path id="Path_3489" data-name="Path 3489" d="M654.971,564.018c-8.319,1.265-10.891,10.613-5.617,15.879,4.833,4.833,10.7,55.164,10.7,55.164h-4s-5.87-50.331-10.678-55.164C639.3,573.855,643.566,562.467,654.971,564.018Z" transform="translate(-642.614 -559.315)" fill="#fff"/>
  </g>
  <path id="Path_3490" data-name="Path 3490" d="M677.207,657.59s-39.1,0-39.1,4.9,4.9,7.348,4.9,7.348h34.2Z" transform="translate(-247.408 -187.682)" fill="#263238"/>
  <path id="Path_3491" data-name="Path 3491" d="M676.747,657.36V658.7c-6.809.049-37.758.531-37.758,4.9a7.454,7.454,0,0,0,1.829,4.817,8.074,8.074,0,0,1-3.168-6.147C637.65,657.36,676.747,657.36,676.747,657.36Z" transform="translate(-247.324 -187.64)" fill="#fff" opacity="0.2"/>
  <path id="Path_3492" data-name="Path 3492" d="M743.56,558.83s9.8,4.9,2.449,17.144-56.2,7.348-56.2,7.348,12.246,29.317,9.8,51.31H680.02s-2.449-51.31-9.8-56.2-2.449-17.144,9.8-14.7S743.56,558.83,743.56,558.83Z" transform="translate(-252.671 -169.549)" fill="#263238"/>
  <path id="Path_3493" data-name="Path 3493" d="M701.207,657.59s-39.1,0-39.1,4.9,4.9,7.348,4.9,7.348h34.2Z" transform="translate(-251.815 -187.682)" fill="#263238"/>
  <path id="Path_3494" data-name="Path 3494" d="M716.36,484H722.3c2.343,0,4.017,5.878,5.715,7.527,3.8,3.747,1.274,10.311,11.429,29.921,9.536,18.434,12.76,16.826,15.985,23.267s-57.556,6.148-57.556,6.148,3.094-12.344,2.449-21.4c-1.339-18.606-6.172-25.047.278-31.5C700.587,497.968,707.5,484,716.36,484Z" transform="translate(-258.281 -155.81)" fill="#ff5252"/>
  <path id="Path_3495" data-name="Path 3495" d="M499.669,441.54,491.66,458.9l5.339,2.67,8.009-17.357Z" transform="translate(-90.272 -81.07)" fill="#fff"/>
  <path id="Path_3496" data-name="Path 3496" d="M698.013,436.2a19.791,19.791,0,0,1,2,.1,19.544,19.544,0,0,0,0,38.893,19.791,19.791,0,0,1-2,.1,19.549,19.549,0,1,1,0-39.1Z" transform="translate(-254.818 -147.032)" fill="#fff" opacity="0.2"/>
  <path id="Path_3497" data-name="Path 3497" d="M675.846,429.926c1.959-1.878,4.694-2.645,7.348-3.347l11.829-3.168a42.3,42.3,0,0,1,10.719-1.9,20.805,20.805,0,0,1,6.531,1.069c.98-.424,2.082-.735,2.808-.971a39.115,39.115,0,0,1,9.07-2.188,14.7,14.7,0,0,1,8.98,1.87,11.062,11.062,0,0,1,.971,18.059,15.045,15.045,0,0,1-6.474,2.735,24.558,24.558,0,0,1-1.4,11,34.13,34.13,0,0,1-5.217,8.874,14.142,14.142,0,0,1-5.111,4.5c-2.1.931-4.8.816-6.417-.816a8.3,8.3,0,0,1-1.9-4.629c-1.233-6.6-2.449-14.181-8.164-17.7-3.584-2.2-7.576-1.992-11.576-1.967a24.125,24.125,0,0,1-10.377-2.376,7.21,7.21,0,0,1-2.6-1.747C673.07,435.159,673.886,431.8,675.846,429.926Z" transform="translate(-253.974 -143.935)" fill="#fccc63"/>
  <g id="Group_223" data-name="Group 223" transform="translate(419.96 275.391)" opacity="0.2">
    <path id="Path_3498" data-name="Path 3498" d="M733.171,423.958a14.7,14.7,0,0,0-8.981-1.87,39.115,39.115,0,0,0-9.07,2.188c-.727.245-1.829.547-2.809.971a20.8,20.8,0,0,0-6.531-1.069,41.594,41.594,0,0,0-10.719,1.9l-11.83,3.168c-2.621.7-5.355,1.469-7.348,3.347a6.63,6.63,0,0,0-1.788,3.151,6.156,6.156,0,0,1,1.788-5.821c1.959-1.878,4.694-2.645,7.348-3.347l11.83-3.168a42.308,42.308,0,0,1,10.719-1.9,20.806,20.806,0,0,1,6.531,1.07c.98-.425,2.082-.735,2.808-.971a39.113,39.113,0,0,1,9.07-2.188,14.7,14.7,0,0,1,8.98,1.87,11.258,11.258,0,0,1,5.168,8.776,10.6,10.6,0,0,1-.09,1.9A11.258,11.258,0,0,0,733.171,423.958Z" transform="translate(-673.949 -419.327)" fill="#fff"/>
    <path id="Path_3499" data-name="Path 3499" d="M739.863,450.44v1.07a5,5,0,0,0-.073-1.045Z" transform="translate(-686.038 -425.039)" fill="#fff"/>
  </g>
  <path id="Path_3500" data-name="Path 3500" d="M700.326,529.775c-1.339-18.606-6.172-25.047.278-31.5,0,0,6.907-13.968,15.773-13.968h5.943a2.718,2.718,0,0,1,1.959,1.331h-3.894c-8.866,0-15.773,13.968-15.773,13.968-6.45,6.45-1.633,12.891-.278,31.5.522,7.258-1.363,16.63-2.131,20.059h-4.319S700.963,538.821,700.326,529.775Z" transform="translate(-258.281 -155.867)" fill="#fff" opacity="0.2"/>
  <rect id="Rectangle_946" data-name="Rectangle 946" width="21.357" height="14.679" transform="translate(465.459 361.809) rotate(180)" fill="#ff5252"/>
  <g id="Group_224" data-name="Group 224" transform="translate(414.133 388.84)" opacity="0.2">
    <path id="Path_3501" data-name="Path 3501" d="M694.66,563.646c19.079-.367,54.029-5.356,54.029-5.356a7.368,7.368,0,0,1,.735.449C739.464,560.094,709.265,563.988,694.66,563.646Z" transform="translate(-671.924 -558.29)" fill="#fff"/>
    <path id="Path_3502" data-name="Path 3502" d="M679.007,564.028c-8.376,1.274-10.956,10.687-4.735,14.834,7.348,4.9,9.8,56.2,9.8,56.2h-4.041s-2.449-51.31-9.8-56.2C663.145,574.118,667.553,562.46,679.007,564.028Z" transform="translate(-666.811 -559.317)" fill="#fff"/>
    <path id="Path_3503" data-name="Path 3503" d="M699.89,588.22s8.589.816,19.1.955c-7.625.082-14.695-.31-18.957-.612Z" transform="translate(-672.884 -563.785)" fill="#fff"/>
  </g>
  <path id="Path_3504" data-name="Path 3504" d="M716.295,519.92v23.373a14.924,14.924,0,0,1-15.512,14.924c-10.327-.4-22.239-.555-23.6.816-1.135,1.135-3.837,3.315-6.417,5.323a3.788,3.788,0,0,1-6.1-3.347c.327-3.927,1.559-8.107,5.176-9.307,2.915-.971,8.164-1.559,13.372-1.91a17.144,17.144,0,0,0,15.944-17.144V519.92Z" transform="translate(-252.281 -162.405)" fill="#f8c198"/>
  <path id="Path_3505" data-name="Path 3505" d="M664.7,560.993c.327-3.927,1.559-8.107,5.176-9.307,2.914-.971,8.164-1.559,13.372-1.91a17.144,17.144,0,0,0,15.944-17.144V519.92h17.144v1.331H701.867v12.711a17.144,17.144,0,0,1-15.944,17.144c-5.241.351-10.466.939-13.373,1.91-3.617,1.208-4.858,5.388-5.176,9.307a3.772,3.772,0,0,0,.906,2.808,3.813,3.813,0,0,1-3.584-4.139Z" transform="translate(-252.287 -162.405)" fill="#fff" opacity="0.2"/>
  <path id="Path_3506" data-name="Path 3506" d="M701.267,657.36V658.7c-6.809.049-37.758.531-37.758,4.9a7.453,7.453,0,0,0,1.829,4.817,8.074,8.074,0,0,1-3.168-6.147C662.17,657.36,701.267,657.36,701.267,657.36Z" transform="translate(-251.826 -187.64)" fill="#fff" opacity="0.2"/>
  <path id="Path_3507" data-name="Path 3507" d="M233,505.882V683.856H547.311V452h8.98" transform="translate(-42.78 -82.99)" fill="none" stroke="#3acbe8" stroke-miterlimit="10" stroke-width="3" opacity="0.5"/>
</svg>
