<svg xmlns="http://www.w3.org/2000/svg" width="171.279" height="291.345" viewBox="0 0 171.279 291.345">
  <g id="Group_94" data-name="Group 94" transform="translate(-866.597 -364.655)">
    <path id="Path_3406" data-name="Path 3406" d="M655.781,217.542l-.075.073v-.073l0,.074c-1.026,1-12.453,12.273-16.886,23.709-1.471-1.637-2.512-2.636-2.512-2.636l-.049.048v0c-.836.813-12.211,12.038-12.211,20.933,0,8.588,4.748,11.977,10.86,12.41l-.443,8.471H635.7l.137-8.428c.156,0,.312.006.469.006,4.516,0,8.459-1.437,10.587-5.131a21.874,21.874,0,0,0,6.75,1.49l-.677,12.924h1.89l.209-12.859c.238.005.476.009.716.009,10.332,0,18.708-4.919,18.708-19.008S655.781,217.542,655.781,217.542Z" transform="translate(308.816 184.159)" fill="#f2f2f2"/>
    <path id="Path_3416" data-name="Path 3416" d="M500.186,767.847l-20.8,18.662a32.623,32.623,0,0,1-18.662-20.8l20.8-18.662C481.655,759.308,488,766.129,500.186,767.847Z" transform="translate(405.873 -130.509)" fill="#e6e6e6"/>
    <rect id="Rectangle_877" data-name="Rectangle 877" width="18.478" height="0.406" transform="translate(871.05 636.941) rotate(-40.499)" fill="#3f3d56"/>
    <rect id="Rectangle_878" data-name="Rectangle 878" width="18.235" height="0.405" transform="translate(872.968 639.67) rotate(-42.059)" fill="#3f3d56"/>
    <path id="Path_3417" data-name="Path 3417" d="M535.545,590.6l-27.79,2.941a32.623,32.623,0,0,1-2.941-27.79l27.79-2.941C525.528,572.822,526.679,582.069,535.545,590.6Z" transform="translate(380.754 -21.021)" fill="#f2f2f2"/>
    <rect id="Rectangle_879" data-name="Rectangle 879" width="18.477" height="0.406" transform="matrix(0.997, -0.081, 0.081, 0.997, 888.157, 548.744)" fill="#3f3d56"/>
    <rect id="Rectangle_880" data-name="Rectangle 880" width="18.235" height="0.405" transform="translate(888.115 552.081) rotate(-6.201)" fill="#3f3d56"/>
    <path id="Path_3418" data-name="Path 3418" d="M493.374,428.336,474.8,407.46a32.623,32.623,0,0,1,20.876-18.578l18.578,20.876C501.987,409.84,495.141,416.162,493.374,428.336Z" transform="translate(397.51 82.337)" fill="#e6e6e6"/>
    <rect id="Rectangle_881" data-name="Rectangle 881" width="0.406" height="18.477" transform="translate(891.113 475.925) rotate(-40.268)" fill="#3f3d56"/>
    <rect id="Rectangle_882" data-name="Rectangle 882" width="0.405" height="18.235" transform="matrix(0.745, -0.667, 0.667, 0.745, 888.386, 477.843)" fill="#3f3d56"/>
    <rect id="Rectangle_883" data-name="Rectangle 883" width="21.91" height="53.962" transform="translate(892.774 422.73) rotate(-30)" fill="#3f3d56"/>
    <rect id="Rectangle_884" data-name="Rectangle 884" width="17.601" height="0.406" transform="translate(899.999 432.133) rotate(-30.925)" fill="#6c63ff"/>
    <rect id="Rectangle_885" data-name="Rectangle 885" width="17.601" height="0.406" transform="translate(902.401 435.488) rotate(-30.925)" fill="#6c63ff"/>
    <rect id="Rectangle_886" data-name="Rectangle 886" width="17.601" height="0.406" transform="translate(904.024 438.328) rotate(-30.925)" fill="#6c63ff"/>
    <rect id="Rectangle_887" data-name="Rectangle 887" width="17.601" height="0.406" transform="translate(906.459 441.979) rotate(-30.925)" fill="#6c63ff"/>
    <rect id="Rectangle_888" data-name="Rectangle 888" width="17.602" height="0.406" transform="translate(910.11 447.254) rotate(-30.925)" fill="#6c63ff"/>
    <path id="Path_3419" data-name="Path 3419" d="M707.178,305.824s10.444-5.023,17.876-3.151l-17.876-48.211v-4.951l25.3,60.2h0c6.326,11.924,14.324,39.1.688,41.284-15.47,2.475-43.317,11.757-43.317,11.757l-6.188-53.837Z" transform="translate(273.387 165.16)" fill="#2f2e41"/>
    <path id="Path_3420" data-name="Path 3420" d="M559.8,326.384s-16.708-21.04-21.04-13.614,19.454,19.917,19.454,19.917Z" transform="translate(359.811 128.511)" fill="#ffb9b9"/>
    <path id="Path_3421" data-name="Path 3421" d="M588.8,344.736l-6.807-3.713s-4.332,11.139-4.332,13,6.807,2.475,6.807,2.475Z" transform="translate(336.38 110.778)" fill="#d0cde1"/>
    <circle id="Ellipse_278" data-name="Ellipse 278" cx="16.089" cy="16.089" r="16.089" transform="translate(935.082 376.306)" fill="#ffb9b9"/>
    <path id="Path_3422" data-name="Path 3422" d="M671.874,190.03s6.807,20.421,11.757,21.658-19.183,10.52-19.183,10.52-7.426-17.327-11.139-21.659S671.874,190.03,671.874,190.03Z" transform="translate(291.673 200.509)" fill="#ffb9b9"/>
    <path id="Path_3423" data-name="Path 3423" d="M736.667,425.095c13.339-2.134,5.976-28.187-.272-40.484a8.192,8.192,0,0,1,1.51,1.5c6.188,8.045,18.565,42.7,3.094,45.174s-43.317,11.758-43.317,11.758l-.842-7.324C704.8,433.162,724.536,427.036,736.667,425.095Z" transform="translate(265.556 84.875)" opacity="0.1"/>
    <path id="Path_3424" data-name="Path 3424" d="M807.74,746.723s15.47,12.376,14.233,13.614-14.233,21.04-25.372,22.9-16.089,1.856-16.089,0,3.094-6.188,8.663-8.045,6.188-14.233,5.569-16.708S807.74,746.723,807.74,746.723Z" transform="translate(215.833 -130.317)" fill="#2f2e41"/>
    <path id="Path_3425" data-name="Path 3425" d="M693.35,519.47l9.9,46.411s40.842,45.792,39.6,46.411-13.614,13-16.089,13-45.174-48.268-45.174-48.268L666.122,536.8Z" transform="translate(283.811 4.732)" fill="#2f2e41"/>
    <path id="Path_3426" data-name="Path 3426" d="M693.35,519.47l9.9,46.411s40.842,45.792,39.6,46.411-13.614,13-16.089,13-45.174-48.268-45.174-48.268L666.122,536.8Z" transform="translate(283.811 4.732)" opacity="0.1"/>
    <path id="Path_3427" data-name="Path 3427" d="M647.9,479.643s-4.95,21.04-18.564,35.272-19.8,43.317-19.8,43.317L595.916,616.4s-24.134-3.094-22.9-9.282l13-51.362s14.852-71.164,22.9-76.114S647.9,479.643,647.9,479.643Z" transform="translate(339.166 29.708)" fill="#2f2e41"/>
    <path id="Path_3428" data-name="Path 3428" d="M556.605,799.573s3.713,11.758,1.238,13-46.411,3.713-48.886-4.951c0,0-1.238-4.332,8.663-4.332S538.041,794,538.041,794Z" transform="translate(377.239 -158.415)" fill="#2f2e41"/>
    <path id="Path_3429" data-name="Path 3429" d="M653.593,241.387s16.089-16.089,20.421-14.852,4.332,7.426,4.332,7.426,13.614,1.856,12.376,46.411,11.139,49.505,6.807,51.981-53.837,13.614-55.694,2.475-1.238-53.837,3.713-67.451S656.687,245.1,653.593,241.387Z" transform="translate(298.816 178.855)" fill="#575a89"/>
    <path id="Path_3430" data-name="Path 3430" d="M639.339,272.236s18.564,8.663,8.045,25.371-18.564,34.654-29.7,34.035S589.215,320.5,584.265,320.5s1.856-17.946,5.569-18.564,21.04,9.9,21.04,9.9S617.062,269.761,639.339,272.236Z" transform="translate(333.491 151.718)" fill="#575a89"/>
    <path id="Path_3431" data-name="Path 3431" d="M647.186,155.753a21.61,21.61,0,0,0-4.076.563,10.316,10.316,0,0,1-11.026-7.691,5.9,5.9,0,0,0-.564-1.837c-.75-1.225-2.46-1.459-3.869-1.177a29.867,29.867,0,0,1-4.18,1.016,6.4,6.4,0,0,1-5.523-3.126,10.6,10.6,0,0,1-1.356-6.4l1.062,1.115a5.393,5.393,0,0,0,.481-2.932,3.4,3.4,0,0,1,3.223.825c.936.1.23-1.737.925-2.372a1.61,1.61,0,0,1,1.132-.212c1.992.019,3.6-1.5,5.174-2.731a21.987,21.987,0,0,1,9.286-4.236,12.218,12.218,0,0,1,6.776.328,14.474,14.474,0,0,1,4.576,3.246c3.34,3.212,6.3,6.986,7.688,11.407a19.2,19.2,0,0,1,.092,11.135c-.56,1.89-2.247,8.362-4.718,8.513C649.187,161.373,651.051,155.983,647.186,155.753Z" transform="translate(313.266 238.42)" fill="#2f2e41"/>
  </g>
</svg>
