<svg xmlns="http://www.w3.org/2000/svg" width="369.234" height="661.701" viewBox="0 0 369.234 661.701">
  <g id="Group_97" data-name="Group 97" transform="translate(0 0)">
    <path id="Path_3448" data-name="Path 3448" d="M393.7,799.265c0,17.241-80.856,31.225-180.6,31.225S32.5,816.506,32.5,799.265c0-4.312,5.047-8.414,14.178-12.144,26.584-10.878,87.793-18.609,159.737-19.056q3.329-.025,6.684-.025C312.842,768.04,393.7,782.024,393.7,799.265Z" transform="translate(-26.593 -168.789)" fill="#3f3d56"/>
    <path id="Path_3449" data-name="Path 3449" d="M209.037,768.07A102.533,102.533,0,0,1,49.3,787.126C75.884,776.248,137.093,768.517,209.037,768.07Z" transform="translate(-29.215 -168.793)" opacity="0.1"/>
    <ellipse id="Ellipse_284" data-name="Ellipse 284" cx="94.519" cy="101.271" rx="94.519" ry="101.271" transform="translate(0 428.779)" fill="#3f3d56"/>
    <path id="Path_3450" data-name="Path 3450" d="M274.927,141.3c13.4,51.628,56.635,85,96.661,74.608" transform="translate(-64.43 -70.967)" fill="#3f3d56"/>
    <path id="Path_3451" data-name="Path 3451" d="M388.787,208.356c-13.552-52.208,11.626-103.837,56.293-115.432" transform="translate(-81.629 -63.417)" fill="#6c63ff"/>
    <path id="Path_3452" data-name="Path 3452" d="M307.456,138.773c12.73,49.041,43.685,83.364,69.209,76.739" transform="translate(-69.507 -70.573)" fill="#6c63ff"/>
    <path id="Path_3453" data-name="Path 3453" d="M388.513,202.9C371.2,136.188,398.961,71.362,450.589,57.961" transform="translate(-81.355 -57.96)" fill="#3f3d56"/>
    <path id="Path_3454" data-name="Path 3454" d="M371.616,232.844s10.188-2.982,12.711-5.989,14.542-8.936,16.227-5.6,20,13.573,8.427,16.677-27.409,5.187-30.987,4.107S371.616,232.844,371.616,232.844Z" transform="translate(-79.521 -83.293)" fill="#a8a8a8"/>
    <path id="Path_3455" data-name="Path 3455" d="M408.867,238.953c-11.57,3.1-27.409,5.187-30.987,4.107-2.725-.822-5-5.721-5.926-8.012-.215.066-.339.1-.339.1s2.8,8.114,6.378,9.194,19.416-1,30.987-4.107c3.34-.9,4.187-2.387,3.666-4.134C412.457,237.289,411.354,238.286,408.867,238.953Z" transform="translate(-79.521 -85.6)" opacity="0.2"/>
    <path id="Path_3456" data-name="Path 3456" d="M339.988,460.37s14.057-39.828,24.209-27.333-15.619,33.581-15.619,33.581Z" transform="translate(-74.585 -116.123)" fill="#a0616a"/>
    <path id="Path_3457" data-name="Path 3457" d="M256.13,419.6l8.456,3.134s4.039,17.952,2.477,21.076-2.343.781,0,7.029,9.371,22.648,10.152,24.99,45.3-14.838,45.3-23.429c0,0,9.371,10.933,14.057,13.276,0,0-51.543,37.486-58.571,42.171s-10.933,2.343-17.181-3.124-32.8-50.762-32.8-50.762Z" transform="translate(-57.109 -114.405)" fill="#575a89"/>
    <path id="Path_3458" data-name="Path 3458" d="M286.574,747.189s-.781,8.591-2.343,9.371-13.276,20.3,0,24.209,21.086,2.343,24.209,3.9,57.79,4.686,58.571-3.9-26.552-10.152-26.552-10.152-24.99-16.4-28.9-24.99S286.574,747.189,286.574,747.189Z" transform="translate(-64.905 -164.752)" fill="#2f2e41"/>
    <path id="Path_3459" data-name="Path 3459" d="M97.574,766.623s-18.742,32.019-14.057,35.924,50.319,18.135,57.009,18.743c8.59.781,14.838-6.248,7.81-10.152s-21.867-20.3-21.867-25.771V771.309Z" transform="translate(-34.438 -168.567)" fill="#2f2e41"/>
    <path id="Path_3460" data-name="Path 3460" d="M78.078,518.621s-16.4,20.3,9.371,53.1L130.4,626.392s-26.552,42.171-27.333,64.038-6.248,17.181-7.81,26.552-8.59,4.686-3.124,11.714,25.771,13.276,32.019,7.81,6.248-12.5,6.248-15.619,10.933-21.086,11.714-26.552,29.676-49.981,29.676-49.981,9.371-26.552-1.562-41.39-18.158-35.883-18.158-35.883,32.215,39.006,54.863,48.378c0,0,8.59,1.562,7.029,5.467s0,6.248,2.343,10.152,18.743,49.2,24.209,60.914,3.124,18.743,9.371,22.648,34.362.781,34.362-3.124-3.9-14.057-6.248-19.524-21.086-68.724-19.524-79.657-.781-25.771-12.5-32.019-71.066-57.009-74.19-57.009S78.078,518.621,78.078,518.621Z" transform="translate(-32.904 -129.86)" fill="#2f2e41"/>
    <circle id="Ellipse_285" data-name="Ellipse 285" cx="32.8" cy="32.8" r="32.8" transform="translate(169.346 200.552)" fill="#a0616a"/>
    <path id="Path_3461" data-name="Path 3461" d="M228.977,338.171s-10.152,17.962-22.648,20.3,32.8,38.267,32.8,38.267,10.933-34.362,20.3-35.924S228.977,338.171,228.977,338.171Z" transform="translate(-53.383 -101.695)" fill="#a0616a"/>
    <path id="Path_3462" data-name="Path 3462" d="M241,414.547c0,10.152-30.457,39.047-30.457,39.047l-28.9,24.209s-.781,8.591-3.9,9.371-7.029.781-3.9,5.467,10.933,14.838,3.9,16.4a57.427,57.427,0,0,1-6.4.609c-1.874.109-4.077.211-6.552.3-5.779.2-13.011.336-20.843.281q-3.339-.012-6.794-.078c-29.528-.586-63.733-3.983-60.938-15.174,4.686-18.743,1.562-24.99,11.714-35.143s26.552-45.3,26.552-45.3,32.8-55.448,60.133-55.448l5.678-1.492a13,13,0,0,1,14.19,5.451c5.482,8.348,14.127,20.89,19.18,24.936,7.81,6.247,9.028,1.765,9.028,1.765S241,404.395,241,414.547Z" transform="translate(-33.392 -104.662)" fill="#575a89"/>
    <path id="Path_3463" data-name="Path 3463" d="M186.695,565.815s22.648,35.143,8.59,41.39-21.867-36.7-21.867-36.7Z" transform="translate(-48.587 -137.226)" fill="#a0616a"/>
    <path id="Path_3464" data-name="Path 3464" d="M235.907,322.606c1.259-.159,1.657-1.747,1.869-3,1.135-6.7,6.127-13.052,12.835-14.133a18.172,18.172,0,0,1,7.647.616,29.015,29.015,0,0,1,9.812,4.83c1.549,1.172,3.04,2.532,4.9,3.079,1.231.362,6.457,2.685,7.678,3.078,2.685.864,4.906,3.674,7.671,3.118,2.645-.532,3.65-3.726,4.075-6.391.969-6.07-2.506-15.128-5.96-20.212-2.621-3.858-7.058-6.079-11.493-7.524A82.574,82.574,0,0,0,259,282.9c-7.3-.862-14.852-1.319-21.844.936s-13.358,7.772-14.663,15c-.272,1.506-.323,3.049-.656,4.542-.813,3.644-3.224,6.706-4.63,10.165a19.573,19.573,0,0,0,.6,15.867c1.947,3.916,5.334,7.679,4.6,11.992l6.027-4.752a4.377,4.377,0,0,0,2.012-5.123l-.876-7.546a6.64,6.64,0,0,1,.391-4.08C232.644,315.225,233.808,322.87,235.907,322.606Z" transform="translate(-55.204 -92.958)" fill="#2f2e41"/>
    <path id="Path_3465" data-name="Path 3465" d="M167.036,481.6l7.356,30.59c-7.419.266-17.235.406-27.638.2-2.624-7.872-5.131-16.08-7.052-23.764-7.029-28.114,4.686-71.066,10.933-91.371S172.5,371.485,172.5,371.485s7.809,2.343,17.962,9.371S167.036,481.6,167.036,481.6Z" transform="translate(-42.985 -106.895)" opacity="0.1"/>
    <path id="Path_3466" data-name="Path 3466" d="M174.439,482.934l7.661,31.847c-1.874.109-4.077.211-6.552.3-5.779.2-13.011.336-20.844.281-2.819-8.364-5.545-17.189-7.6-25.4-7.029-28.114,4.686-71.066,10.933-91.371s19.914,1.952,19.914,1.952-5.467-13.276,4.686-6.248S174.439,482.934,174.439,482.934Z" transform="translate(-44.14 -109.792)" opacity="0.1"/>
    <path id="Path_3467" data-name="Path 3467" d="M176.2,369.634s-15.619,5.467-21.867,25.771-17.962,63.257-10.933,91.371,21.867,63.257,21.867,63.257,14.838-10.933,20.3-8.59l-14.838-61.7s33.581-93.714,23.429-100.742S176.2,369.634,176.2,369.634Z" transform="translate(-43.563 -106.606)" fill="#575a89"/>
  </g>
</svg>
