<svg id="Group_71" data-name="Group 71" xmlns="http://www.w3.org/2000/svg" xmlns:xlink="http://www.w3.org/1999/xlink" width="499.854" height="377.718" viewBox="0 0 499.854 377.718">
  <defs>
    <linearGradient id="linear-gradient" x1="0.5" y1="1" x2="0.5" gradientUnits="objectBoundingBox">
      <stop offset="0" stop-color="gray" stop-opacity="0.251"/>
      <stop offset="0.54" stop-color="gray" stop-opacity="0.122"/>
      <stop offset="1" stop-color="gray" stop-opacity="0.102"/>
    </linearGradient>
    <linearGradient id="linear-gradient-2" x1="0.5" x2="0.5" y2="0" xlink:href="#linear-gradient"/>
    <linearGradient id="linear-gradient-3" x1="0.5" x2="0.5" y2="0" xlink:href="#linear-gradient"/>
    <linearGradient id="linear-gradient-4" x1="1.096" x2="1.096" y2="0" xlink:href="#linear-gradient"/>
    <linearGradient id="linear-gradient-5" x1="0.5" x2="0.5" y2="0" xlink:href="#linear-gradient"/>
  </defs>
  <path id="Path_2903" data-name="Path 2903" d="M43.44,426.65c7.908,30.821,24.652,57.464,51.115,70.376,55.016,26.84,179.016,13,271.576-2.891,47.89-8.22,89.954-30.887,120.529-62.828Z" transform="translate(-38.039 -248.049)" fill="#6c63ff" opacity="0.1"/>
  <path id="Path_2904" data-name="Path 2904" d="M545.143,53.674H494.358a4.02,4.02,0,1,1,0-8.005h8.787a4.224,4.224,0,0,1-4.394-4,4.218,4.218,0,0,1,4.394-4h-6.27a4.224,4.224,0,0,1-4.394-4,4.222,4.222,0,0,1,4.394-4h26.506a75.1,75.1,0,0,0-20.676-5.193C430.427,16,404.619,21.6,395.5,27.361a106.372,106.372,0,0,1-37.148,14.846C313.76,50.594,230.362,60.686,154.77,38.973,117.2,28.187,89.28,46.442,72.54,76.894H553.961A66.249,66.249,0,0,0,548,52.7,4.6,4.6,0,0,1,545.143,53.674Z" transform="translate(-54.354 -20.144)" fill="#6c63ff" opacity="0.1"/>
  <path id="Path_2905" data-name="Path 2905" d="M32.238,280.23A186.261,186.261,0,0,0,34.211,334l445.895,14.868a190.309,190.309,0,0,0,30.979-43.057Zm176.345,38.36H199.8a4.018,4.018,0,1,1,0,8H149.032a4.018,4.018,0,1,1,0-8h8.787a4.02,4.02,0,1,1,0-8.005h-6.278a4.018,4.018,0,1,1,0-8h50.785a4.018,4.018,0,1,1,0,8h6.256a4.02,4.02,0,1,1,0,8.005Z" transform="translate(-31.147 -165.959)" fill="#6c63ff" opacity="0.1"/>
  <path id="Path_2906" data-name="Path 2906" d="M532.253,149.94l-486.808,10.8A163.506,163.506,0,0,0,33.78,206.569H523.72a175.309,175.309,0,0,0,7.074-29.213A126.547,126.547,0,0,0,532.253,149.94Zm-399.63,35.373h-8.787a4.02,4.02,0,1,1,0,8.005H73.054a4.02,4.02,0,1,1,0-8.005h8.787a4.018,4.018,0,1,1,0-8H75.563a4.02,4.02,0,1,1,0-8.005h50.785a4.02,4.02,0,1,1,0,8.005h6.274a4.018,4.018,0,1,1,0,8Z" transform="translate(-32.623 -92.913)" fill="#6c63ff" opacity="0.1"/>
  <ellipse id="Ellipse_213" data-name="Ellipse 213" cx="33.053" cy="7.421" rx="33.053" ry="7.421" transform="translate(258.835 322.069)" fill="#6c63ff" opacity="0.1"/>
  <ellipse id="Ellipse_214" data-name="Ellipse 214" cx="59.63" cy="4.894" rx="59.63" ry="4.894" transform="translate(309.063 348.163)" fill="#6c63ff" opacity="0.1"/>
  <ellipse id="Ellipse_215" data-name="Ellipse 215" cx="59.63" cy="7.421" rx="59.63" ry="7.421" transform="translate(69.644 338.215)" fill="#6c63ff" opacity="0.1"/>
  <ellipse id="Ellipse_216" data-name="Ellipse 216" cx="44.867" cy="7.421" rx="44.867" ry="7.421" transform="translate(175.322 301.068)" fill="#6c63ff" opacity="0.1"/>
  <ellipse id="Ellipse_217" data-name="Ellipse 217" cx="35.917" cy="7.421" rx="35.917" ry="7.421" transform="translate(196.798 362.877)" fill="#6c63ff" opacity="0.1"/>
  <path id="Path_2907" data-name="Path 2907" d="M498.136,218.907c-.949-6.388-6.753-21.3-6.753-21.3h0q-.152-.659-.343-1.318c-4.117-14.147-9.815-15.378-9.815-15.378l-20.413-4.394a1.581,1.581,0,0,1,.439.409,2.82,2.82,0,0,0-.321.048,8,8,0,0,1-1.788-3.866c-.04-.211-.075-.439-.1-.655a14.358,14.358,0,0,0-1.169-21.586c-.215-.167-.439-.33-.655-.483a3.254,3.254,0,0,0,.272-3.871c-1.608-3.339-5.105-5.452-8.7-6.485a14.748,14.748,0,0,0-8.444-.18,30.5,30.5,0,0,0-4.42,2.052c-2.711,1.353-5.712,2.425-7.737,4.653a2.27,2.27,0,0,0-.773,1.867,5.041,5.041,0,0,0,.769,1.358,4.1,4.1,0,0,1,.04,3.4,32.945,32.945,0,0,0-1.261,3.269,3.417,3.417,0,0,0,.681,3.282,14.452,14.452,0,0,0,1.274.879,6.686,6.686,0,0,1,1.217,1.366q1.213,1.626,2.416,3.264a33.627,33.627,0,0,1,3.027,4.6,22.422,22.422,0,0,0,1.872,3.515,5.214,5.214,0,0,0,.8.844l-.237-.092A3.66,3.66,0,0,0,440.7,175.2h.123a.738.738,0,0,0,.492-.2v.439c.048,1.569.04,3.238-.07,4.807l-.189-.1a1.648,1.648,0,0,0-1.757.185L420.51,195.414S416.424,201,417,210.651l-3.3,14.468s-4.117,12.276-.949,21.041,5,13.778,5,13.778,1.265,9.96,3.168,10.773,2.724,1.252,2.724,1.252l.378,2.381h0s.127.233.351.624c1.384,2.408,6.511,10.9,9.49,10a38.084,38.084,0,0,1,.483,6.981l2.948,19.793s2.056,5.382,1.929,8.2,2.4,6.841,2.4,6.841a13.071,13.071,0,0,0-1.265,9.2c1.2,5.272,2.724,29.56,2.724,29.56l2.2,5.887-.062,6.9a6.59,6.59,0,0,1-1.362,3.076c-1.424,1.547-1.318,3.335-4.75,5.448s-5.606,2.913-5.606,5.712a7.349,7.349,0,0,1-.105,1.164c-.316,2.056-.931,3.172,5.378,3.77a16.634,16.634,0,0,0,12.355-4.13s1.09-1.977,6.221-2.777c0,0,1.757-.092,1.85-1.643.035-.536.026-1.56,0-2.689-.084-2.148-.29-4.657-.562-4.78-.343-.154-.94-2.315-1.147-3.1h1.428s1.318-9.96,0-16.41a26.621,26.621,0,0,1-.128-11.023l-.255-17.034s-1.757-1.88-.378-5.2,0-19.727,0-19.727.51-5.887,1.964-7.267.07-8.625,0-9l2.592,8.695s1.138,17.284,3.55,20.413l.694,7.829s4.938,7.205,3.989,11.085,1.015,17.913,1.015,17.913V373s-2.219,5.76.879,7.829l1.318-.053c-.439.409-.778,1.024-1.292,1.555-.593.611-.931,2.935-1.12,4.934-.158,1.692-.211,3.146-.211,3.146a5.18,5.18,0,0,0,3.8,2.254c2.482.145,10.663,6.366,10.663,6.366s8.08,0,10.171-.439l.123-.031a2.746,2.746,0,0,0,1.577-1.287,3.3,3.3,0,0,0,.378-2.368c-.259-1.235-1.239-2.588-3.409-3.739-5.4-2.847-6.2-5.514-6.2-5.514l-3.546-5.321h.505a22.759,22.759,0,0,1,3.546-11.964l-.25-27.868s1.582-9.582-1.138-14.784c0,0-.224-5.51,1.595-7.2s-2.421-18.787-2.421-18.787-.879-9.178-1.911-17.552h0c4.275,4.055,8.708-10.545,9.455-13.141h.11l-.048-.189c.031-.123.048-.185.048-.185h0s-.949-3.374-.255-2.689,2.408-1.88,2.408-1.88-.255-13.967,2.724-21.006S498.136,218.907,498.136,218.907Zm-12.741,8.888.022-.04c.439,8.528-.083,26.726-.083,26.726s-.589,2.333-1.217,5.079l-.439-17.289h0l-.439-16.287Zm-54.529-5.879s2.153,26.928,0,30.812a20.341,20.341,0,0,0-1.551,5.321c-.712-1.867-2.219-6.252-1.678-8.576.7-3.005-1.393-10.9-1.393-11.085a18.731,18.731,0,0,1,1.318-7.61c1.507-3.216.518-4.609.518-4.609S429.346,220.9,430.866,221.916Z" transform="translate(-244.419 -86.956)" fill="url(#linear-gradient)"/>
  <path id="Path_2908" data-name="Path 2908" d="M452.929,448.283c-1.876,8.247-9.336-4.222-11.037-7.214-.22-.391-.343-.619-.343-.619l.808-3.792,4.275-1.757a11.938,11.938,0,0,1,1.916,1.248A11.549,11.549,0,0,1,452.929,448.283Z" transform="translate(-261.236 -252.674)" fill="#d38884"/>
  <path id="Path_2909" data-name="Path 2909" d="M583.491,431.953a.576.576,0,0,1-.048.185.932.932,0,0,1-.057.2c-.734,2.575-5.083,17.069-9.284,13.044-4.6-4.394-2.364-14.551-2.364-14.551h.031l9.666-.989,1.916,1.968h0Z" transform="translate(-333.922 -249.837)" fill="#d38884"/>
  <path id="Path_2910" data-name="Path 2910" d="M511,504.707l.246,27.679a22.7,22.7,0,0,0-3.48,11.863l-12.5.492c-3.049-2.052-.879-7.768-.879-7.768V522.721s-1.929-13.923-1-17.781-3.915-10.984-3.915-10.984l-.685-7.772c-2.364-3.106-3.484-20.263-3.484-20.263l-2.535-8.664c.07.373,1.388,7.605,0,8.936s-1.929,7.21-1.929,7.21,1.366,16.291,0,19.582.369,5.162.369,5.162l.25,16.911a26.445,26.445,0,0,0,.123,10.94c1.3,6.4,0,16.291,0,16.291h-13.4l.061-6.9-2.17-5.844s-1.494-24.121-2.676-29.345a13.11,13.11,0,0,1,1.239-9.139s-2.482-3.976-2.359-6.775-1.916-8.137-1.916-8.137l-2.891-19.644a38.158,38.158,0,0,0-1.432-11.19c-1.678-5.6-4.165-12.935-4.165-12.935l2.808.25,14.165,1.261s34.441-2.315,35.983-.391a6.466,6.466,0,0,1,.65,2.008c1.547,6.946,3.589,28.708,3.589,28.708s4.165,16.972,2.377,18.651-1.568,7.144-1.568,7.144C512.564,495.173,511,504.707,511,504.707Z" transform="translate(-267.028 -251.261)" fill="#444053"/>
  <path id="Path_2911" data-name="Path 2911" d="M487.642,689.628c-.1,1.542-1.815,1.634-1.815,1.634-5.035.791-6.107,2.75-6.107,2.75a16.172,16.172,0,0,1-12.122,4.1c-6.2-.6-5.593-1.7-5.272-3.743a7.746,7.746,0,0,0,.1-1.151c0-2.8,2.144-3.594,5.5-5.712s3.264-3.871,4.662-5.408,1.542-4.521,1.542-4.521c1.582-2.755,5.593.439,5.593.439.189.975,6.151.839,6.151.839s.791,3.172,1.2,3.357c.268.123.47,2.61.549,4.745C487.669,688.082,487.678,689.1,487.642,689.628Z" transform="translate(-272.782 -388.103)" fill="#b07473"/>
  <path id="Path_2912" data-name="Path 2912" d="M487.642,703.038c-.1,1.542-1.815,1.634-1.815,1.634-5.035.791-6.107,2.75-6.107,2.75a16.171,16.171,0,0,1-12.122,4.1c-6.2-.6-5.593-1.7-5.272-3.743,2.768.685,8.058,1.643,11.146-.035,4.293-2.328,7.372-3.954,7.372-3.954l6.784-3.414C487.669,701.492,487.678,702.506,487.642,703.038Z" transform="translate(-272.782 -401.513)" opacity="0.1"/>
  <path id="Path_2913" data-name="Path 2913" d="M573.6,700.2a2.68,2.68,0,0,1-1.547,1.278l-.119.031c-2.052.439-9.982.439-9.982.439s-8.018-6.2-10.444-6.34a5.1,5.1,0,0,1-3.73-2.241s.048-1.441.2-3.119c.189-1.986.518-4.293,1.1-4.9,1.072-1.12,1.318-2.636,3.73-1.678,0,0,3.445-6.072,7.5-1.38l4.2,6.371s.791,2.636,6.112,5.5c2.126,1.142,3.076,2.487,3.344,3.713A3.274,3.274,0,0,1,573.6,700.2Z" transform="translate(-320.793 -390.373)" fill="#b07473"/>
  <path id="Path_2914" data-name="Path 2914" d="M573.6,712.621c-.475.4-1,.83-1.547,1.279l-.119.031c-2.052.439-9.982.439-9.982.439s-8.018-6.2-10.444-6.34a5.1,5.1,0,0,1-3.73-2.241s.048-1.441.2-3.12c2.469.738,6.208,2.043,7.21,3.449,1.538,2.14,6.208,5.127,6.208,5.127s8.708-.839,12.574-.953A3.273,3.273,0,0,1,573.6,712.621Z" transform="translate(-320.793 -402.797)" opacity="0.1"/>
  <path id="Path_2915" data-name="Path 2915" d="M499.786,212.922l-11.467,12.122s-13.9-1.024-11.472-5.127c1.235-2.091,1.428-6.467,1.318-10.272-.1-3.669-.479-6.792-.479-6.792s19.49-9.7,18.014-.655a14.889,14.889,0,0,0-.053,5.162C496.478,211.929,499.786,212.922,499.786,212.922Z" transform="translate(-280.866 -120.048)" fill="#d38884"/>
  <path id="Path_2916" data-name="Path 2916" d="M497.116,202.2a14.887,14.887,0,0,0-.053,5.162,14.306,14.306,0,0,1-10.2,4.257c-2.636,0-5.488-2.166-7.618-3.418-.1-3.673-.123-5.347-.123-5.347S498.61,193.151,497.116,202.2Z" transform="translate(-282.3 -120.048)" opacity="0.1"/>
  <path id="Path_2917" data-name="Path 2917" d="M492.764,175.849a14.363,14.363,0,1,1-5.4-11.221A14.362,14.362,0,0,1,492.764,175.849Z" transform="translate(-273.844 -99.389)" fill="#d38884"/>
  <path id="Path_2918" data-name="Path 2918" d="M508.261,435.817c-3.576,8.51-26.581,8.686-26.581,8.686v-9.279l-1.393-.092c.6,2.658-.844,9.139-.844,9.139-18.181,2.566-22.614-7.794-22.614-7.794l.633-3.546,14.165,1.261s34.441-2.315,35.983-.391A6.464,6.464,0,0,1,508.261,435.817Z" transform="translate(-269.803 -251.569)" opacity="0.1"/>
  <path id="Path_2919" data-name="Path 2919" d="M481.68,328.254v-9.279l-1.393-.088c.6,2.636-.844,9.139-.844,9.139-13.682,1.929-19.578-3.458-21.656-6.243a8.5,8.5,0,0,1-.958-1.547L462.384,289l1.318-45.974,1.99-8.067.461-3.871v-.044h.048l1.415.606,8.466,3.66,9.618-7.263.141-.1.479-.365.8.637,1.977,1.586,6.34,40.944s10.984,31.524,13.04,44.248c.083.51.149.984.2,1.428C510.032,328.039,481.68,328.254,481.68,328.254Z" transform="translate(-269.803 -136.441)" fill="#6c63ff"/>
  <ellipse id="Ellipse_218" data-name="Ellipse 218" cx="0.817" cy="0.817" rx="0.817" ry="0.817" transform="translate(206.49 98.955)" fill="#67647e"/>
  <ellipse id="Ellipse_219" data-name="Ellipse 219" cx="0.817" cy="0.817" rx="0.817" ry="0.817" transform="translate(206.868 106.415)" fill="#67647e"/>
  <ellipse id="Ellipse_220" data-name="Ellipse 220" cx="0.817" cy="0.817" rx="0.817" ry="0.817" transform="translate(207.686 118.493)" fill="#67647e"/>
  <ellipse id="Ellipse_221" data-name="Ellipse 221" cx="0.817" cy="0.817" rx="0.817" ry="0.817" transform="translate(209.034 131.502)" fill="#67647e"/>
  <ellipse id="Ellipse_222" data-name="Ellipse 222" cx="0.817" cy="0.817" rx="0.817" ry="0.817" transform="translate(209.852 143.716)" fill="#67647e"/>
  <ellipse id="Ellipse_223" data-name="Ellipse 223" cx="0.817" cy="0.817" rx="0.817" ry="0.817" transform="translate(210.669 156.726)" fill="#67647e"/>
  <ellipse id="Ellipse_224" data-name="Ellipse 224" cx="0.817" cy="0.817" rx="0.817" ry="0.817" transform="translate(210.344 169.595)" fill="#67647e"/>
  <path id="Path_2920" data-name="Path 2920" d="M466.692,297.794s-.914,11.964-2.592,15.443-2.425,13.242-2.425,13.242l-3.9-.439a8.5,8.5,0,0,1-.958-1.547l5.554-31.238,1.318-45.974,1.995-8.071.461-3.871.053-.022a1.573,1.573,0,0,1,1.388.022l.185.1q-.083.237-.158.488c-1.52,4.758-2.087,13.528-2.087,13.528s2.2,16.041,2.425,23.5S466.692,297.794,466.692,297.794Z" transform="translate(-269.797 -140.695)" opacity="0.1"/>
  <path id="Path_2921" data-name="Path 2921" d="M448.549,436.161a2.251,2.251,0,0,1-.149.29c-1.511,2.553-5.343,4.174-6.507,4.618-.22-.391-.343-.62-.343-.62l.808-3.792,4.275-1.757A11.942,11.942,0,0,1,448.549,436.161Z" transform="translate(-261.236 -252.674)" opacity="0.1"/>
  <path id="Path_2922" data-name="Path 2922" d="M422.573,298.81l-3.546,2.113L415.8,315.286s-4.042,12.183-.936,20.887,4.912,13.686,4.912,13.686,1.243,9.885,3.111,10.694,2.671,1.243,2.671,1.243l.373,2.364s5.061-1.718,6.85-4.745-1.318-10.545-1.318-10.545-2.671-6.406-1.986-9.389S428.1,328.664,428.1,328.5a18.617,18.617,0,0,1,1.318-7.557c1.5-3.2.5-4.569.5-4.569l-.936-9.139Z" transform="translate(-245.616 -176.376)" fill="#67647e"/>
  <path id="Path_2923" data-name="Path 2923" d="M545.1,318.4s-9.389,3.541-12.372.439-2.676-17.658-2.676-17.658-2.856-26.858-4.662-31.269-.879-36.247-.879-36.247-1.213-4.117-2.271-5.193a1.152,1.152,0,0,0-.224-.18l.365.079,1.274.272,1.977,1.586,6.34,40.944s10.984,31.524,13.04,44.248Z" transform="translate(-306.351 -136.84)" opacity="0.1"/>
  <path id="Path_2924" data-name="Path 2924" d="M584.171,432.316h-.105c-1.182.154-11.612,1.415-11.656-.756a6.344,6.344,0,0,1,.04-.751l9.666-.989,1.916,1.968h0c.035.127.062.237.088.325Z" transform="translate(-334.602 -249.826)" opacity="0.1"/>
  <path id="Path_2925" data-name="Path 2925" d="M574.162,266.07l6.854,3.576s5.712,14.789,6.625,21.129c0,0,4.231,16.986,1.318,23.971s-2.671,20.852-2.671,20.852-1.678,2.548-2.364,1.867.25,2.671.25,2.671-11.718,1.555-11.766-.747,2.689-13.3,2.689-13.3.747-26.172-.312-30.276S574.162,266.07,574.162,266.07Z" transform="translate(-334.601 -158.021)" fill="#67647e"/>
  <path id="Path_2926" data-name="Path 2926" d="M522.71,329.52s-3.858,9.446-5.1,10.07.25,3.106.25,3.106S524.885,332.877,522.71,329.52Z" transform="translate(-303.601 -193.593)" opacity="0.1"/>
  <path id="Path_2927" data-name="Path 2927" d="M516.931,254.094c.044-.18-4.6,4.556-5.844,5.272S515.627,259.322,516.931,254.094Z" transform="translate(-300.125 -151.303)" opacity="0.1"/>
  <path id="Path_2928" data-name="Path 2928" d="M487.222,327.82s-7.087,4.582-6.151,6.4S487.222,327.82,487.222,327.82Z" transform="translate(-283.346 -192.64)" opacity="0.1"/>
  <path id="Path_2929" data-name="Path 2929" d="M524.47,480.07a37.936,37.936,0,0,0,15.417,4.833Z" transform="translate(-307.725 -277.998)" opacity="0.1"/>
  <path id="Path_2930" data-name="Path 2930" d="M491.5,501.3s5.593,7.03,8.146,7.21S491.5,501.3,491.5,501.3Z" transform="translate(-289.241 -289.901)" opacity="0.1"/>
  <path id="Path_2931" data-name="Path 2931" d="M500.719,564c-.25.123-3.172,6.34-6.151,6.529S500.719,564,500.719,564Z" transform="translate(-290.625 -325.053)" opacity="0.1"/>
  <path id="Path_2932" data-name="Path 2932" d="M568.33,594.765s5.545-1.243,6.779,2.733C575.109,597.485,574.736,596.241,568.33,594.765Z" transform="translate(-332.315 -342.198)" opacity="0.1"/>
  <path id="Path_2933" data-name="Path 2933" d="M559.84,646.141s6.718-1.371,8.146.5S559.84,646.141,559.84,646.141Z" transform="translate(-327.555 -370.833)" opacity="0.1"/>
  <path id="Path_2934" data-name="Path 2934" d="M508.172,654c0,.062-6.836,1.371-6.59,2.241s7.293.747,7.544-.624a1.318,1.318,0,0,0-.953-1.617Z" transform="translate(-294.889 -375.511)" opacity="0.1"/>
  <path id="Path_2935" data-name="Path 2935" d="M554.75,666.916s11.234-1.371,10.545.993S554.75,666.916,554.75,666.916Z" transform="translate(-324.701 -382.53)" opacity="0.1"/>
  <path id="Path_2936" data-name="Path 2936" d="M420.89,352.44c.062.185,7.4,1.182,8.392,3.546,0,0-7.21-3.361-8.348-3.361" transform="translate(-249.654 -206.443)" opacity="0.1"/>
  <path id="Path_2937" data-name="Path 2937" d="M437.131,396.16s-6.094,1.929-5.659,4.833S430.852,399.648,437.131,396.16Z" transform="translate(-255.574 -230.955)" opacity="0.1"/>
  <path id="Path_2938" data-name="Path 2938" d="M437.92,426.58s2.219-3.045,4.332-2.487S437.92,426.58,437.92,426.58Z" transform="translate(-259.201 -246.577)" opacity="0.1"/>
  <path id="Path_2939" data-name="Path 2939" d="M487.387,164.624a3.46,3.46,0,0,1-.712.532c-1.757,1.024-2.241,2.6-3.076,4.42-.778,1.665-1.634,3.427-3.2,4.372-2.025,1.221-4.692.773-6.8,1.837a5.272,5.272,0,0,0-2.812,5.2,14.994,14.994,0,0,0,.6,2.381,16.981,16.981,0,0,1,.641,5.171.887.887,0,0,1,0,.154A14.358,14.358,0,1,1,487.4,164.624Z" transform="translate(-273.871 -99.386)" opacity="0.1"/>
  <path id="Path_2940" data-name="Path 2940" d="M477.863,149.669c-1.577-3.313-5.009-5.413-8.537-6.437a14.338,14.338,0,0,0-8.291-.176,30.414,30.414,0,0,0-4.336,2.034c-2.662,1.344-5.589,2.408-7.592,4.618a2.314,2.314,0,0,0-.76,1.854,5.178,5.178,0,0,0,.751,1.344,4.08,4.08,0,0,1,.04,3.379,30.983,30.983,0,0,0-1.239,3.247,3.416,3.416,0,0,0,.668,3.256,12.178,12.178,0,0,0,1.257.879,6.616,6.616,0,0,1,1.191,1.353l2.372,3.242a32.891,32.891,0,0,1,2.97,4.565,21.753,21.753,0,0,0,1.836,3.484,3.976,3.976,0,0,0,3.33,1.779.646.646,0,0,0,.527-.25.694.694,0,0,0,.066-.33,16.864,16.864,0,0,0-.628-5.154,14.87,14.87,0,0,1-.6-2.381,5.294,5.294,0,0,1,2.812-5.2c2.109-1.063,4.776-.615,6.8-1.832,1.573-.949,2.43-2.711,3.2-4.394.848-1.819,1.318-3.4,3.076-4.42S478.738,151.413,477.863,149.669Z" transform="translate(-264.721 -88.754)" fill="#585268"/>
  <path id="Path_2941" data-name="Path 2941" d="M501.63,693.06s2.2,2.8,1.626,4.394S501.63,693.06,501.63,693.06Z" transform="translate(-294.92 -397.409)" opacity="0.1"/>
  <path id="Path_2942" data-name="Path 2942" d="M569.28,704.1s.488-3.752,2.443-3.787,2.052-.2,3.546.373,2.9,1.467,2.447,1.6-2.57-2.144-4.749-.98A15.69,15.69,0,0,0,569.28,704.1Z" transform="translate(-332.847 -401.45)" opacity="0.1"/>
  <path id="Path_2943" data-name="Path 2943" d="M479.4,244.458l6.151-4.31s-9-5.316-10.07-4.569-1.81,7.469-1.81,7.469Z" transform="translate(-279.244 -140.885)" opacity="0.1"/>
  <path id="Path_2944" data-name="Path 2944" d="M479.339,243.721l6.151-4.394s-9-5.316-10.07-4.569-1.81,7.838-1.81,7.838Z" transform="translate(-279.211 -140.426)" fill="#e1e7ef"/>
  <path id="Path_2945" data-name="Path 2945" d="M479.339,243.721l6.151-4.394s-9-5.316-10.07-4.569-1.81,7.838-1.81,7.838Z" transform="translate(-279.211 -140.426)" fill="#6c63ff"/>
  <path id="Path_2946" data-name="Path 2946" d="M449.59,234.59l-.185-.092a1.6,1.6,0,0,0-1.727.18l-18.453,14.969s-4.011,5.549-3.453,15.123l10.883,15.417s1.243-5.22,2.733-4.227c0,0,2.113,26.735,0,30.588s-3.045,18.277-3.045,18.277l7.148.808s.747-9.763,2.425-13.242,2.592-15.443,2.592-15.443,1.511-17.381,1.261-24.841-2.425-23.5-2.425-23.5S447.955,239.2,449.59,234.59Z" transform="translate(-252.361 -140.222)" fill="#67647e"/>
  <path id="Path_2947" data-name="Path 2947" d="M512.107,237.694l-7.667-2.838s9.763-10.694,10.984-4.763Z" transform="translate(-296.495 -136.846)" opacity="0.1"/>
  <path id="Path_2948" data-name="Path 2948" d="M512.107,236.844l-7.667-2.838s9.763-10.694,10.984-4.763Z" transform="translate(-296.495 -136.37)" fill="#e1e7ef"/>
  <path id="Path_2949" data-name="Path 2949" d="M512.107,236.844l-7.667-2.838s9.763-10.694,10.984-4.763Z" transform="translate(-296.495 -136.37)" fill="#6c63ff"/>
  <path id="Path_2950" data-name="Path 2950" d="M521.32,228.113a.439.439,0,0,1,.316.07Z" transform="translate(-305.959 -136.737)" opacity="0.1"/>
  <path id="Path_2951" data-name="Path 2951" d="M523,226.42l20.342,4.394s5.6,1.243,9.64,15.294-5.536,31.265-5.536,31.265l-2.113-1.8,1.059,41.032s-9.389,3.541-12.372.439-2.671-17.671-2.671-17.671-2.86-26.853-4.666-31.269-.879-36.243-.879-36.243S524.142,226.174,523,226.42Z" transform="translate(-306.901 -135.787)" fill="#67647e"/>
  <path id="Path_2952" data-name="Path 2952" d="M565.02,285.7c-.286.264-.619,12.68.624,22.13a120.615,120.615,0,0,0,3.515,17.034l-1.845-37.859S565.89,284.9,565.02,285.7Z" transform="translate(-330.309 -168.925)" opacity="0.1"/>
  <path id="Path_2953" data-name="Path 2953" d="M559.7,261.6c.5.312,2.676,5.47,1.678,7.583S559.7,261.6,559.7,261.6Z" transform="translate(-327.476 -155.515)" opacity="0.1"/>
  <path id="Path_2954" data-name="Path 2954" d="M491.775,152.814a11.23,11.23,0,0,0-4.473-4.684,10.636,10.636,0,0,1,3.352,3.954c.879,1.757.62,3.515-1.09,4.477s-2.241,2.6-3.076,4.42c-.778,1.665-1.634,3.427-3.207,4.394-2.021,1.221-4.688.769-6.8,1.832a5.307,5.307,0,0,0-2.812,5.2,14.94,14.94,0,0,0,.6,2.377,17,17,0,0,1,.641,5.171.694.694,0,0,1-.07.33.628.628,0,0,1-.523.25,3.026,3.026,0,0,1-1.533-.286,3.568,3.568,0,0,0,2.636,1.032.518.518,0,0,0,.589-.58,16.857,16.857,0,0,0-.637-5.171,14.44,14.44,0,0,1-.6-2.381,5.294,5.294,0,0,1,2.812-5.2c2.109-1.063,4.776-.615,6.8-1.832,1.573-.949,2.43-2.711,3.2-4.394.848-1.819,1.318-3.4,3.075-4.42S492.653,154.558,491.775,152.814Z" transform="translate(-278.751 -91.898)" opacity="0.1"/>
  <path id="Path_2955" data-name="Path 2955" d="M691.584,220.877c-6.054-.119-11.4-4.394-14.424-9.618a9.666,9.666,0,0,1-1.459-4.117,4.762,4.762,0,0,1,.167-.984,10.2,10.2,0,0,0,.439-1.507,2.625,2.625,0,0,0,0-.615V204a3.635,3.635,0,0,0-1.318-2.957c-.808-.76-1.823-1.318-2.667-2.074-2.6-2.285-3.392-5.949-3.44-9.437v-.185c.031-1.494.149-2.992.136-4.486a18.833,18.833,0,0,0-.11-2.539,8.392,8.392,0,0,0-2.715-5.615c-4.332-3.515-11.617.145-16.1-3.177-1.09-.813-1.973-2.012-3.3-2.329a5.551,5.551,0,0,0-3.01.409c-3.3,1.09-6.99,2.522-8.282,5.712-.738,1.832-.532,3.923-1.208,5.778a28.857,28.857,0,0,1-1.889,3.488,5.461,5.461,0,0,0-.7,2.913,3.286,3.286,0,0,0,.215,1.551A3.954,3.954,0,0,0,633,192.6a5.121,5.121,0,0,1-.641,1.028c-.844,1.033-2.14,1.757-3.018,2.786-1.626,1.885-1.564,4.446-.764,6.661s2.245,4.231,3.242,6.388a3.429,3.429,0,0,1,.33,2.913,8.353,8.353,0,0,1-1.459,1.7,5.33,5.33,0,0,0-1.318,2.944c-9.89,2.258-9.9,10.206-9.9,10.206h0l-5.343,13.436s-.857,2.263-1.863,5.25l-6.322-1.134,4.394,7.355c-.83,3-1.419,5.773-1.226,7.17,0,0-1.964,9.226,1.529,10.839l7.706,3.467a4.564,4.564,0,0,0,1.068.479l.312.141a.826.826,0,0,0,.721,0h.105a1.038,1.038,0,0,0,.439-.066.879.879,0,0,0,.387-.417.133.133,0,0,1,0-.044l2.307-.668,1.955,2.315c.879.62,1.757,1.156,2.588,1.639L625.2,307.039s-.488,39.982-1.964,49.094a25.516,25.516,0,0,0-.343,7.241l-.057.1c.365,2.57,1.318,3.075,1.318,3.075v-.035a.286.286,0,0,0,.057.035,25.882,25.882,0,0,1,1.582-3.392v.659c-.031,3.392-.136,8.141-.488,11.23-.6,5.272,1.529,22.649,1.529,22.649l.734,15.817a14.622,14.622,0,0,1-1.8,7.706c-1.757,3.159-4,7.605-4.165,9.578a1.982,1.982,0,0,0,0,.321h0l-3.77,4.534s-1.472,2.276,1.854,3.194c1.788.5,4.872,0,7.35-.584a4.912,4.912,0,0,0,3.809-4.78,16.915,16.915,0,0,1,3.111-5.971l.62,3.642,4.148,1.028.532-9.982a4.39,4.39,0,0,0,.286-1.757h0c.817-7.1-1.924-6.463-1.924-6.463a.382.382,0,0,1,.132.246l-.132-.242h0c-1.683-3.322-.879-8.787-.879-8.787s2.2-15.817,2.948-20c.54-2.952.316-12.618.136-18.014a6.429,6.429,0,0,0-.022-.655c6.432-.083,14.314-.3,19.846-.835v.65l-1.019,37.367a20.512,20.512,0,0,1-1.432,6.951.378.378,0,0,1-.048.127,30.319,30.319,0,0,0-2.025,9.793l-.474,11.863v.329h0c-.826.316-2.131,1.235-2.166,3.9-.057,3.9,6.819,2.6,6.819,2.6,6.872,0,6.929-7.153,6.929-7.153s.215-6.56.545-10.949-1.037-3.423-1.037-3.423l-.105,12.487V419.387l.105-1.586v-.044h0v-.338l.866-12.878s6.331-21.458,7.311-25.575c.7-2.926.409-11.74.18-16.612a3.873,3.873,0,0,0-.035-.646c1.964-.176,3.7-.193,4.393-.193h.321s-.325-34.463-1.147-47.451-2.127-24.872-5.4-28.448c-1.977-2.162-4.732-8.835-6.59-13.778a68.924,68.924,0,0,0,12.113,3.954c10.365,2.17,8.945-6.828,8.945-6.828l-1.05-17.016h.07a86.773,86.773,0,0,0-1.142-13.3,39.135,39.135,0,0,0-2.671-9.666c1.125-.439,2.236-.909,3.326-1.393,2.816-1.243,5.988-3.005,6.393-6.041h-.136a3.928,3.928,0,0,0,.106-.668Zm-64.247,24.6h0c.022,1.757-.044,4.807-.149,8.176l-3.291-4.394,3.3-5.351ZM671.431,254.4Zm1.371,6.647-5.483-1.757a24.6,24.6,0,0,1,3.387-4.191l.474-.439-.171.035.264-.242.158-.035-.25.242.3-.062a9.354,9.354,0,0,0,1.867,3.757c1.968,2.148-.54,2.693-.54,2.693Z" transform="translate(-353.401 -104.787)" fill="url(#linear-gradient-2)"/>
  <path id="Path_2956" data-name="Path 2956" d="M644.013,715.66l-.641,12.161-4.09-1.024-.861-5.057Z" transform="translate(-357.92 -401.231)" fill="#a27772"/>
  <path id="Path_2957" data-name="Path 2957" d="M644.013,715.66l-.641,12.161-4.09-1.024-.861-5.057Z" transform="translate(-357.92 -401.231)" opacity="0.1"/>
  <path id="Path_2958" data-name="Path 2958" d="M716.48,668.141l6.239,1.292,4.626-4.086V653.831l.105-1.573v-.048h0v-.334l.861-12.8s6.243-21.3,7.214-25.395c.685-2.9.4-11.652.171-16.489-.092-1.982-.171-3.308-.171-3.308l-13.774-3.335-.29,10.589-1.006,37.1a20.557,20.557,0,0,1-1.41,6.9l-.048.128a30.191,30.191,0,0,0-2,9.719l-.466,11.8v.325Z" transform="translate(-415.374 -339.938)" fill="#cc818c"/>
  <path id="Path_2959" data-name="Path 2959" d="M741.45,730.139v.325h0v-.334Z" transform="translate(-429.373 -418.193)" opacity="0.1"/>
  <path id="Path_2960" data-name="Path 2960" d="M716.48,762.334l6.239,1.292,4.626-4.086v-.98a1.318,1.318,0,0,1-.663,1.054l-.066.04a12.432,12.432,0,0,1-7,1.384l-2.434-.206a2.27,2.27,0,0,0-.646.158v.325Z" transform="translate(-415.374 -434.132)" opacity="0.1"/>
  <path id="Path_2961" data-name="Path 2961" d="M723.936,744.347l.066-.035a1.318,1.318,0,0,0,.672-1.142l.1-12.394s1.344-.962,1.019,3.4-.536,10.87-.536,10.87-.053,7.1-6.832,7.1c0,0-6.779,1.292-6.727-2.583s2.8-4.033,2.8-4.033l2.434.211A12.4,12.4,0,0,0,723.936,744.347Z" transform="translate(-412.694 -418.503)" fill="#b07473"/>
  <path id="Path_2962" data-name="Path 2962" d="M642.52,670.685c.158,2.8,8.392,1.182,8.392,1.182l5.54-10.755s4.626-3.554,2.311-6.674a4.953,4.953,0,0,1-.338-.532l-.022-.026h0c-.048-.079-.092-.163-.136-.251h0c-1.661-3.3-.844-8.7-.844-8.7s2.149-15.711,2.9-19.854c.532-2.926.312-12.526.136-17.9-.07-2.232-.136-3.73-.136-3.73l-13.668-3.66v4.077c-.031,3.37-.136,8.084-.483,11.151-.589,5.215,1.507,22.486,1.507,22.486l.725,15.716a14.556,14.556,0,0,1-1.757,7.649c-1.714,3.137-3.954,7.557-4.108,9.512A1.921,1.921,0,0,0,642.52,670.685Z" transform="translate(-373.909 -345.118)" fill="#cc818c"/>
  <path id="Path_2963" data-name="Path 2963" d="M642.515,739.739c.158,2.8,8.392,1.182,8.392,1.182l5.54-10.755s4.627-3.554,2.311-6.674a4.968,4.968,0,0,1-.338-.532c-.075,1.63-1.863,5.712-1.863,5.712s-4.574,9.152-6.028,11.248-7.772-.391-8.01-.479A1.931,1.931,0,0,0,642.515,739.739Z" transform="translate(-373.904 -414.173)" opacity="0.1"/>
  <path id="Path_2964" data-name="Path 2964" d="M653.052,722.282s2.706-.628,1.9,6.419h0a4.539,4.539,0,0,1-2.14,4.029,15.385,15.385,0,0,0-6.437,8.928h0a4.868,4.868,0,0,1-3.757,4.745c-2.443.571-5.488,1.072-7.249.58-3.282-.914-1.828-3.172-1.828-3.172l3.765-4.468s6.564,2.583,8.014.483,6.028-11.243,6.028-11.243S653.856,722.875,653.052,722.282Z" transform="translate(-368.695 -413.784)" fill="#b07473"/>
  <path id="Path_2965" data-name="Path 2965" d="M728.11,593.52l-.29,10.589c3.669-.356,6.3-.852,6.744-1.551.971-1.5,4.495-2.135,7.491-2.394-.092-1.982-.171-3.308-.171-3.308Z" transform="translate(-421.732 -341.603)" opacity="0.1"/>
  <path id="Path_2966" data-name="Path 2966" d="M651.94,606.8a5.026,5.026,0,0,1,1.507-1.819c1.45-.8,1.292,5.167,1.292,5.167s4.833.044,11.006-.035c-.07-2.232-.136-3.734-.136-3.734L651.94,602.72S651.966,604.416,651.94,606.8Z" transform="translate(-379.19 -346.761)" opacity="0.1"/>
  <path id="Path_2967" data-name="Path 2967" d="M646.573,487.926s1.617-4.394,3.075-5.176,1.292,5.162,1.292,5.162,35.509.325,37.284-2.421,12.1-2.583,12.1-2.583-.321-34.217-1.129-47.125-2.1-24.7-5.325-28.246c-2.087-2.3-5.057-9.732-6.893-14.688-1-2.706-1.661-4.679-1.661-4.679L651.428,390.1l-.277,2.746-3.6,35.992s-.483,39.7-1.938,48.742S646.573,487.926,646.573,487.926Z" transform="translate(-375.383 -226.475)" fill="#444053"/>
  <g id="Group_63" data-name="Group 63" transform="translate(269.806 161.695)" opacity="0.1">
    <path id="Path_2968" data-name="Path 2968" d="M695.389,485.492c1.757-2.742,12.1-2.583,12.1-2.583s-.321-34.217-1.129-47.125-2.1-24.7-5.325-28.246c-2.1-2.307-5.057-9.732-6.894-14.688-.839-2.276-1.441-4.029-1.608-4.53l2.636-.149s.663,1.973,1.665,4.679c1.837,4.956,4.8,12.39,6.889,14.688,3.229,3.55,4.521,15.334,5.325,28.246s1.134,47.125,1.134,47.125-10.329-.158-12.109,2.583c-1.516,2.342-27.644,2.452-35.228,2.43C672.582,487.9,694.018,487.61,695.389,485.492Z" transform="translate(-655.113 -388.17)"/>
    <path id="Path_2969" data-name="Path 2969" d="M646.94,603.344c.655-.365.98.646,1.142,1.872a25.328,25.328,0,0,0-1.525,3.3s-.936-.505-1.318-3.076A5.982,5.982,0,0,1,646.94,603.344Z" transform="translate(-645.24 -508.763)"/>
  </g>
  <path id="Path_2970" data-name="Path 2970" d="M663.605,193.545c-2.346,3.2.026,7.746-2.491,10.857-.83,1.028-2.109,1.757-2.974,2.768-1.6,1.872-1.542,4.416-.756,6.612s2.2,4.2,3.2,6.344a3.394,3.394,0,0,1,.325,2.891,8.186,8.186,0,0,1-1.441,1.683,6.068,6.068,0,0,0-.791,6.441,20.84,20.84,0,0,0,4.169,5.756,2.846,2.846,0,0,0,4.135.945,16.256,16.256,0,0,0,7.4-21.217c-1.362-3.264-3.634-6.393-3.656-9.842,0-2.737,1.406-5.351,1.656-8.075.3-3.313-1.656-8.572-5.654-10.017C666.988,190.816,664.8,191.9,663.605,193.545Z" transform="translate(-381.941 -114.638)" fill="#585268"/>
  <path id="Path_2971" data-name="Path 2971" d="M663.605,193.545c-2.346,3.2.026,7.746-2.491,10.857-.83,1.028-2.109,1.757-2.974,2.768-1.6,1.872-1.542,4.416-.756,6.612s2.2,4.2,3.2,6.344a3.394,3.394,0,0,1,.325,2.891,8.186,8.186,0,0,1-1.441,1.683,6.068,6.068,0,0,0-.791,6.441,20.84,20.84,0,0,0,4.169,5.756,2.846,2.846,0,0,0,4.135.945,16.256,16.256,0,0,0,7.4-21.217c-1.362-3.264-3.634-6.393-3.656-9.842,0-2.737,1.406-5.351,1.656-8.075.3-3.313-1.656-8.572-5.654-10.017C666.988,190.816,664.8,191.9,663.605,193.545Z" transform="translate(-381.941 -114.638)" opacity="0.1"/>
  <path id="Path_2972" data-name="Path 2972" d="M698.6,464.55c-4.7.246-9.117,2.267-13.229,4.552s-8.093,4.872-12.517,6.494" transform="translate(-390.913 -269.297)" opacity="0.1"/>
  <path id="Path_2973" data-name="Path 2973" d="M696.677,489.74a19.362,19.362,0,0,0-12.192,5.931c-1.142,1.208-2.127,2.562-3.317,3.721a14.737,14.737,0,0,1-6.538,3.7" transform="translate(-391.911 -283.42)" opacity="0.1"/>
  <path id="Path_2974" data-name="Path 2974" d="M693.075,508.91a21.317,21.317,0,0,0-9.806,5.914c-.721.778-1.375,1.608-2.1,2.386-3.888,4.174-9.38,6.388-14.683,8.484" transform="translate(-387.347 -294.167)" opacity="0.1"/>
  <path id="Path_2975" data-name="Path 2975" d="M702.3,242.77a96.424,96.424,0,0,0,.967,11.212c.439,2.636,1.055,5.009,1.938,6.059,2.583,3.076-12.588,7.184-12.588,7.184l-8.958-6.942s7.1-6.538,3.792-12.913S702.3,242.77,702.3,242.77Z" transform="translate(-396.974 -144.83)" fill="#cc818c"/>
  <path id="Path_2976" data-name="Path 2976" d="M658.79,392.849h35.83c-1-2.706-1.661-4.679-1.661-4.679L659.067,390.1Z" transform="translate(-383.03 -226.475)" opacity="0.1"/>
  <path id="Path_2977" data-name="Path 2977" d="M644.615,327.208h38.308a13.292,13.292,0,0,1,1.533-10.158,22.45,22.45,0,0,1,4.011-5.2l.264-.242,13.374-2.961.721-.158s.11-24.318-8.5-27.658a50.346,50.346,0,0,1-13.774-7.851l-11.832,3.655L660,272.24c-2.8,3.01-10.224,1.828-10.224,1.828-12.157,1.4-12.157,10.545-12.157,10.545s7.1,16.568,7.64,16.568S644.615,327.208,644.615,327.208Z" transform="translate(-371.162 -161.48)" fill="#6c63ff"/>
  <path id="Path_2978" data-name="Path 2978" d="M670.28,356.088s-7.812-1.731-10.47-4.758" transform="translate(-383.602 -205.821)" opacity="0.1"/>
  <path id="Path_2979" data-name="Path 2979" d="M761.73,341.51l-9.06,7.425a15.41,15.41,0,0,0,.3,1.757l.263-.242,13.374-2.961Z" transform="translate(-435.664 -200.315)" opacity="0.1"/>
  <path id="Path_2980" data-name="Path 2980" d="M717.46,378.015s1.981,1.116,5.017,2.583h5.206a13.292,13.292,0,0,1,1.533-10.158l-9.178-2.97C723.163,370.374,717.46,378.015,717.46,378.015Z" transform="translate(-415.923 -214.87)" opacity="0.1"/>
  <path id="Path_2981" data-name="Path 2981" d="M629.261,293.76l-5.378,2.9-5.272,13.343s-5.488,14.631-4.952,18.506c0,0-1.933,9.147,1.507,10.76l8.963,4.06a.835.835,0,0,0,1.076-1.151c-1.279-2.421-2.685-6.208-.439-8.291l-2.583-5.378,9.336-15.281,3.119-5.272Z" transform="translate(-357.425 -173.545)" fill="#6c63ff"/>
  <path id="Path_2982" data-name="Path 2982" d="M677,350.48c.466,1.9,2.039,4.833,7.245,5.927l5.712,4.679,6.076,2.755,2.478,1.12,1.05-7.588-2.386-1.318-2.781-1.52s-6.274-11.366-16.208-6.59A2.2,2.2,0,0,0,677,350.48Z" transform="translate(-393.201 -203.266)" opacity="0.1"/>
  <path id="Path_2983" data-name="Path 2983" d="M677.752,349.042c.466,1.9,2.034,4.833,7.241,5.927l5.712,4.679,6.081,2.755,2.474,1.12,1.05-7.588-2.386-1.318-2.759-1.507s-6.278-11.366-16.212-6.568A2.2,2.2,0,0,0,677.752,349.042Z" transform="translate(-393.627 -202.475)" fill="#cc818c"/>
  <ellipse id="Ellipse_225" data-name="Ellipse 225" cx="13.879" cy="13.879" rx="13.879" ry="13.879" transform="translate(281.44 80.023)" opacity="0.1"/>
  <ellipse id="Ellipse_226" data-name="Ellipse 226" cx="13.879" cy="13.879" rx="13.879" ry="13.879" transform="translate(281.44 79.702)" fill="#cc818c"/>
  <path id="Path_2984" data-name="Path 2984" d="M717.554,282.546l-4.174-8.111s6.107-2.469,6.551-5.329,5.852,3.352,4.684,5.413S717.554,282.546,717.554,282.546Z" transform="translate(-413.636 -159.308)" opacity="0.1"/>
  <path id="Path_2985" data-name="Path 2985" d="M717.554,281.076l-4.174-8.111s6.107-2.469,6.551-5.329,5.852,3.357,4.684,5.413S717.554,281.076,717.554,281.076Z" transform="translate(-413.636 -158.484)" fill="#6c63ff"/>
  <path id="Path_2986" data-name="Path 2986" d="M623.893,343.014l23.062,31.005s-8.5,4.626-20.21-3.655l-5.057-6.028L607.25,340Z" transform="translate(-354.135 -199.469)" fill="#f6f8fb"/>
  <path id="Path_2987" data-name="Path 2987" d="M634.11,375.037l2.1-.057s12.829-12.451,15.979-6.151-7.992,12.188-7.992,12.188l-3.387,1.828-4.416,1.318-2.825-3.792Z" transform="translate(-368.891 -214.634)" fill="#cc818c"/>
  <path id="Path_2988" data-name="Path 2988" d="M633.5,390.271a3.135,3.135,0,0,1,.053,2.17.879.879,0,0,1-.382.417.979.979,0,0,1-.439.061,4.416,4.416,0,0,1-2.9-1.432,13.218,13.218,0,0,1-1.876-2.715A5.009,5.009,0,0,1,627,385.54a4.716,4.716,0,0,1,2.386-2.785c2.126-1.406,2.2.233,2.662,2.043S633.013,388.444,633.5,390.271Z" transform="translate(-365.184 -223.142)" opacity="0.1"/>
  <path id="Path_2989" data-name="Path 2989" d="M632.769,390.271a3.159,3.159,0,0,1,.053,2.17.878.878,0,0,1-.382.417.989.989,0,0,1-.439.062,4.394,4.394,0,0,1-2.9-1.432,13.068,13.068,0,0,1-1.88-2.715,4.98,4.98,0,0,1-.958-3.234,4.709,4.709,0,0,1,2.381-2.785c2.131-1.406,2.2.233,2.667,2.043S632.277,388.444,632.769,390.271Z" transform="translate(-364.773 -223.142)" fill="#6c63ff"/>
  <path id="Path_2990" data-name="Path 2990" d="M623.85,315.625l1.072-1.815-.936,3.37Z" transform="translate(-349.751 -175.937)" opacity="0.1"/>
  <path id="Path_2991" data-name="Path 2991" d="M721.19,374.215l2.474,1.12,1.05-7.588-2.386-1.318C723.976,368.319,722.534,371.812,721.19,374.215Z" transform="translate(-418.015 -214.287)" opacity="0.1"/>
  <path id="Path_2992" data-name="Path 2992" d="M729.269,361.941s-7.988.488-11.379-1.691" transform="translate(-416.164 -210.822)" opacity="0.1"/>
  <g id="Group_64" data-name="Group 64" transform="translate(278.106 111.393)" opacity="0.1">
    <path id="Path_2993" data-name="Path 2993" d="M736.989,319.462A22.489,22.489,0,0,1,741,314.256a10.711,10.711,0,0,1,1.182-.641l12.451-2.557.721-.158s.11-24.318-8.5-27.658a51.722,51.722,0,0,1-13.427-7.561l.945-.29a50.213,50.213,0,0,0,13.774,7.851c8.611,3.335,8.5,27.658,8.5,27.658h-1.292l-12.741,2.438s-.549.532-.716.685a24.692,24.692,0,0,0-4.073,5.387,13.506,13.506,0,0,0-1.068,10.211h-1.318A13.431,13.431,0,0,1,736.989,319.462Z" transform="translate(-702.982 -274.639)"/>
    <path id="Path_2994" data-name="Path 2994" d="M664.13,277.893c.206-.031.4-.061.619-.083a22.27,22.27,0,0,0,2.636.215A23.952,23.952,0,0,1,664.13,277.893Z" transform="translate(-664.13 -275.995)"/>
    <path id="Path_2995" data-name="Path 2995" d="M695.642,278.087,687.76,274.1a4.169,4.169,0,0,0,.439-.417l8.225,4.161Z" transform="translate(-677.378 -273.68)"/>
  </g>
  <path id="Path_2996" data-name="Path 2996" d="M742.711,340l5.272,6.459L749.059,364s1.4,8.928-8.822,6.775-22.047-8.8-22.047-8.8,5.712-7.64,2.583-10.545l14.635,4.736s2.474-.54.536-2.689-2.28-6.028-2.28-6.028Z" transform="translate(-416.333 -199.469)" fill="#6c63ff"/>
  <path id="Path_2997" data-name="Path 2997" d="M779.42,382.17l2.9,3.335A4.187,4.187,0,0,1,779.42,382.17Z" transform="translate(-450.661 -223.111)" opacity="0.1"/>
  <path id="Path_2998" data-name="Path 2998" d="M736.99,360.8l4.521,5.808-2.258.54Z" transform="translate(-413.182 -202.282)" opacity="0.1"/>
  <path id="Path_2999" data-name="Path 2999" d="M665.289,194.192a4.635,4.635,0,0,1,.483-3.783,29.838,29.838,0,0,0,1.867-3.467c.663-1.837.461-3.915,1.186-5.712,1.279-3.185,4.912-4.609,8.168-5.712a5.491,5.491,0,0,1,2.97-.4c1.318.312,2.175,1.507,3.251,2.311,4.42,3.3,11.608-.334,15.883,3.155a8.313,8.313,0,0,1,2.676,5.571,49.183,49.183,0,0,1-.026,6.336c-.07,3.7.624,7.746,3.392,10.2.835.738,1.819,1.292,2.636,2.056a3.6,3.6,0,0,1,1.318,2.939,10.179,10.179,0,0,1-.439,1.494c-.549,1.929.272,3.954,1.274,5.712,2.988,5.171,8.255,9.433,14.226,9.552-.4,3.014-3.515,4.763-6.3,6-3.515,1.577-7.258,3.124-11.129,2.926s-7.909-2.676-8.585-6.489c-.233-1.318-.2-2.9-1.318-3.59-.685-.417-1.573-.312-2.311-.624a4.071,4.071,0,0,1-1.946-2.742,24.674,24.674,0,0,1-1.147-7.03c-.048-2.829.325-5.918-1.278-8.247-1.485-2.157-4.121-3.251-5.835-5.233-1.582-1.836-3.3-4.051-5.892-4.394C674.823,194.508,667.406,199.381,665.289,194.192Z" transform="translate(-386.546 -106.981)" opacity="0.1"/>
  <path id="Path_3000" data-name="Path 3000" d="M665.289,192.722a4.635,4.635,0,0,1,.483-3.783,29.837,29.837,0,0,0,1.867-3.466c.663-1.837.461-3.915,1.186-5.712,1.279-3.19,4.912-4.613,8.168-5.712a5.491,5.491,0,0,1,2.97-.4c1.318.312,2.175,1.507,3.251,2.311,4.42,3.3,11.608-.334,15.883,3.155a8.315,8.315,0,0,1,2.676,5.575,49.111,49.111,0,0,1-.026,6.331c-.07,3.7.624,7.746,3.392,10.2.835.738,1.819,1.292,2.636,2.056a3.6,3.6,0,0,1,1.318,2.939,10.179,10.179,0,0,1-.439,1.494c-.549,1.929.272,3.954,1.274,5.712,3,5.154,8.242,9.429,14.213,9.547-.4,3.014-3.515,4.763-6.3,6-3.515,1.573-7.258,3.119-11.129,2.922s-7.909-2.676-8.585-6.489c-.233-1.318-.2-2.9-1.318-3.59-.685-.417-1.573-.312-2.311-.624a4.071,4.071,0,0,1-1.946-2.742,24.645,24.645,0,0,1-1.147-7.03c-.048-2.829.325-5.918-1.279-8.247-1.485-2.157-4.121-3.251-5.835-5.233-1.582-1.837-3.3-4.051-5.892-4.394C674.823,193.038,667.406,197.92,665.289,192.722Z" transform="translate(-386.546 -106.157)" fill="#585268"/>
  <path id="Path_3001" data-name="Path 3001" d="M684.506,282.054l7.957-6.459s-5.448-2.953-6.1-5.47-5.009,1.2-4.565,3.453S684.506,282.054,684.506,282.054Z" transform="translate(-395.913 -159.822)" opacity="0.1"/>
  <path id="Path_3002" data-name="Path 3002" d="M685.25,279.849l7.957-6.454s-5.448-2.952-6.072-5.47-5.009,1.2-4.565,3.453S685.25,279.849,685.25,279.849Z" transform="translate(-396.345 -158.588)" fill="#6c63ff"/>
  <ellipse id="Ellipse_227" data-name="Ellipse 227" cx="0.633" cy="0.633" rx="0.633" ry="0.633" transform="translate(296.541 119.578)" opacity="0.1"/>
  <ellipse id="Ellipse_228" data-name="Ellipse 228" cx="0.633" cy="0.633" rx="0.633" ry="0.633" transform="translate(296.541 123.093)" opacity="0.1"/>
  <ellipse id="Ellipse_229" data-name="Ellipse 229" cx="0.633" cy="0.633" rx="0.633" ry="0.633" transform="translate(296.541 126.603)" opacity="0.1"/>
  <g id="Group_65" data-name="Group 65" transform="translate(278.614 72.189)" opacity="0.1">
    <path id="Path_3003" data-name="Path 3003" d="M671.836,189.854c.628-1.727.492-3.664,1.081-5.4a5.908,5.908,0,0,0-.672,1.239c-.729,1.815-.523,3.893-1.191,5.712l-.044.105A10.047,10.047,0,0,0,671.836,189.854Z" transform="translate(-668.496 -184.45)"/>
    <path id="Path_3004" data-name="Path 3004" d="M718.824,245.686c-3.515,1.573-7.258,3.119-11.129,2.922s-7.908-2.676-8.585-6.485c-.233-1.318-.2-2.909-1.318-3.594-.685-.417-1.573-.312-2.311-.624a4.072,4.072,0,0,1-1.946-2.742,24.647,24.647,0,0,1-1.147-7.03c-.048-2.825.329-5.914-1.274-8.247-1.489-2.157-4.126-3.247-5.839-5.233-1.582-1.832-3.3-4.051-5.892-4.394-3.554-.483-10.984,4.394-13.084-.8a4.086,4.086,0,0,1,.136-3c-.154.259-.3.518-.439.782a4.654,4.654,0,0,0-.479,3.787c2.113,5.184,9.53.312,13.084.8,2.592.352,4.31,2.57,5.892,4.394,1.714,1.986,4.35,3.076,5.835,5.237,1.608,2.329,1.23,5.417,1.279,8.242a24.649,24.649,0,0,0,1.147,7.03,4.081,4.081,0,0,0,1.946,2.742c.738.312,1.626.211,2.311.624,1.134.685,1.1,2.289,1.318,3.594.685,3.809,4.719,6.287,8.585,6.485s7.592-1.344,11.129-2.922c2.548-1.134,5.387-2.7,6.151-5.272C722.972,243.652,720.81,244.8,718.824,245.686Z" transform="translate(-665.288 -196.79)"/>
  </g>
  <path id="Path_3005" data-name="Path 3005" d="M856.419,289.2c-9.3-5.351-12.816-6.669-12.834-6.669l-.193-.136a7.737,7.737,0,0,1-2.342-2.961,6.163,6.163,0,0,1,0-.637.266.266,0,0,0,0,.062c.145-2.834,2.162-5.413,4.073-7.662l4.89-5.751a5.666,5.666,0,0,0,1.261-1.995,4.6,4.6,0,0,0,.132-1.226v-.5c-.026-1.428-.066-2.86-.119-4.288-.044-1.248-.365-2.821-1.612-3.075-.65-.132-1.511.1-1.854-.439a1.068,1.068,0,0,1-.083-.742.259.259,0,0,0,0,.062v-.07a16.542,16.542,0,0,0,.461-2.939,4,4,0,0,0-.2-1.489c-.72-2.069-3.212-2.922-5.413-3.313s-4.67-.725-6.05-2.447a17.889,17.889,0,0,0-1.2-1.656,4.75,4.75,0,0,0-2.249-1.112,12.742,12.742,0,0,0-8.185.712,7.347,7.347,0,0,1-3.3,1.046c-1.169-.07-2.25-.914-3.445-1.116-1.933-.33-3.783,1.09-4.736,2.772a6.778,6.778,0,0,0-.879,3.269v.193h0a4.78,4.78,0,0,0,1.257,3.339c.835.879,2.074,1.459,2.421,2.6.141.461.105.962.233,1.432a1.276,1.276,0,0,0,.053.171l-.062.083a14.5,14.5,0,0,0-3.076,8.937A14.833,14.833,0,0,0,823.783,277.7v.439a6.321,6.321,0,0,1-2.021,4.921l-13.176,5.264s-7.944-.945-10.808,10.663a19.793,19.793,0,0,0-.492,5.887,17.067,17.067,0,0,1-2.2,8.818c-3.256,6.379-2.513,21.023,4.148,22.473,6.287,1.371,8.748.8,9.007.734v.255c-.105,2.75-1.1,26.449-4.727,29.314-1,.8-.817,1.318,0,1.692,0,0,0,.154-.022.439-.11,1.757-.668,8.348-3.076,12.091-2.816,4.35-2.522,29.437-2.522,29.437l-1.92,14.789s1.182,9.134,0,10.729c-1.059,1.419-2.465,35.21-2.759,42.539h-.123a3.567,3.567,0,0,0-2.847,1.757c-1.555,2.526-7,7.2-7,7.2-1.182,1.678-5.553,3.286-7.864,4.042a4.887,4.887,0,0,0-.879.387,4.688,4.688,0,0,0-1.986,2.091,2.245,2.245,0,0,0-.211,1.757c.589,1.445,12.878,2.465,15.988,1.01,2.443-1.138,12.126-2.636,16.146-3.225a3.313,3.313,0,0,0,2.873-2.873,1.894,1.894,0,0,0-.369-1.437c-.769-.953-1.16-3.559-1.318-5.272a3.562,3.562,0,0,0,.905-.536,38.6,38.6,0,0,1,2.2-15.514c2.961-7.829,3.849-22.328,3.111-31.752,0,0,9.029-38.857,16.138-42.481h0c.11.141,3.559,4.565,4,18.268.439,13.919,5.474,23.053,5.474,23.053s-2.223,23.633,0,32.477l-2.9,13.95c-.215-.18-.351-.321-.351-.321s.088.387.206,1.006l-.061.3.127.026a27.459,27.459,0,0,1,.615,6.59c-.114,1.015-.4,2.408-.593,3.774-.308,2.148-.391,4.231.738,4.688,1.854.747,12.741,1.757,14.587-.633a3.423,3.423,0,0,0,.536-3.581,3.627,3.627,0,0,0-.536-.914s-2.891-4.723-2.074-8.053a2.451,2.451,0,0,0-.347-1.911,98.215,98.215,0,0,1,2.491-15.624c1.854-6.977,5.76-22.275,2.887-32.332h0q-.163-.593-.369-1.16a43.424,43.424,0,0,1-1.63-16.964,34.571,34.571,0,0,1,0-14.789c1.779-8.119,3.023-16.094,3.023-16.094s.98-10.729.123-17.306a4.311,4.311,0,0,0-.057-.439l.466-.105s-2.517-11.164-3.405-18.268c-.211-1.678-.483-3.8-.782-6.068a15.48,15.48,0,0,0,2.412-.6c7.992-2.755,10.509-27.68,10.509-27.68v-7.908S865.746,294.561,856.419,289.2ZM796.859,481.74c-.246-.123-.391-.206-.391-.206h0Z" transform="translate(-446.62 -143.314)" fill="url(#linear-gradient-3)"/>
  <path id="Path_3006" data-name="Path 3006" d="M879.115,589.295c3.467,9.969-.58,26.151-2.46,33.391a100.944,100.944,0,0,0-2.456,15.9,33.478,33.478,0,0,1-12.715-.29l3.036-14.881c-2.171-8.814,0-32.368,0-32.368s-4.912-9.1-5.347-22.974c-.439-13.651-3.792-18.066-3.9-18.2h0c-6.933,3.612-15.747,42.336-15.747,42.336.721,9.389-.149,23.84-3.036,31.634a39.1,39.1,0,0,0-2.166,15.457,4.7,4.7,0,0,1-3.954.756c-4.126-.668-9.073-4.222-9.073-4.222s1.586-42.178,2.746-43.778,0-10.694,0-10.694l1.876-14.736s-.29-25,2.456-29.332c2.373-3.743,2.917-10.325,3.023-12.052V524.8l4.183-5.009s40.456-3.036,43.5,0c.743.743,1.2,2.438,1.476,4.569.835,6.555-.123,17.245-.123,17.245s-1.213,7.948-2.948,16.037a35.2,35.2,0,0,0,0,14.74A44.125,44.125,0,0,0,879.115,589.295Z" transform="translate(-474.14 -299.509)" fill="#65617d"/>
  <path id="Path_3007" data-name="Path 3007" d="M927.664,801.111c-1.806,2.386-12.425,1.375-14.235.633-1.1-.439-1.019-2.535-.721-4.675.189-1.358.466-2.746.58-3.757.286-2.6-.879-7.878-.879-7.878s2.381,2.531,2.957,0a2.756,2.756,0,0,1,2.065-1.96,5.4,5.4,0,0,1,3.752.233c1.876.817,5,2.553,4.446,4.9-.8,3.317,2.021,8.027,2.021,8.027a3.659,3.659,0,0,1,.527.905,3.467,3.467,0,0,1-.514,3.572Z" transform="translate(-525.221 -447.97)" fill="#a27772"/>
  <path id="Path_3008" data-name="Path 3008" d="M927.8,818.752c-1.806,2.386-12.425,1.375-14.235.633-1.1-.439-1.019-2.535-.721-4.675,1.142.536,3.076.98,6.314.681a17.791,17.791,0,0,1,2.271-.07,52.789,52.789,0,0,0,6.9-.141A3.467,3.467,0,0,1,927.8,818.752Z" transform="translate(-525.354 -465.612)" opacity="0.1"/>
  <path id="Path_3009" data-name="Path 3009" d="M851.1,628.706c.72,9.389-.149,23.839-3.036,31.634a39.1,39.1,0,0,0-2.166,15.457,4.7,4.7,0,0,1-3.954.756c.879-6.094,4.587-32.35,6.964-53.1a86.884,86.884,0,0,1,15.378-39.876l2.526,2.781C859.91,589.981,851.1,628.706,851.1,628.706Z" transform="translate(-485.712 -336.03)" opacity="0.1"/>
  <path id="Path_3010" data-name="Path 3010" d="M899.685,318.527l-1.757,8.669-8.642,14.521-10.654-4.552s-14.5-15.171-5.382-17.337a8.067,8.067,0,0,0,3.023-1.344,6.251,6.251,0,0,0,2.359-5.228,16.028,16.028,0,0,0-1.468-6.213L895.8,301.19a29.911,29.911,0,0,0-1.318,7.548c-.145,5.079,1.757,7.579,3.291,8.787A5.6,5.6,0,0,0,899.685,318.527Z" transform="translate(-501.578 -177.71)" fill="#fbbebe"/>
  <path id="Path_3011" data-name="Path 3011" d="M904.62,301.19a29.916,29.916,0,0,0-1.318,7.548,14.164,14.164,0,0,1-1.085,1.155,14.745,14.745,0,0,1-14.736,3.361A16.03,16.03,0,0,0,886,307.042Z" transform="translate(-510.414 -177.71)" opacity="0.1"/>
  <path id="Path_3012" data-name="Path 3012" d="M895.631,276.956a14.67,14.67,0,1,1-4.3-10.44A14.74,14.74,0,0,1,895.631,276.956Z" transform="translate(-499.285 -155.862)" fill="#fbbebe"/>
  <path id="Path_3013" data-name="Path 3013" d="M899.685,339.355l-1.757,8.669-8.642,14.521-10.654-4.552s-14.5-15.171-5.382-17.337a8.067,8.067,0,0,0,3.023-1.344c-1.643,4.517,5.141,13.914,5.141,13.914.791,1.164,2.6.439,2.6.439,4.372-.663,12.416-13.233,13.73-15.325a5.6,5.6,0,0,0,1.942,1.015Z" transform="translate(-501.578 -198.538)" opacity="0.1"/>
  <path id="Path_3014" data-name="Path 3014" d="M893.5,524.355c-2.566.584-16.762,3.726-22.144,2.939-5.923-.879-17.438-1.441-17.438-1.441s-7.333.4-9.591-.637v-.439l4.183-5.009s40.456-3.036,43.5,0C892.769,520.528,893.23,522.224,893.5,524.355Z" transform="translate(-487.052 -299.498)" opacity="0.1"/>
  <path id="Path_3015" data-name="Path 3015" d="M854.057,353.834s-7.623-10.545-4.749-14.675l-12.878,5.272s-7.75-.94-10.544,10.628a20.125,20.125,0,0,0-.479,5.87,17.366,17.366,0,0,1-2.122,8.787c-3.176,6.357-2.456,20.953,4.047,22.407s8.809.721,8.809.721-.879,26.44-4.622,29.476,9.578,2.311,9.578,2.311,11.516.58,17.443,1.445,22.539-3.036,22.539-3.036-2.456-11.125-3.326-18.2-2.9-22.157-2.9-22.157l14.736-19.964s2.6-12.065-6.5-17.412-12.526-6.656-12.526-6.656-9.147,14.894-13.914,15.615C856.658,354.265,854.848,354.994,854.057,353.834Z" transform="translate(-474.227 -198.712)" fill="#6c63ff"/>
  <path id="Path_3016" data-name="Path 3016" d="M854.046,382.74s-.141,4.771.725,6.647,4.047,12.3,4.047,12.3H851.59s3.9-4.191,3.616-6.217S854.046,382.74,854.046,382.74Z" transform="translate(-491.122 -223.431)" opacity="0.1"/>
  <path id="Path_3017" data-name="Path 3017" d="M876.477,438.79s-15.958-3.9-17.443-7.223-5.584-10.76-5.584-10.76l1.683-2.267,7.759,6.089s9.226,7.368,13.585,8.093S876.477,438.79,876.477,438.79Z" transform="translate(-492.165 -243.502)" fill="#fbbebe"/>
  <path id="Path_3018" data-name="Path 3018" d="M876.477,438.79s-15.958-3.9-17.443-7.223-5.584-10.76-5.584-10.76l1.683-2.267,7.759,6.089s9.226,7.368,13.585,8.093S876.477,438.79,876.477,438.79Z" transform="translate(-492.165 -243.502)" opacity="0.05"/>
  <path id="Path_3019" data-name="Path 3019" d="M900.476,421.757v8.655h-1.388a40.46,40.46,0,0,0-19.655,5.092l-2.6,1.442-.7.391-4.482-10.105,4.192-3.757h.215c1.024.1,5.457.47,7.337-.163,1.784-.606,4-2.526,9.253-1.186,2.588.663,4.8,3.563,7.311,2.658Z" transform="translate(-502.369 -245.252)" fill="#fbbebe"/>
  <path id="Path_3020" data-name="Path 3020" d="M928.852,373.467l2.887,3.251V384.6s-2.456,24.85-10.255,27.6-21.731-1.59-21.731-1.59-3.6-9.534-1.916-10.105,14.872-4.06,14.872-4.06-.184-14.578,2.7-18.914c0,0-1.876-13.581,4.626-13.871S928.852,373.467,928.852,373.467Z" transform="translate(-516.8 -212.726)" opacity="0.1"/>
  <path id="Path_3021" data-name="Path 3021" d="M929.855,373.467l2.891,3.251V384.6s-2.456,24.85-10.259,27.6-21.731-1.59-21.731-1.59-3.6-9.534-1.911-10.105,14.872-4.06,14.872-4.06-.189-14.578,2.7-18.914c0,0-1.881-13.581,4.622-13.871S929.855,373.467,929.855,373.467Z" transform="translate(-517.364 -212.726)" fill="#6c63ff"/>
  <path id="Path_3022" data-name="Path 3022" d="M895.435,283.145a5.808,5.808,0,0,0-.329-2.816,2.144,2.144,0,0,0-2.293-1.318c-1.235.29-1.757,1.9-2.979,2.285a2.381,2.381,0,0,1-2.636-1.353,6.742,6.742,0,0,1-.5-3.146v-3.62a5.992,5.992,0,0,0-.852-3.765c-1.006-1.283-3.374-1.845-4.956-1.793a4.2,4.2,0,0,0-2.829,1.138,3.642,3.642,0,0,1-2.974,1.059,2.561,2.561,0,0,1-2.074-1.793v-.044a14.736,14.736,0,1,1,21.906,19.56,39.789,39.789,0,0,0,.518-4.394Z" transform="translate(-503.131 -155.795)" opacity="0.1"/>
  <path id="Path_3023" data-name="Path 3023" d="M870.209,257.979a2.584,2.584,0,0,1-2.078-1.8c-.119-.466-.088-.962-.224-1.423-.338-1.138-1.551-1.727-2.364-2.592-1.626-1.727-1.52-4.565-.369-6.643.931-1.674,2.733-3.076,4.622-2.759,1.169.2,2.2,1.033,3.365,1.112a6.791,6.791,0,0,0,3.221-1.041,12.135,12.135,0,0,1,8-.712,4.614,4.614,0,0,1,2.2,1.112,19.214,19.214,0,0,1,1.173,1.648c1.345,1.713,3.756,2.052,5.9,2.438s4.578,1.239,5.272,3.3c.47,1.371,0,2.856-.255,4.279a1.291,1.291,0,0,0,.057.879c.338.554,1.177.321,1.81.439,1.217.259,1.529,1.828,1.577,3.076q.075,2.135.114,4.275a5.443,5.443,0,0,1-.127,1.582,5.585,5.585,0,0,1-1.226,1.99l-4.771,5.734c-2.118,2.539-4.363,5.5-3.954,8.787a2.046,2.046,0,0,1-2.522-1.467,6.565,6.565,0,0,1,.158-3.256,39.92,39.92,0,0,0,.765-5.646,5.789,5.789,0,0,0-.33-2.812,2.144,2.144,0,0,0-2.293-1.318c-1.239.29-1.757,1.9-2.979,2.285a2.381,2.381,0,0,1-2.636-1.353,6.723,6.723,0,0,1-.5-3.141v-3.625a5.991,5.991,0,0,0-.852-3.765c-1.006-1.283-3.374-1.845-4.956-1.793a4.205,4.205,0,0,0-2.825,1.138A3.648,3.648,0,0,1,870.209,257.979Z" transform="translate(-498.256 -144.385)" fill="#7c5c5c"/>
  <path id="Path_3024" data-name="Path 3024" d="M885.3,381.92l4.525,18.589S893.393,400.487,885.3,381.92Z" transform="translate(-510.022 -222.971)" opacity="0.1"/>
  <path id="Path_3025" data-name="Path 3025" d="M915.2,374.85s-5.922,9.7-3.612,19.736l1.1.079S910.722,390.021,915.2,374.85Z" transform="translate(-524.459 -219.007)" opacity="0.1"/>
  <path id="Path_3026" data-name="Path 3026" d="M929,499.161s7.276-2.408,7.8,3.177C936.821,502.338,935.45,498.511,929,499.161Z" transform="translate(-534.522 -288.412)" opacity="0.1"/>
  <path id="Path_3027" data-name="Path 3027" d="M865.318,426.81s-1.446,10.105,1.155,14.16a31.687,31.687,0,0,1-12.715,1.735l-.879-15.9Z" transform="translate(-491.846 -248.138)" opacity="0.1"/>
  <path id="Path_3028" data-name="Path 3028" d="M876.83,439.261l-.7.391-4.482-10.105,4.192-3.757h.215C875.991,426.291,874.822,434.977,876.83,439.261Z" transform="translate(-502.369 -247.566)" opacity="0.1"/>
  <path id="Path_3029" data-name="Path 3029" d="M859.986,425.83s-1.445,10.105,1.156,14.156a31.6,31.6,0,0,1-12.715,1.736L843.37,425.83Z" transform="translate(-486.514 -247.589)" fill="#6c63ff"/>
  <path id="Path_3030" data-name="Path 3030" d="M809.03,794.488a3.273,3.273,0,0,1-2.808,2.865c-3.923.584-13.374,2.078-15.76,3.216-3.036,1.445-15.026.439-15.606-1.011a2.293,2.293,0,0,1,.207-1.757A4.63,4.63,0,0,1,777,795.718a5.141,5.141,0,0,1,.879-.387c2.258-.751,6.524-2.35,7.675-4.029,0,0,5.321-4.653,6.836-7.166a3.471,3.471,0,0,1,2.777-1.731c1.265-.057,2.676.58,3.256,3.352,0,0,6.929,3.954,8.787.488,0,0,.29,5.325,1.441,6.784h0A1.933,1.933,0,0,1,809.03,794.488Z" transform="translate(-448.053 -447.499)" fill="#a27772"/>
  <path id="Path_3031" data-name="Path 3031" d="M809.03,808.049a3.273,3.273,0,0,1-2.808,2.865c-3.923.584-13.374,2.078-15.76,3.216-3.036,1.445-15.026.439-15.606-1.011a2.294,2.294,0,0,1,.207-1.757A4.63,4.63,0,0,1,777,809.279c1.955,1.318,6.3,2.566,15.843,1.076,9.108-1.423,13.62-2.816,15.817-3.765h0a1.933,1.933,0,0,1,.369,1.459Z" transform="translate(-448.053 -461.059)" opacity="0.1"/>
  <g id="Group_66" data-name="Group 66" transform="translate(366.045 104.196)" opacity="0.1">
    <path id="Path_3032" data-name="Path 3032" d="M942.428,267.872v-.07a12.935,12.935,0,0,0,.439-3.282,21.636,21.636,0,0,1-.439,2.636A1.6,1.6,0,0,0,942.428,267.872Z" transform="translate(-908.073 -261.348)"/>
    <path id="Path_3033" data-name="Path 3033" d="M890.209,277.348a4.175,4.175,0,0,1,.356,1.652,4.98,4.98,0,0,0-.356-2.3,2.136,2.136,0,0,0-2.289-1.318c-1.239.29-1.757,1.9-2.983,2.285a2.386,2.386,0,0,1-2.636-1.353,6.685,6.685,0,0,1-.5-3.146v-3.62a5.991,5.991,0,0,0-.852-3.765c-1.01-1.287-3.374-1.845-4.956-1.8a4.21,4.21,0,0,0-2.829,1.142,3.65,3.65,0,0,1-2.979,1.059,2.574,2.574,0,0,1-2.074-1.793c-.119-.466-.088-.967-.224-1.428-.338-1.134-1.551-1.727-2.364-2.588A4.731,4.731,0,0,1,864.3,257.3a4.925,4.925,0,0,0,1.217,3.7c.813.879,2.026,1.454,2.364,2.588.136.439.105.962.224,1.428a2.574,2.574,0,0,0,2.074,1.793,3.65,3.65,0,0,0,2.979-1.059,4.209,4.209,0,0,1,2.829-1.142c1.582-.048,3.954.51,4.956,1.8a6.028,6.028,0,0,1,.852,3.765v3.62a6.65,6.65,0,0,0,.5,3.141,2.392,2.392,0,0,0,2.636,1.358c1.213-.387,1.757-1.995,2.983-2.285A2.219,2.219,0,0,1,890.209,277.348Z" transform="translate(-864.285 -257.3)"/>
    <path id="Path_3034" data-name="Path 3034" d="M937.6,292.686a5.551,5.551,0,0,1-1.23,1.986l-4.771,5.734c-2.008,2.412-4.13,5.206-3.954,8.286.145-2.825,2.113-5.4,3.954-7.636l4.771-5.734a5.551,5.551,0,0,0,1.23-1.986,5.477,5.477,0,0,0,.127-1.586A4.168,4.168,0,0,1,937.6,292.686Z" transform="translate(-899.803 -276.614)"/>
    <path id="Path_3035" data-name="Path 3035" d="M921.8,327.123a3.382,3.382,0,0,1-.145-.773,3.9,3.9,0,0,0,.145,1.424,2.039,2.039,0,0,0,2.522,1.463,6.238,6.238,0,0,1-.053-.633A2.042,2.042,0,0,1,921.8,327.123Z" transform="translate(-896.44 -296.012)"/>
  </g>
  <path id="Path_3036" data-name="Path 3036" d="M812.69,789.36s1.512,2.636,6.986.316" transform="translate(-469.313 -451.399)" opacity="0.1"/>
  <path id="Path_3037" data-name="Path 3037" d="M918,790.82s4.719,5.558,10.667,1.823" transform="translate(-528.355 -452.218)" opacity="0.1"/>
  <path id="Path_3038" data-name="Path 3038" d="M944.865,641.23s-3.335,2.083-3.44,3.273,1.722-.879,1.722-.879Z" transform="translate(-541.485 -368.351)" opacity="0.1"/>
  <path id="Path_3039" data-name="Path 3039" d="M944.62,677.59a6.974,6.974,0,0,1-4.108,1.6c-2.5.11-2.285,3.361-.655,2.386A40.9,40.9,0,0,0,944.62,677.59Z" transform="translate(-539.923 -388.736)" opacity="0.1"/>
  <path id="Path_3040" data-name="Path 3040" d="M950,682.34s-1.6,7.86-2.9,6.344" transform="translate(-544.669 -391.399)" opacity="0.1"/>
  <path id="Path_3041" data-name="Path 3041" d="M244.338,487.589s10.039,2.755,14.872-.909,6.929-2.487,6.929-2.487,11.524-.637,12.473-3.361-4.42-12.618-4.42-12.618c-.382-.879-.94-1.995-1.191-1.995l.053-4.174h0l1.669-17.465c3.853-9.881.07-22.649.07-22.649l-.69-3.168a8.014,8.014,0,0,1,.655-5.272l7-14.059a21.043,21.043,0,0,1,1.318-2.7c.439-.8,1.024-1.8,1.757-2.988.215-.343.439-.7.685-1.072.848-1.318,1.876-2.812,3.12-4.534,3.1-4.293,4.727-9.666,5.571-13.62l.373,1.239h.083l.1.022h.167l.18.031h.066l2.153,27.4c.132,10.685,4.055,16.6,4.055,16.6l-.54,23.589c.738,5.681-.879,13.255-1.621,16.278l-1.7,3.827a4.6,4.6,0,0,0-2.5,3.48c-.334,2.825-3.308,8.914-3.308,8.914-1.151,1.459-3.651,5.4-3.651,5.4s-1.178,3.8-.448,5.228,6.828,1.278,6.828,1.278c6.964,1.542,12.3-2.2,11.964-4.771S307.5,479.8,307.5,479.8c2.768-.879,2.5-2.755,2.5-2.755a17.24,17.24,0,0,0-2.1-11.221l-.439,1.015a15.452,15.452,0,0,1,.835-5.988l-.255.176-.079.048h-.026c.439-3.853,4.486-10.984,4.486-10.984,7.434-13.04,4.732-30.711,4.732-30.711l-1.151-5.51-.066-2.078a69.364,69.364,0,0,1,1.12-14.806c.4-2.162.813-4.771,1.129-7.649A67.609,67.609,0,0,1,322,374.327l.294-.053h.035c.4-.07.813-.141,1.226-.22h.079s.237-1.283.439-3.467c.119-1.393.215-3.159.215-5.189a58.378,58.378,0,0,0-2.772-18.062l.224-.321s.532-.721,1.5-1.968h0c1.784-2.267,4.561-5.712,7.983-9.6,6.129-6.99,4.328-14.059,4.328-14.059s-4.437-16.261-6.415-26.023a29.594,29.594,0,0,0-4.868-11.577,23.038,23.038,0,0,0,.615-4.692c.132-2.891.031-5.9-1.27-8.5s-4.068-4.648-6.959-4.3a2.663,2.663,0,0,1-1.248,0,1.9,1.9,0,0,1-.822-.716c-1.692-2.333-1.8-5.47-1.274-8.3s1.608-5.536,2.091-8.374.264-5.988-1.542-8.238c-2.122-2.636-5.822-3.379-8.581-5.36-1.938-1.393-3.392-3.392-5.435-4.626s-3.954-.765-6.173-.3c-3.73.786-7.276,1.147-10.8,2.75a28.773,28.773,0,0,0-9.415,6.85,8.935,8.935,0,0,0-2.1,3.313c-.879,2.9.839,6,.479,9-.255,2.131-1.511,3.985-2.509,5.887s-1.757,4.161-.975,6.151c1.23,3.111,5.241,3.77,8.159,5.426a2.492,2.492,0,0,1,.967.839c.721,1.257-.751,2.561-1.678,3.677a5.54,5.54,0,0,0-1.1,2.232,7.961,7.961,0,0,0-4.776,5.764c-.989,4.424.532,10.009,1.872,13.7-1.463,8.22.439,11.463,1.841,12.706a7.052,7.052,0,0,1,2.443,4.807v.154c.092,1.494.25,2.983.461,4.468h0c-.048-.347-.1-.716-.123-.879-1.147,2.122-3.33,7.544-4.561,16.665a50.074,50.074,0,0,1-1.112,5.8,31.74,31.74,0,0,0-.931,10.378l.22,2.957a.931.931,0,0,1-.6-.2l1.542,2.825v4.767a17.575,17.575,0,0,1-1.169,6.287c-.11.29-.228.58-.356.879a5.114,5.114,0,0,0-.518,2.588c-3.317,5.083-10.922,33.571-10.922,33.571-4.126,9.341.338,15.378.338,15.378s2.162,26.005,2.566,27.35,1.3,17.2,1.3,17.2h0v1.261a2.958,2.958,0,0,0-.751-.215c-3.616-.2-4.6,5.51-4.6,5.51l-7.4,7.065s-3.379-.571-8.348,3.159S244.338,487.589,244.338,487.589Zm73.878-150.3-.022-.079-.2.119h0l-.083.048-.04.026h0L314.46,325.37a19.982,19.982,0,0,1-.25-9.9l2.636-11.546h0v-2.777l8.379,22.328C325.76,326.486,320.782,333.774,318.216,337.289Z" transform="translate(-147.973 -137.739)" fill="url(#linear-gradient-4)"/>
  <path id="Path_3042" data-name="Path 3042" d="M392.6,557a69.194,69.194,0,0,0-4.244,16.124c-.312,2.847-.716,5.422-1.112,7.557a69.053,69.053,0,0,0-1.081,14.617l.066,2.052,1.1,5.435s2.636,17.456-4.644,30.316c0,0-4.314,7.7-4.446,11.349l-2.922,1.129-5.9-1.656s2.851-10.224,1.924-17.39l.532-23.286s-3.836-5.826-3.967-16.37L365.65,557.94Z" transform="translate(-218.684 -321.128)" fill="#fdc2cc"/>
  <path id="Path_3043" data-name="Path 3043" d="M317.043,547.62s-.725,11.283-6.3,19.059-6.766,11.151-6.766,11.151L297.1,591.723a7.957,7.957,0,0,0-.646,5.2l.677,3.128s3.717,12.61-.066,22.368l-1.793,18.848H284.79s-.879-15.663-1.261-16.99-2.522-27.012-2.522-27.012-4.394-5.975-.334-15.2c0,0,9.161-34.512,11.612-33.914S317.043,547.62,317.043,547.62Z" transform="translate(-170.077 -315.87)" fill="#fdc2cc"/>
  <g id="Group_67" data-name="Group 67" transform="translate(124.133 231.75)" opacity="0.1">
    <path id="Path_3044" data-name="Path 3044" d="M315.538,600.07l-.672-3.128a7.908,7.908,0,0,1,.641-5.22l6.872-13.906s1.191-3.383,6.766-11.151c5.356-7.469,6.239-18.172,6.3-18.993l1.068-.053s-.725,11.283-6.3,19.059-6.766,11.151-6.766,11.151l-6.872,13.893a7.957,7.957,0,0,0-.646,5.2l.677,3.128s3.717,12.61-.066,22.368l-1.793,18.848H313.68l1.793-18.848C319.255,612.658,315.538,600.07,315.538,600.07Z" transform="translate(-313.68 -547.62)"/>
  </g>
  <path id="Path_3045" data-name="Path 3045" d="M388.751,644.463c.132-3.647,4.446-11.349,4.446-11.349,7.3-12.873,4.644-30.316,4.644-30.316l-1.125-5.439-.066-2.052a69.057,69.057,0,0,1,1.081-14.617c.391-2.135.8-4.71,1.107-7.557a69.172,69.172,0,0,1,4.231-16.089l1.09-.044a69.195,69.195,0,0,0-4.244,16.124c-.312,2.847-.716,5.422-1.112,7.557a69.057,69.057,0,0,0-1.081,14.617l.066,2.052,1.1,5.435s2.636,17.456-4.644,30.316c0,0-4.314,7.7-4.446,11.349l-2.922,1.129-.615-.171Z" transform="translate(-230.239 -321.128)" opacity="0.1"/>
  <path id="Path_3046" data-name="Path 3046" d="M375.663,753.589a5.079,5.079,0,0,0,4.833-.6,15.6,15.6,0,0,0-.4,8.761c1.2,4.78-11.151-3.849-11.151-3.849l2.636-6.024S372.61,753.787,375.663,753.589Z" transform="translate(-220.534 -430.386)" fill="#d39999"/>
  <path id="Path_3047" data-name="Path 3047" d="M376.593,753.84a4.934,4.934,0,0,0,3.923-.879,15.6,15.6,0,0,0-.4,8.761c1.2,4.78-11.151-3.849-11.151-3.849l2.636-6.024a3.767,3.767,0,0,0,3.01,1.7C375.3,753.625,375.947,753.717,376.593,753.84Z" transform="translate(-220.545 -430.37)" opacity="0.1"/>
  <path id="Path_3048" data-name="Path 3048" d="M289.32,443.27h5.158V414l-3.871-.694Z" transform="translate(-162.199 -231.721)" fill="#fdc2cc"/>
  <path id="Path_3049" data-name="Path 3049" d="M289.32,443.27h5.158V414l-3.871-.694Z" transform="translate(-162.199 -231.721)" opacity="0.05"/>
  <path id="Path_3050" data-name="Path 3050" d="M361.256,760.24a5.143,5.143,0,0,1,4.71,2.72l1.793,1.393.879-2.056a17.136,17.136,0,0,1,2.03,11.085s.264,1.854-2.456,2.72c0,0-1.393.663-1.063,3.185S362.24,785.525,355.4,784c0,0-5.975.136-6.7-1.261s.466-5.11.466-5.11,2.456-3.893,3.581-5.329c0,0,2.922-6.019,3.256-8.787S359.529,758.711,361.256,760.24Z" transform="translate(-209.048 -434.779)" fill="#7e5659"/>
  <path id="Path_3051" data-name="Path 3051" d="M302.225,760.95l.053-4.125s-5.936,1.709-10.742-.224c0,0,.4,4.147-.264,4.714s2.223,5.9,2.223,5.9l3.229,3.383,5.553-2.021,1.507-4.745S302.621,760.95,302.225,760.95Z" transform="translate(-176.928 -433.033)" fill="#d39999"/>
  <path id="Path_3052" data-name="Path 3052" d="M302.225,760.95l.053-4.125s-5.936,1.709-10.742-.224c0,0,.4,4.147-.264,4.714s2.223,5.9,2.223,5.9l3.229,3.383,5.553-2.021,1.507-4.745S302.621,760.95,302.225,760.95Z" transform="translate(-176.928 -433.033)" opacity="0.1"/>
  <path id="Path_3053" data-name="Path 3053" d="M263.075,763.093s3.155.365,2.755,4.394.167,0,.167,0,3.352,1.358,4.547,3.251,3.352-1.692,3.515-2.72,1.507-1.454,1.507-1.454,5.272,9.776,4.341,12.464-12.249,3.308-12.249,3.308-2.061-1.16-6.806,2.456-14.6.879-14.6.879-8.031-3.352-3.15-7.03,8.194-3.119,8.194-3.119l7.267-7S259.525,762.891,263.075,763.093Z" transform="translate(-149.095 -436.67)" fill="#7e5659"/>
  <path id="Path_3054" data-name="Path 3054" d="M336.458,236.082c2.008,1.217,3.436,3.194,5.338,4.569,2.706,1.955,6.34,2.685,8.422,5.294,1.757,2.223,1.986,5.329,1.511,8.132s-1.538,5.479-2.052,8.273-.409,5.892,1.252,8.194a1.859,1.859,0,0,0,.8.707,2.636,2.636,0,0,0,1.226,0c2.838-.343,5.562,1.687,6.836,4.249s1.375,5.54,1.243,8.4a17.352,17.352,0,0,1-1.4,6.841c-1.757,3.585-5.413,5.8-9.02,7.5a69.868,69.868,0,0,1-7.2,2.909,10.838,10.838,0,0,1-5.22.786c-3-.518-5.127-3.247-7.974-4.314-2.333-.879-4.921-.562-7.4-.343-2.118.185-4.539.18-6-1.366-1.872-1.986-1.028-5.189-.07-7.746a5.514,5.514,0,0,1-3.9-9.016c.905-1.1,2.351-2.39,1.643-3.634a2.407,2.407,0,0,0-.949-.826c-2.86-1.634-6.8-2.289-8.005-5.356-.773-1.973-.026-4.2.953-6.081s2.2-3.713,2.465-5.813c.352-2.97-1.318-6.024-.47-8.888a8.911,8.911,0,0,1,2.061-3.278,28.278,28.278,0,0,1,9.227-6.762c3.467-1.586,6.942-1.942,10.606-2.715C332.579,235.327,334.4,234.834,336.458,236.082Z" transform="translate(-184.804 -140.765)" fill="#865a61"/>
  <path id="Path_3055" data-name="Path 3055" d="M319.059,337.753s-8.4-.439-10,6.727,3.449,17.429,3.449,17.429Z" transform="translate(-186.785 -198.206)" fill="#fdc2cc"/>
  <path id="Path_3056" data-name="Path 3056" d="M319.059,337.753s-8.4-.439-10,6.727,3.449,17.429,3.449,17.429Z" transform="translate(-186.785 -198.206)" opacity="0.05"/>
  <path id="Path_3057" data-name="Path 3057" d="M320,336.91l3.185,2.522,14.863.663,9.279-6.371,9.437-16.195a11.667,11.667,0,0,1-8.972-9.183,20.1,20.1,0,0,1-.185-7.671s-15.131-7.834-13.273,4.394a16.611,16.611,0,0,1,.141,4.543c-.879,7.162-7.829,5.813-7.829,5.813l-2.667,4.112-3.054,10.105Z" transform="translate(-193.09 -176.037)" fill="#fdc2cc"/>
  <path id="Path_3058" data-name="Path 3058" d="M352.458,305.049a16.611,16.611,0,0,1,.141,4.543,13.414,13.414,0,0,0,13.317-1.248,20.106,20.106,0,0,1-.185-7.671S350.6,292.839,352.458,305.049Z" transform="translate(-211.199 -176.033)" opacity="0.1"/>
  <ellipse id="Ellipse_230" data-name="Ellipse 230" cx="13.405" cy="13.405" rx="13.405" ry="13.405" transform="translate(133.57 107.43)" fill="#fdc2cc"/>
  <path id="Path_3059" data-name="Path 3059" d="M326.383,356.014c.325,0,.646.048.967.079,1.757.176,9.1.571,13.282-4.424,4.679-5.589,10.909-12.491,11.164-12.772l6.34,1.916s-5.017-1.784-8.348,7.548a9.666,9.666,0,0,0,3.264,11.12,10.044,10.044,0,0,0,4.148,1.757.022.022,0,0,1,0,.022v4.095h0l-2.592,11.423a19.8,19.8,0,0,0,.246,9.776l3.954,13.976c-.6.413-25.131,17.1-41.519,5.575h0c.062-.5,2.087-16.9.681-24.929a55.435,55.435,0,0,1-.734-6.2v-.154a7,7,0,0,0-2.4-4.745c-1.476-1.318-3.475-4.833-1.5-14.121a34.122,34.122,0,0,1,2.2-6.691l5.5-12.421h0l5.066.1v.035c-.439.545-6.314,7.882-6.951,12.61C318.519,354.08,317.75,355.46,326.383,356.014Z" transform="translate(-188.889 -197.697)" fill="#6c63ff"/>
  <path id="Path_3060" data-name="Path 3060" d="M394.685,347.8s4.956,4.249,6.9,13.892,6.283,25.663,6.283,25.663,1.758,6.99-4.249,13.892-10,12.3-10,12.3l-3.954,5.826a4.96,4.96,0,0,1-2.847,2.012,9.617,9.617,0,0,1-6.968-.5,4.06,4.06,0,0,1-1.757-5.127l.879-2.034s-8.141,5.132-8.849,2.3,9.468-5.663,9.468-5.663,8.4-1.415,10.105-5.4c0,0,9.024-11.595,8.317-15.575L389.3,366.036s-10.9-1.441-7.184-13.686S394.685,347.8,394.685,347.8Z" transform="translate(-221.173 -202.505)" fill="#fdc2cc"/>
  <path id="Path_3061" data-name="Path 3061" d="M307.345,509.447s19.912,3.981,24.6,3.449l.505,1.683s7.557,1.691,24.644-1.019q1.674-.264,3.475-.593l.4-.07s.233-1.265.417-3.423a59.355,59.355,0,0,0-2.9-24.094l-2.873-8.849s-17.759,10.646-29.516,9.666c-1.05-.088-2.091-.171-3.141-.207-2.412-.092-6.151,0-8.581-1.946l-5.1.879v14.5a17.372,17.372,0,0,1-1.151,6.2c-.11.29-.224.576-.351.879A4.613,4.613,0,0,0,307.345,509.447Z" transform="translate(-185.953 -276.014)" fill="#65617d"/>
  <path id="Path_3062" data-name="Path 3062" d="M364.58,552.1v4.512s8.7,1.946,28.519-1.683c0,0,.233-1.265.417-3.423C387.435,552.485,370.665,554.832,364.58,552.1Z" transform="translate(-218.084 -318.051)" opacity="0.1"/>
  <path id="Path_3063" data-name="Path 3063" d="M307.348,546.595s19.912,3.981,24.6,3.449l.505,1.683v-4.512c-2.267.94-18.453-2.961-24.318-4.424-.11.29-.224.576-.351.879A4.614,4.614,0,0,0,307.348,546.595Z" transform="translate(-185.956 -313.162)" opacity="0.1"/>
  <path id="Path_3064" data-name="Path 3064" d="M417.31,536.39l1.476,9.156q1.674-.264,3.475-.593c-.461-2.676-1.467-8.787-1.191-9.8l-1.858-1.59Z" transform="translate(-247.646 -307.987)" fill="#65617d"/>
  <path id="Path_3065" data-name="Path 3065" d="M417.78,535.94l1.476,9.161q1.674-.268,3.475-.593c-.461-2.676-1.468-8.787-1.191-9.8l-1.858-1.595Z" transform="translate(-247.91 -307.735)" opacity="0.1"/>
  <g id="Group_68" data-name="Group 68" transform="translate(127.573 200.503)" opacity="0.05">
    <path id="Path_3066" data-name="Path 3066" d="M333.021,495.773c-1.046-.088-2.091-.171-3.141-.207-2.346-.088-5.927,0-8.37-1.8l.852-.149c2.443,1.938,6.151,1.854,8.581,1.946,1.05.035,2.091.119,3.141.207.343.031.694.048,1.05.057A19.708,19.708,0,0,1,333.021,495.773Z" transform="translate(-321.51 -486.098)"/>
    <path id="Path_3067" data-name="Path 3067" d="M396.738,513.542q1.674-.264,3.475-.589l.4-.075s.233-1.265.413-3.423a59.2,59.2,0,0,0-2.9-24.094l-2.706-8.348c.576-.325.879-.514.879-.514l2.873,8.849a59.356,59.356,0,0,1,2.9,24.094c-.185,2.157-.417,3.423-.417,3.423l-.4.075q-1.8.325-3.475.589a109.43,109.43,0,0,1-17.9,1.538A112.9,112.9,0,0,0,396.738,513.542Z" transform="translate(-354.235 -476.5)"/>
    <path id="Path_3068" data-name="Path 3068" d="M360.271,559.3v.048H359.7Q360.025,559.326,360.271,559.3Z" transform="translate(-342.921 -522.921)"/>
  </g>
  <ellipse id="Ellipse_231" data-name="Ellipse 231" cx="0.751" cy="1.547" rx="0.751" ry="1.547" transform="translate(171.386 227.019)" fill="#d39999"/>
  <path id="Path_3069" data-name="Path 3069" d="M311.131,448.094c1.213-9.007,3.352-14.358,4.481-16.454.044.286.158,1.213.211,1.5a43.511,43.511,0,0,1,.1,4.653L314.8,458.16l1.507,6.371c1.415,5.044-3.827,1.059-3.827,1.059a3.12,3.12,0,0,1-3.076,2.126l-.272-3.655a31.573,31.573,0,0,1,.914-10.25A48.84,48.84,0,0,0,311.131,448.094Z" transform="translate(-186.945 -250.846)" fill="#fdc2cc"/>
  <path id="Path_3070" data-name="Path 3070" d="M311.131,448.094c1.213-9.007,3.352-14.358,4.481-16.454.044.286.158,1.213.211,1.5a43.511,43.511,0,0,1,.1,4.653L314.8,458.16l1.507,6.371c1.415,5.044-3.827,1.059-3.827,1.059a3.12,3.12,0,0,1-3.076,2.126l-.272-3.655a31.573,31.573,0,0,1,.914-10.25A48.84,48.84,0,0,0,311.131,448.094Z" transform="translate(-186.945 -250.846)" opacity="0.05"/>
  <path id="Path_3071" data-name="Path 3071" d="M396.668,482.584c-.953,1.235-1.476,1.942-1.476,1.942l-3.954,5.821a4.938,4.938,0,0,1-2.847,2.012,9.594,9.594,0,0,1-6.968-.5,4.051,4.051,0,0,1-1.757-5.123l.879-2.039s-8.141,5.132-8.849,2.3,9.468-5.663,9.468-5.663,8.4-1.415,10.105-5.4c0,0,.734-.94,1.757-2.381" transform="translate(-222.053 -274.348)" fill="#fdc2cc"/>
  <path id="Path_3072" data-name="Path 3072" d="M399.353,508.091s-9.626-.936-12.675-6.441l-1.4,4.547s10.105,6.977,12.412,6.072Z" transform="translate(-229.689 -290.097)" fill="#65617d"/>
  <path id="Path_3073" data-name="Path 3073" d="M398.578,507.985s-9.622-.936-12.675-6.445l-1.393,4.534s10.105,6.977,12.407,6.072Z" transform="translate(-229.257 -290.035)" opacity="0.1"/>
  <path id="Path_3074" data-name="Path 3074" d="M312.433,510.46s-3.37,1.2-4.033.532l1.516,2.79,2.865-2.2Z" transform="translate(-186.587 -295.036)" fill="#65617d"/>
  <path id="Path_3075" data-name="Path 3075" d="M312.433,510.46s-3.37,1.2-4.033.532l1.516,2.79,2.865-2.2Z" transform="translate(-186.587 -295.036)" opacity="0.1"/>
  <path id="Path_3076" data-name="Path 3076" d="M331.654,525.292V519.47l-1.384,5.962Z" transform="translate(-185.158 -291.239)" opacity="0.1"/>
  <path id="Path_3077" data-name="Path 3077" d="M356.846,262.973a5.17,5.17,0,0,1-3.612,1.9,28.451,28.451,0,0,1-4.2,0,10.524,10.524,0,0,0-6.331,1.595,16.1,16.1,0,0,0-2.9,3.075c-2.715,3.317-6.485,6.423-10.764,6.076a2.79,2.79,0,0,1-2-.844,3.207,3.207,0,0,1-.509-1.819,41.576,41.576,0,0,1,.259-8.2,17.283,17.283,0,0,1,1.239-4.89,16.7,16.7,0,0,1,2.979-4.253,18.221,18.221,0,0,1,5.2-4.165,9.323,9.323,0,0,1,6.5-.839c2.561.7,4.556,2.7,7,3.734C352.5,255.522,359.9,258.654,356.846,262.973Z" transform="translate(-196.699 -149.217)" opacity="0.1"/>
  <path id="Path_3078" data-name="Path 3078" d="M356.846,261.758a5.17,5.17,0,0,1-3.612,1.9,28.451,28.451,0,0,1-4.2,0,10.49,10.49,0,0,0-6.331,1.591,16.1,16.1,0,0,0-2.9,3.075c-2.715,3.317-6.485,6.423-10.764,6.076a2.773,2.773,0,0,1-2-.844,3.194,3.194,0,0,1-.51-1.819,41.583,41.583,0,0,1,.259-8.2,17.286,17.286,0,0,1,1.239-4.89,16.582,16.582,0,0,1,2.979-4.249,18.159,18.159,0,0,1,5.2-4.17,9.324,9.324,0,0,1,6.5-.839c2.561.7,4.556,2.7,7,3.734C352.5,254.306,359.9,257.43,356.846,261.758Z" transform="translate(-196.699 -148.533)" fill="#865a61"/>
  <path id="Path_3079" data-name="Path 3079" d="M291.8,473.47l-.035,1.6-.36-1.533Z" transform="translate(-163.366 -265.449)" fill="#fdc2cc"/>
  <path id="Path_3080" data-name="Path 3080" d="M291.8,473.47l-.035,1.6-.36-1.533Z" transform="translate(-163.366 -265.449)" opacity="0.05"/>
  <g id="Group_69" data-name="Group 69" transform="translate(159.942 143.286)" opacity="0.05">
    <path id="Path_3081" data-name="Path 3081" d="M397.555,351.99c-3.721,12.245,7.126,13.682,7.126,13.682l8.717,23.361c.707,3.981-8.321,15.575-8.321,15.575a7.722,7.722,0,0,1-3.91,3.449,6.125,6.125,0,0,0,2.32-2.548s9.024-11.59,8.317-15.571l-8.717-23.365s-10.843-1.437-7.126-13.682c1.243-4.09,3.076-5.953,4.93-6.621C399.611,347.3,398.438,349.078,397.555,351.99Z" transform="translate(-395.184 -346.27)"/>
  </g>
  <g id="Group_70" data-name="Group 70" transform="translate(123.648 139.138)" opacity="0.1">
    <path id="Path_3082" data-name="Path 3082" d="M401,384.61a9.154,9.154,0,0,0,1.757,1.665,9.987,9.987,0,0,0,4.147,1.757v.461a9.956,9.956,0,0,1-3.761-1.665A9.118,9.118,0,0,1,401,384.61Z" transform="translate(-362.151 -363.618)"/>
    <path id="Path_3083" data-name="Path 3083" d="M322.279,419.563v.154a56.767,56.767,0,0,0,.756,6.226c1.318,7.574-.409,22.614-.655,24.692-.141-.092-.281-.18-.439-.281.066-.5,2.091-16.9.685-24.925a55.654,55.654,0,0,1-.734-6.2v-.154a6.779,6.779,0,0,0-1.182-3.361A6.832,6.832,0,0,1,322.279,419.563Z" transform="translate(-317.137 -381.053)"/>
    <path id="Path_3084" data-name="Path 3084" d="M325.808,337.432l-4.3-.083a.022.022,0,0,0-.022,0L316,349.765a34.229,34.229,0,0,0-2.2,6.691c-1.6,7.513-.593,11.256.628,13.106-1.375-1.621-2.794-5.316-1.024-13.62a33.869,33.869,0,0,1,2.175-6.7l5.531-12.416h0l5.066.1v.031C326.137,337.015,326,337.182,325.808,337.432Z" transform="translate(-312.577 -336.83)"/>
    <path id="Path_3085" data-name="Path 3085" d="M416.39,345.87l.075.022Z" transform="translate(-370.779 -341.898)"/>
    <path id="Path_3086" data-name="Path 3086" d="M365.51,343.378l-4.306-1.3h-.022c-.255.281-6.481,7.183-11.16,12.772-4.183,5-11.516,4.6-13.282,4.429-.321-.035-.646-.062-.967-.084-4.8-.308-6.691-.879-7.324-2.091.9.879,2.882,1.318,6.924,1.564.325,0,.646.048.967.079,1.757.176,9.1.567,13.282-4.424,4.679-5.593,10.909-12.5,11.164-12.776h0l6.265,1.9A3.914,3.914,0,0,0,365.51,343.378Z" transform="translate(-321.476 -339.476)"/>
  </g>
  <path id="Path_3087" data-name="Path 3087" d="M287.536,776.425s-6.063,1.656-7.236-.945" transform="translate(-170.833 -443.618)" opacity="0.1"/>
  <path id="Path_3088" data-name="Path 3088" d="M373.335,773.533s-7.03,1.814-8.655-.993" transform="translate(-218.14 -441.969)" opacity="0.1"/>
  <path id="Path_3089" data-name="Path 3089" d="M554.461,750.119c.1-.879.246-1.757.4-2.636a18.373,18.373,0,0,0-.879-8.91h0c-.163-.461-.281-.721-.281-.721-2.8-.765-13.831,7.794-17.851,11.019-1.393,0-2.9.061-4.556.171-.72.053-1.441.07-2.162.057H526.5c-3.73-3.005-15.276-12.043-18.15-11.261,0,0-.119.259-.281.72h0a18.054,18.054,0,0,0-.9,8.91c.158.879.3,1.757.4,2.636a12.614,12.614,0,0,0,3.954,8.132c.628,4.569,2.979,10.575,4.789,14.222a10.179,10.179,0,0,0,.615,2.008c-.747,2.882-1.608,6.643-1.362,7.909,0,0-3.9-.945-4.3,3.752v.145c-1.41.646-3.172,2.126-1.191,5.228a2.035,2.035,0,0,0,1.019.83c.351.123.694.123.659-.369l2.438,2.746s4.42.51,4.473-2.056l.259.04c.593.088,1.213.163,1.85.228l.307,1.015s-3.317-.07-2.412,1.973c0,0,.835.773,1.12.492,0,0-.439,1.34,1.292,1.34,0,0,1.859.984,2.583.281s2.228-1.757,2.368-2.2c.04-.119.057-1.16.066-2.6h.286c3.7.088,7.636-.031,11.212-.224h.29c0,1.56.022,2.711.062,2.834.145.439,1.652,1.481,2.373,2.2s2.579-.281,2.579-.281c1.722,0,1.292-1.34,1.292-1.34.29.281,1.125-.492,1.125-.492.905-2.043-2.417-1.973-2.417-1.973l.4-1.318,1.832-.154.29-.026c-.176,2.79,4.468,2.254,4.468,2.254l2.443-2.746c-.04.492.3.492.655.369a2.018,2.018,0,0,0,.989-.839c2.992-4.679-2.535-5.672-2.535-5.672a2.707,2.707,0,0,0-.523-.083.9.9,0,0,1,.022-.242h0a9.642,9.642,0,0,0,.035-1.854,4.079,4.079,0,0,0-3.291-2.394c-1.125-.141-1.147-5.307-1.032-8.888a10.224,10.224,0,0,0,.176-2.039,10.756,10.756,0,0,0-.439-3.264c2.2-3.726,3.954-7.632,4.152-8.787A12.784,12.784,0,0,0,554.461,750.119Z" transform="translate(-297.897 -422.488)" fill="url(#linear-gradient-5)"/>
  <path id="Path_3090" data-name="Path 3090" d="M556.566,826.33h0c-.176,2.434-.646,6.34-.646,6.34s-1.955.237-4.978.51l-2.052.176c-1.573.127-3.339.25-5.206.356-3.449.189-7.236.308-10.808.22-1.784-.039-3.515-.132-5.119-.29-.716-.07-1.41-.154-2.069-.25-4.095-.611-7.03-1.779-7.28-3.831a11.863,11.863,0,0,1-.092-2.636c.382-4.613,4.139-3.682,4.139-3.682-.242-1.274.668-5.233,1.406-8.1.466-1.806.879-3.177.879-3.177l26.414-1.757h.088a1.292,1.292,0,0,1,1.292,1.358c-.158,3.168-.382,10.422.914,10.584a3.982,3.982,0,0,1,3.177,2.351A9.861,9.861,0,0,1,556.566,826.33Z" transform="translate(-304.255 -463.089)" fill="#6c63ff"/>
  <path id="Path_3091" data-name="Path 3091" d="M528.848,752.4s-9.96,11.99-14.758,8.669c-.114-.079-.224-.158-.329-.242-3.225-2.443-4.073-6.379-4.3-8.379-.1-.879-.237-1.727-.391-2.583a17.94,17.94,0,0,1,.879-8.748h0c.158-.439.268-.707.268-.707C513.536,739.487,528.848,752.4,528.848,752.4Z" transform="translate(-298.97 -423.929)" fill="#6c63ff"/>
  <path id="Path_3092" data-name="Path 3092" d="M523.468,754.47s-3.137,2.2-7.561,5.808a15.987,15.987,0,0,1-2.2,1.511c-3.225-2.443-4.073-6.379-4.3-8.378-.1-.879-.237-1.727-.391-2.583a17.939,17.939,0,0,1,.879-8.748h0C516.1,742.511,523.468,754.47,523.468,754.47Z" transform="translate(-298.942 -424.892)" fill="#6c63ff"/>
  <path id="Path_3093" data-name="Path 3093" d="M523.468,754.47s-3.137,2.2-7.561,5.808a15.987,15.987,0,0,1-2.2,1.511c-3.225-2.443-4.073-6.379-4.3-8.378-.1-.879-.237-1.727-.391-2.583a17.939,17.939,0,0,1,.879-8.748h0C516.1,742.511,523.468,754.47,523.468,754.47Z" transform="translate(-298.942 -424.892)" fill="#fff" opacity="0.5"/>
  <path id="Path_3094" data-name="Path 3094" d="M524.463,759.152s-1.674,1.182-4.038,3.1a8.5,8.5,0,0,1-1.16.8,6.468,6.468,0,0,1-2.294-4.468c-.048-.466-.123-.923-.206-1.384a9.607,9.607,0,0,1,.488-4.666h0C520.535,752.768,524.463,759.152,524.463,759.152Z" transform="translate(-303.351 -430.756)" opacity="0.1"/>
  <path id="Path_3095" data-name="Path 3095" d="M569.05,752.4s9.96,11.99,14.758,8.669c.11-.079.224-.158.33-.242,3.225-2.443,4.073-6.379,4.3-8.379.1-.879.237-1.727.387-2.583a17.886,17.886,0,0,0-.879-8.748h0c-.158-.439-.272-.707-.272-.707C584.362,739.487,569.05,752.4,569.05,752.4Z" transform="translate(-332.718 -423.929)" fill="#6c63ff"/>
  <path id="Path_3096" data-name="Path 3096" d="M581.22,754.47s3.141,2.2,7.566,5.808a15.984,15.984,0,0,0,2.175,1.511c3.225-2.443,4.073-6.379,4.3-8.378.1-.879.237-1.727.387-2.583a17.886,17.886,0,0,0-.879-8.748h0C588.592,742.511,581.22,754.47,581.22,754.47Z" transform="translate(-339.541 -424.892)" fill="#6c63ff"/>
  <path id="Path_3097" data-name="Path 3097" d="M581.22,754.47s3.141,2.2,7.566,5.808a15.984,15.984,0,0,0,2.175,1.511c3.225-2.443,4.073-6.379,4.3-8.378.1-.879.237-1.727.387-2.583a17.886,17.886,0,0,0-.879-8.748h0C588.592,742.511,581.22,754.47,581.22,754.47Z" transform="translate(-339.541 -424.892)" fill="#fff" opacity="0.5"/>
  <path id="Path_3098" data-name="Path 3098" d="M589.05,759.172s1.665,1.177,4.011,3.076a8.049,8.049,0,0,0,1.155.8,6.488,6.488,0,0,0,2.28-4.442c.048-.439.123-.918.206-1.375a9.623,9.623,0,0,0-.461-4.64h0C592.956,752.827,589.05,759.172,589.05,759.172Z" transform="translate(-343.931 -430.785)" opacity="0.1"/>
  <path id="Path_3099" data-name="Path 3099" d="M558.266,810.23a23.856,23.856,0,0,1-3.814,4.859c-3.954,3.515-21.028,2.118-22.135,1.938-.233-.04-.716-.729-1.318-1.85.466-1.806.879-3.177.879-3.177Z" transform="translate(-311.386 -463.1)" opacity="0.1"/>
  <path id="Path_3100" data-name="Path 3100" d="M537.784,765.25c-.694.048-1.388.066-2.087.053-3.563-.062-15.566.1-16.9,4.943-1.569,5.712,5.444,21.006,6.546,21.19S543.518,793,547.485,789.5s9.13-14.5,8.853-15.5C556.338,774,561.259,763.624,537.784,765.25Z" transform="translate(-304.418 -437.785)" fill="#6c63ff"/>
  <path id="Path_3101" data-name="Path 3101" d="M543.589,786.452a12.6,12.6,0,0,0-12.908,7.293,10.545,10.545,0,0,0,.778,10.628c1.371,1.929,3.383,3.365,6.182,2.2C543.862,804.009,543.589,786.452,543.589,786.452Z" transform="translate(-310.601 -449.726)" opacity="0.1"/>
  <path id="Path_3102" data-name="Path 3102" d="M542.959,785.192a12.6,12.6,0,0,0-12.908,7.293,10.545,10.545,0,0,0,.778,10.628c1.371,1.929,3.383,3.365,6.182,2.2C543.232,802.749,542.959,785.192,542.959,785.192Z" transform="translate(-310.248 -449.019)" opacity="0.1"/>
  <path id="Path_3103" data-name="Path 3103" d="M542.959,785.822a12.6,12.6,0,0,0-12.908,7.293,10.545,10.545,0,0,0,.778,10.628c1.371,1.929,3.383,3.365,6.182,2.2C543.232,803.379,542.959,785.822,542.959,785.822Z" transform="translate(-310.248 -449.373)" fill="#6c63ff"/>
  <path id="Path_3104" data-name="Path 3104" d="M542.959,785.822a12.6,12.6,0,0,0-12.908,7.293,10.545,10.545,0,0,0,.778,10.628c1.371,1.929,3.383,3.365,6.182,2.2C543.232,803.379,542.959,785.822,542.959,785.822Z" transform="translate(-310.248 -449.373)" fill="#fff" opacity="0.5"/>
  <path id="Path_3105" data-name="Path 3105" d="M538.163,803.13s-1.2,1.107-.738,1.384S538.163,803.13,538.163,803.13Z" transform="translate(-314.929 -459.119)" fill="#3f2b3b"/>
  <path id="Path_3106" data-name="Path 3106" d="M541.725,806.35s-.655,1.445-.189,1.6.743-1.037.743-1.037Z" transform="translate(-317.199 -460.925)" fill="#3f2b3b"/>
  <path id="Path_3107" data-name="Path 3107" d="M535.226,811.32s-.641,1.7,0,1.7S535.226,811.32,535.226,811.32Z" transform="translate(-313.596 -463.711)" fill="#3f2b3b"/>
  <path id="Path_3108" data-name="Path 3108" d="M533.78,821.71s1.283,3.278,4.622,3.045" transform="translate(-312.945 -469.536)" fill="none" stroke="#3f2b3b" stroke-miterlimit="10" stroke-width="1"/>
  <path id="Path_3109" data-name="Path 3109" d="M540.61,823.91a2.312,2.312,0,0,0,2.763.369" transform="translate(-316.774 -470.77)" fill="none" stroke="#3f2b3b" stroke-miterlimit="10" stroke-width="1"/>
  <path id="Path_3110" data-name="Path 3110" d="M564,786.452a12.6,12.6,0,0,1,12.908,7.293,10.544,10.544,0,0,1-.778,10.628c-1.366,1.929-3.383,3.365-6.182,2.2C563.707,804.009,564,786.452,564,786.452Z" transform="translate(-329.884 -449.726)" opacity="0.1"/>
  <path id="Path_3111" data-name="Path 3111" d="M564.588,785.192a12.6,12.6,0,0,1,12.908,7.293,10.544,10.544,0,0,1-.778,10.628c-1.366,1.929-3.383,3.365-6.182,2.2C564.329,802.749,564.588,785.192,564.588,785.192Z" transform="translate(-330.216 -449.019)" opacity="0.1"/>
  <path id="Path_3112" data-name="Path 3112" d="M564.588,785.822a12.6,12.6,0,0,1,12.908,7.293,10.544,10.544,0,0,1-.778,10.628c-1.366,1.929-3.383,3.365-6.182,2.2C564.329,803.379,564.588,785.822,564.588,785.822Z" transform="translate(-330.216 -449.373)" fill="#6c63ff"/>
  <path id="Path_3113" data-name="Path 3113" d="M564.588,785.822a12.6,12.6,0,0,1,12.908,7.293,10.544,10.544,0,0,1-.778,10.628c-1.366,1.929-3.383,3.365-6.182,2.2C564.329,803.379,564.588,785.822,564.588,785.822Z" transform="translate(-330.216 -449.373)" fill="#fff" opacity="0.5"/>
  <path id="Path_3114" data-name="Path 3114" d="M586.16,803.13s1.2,1.107.738,1.384S586.16,803.13,586.16,803.13Z" transform="translate(-342.311 -459.119)" fill="#3f2b3b"/>
  <path id="Path_3115" data-name="Path 3115" d="M582.514,806.35s.655,1.445.189,1.6-.742-1.037-.742-1.037Z" transform="translate(-339.956 -460.925)" fill="#3f2b3b"/>
  <path id="Path_3116" data-name="Path 3116" d="M589.459,811.32s.637,1.7,0,1.7S589.459,811.32,589.459,811.32Z" transform="translate(-344.002 -463.711)" fill="#3f2b3b"/>
  <path id="Path_3117" data-name="Path 3117" d="M585.722,821.71s-1.283,3.278-4.622,3.045" transform="translate(-339.474 -469.536)" fill="none" stroke="#3f2b3b" stroke-miterlimit="10" stroke-width="1"/>
  <path id="Path_3118" data-name="Path 3118" d="M581.268,823.91a2.317,2.317,0,0,1-2.768.369" transform="translate(-338.017 -470.77)" fill="none" stroke="#3f2b3b" stroke-miterlimit="10" stroke-width="1"/>
  <path id="Path_3119" data-name="Path 3119" d="M553.2,841.8a12.76,12.76,0,0,1,9.13,0Z" transform="translate(-323.832 -480.31)" fill="#3f2b3b"/>
  <path id="Path_3120" data-name="Path 3120" d="M525.688,853.9c-4.095-.611-7.03-1.779-7.28-3.831a11.863,11.863,0,0,1-.092-2.636,5.911,5.911,0,0,1,1.564-.571c.743-.207,1.661-.066,3.6.488s1.8,2.834,2.2,5.808A2.457,2.457,0,0,1,525.688,853.9Z" transform="translate(-304.255 -483.588)" opacity="0.1"/>
  <path id="Path_3121" data-name="Path 3121" d="M517.081,847.519s-5.325.975-2.443,5.571a1.965,1.965,0,0,0,.984.813c.338.119.663.119.628-.365l2.355,2.7s4.7.553,4.288-2.421-.277-5.272-2.2-5.808S517.833,847.312,517.081,847.519Z" transform="translate(-301.733 -483.957)" fill="#6c63ff"/>
  <path id="Path_3122" data-name="Path 3122" d="M524.18,854.67s1.129,2.579,2.7.413" transform="translate(-307.562 -488.015)" fill="none" stroke="#3f2b3b" stroke-miterlimit="10" stroke-width="1"/>
  <path id="Path_3123" data-name="Path 3123" d="M518.28,857s.584,2.443,2.8.624" transform="translate(-304.255 -489.321)" fill="none" stroke="#3f2b3b" stroke-miterlimit="10" stroke-width="1"/>
  <path id="Path_3124" data-name="Path 3124" d="M598.228,846.844h0c-.176,2.434-.646,6.34-.646,6.34s-1.955.237-4.978.51a2.549,2.549,0,0,1,0-.51c.413-2.974.277-5.272,2.2-5.808A8.447,8.447,0,0,1,598.228,846.844Z" transform="translate(-345.916 -483.603)" opacity="0.1"/>
  <path id="Path_3125" data-name="Path 3125" d="M599.075,847.519s5.329.975,2.447,5.571a1.981,1.981,0,0,1-.984.813c-.338.119-.668.119-.633-.365l-2.351,2.7s-4.706.553-4.288-2.421.277-5.272,2.2-5.808S598.337,847.312,599.075,847.519Z" transform="translate(-346.281 -483.957)" fill="#6c63ff"/>
  <path id="Path_3126" data-name="Path 3126" d="M600.2,854.67s-1.134,2.579-2.7.413" transform="translate(-348.669 -488.015)" fill="none" stroke="#3f2b3b" stroke-miterlimit="10" stroke-width="1"/>
  <path id="Path_3127" data-name="Path 3127" d="M605.963,857s-.589,2.443-2.8.624" transform="translate(-351.842 -489.321)" fill="none" stroke="#3f2b3b" stroke-miterlimit="10" stroke-width="1"/>
  <path id="Path_3128" data-name="Path 3128" d="M542.748,851.508c-1.784-.04-3.515-.132-5.118-.29l-1.595-5.369a3.483,3.483,0,0,1-.145-.98,3.418,3.418,0,0,1,6.832-.022C542.74,846.939,542.757,849.589,542.748,851.508Z" transform="translate(-314.127 -480.666)" opacity="0.1"/>
  <path id="Path_3129" data-name="Path 3129" d="M534.831,845.7l1.881,6.335s-3.2-.07-2.324,1.938c0,0,.8.76,1.081.483,0,0-.417,1.318,1.244,1.318,0,0,1.792.971,2.487.277s2.148-1.731,2.289-2.144c.088-.272.061-5.571.031-9.226A3.409,3.409,0,0,0,538.1,841.3h0a3.414,3.414,0,0,0-3.273,4.4Z" transform="translate(-313.2 -480.519)" fill="#6c63ff"/>
  <path id="Path_3130" data-name="Path 3130" d="M540.254,869.47s-1.4,1.318-.659,2.1" transform="translate(-316.084 -496.313)" fill="none" stroke="#3f2b3b" stroke-miterlimit="10" stroke-width="1"/>
  <path id="Path_3131" data-name="Path 3131" d="M538.352,867.56a1.9,1.9,0,0,0-1.292,1.621" transform="translate(-314.783 -495.242)" fill="none" stroke="#3f2b3b" stroke-miterlimit="10" stroke-width="1"/>
  <path id="Path_3132" data-name="Path 3132" d="M582.986,844.72a3.48,3.48,0,0,1-.141.98l-1.49,5.083c-1.573.127-3.339.25-5.206.356,0-1.9,0-4.424.031-6.441a3.414,3.414,0,0,1,6.828.022Z" transform="translate(-336.699 -480.516)" opacity="0.1"/>
  <path id="Path_3133" data-name="Path 3133" d="M583.435,845.7l-1.88,6.335s3.2-.07,2.329,1.938c0,0-.8.76-1.081.483,0,0,.413,1.318-1.248,1.318,0,0-1.793.971-2.487.277s-2.144-1.731-2.285-2.144c-.088-.272-.062-5.571-.031-9.226a3.409,3.409,0,0,1,3.414-3.383h0a3.414,3.414,0,0,1,3.269,4.4Z" transform="translate(-337.021 -480.519)" fill="#6c63ff"/>
  <path id="Path_3134" data-name="Path 3134" d="M586.23,869.47s1.4,1.318.659,2.1" transform="translate(-342.35 -496.313)" fill="none" stroke="#3f2b3b" stroke-miterlimit="10" stroke-width="1"/>
  <path id="Path_3135" data-name="Path 3135" d="M587.63,867.56a1.9,1.9,0,0,1,1.292,1.621" transform="translate(-343.135 -495.242)" fill="none" stroke="#3f2b3b" stroke-miterlimit="10" stroke-width="1"/>
  <path id="Path_3136" data-name="Path 3136" d="M552.25,782.769s-6.507-.206-6.713,4.833,10.167,2.9,10.167,2.9,4.358-.584,3.6-3.647S556.955,783.045,552.25,782.769Z" transform="translate(-319.534 -447.703)" opacity="0.1"/>
  <path id="Path_3137" data-name="Path 3137" d="M552.25,781.508s-6.507-.206-6.713,4.833,10.167,2.9,10.167,2.9,4.358-.584,3.6-3.647S556.955,781.785,552.25,781.508Z" transform="translate(-319.534 -446.997)" opacity="0.1"/>
  <path id="Path_3138" data-name="Path 3138" d="M552.25,782.138s-6.507-.206-6.713,4.833,10.167,2.9,10.167,2.9,4.358-.584,3.6-3.647S556.955,782.415,552.25,782.138Z" transform="translate(-319.534 -447.35)" fill="#3f2b3b"/>
  <path id="Path_3139" data-name="Path 3139" d="M527.78,839.92s2.2.782,2.636,2.28" transform="translate(-309.581 -479.745)" opacity="0.1"/>
  <path id="Path_3140" data-name="Path 3140" d="M596.423,837.4s-1.56.655-1.45,3.387" transform="translate(-347.249 -478.333)" opacity="0.1"/>
  <ellipse id="Ellipse_232" data-name="Ellipse 232" cx="1.018" cy="1.689" rx="1.018" ry="1.689" transform="translate(217.399 370.64) rotate(-29.887)" fill="#6c63ff"/>
  <ellipse id="Ellipse_233" data-name="Ellipse 233" cx="1.683" cy="1.015" rx="1.683" ry="1.015" transform="translate(248.322 371.036) rotate(-60)" fill="#6c63ff"/>
  <ellipse id="Ellipse_234" data-name="Ellipse 234" cx="1.018" cy="1.689" rx="1.018" ry="1.689" transform="translate(217.399 370.64) rotate(-29.887)" fill="#fff" opacity="0.5"/>
  <ellipse id="Ellipse_235" data-name="Ellipse 235" cx="1.683" cy="1.015" rx="1.683" ry="1.015" transform="translate(248.322 371.036) rotate(-60)" fill="#fff" opacity="0.5"/>
  <ellipse id="Ellipse_236" data-name="Ellipse 236" cx="11.832" cy="1.999" rx="11.832" ry="1.999" transform="translate(72.794 312.605)" fill="#6c63ff" opacity="0.1"/>
  <ellipse id="Ellipse_237" data-name="Ellipse 237" cx="11.832" cy="1.999" rx="11.832" ry="1.999" transform="translate(26.183 340.957)" fill="#6c63ff" opacity="0.1"/>
  <ellipse id="Ellipse_238" data-name="Ellipse 238" cx="17.667" cy="2.988" rx="17.667" ry="2.988" transform="translate(8.028 314.604)" fill="#6c63ff"/>
  <path id="Path_3141" data-name="Path 3141" d="M70.778,721.491a5.11,5.11,0,0,1-1.687-2.54,2.264,2.264,0,0,1,1.177-2.588c1.081-.413,2.236.334,3.111,1.089s1.88,1.621,3.027,1.463a4.609,4.609,0,0,1-1.424-4.314,1.758,1.758,0,0,1,.4-.879c.6-.641,1.687-.365,2.408.141,2.28,1.608,2.922,4.71,2.931,7.5a13.84,13.84,0,0,0,.044-3.076,3.164,3.164,0,0,1,1.16-2.733,3.515,3.515,0,0,1,1.757-.439,3.675,3.675,0,0,1,2.873.817,2.826,2.826,0,0,1-.114,3.515,11.491,11.491,0,0,1-2.97,2.381,6.555,6.555,0,0,0-2.126,2.025,2.076,2.076,0,0,0-.158.36H74.763A17.765,17.765,0,0,1,70.778,721.491Z" transform="translate(-52.389 -408.785)" fill="#6c63ff"/>
  <ellipse id="Ellipse_239" data-name="Ellipse 239" cx="11.832" cy="1.999" rx="11.832" ry="1.999" transform="translate(440.637 329.327)" fill="#6c63ff" opacity="0.1"/>
  <path id="Path_3142" data-name="Path 3142" d="M1042.91,748.457s6.749-.206,8.787-1.656,10.378-3.176,10.883-.852,10.145,11.551,2.522,11.612-17.7-1.186-19.731-2.425S1042.91,748.457,1042.91,748.457Z" transform="translate(-598.385 -426.424)" fill="#a8a8a8"/>
  <path id="Path_3143" data-name="Path 3143" d="M1065.234,761.4c-7.619.061-17.7-1.186-19.732-2.425-1.547-.94-2.162-4.319-2.368-5.879h-.224s.439,5.444,2.456,6.678,12.113,2.487,19.731,2.425c2.2,0,2.961-.8,2.917-1.96C1067.712,760.964,1066.872,761.4,1065.234,761.4Z" transform="translate(-598.385 -431.07)" opacity="0.2"/>
</svg>
