<svg id="Group_90" data-name="Group 90" xmlns="http://www.w3.org/2000/svg" width="201.408" height="266.568" viewBox="0 0 201.408 266.568">
  <rect id="Rectangle_870" data-name="Rectangle 870" width="169.136" height="250.276" transform="translate(0 6.5)" fill="#535461"/>
  <path id="Path_3370" data-name="Path 3370" d="M123.043,263.291,0,256.815V6.539L123.043.063Z" transform="translate(0 -0.039)" fill="#6c63ff"/>
  <circle id="Ellipse_267" data-name="Ellipse 267" cx="1.524" cy="1.524" r="1.524" transform="translate(111.234 142.114)" fill="#535461"/>
  <path id="Path_3371" data-name="Path 3371" d="M292.567,377.66l1.056,1.83,1.056,1.829h-4.225l1.056-1.829Z" transform="translate(-179.81 -233.795)" fill="#535461"/>
  <path id="Path_3372" data-name="Path 3372" d="M324.753,263.291l-7.536-.024.3-263.2h7.238Z" transform="translate(-196.377 -0.039)" fill="#6c63ff"/>
  <g id="Group_89" data-name="Group 89" transform="translate(120.84)" opacity="0.1">
    <path id="Path_3373" data-name="Path 3373" d="M324.836,263.228h-7.619L317.6,0h7.238Z" transform="translate(-317.217)" fill="#fff"/>
  </g>
  <circle id="Ellipse_268" data-name="Ellipse 268" cx="4.952" cy="4.952" r="4.952" transform="translate(107.805 127.638)" opacity="0.1"/>
  <circle id="Ellipse_269" data-name="Ellipse 269" cx="4.952" cy="4.952" r="4.952" transform="translate(107.805 126.876)" fill="#535461"/>
  <line id="Line_4" data-name="Line 4" y2="251.818" transform="translate(20.121 6.136)" fill="none" stroke="#000" stroke-miterlimit="10" stroke-width="2" opacity="0.1"/>
  <line id="Line_5" data-name="Line 5" y2="254.103" transform="translate(41.834 4.612)" fill="none" stroke="#000" stroke-miterlimit="10" stroke-width="2" opacity="0.1"/>
  <line id="Line_6" data-name="Line 6" y2="256.711" transform="translate(63.548 3.47)" fill="none" stroke="#000" stroke-miterlimit="10" stroke-width="2" opacity="0.1"/>
  <line id="Line_7" data-name="Line 7" y2="259.437" transform="translate(85.261 2.327)" fill="none" stroke="#000" stroke-miterlimit="10" stroke-width="2" opacity="0.1"/>
  <line id="Line_8" data-name="Line 8" y2="260.901" transform="translate(106.974 1.184)" fill="none" stroke="#000" stroke-miterlimit="10" stroke-width="2" opacity="0.1"/>
  <ellipse id="Ellipse_270" data-name="Ellipse 270" cx="15.047" cy="14.095" rx="15.047" ry="14.095" transform="translate(161.41 22.218)" fill="#2f2e41"/>
  <path id="Path_3374" data-name="Path 3374" d="M656.6,425.939l-3.809,5.333s-18.285,3.809-11.428,9.523,16.761-5.333,16.761-5.333l5.333-6.857Z" transform="translate(-523.947 -301.821)" fill="#ffb8b8"/>
  <path id="Path_3375" data-name="Path 3375" d="M700.085,266.939s-4.952,0-6.095,6.857-2.286,29.713-2.286,29.713-16,20.952-13.333,23.618,5.714,7.619,7.619,6.857,18.285-23.237,18.285-23.237Z" transform="translate(-547.627 -203.39)" fill="#6c63ff"/>
  <path id="Path_3376" data-name="Path 3376" d="M700.085,266.939s-4.952,0-6.095,6.857-2.286,29.713-2.286,29.713-16,20.952-13.333,23.618,5.714,7.619,7.619,6.857,18.285-23.237,18.285-23.237Z" transform="translate(-547.627 -203.39)" opacity="0.1"/>
  <path id="Path_3377" data-name="Path 3377" d="M762.462,215.939s-.381,14.857-4.952,15.618-3.048,5.714-3.048,5.714,14.857,8.762,24.761,0l1.9-4.571s-6.857-4.952-3.809-11.809Z" transform="translate(-594.767 -171.818)" fill="#ffb8b8"/>
  <path id="Path_3378" data-name="Path 3378" d="M682.912,455.939s-22.475,41.9-14.095,54.855,20.952,39.617,22.856,39.617,12.571-5.333,11.809-8.762-12.19-28.951-15.238-31.237-1.524-8.381-1.143-8.762,12.952-20.571,12.952-20.571-.381,32,1.143,36.951-.381,40.379,1.524,41.9,10.666,4.19,12.19,1.9,6.095-36.951,3.047-44.951l5.714-54.855Z" transform="translate(-540.739 -320.393)" fill="#2f2e41"/>
  <path id="Path_3379" data-name="Path 3379" d="M735.1,722.939l-9.523,17.523s-13.714,9.9-4.19,11.428,15.237-2.286,15.237-2.286l8.381-6.1V725.987Z" transform="translate(-572.36 -485.683)" fill="#2f2e41"/>
  <path id="Path_3380" data-name="Path 3380" d="M728.859,686.12l4.952,11.809s1.9,4.952,0,6.095-7.238,8-3.809,8.761a11.148,11.148,0,0,0,2.093.208,21.167,21.167,0,0,0,15.389-6.262l3.088-3.088s-10.579-24.36-10.432-24.18S728.859,686.12,728.859,686.12Z" transform="translate(-579.068 -458.768)" fill="#2f2e41"/>
  <circle id="Ellipse_271" data-name="Ellipse 271" cx="12.952" cy="12.952" r="12.952" transform="translate(164.267 27.36)" fill="#ffb8b8"/>
  <path id="Path_3381" data-name="Path 3381" d="M748.51,253.4l-4,4s-12.19,4.571-17.9,0a38.363,38.363,0,0,1,2.1-4c0,.381-16.571,2.857-18.095,9.714s1.143,18.666,1.143,18.666-10.666,50.284-6.476,51.427,43.427,10.666,43.046,3.428,3.047-36.951,3.047-36.951L764.7,274.162s-1.9-8.381-6.476-11.047S748.51,253.4,748.51,253.4Z" transform="translate(-563.863 -194.994)" fill="#6c63ff"/>
  <path id="Path_3382" data-name="Path 3382" d="M748.314,448.939l-4.952,3.048s-19.047,12.952-9.142,15.237,15.618-9.143,15.618-9.143l3.809-4.571Z" transform="translate(-580.619 -316.059)" fill="#ffb8b8"/>
  <path id="Path_3383" data-name="Path 3383" d="M796.9,301.939l3.428,3.428s2.286,32-2.286,38.475-25.523,24-26.666,22.856-8.381-6.857-6.857-7.619,21.783-21.93,21.783-21.93l-1.593-29.5Z" transform="translate(-601.013 -225.057)" opacity="0.1"/>
  <path id="Path_3384" data-name="Path 3384" d="M800.9,298.939l3.428,3.428s2.286,32-2.286,38.475-25.523,24-26.666,22.856-8.381-6.857-6.857-7.619,21.783-21.93,21.783-21.93l-1.593-29.5Z" transform="translate(-603.489 -223.2)" fill="#6c63ff"/>
  <path id="Path_3385" data-name="Path 3385" d="M766.308,155.84s-4.4-1.6-10.406,1.8l3.2.8s-4.8.4-5.4,6.8h2.2s-1.4,5.6,0,7.2l.9-1.7,2.6,5.2.6-2.6,1.2.4.8-4.2s2,3,3.6,3.2v-2.6s4.4,5,5.8,4.8l-2-2.8,2.8.6-1.2-2,7.2,2-1.6-2,5,1.6,2.4,1s3.4-7.8-1.4-13.208S770.811,153.538,766.308,155.84Z" transform="translate(-594.446 -133.925)" fill="#2f2e41"/>
</svg>
