<svg id="Group_92" data-name="Group 92" xmlns="http://www.w3.org/2000/svg" xmlns:xlink="http://www.w3.org/1999/xlink" width="490.922" height="372" viewBox="0 0 490.922 372">
  <defs>
    <linearGradient id="linear-gradient" y1="0.5" x2="1" y2="0.5" gradientUnits="objectBoundingBox">
      <stop offset="0" stop-color="#dadada"/>
      <stop offset="1" stop-color="#fff"/>
    </linearGradient>
  </defs>
  <rect id="Rectangle_871" data-name="Rectangle 871" width="13.601" height="17.487" transform="translate(63.015 66.82) rotate(-177.779)" fill="#6c63ff"/>
  <path id="Path_3386" data-name="Path 3386" d="M361.123,311.379s18.821-8.992,18.52-1.226-18.972,12.876-18.972,12.876Z" transform="translate(-249.713 -201.363)" fill="#ffb9b9"/>
  <path id="Path_3387" data-name="Path 3387" d="M282.238,423.622s8.88,21.733,12.16,37.416,8.277,37.266,1.85,52.572-24.7,60.292-24.888,65.146,1.565,9.783-2.318,9.632-25.014-6.8-25.872-9.753,7.209-10.415,7.209-10.415L270.3,505.8l-20.784-40.667L234.525,525.8l-2.936,75.72s-14.411-4.448-16.5-.64c0,0-6.457-9-7.277-12.921s3.049-78.632,3.049-78.632-13.228-85.1-2.55-84.683S260.813,399.458,282.238,423.622Z" transform="translate(-181.154 -247.894)" fill="#2f2e41"/>
  <path id="Path_3388" data-name="Path 3388" d="M296.445,712.779s9.85,21.771,10.783,22.779,7.352,10.98,2.5,10.791-16.315-5.494-24.751-13.6-19.558-22.148-18.55-23.081,7.917-3.582,7.917-3.582Z" transform="translate(-208.406 -376.167)" fill="#2f2e41"/>
  <path id="Path_3389" data-name="Path 3389" d="M235.388,738.125s.594,9.745,2.385,13.7,1.565,9.783-3.289,9.595-17.4-2.619-17.4-2.619-.745-5.862.264-6.8,5.306-11.461,3.477-14.449S235.388,738.125,235.388,738.125Z" transform="translate(-186.706 -389.428)" fill="#2f2e41"/>
  <path id="Path_3390" data-name="Path 3390" d="M225.2,176.768S214.85,192.9,210.816,196.627s7.314,11.95,7.314,11.95l20.311,2.732s-.256-18.482.791-20.386S225.2,176.768,225.2,176.768Z" transform="translate(-183.697 -144.324)" fill="#ffb9b9"/>
  <path id="Path_3391" data-name="Path 3391" d="M237.673,210.853s-4.184,7.616-8.067,7.465-23.968-8.707-24.826-11.657-6.653,21.131-6.653,21.131l49.146,86.49L259.262,306l-5.809-50.781-4.771-27.407Z" transform="translate(-178.519 -157.308)" fill="#6c63ff"/>
  <path id="Path_3392" data-name="Path 3392" d="M191,283.7a27.2,27.2,0,0,1,3.015,12.756c-.008.194-.015.388-.032.582-.465,8.985-3.775,19.376-4.962,26.933-.862,5.421-.616,9.378,2.556,10.308,7.691,2.243-1.121,3.845,28.634,13.749s34.948,1.355,35.023-.586-4.214-16.691-3.205-17.624,14.11,12.214,18.068,10.423.452-11.649.452-11.649-8.917-20.762-8.729-25.616-13.507-27.746-13.507-27.746L239,214.593s-3.582-7.917-8.4-9.076a11.931,11.931,0,0,0-8.812,1.6l8.059,17.813,8.5,31.441-1.422,11.611s-9.888-20.8-16.382-28.83-20.34-27.039-20.34-27.039-3.233-10.907-.792-14.167-10.179-3.759-15.56,9.644c-2.852,7.1-7.482,17.7-10.383,27.559-2.585,8.737-3.806,16.905-1.245,21.574C176.139,263.858,185.984,273.233,191,283.7Z" transform="translate(-166.554 -152.754)" fill="#575a89"/>
  <path id="Path_3393" data-name="Path 3393" d="M172.225,285.348c3.914,7.132,13.759,16.507,18.778,26.978,1.311-4.723,2.91-9.609,2.91-9.609s6.134-32.818-12.01-41.3a12.143,12.143,0,0,0-8.433,2.356C170.886,272.511,169.665,280.679,172.225,285.348Z" transform="translate(-166.554 -181.376)" opacity="0.1"/>
  <path id="Path_3394" data-name="Path 3394" d="M300.314,300.362l15.382,4.485,21.357.828,2.2,18.558-35.1,2.528S295.385,302.115,300.314,300.362Z" transform="translate(-222.618 -198.459)" fill="#575a89"/>
  <path id="Path_3395" data-name="Path 3395" d="M251.365,411.388s20.578,3.414,15.881,9.606-22.926-.318-22.926-.318Z" transform="translate(-198.751 -247.088)" fill="#ffb9b9"/>
  <path id="Path_3396" data-name="Path 3396" d="M208.179,375.78c-.465,8.985-3.775,19.376-4.962,26.933,6.555,6.2,12.789,11.677,15.138,11.768,4.854.188,12.658-.481,15.532.6s4.561-17.324,4.561-17.324-1.716-5.9-9.369-9.113A106.593,106.593,0,0,1,208.179,375.78Z" transform="translate(-180.748 -231.492)" opacity="0.1"/>
  <path id="Path_3397" data-name="Path 3397" d="M178.811,251.046s-16.428-2.581-15.54,24.675-1.732,44.655,4.876,49.773,28.069,28.311,32.923,28.5,12.658-.481,15.532.6,4.561-17.323,4.561-17.323-1.716-5.9-9.369-9.113-25.684-14.607-25.533-18.49,4.561-17.323,4.561-17.323S196.955,259.528,178.811,251.046Z" transform="translate(-163.236 -176.829)" fill="#575a89"/>
  <circle id="Ellipse_275" data-name="Ellipse 275" cx="21.373" cy="21.373" r="21.373" transform="translate(34.614 13.577)" fill="#ffb9b9"/>
  <path id="Path_3398" data-name="Path 3398" d="M258.223,123.355a4.127,4.127,0,0,0,1.8.9,1.282,1.282,0,0,0,1.486-1.029,5.328,5.328,0,0,0,2.039,2.615c1,.52,2.542.084,2.686-1.033a4.712,4.712,0,0,0,1.085,2.289,1.624,1.624,0,0,0,2.284.076c-.437,2.389-.167,4.847-.3,7.272s-.784,5-2.616,6.591c-2.672,2.326-6.69,1.752-10.205,1.311a3.1,3.1,0,0,0-1.6.088c-1.316.561-1.256,2.393-1.274,3.823a10.623,10.623,0,0,1-9.3,10.088,5.325,5.325,0,0,1-3.958-.966c-1-.846-1.508-2.225-2.651-2.86-1.86-1.034-4.116.474-5.476,2.111s-2.7,3.65-4.807,3.95c-2.787.4-4.909-2.444-5.95-5.058a29.488,29.488,0,0,1,.586-22.912C227.859,117.93,247.734,115.923,258.223,123.355Z" transform="translate(-187.845 -119.039)" fill="#2f2e41"/>
  <path id="Path_3399" data-name="Path 3399" d="M194.425,72.434,576.08,8.825v187.8L194.425,208.739Z" transform="translate(-85.158 -3.865)" fill="#6c63ff"/>
  <path id="Path_3400" data-name="Path 3400" d="M459.953,322.4c0-21.34-9.591-37.326-21.2-35.735-11.378,1.558-20.435,19.472-20.435,40.039s9.057,36.608,20.435,35.814C450.362,361.7,459.953,343.736,459.953,322.4Z" transform="translate(-274.961 -192.41)" fill="#fff"/>
  <path id="Path_3401" data-name="Path 3401" d="M609.416,151.943l-228.234,25.3V163.077l228.234-28.049Z" transform="translate(-166.958 -59.142)" fill="url(#linear-gradient)"/>
  <path id="Path_3402" data-name="Path 3402" d="M609.416,216.62l-228.234,25.3V227.753L609.416,199.7Z" transform="translate(-166.958 -87.47)" fill="url(#linear-gradient)"/>
  <path id="Path_3403" data-name="Path 3403" d="M258.7,225.257l8.42-1.3,8.421,8.421,9.716-18.137h10.364l-20.081,25.263Z" transform="translate(-113.311 -93.839)" fill="#6c63ff"/>
  <path id="Path_3404" data-name="Path 3404" d="M258.7,225.257l8.42-1.3,8.421,8.421,9.716-18.137h10.364l-20.081,25.263Z" transform="translate(-113.311 -93.839)" opacity="0.2"/>
</svg>
