<svg xmlns="http://www.w3.org/2000/svg" width="474.416" height="474.416" viewBox="0 0 474.416 474.416">
  <g id="Group_231" data-name="Group 231" transform="translate(72.094 3.006)">
    <circle id="Ellipse_296" data-name="Ellipse 296" cx="237.208" cy="237.208" r="237.208" transform="translate(-72.094 -3.006)" fill="#fff" opacity="0.49"/>
    <circle id="Ellipse_290" data-name="Ellipse 290" cx="193.607" cy="193.607" r="193.607" transform="translate(-1.539 64.033)" fill="#f2f2f2"/>
    <path id="Path_3508" data-name="Path 3508" d="M397.662,427.759a15.631,15.631,0,0,0,2.067-7.924c0-7.161-4.435-12.966-9.9-12.966s-9.9,5.805-9.9,12.966a15.631,15.631,0,0,0,2.067,7.924,16.219,16.219,0,0,0,0,15.848,16.22,16.22,0,0,0,0,15.848,16.219,16.219,0,0,0,0,15.848,15.631,15.631,0,0,0-2.067,7.924c0,7.161,4.435,12.966,9.9,12.966s9.9-5.805,9.9-12.966a15.63,15.63,0,0,0-2.067-7.924,16.219,16.219,0,0,0,0-15.848,16.219,16.219,0,0,0,0-15.848,16.219,16.219,0,0,0,0-15.848Z" transform="translate(-318.652 -204.355)" fill="#3f3d56"/>
    <ellipse id="Ellipse_291" data-name="Ellipse 291" cx="9.905" cy="12.966" rx="9.905" ry="12.966" transform="translate(61.268 186.666)" fill="#3f3d56"/>
    <ellipse id="Ellipse_292" data-name="Ellipse 292" cx="9.905" cy="12.966" rx="9.905" ry="12.966" transform="translate(61.268 170.818)" fill="#3f3d56"/>
    <path id="Path_3509" data-name="Path 3509" d="M391.924,90.7a47.55,47.55,0,0,0,3.689-5.43L369.586,81l28.148.209a47.528,47.528,0,0,0,.906-37.593L360.876,63.2,395.7,37.6a47.448,47.448,0,1,0-78.362,53.1,47.469,47.469,0,0,0-5.411,8.652L345.714,116.9l-36.023-12.09a47.473,47.473,0,0,0,7.65,44.554,47.445,47.445,0,1,0,74.582,0,47.451,47.451,0,0,0,0-58.668Z" transform="translate(-283.672 -15.368)" fill="#0160c9"/>
    <path id="Path_3510" data-name="Path 3510" d="M307.188,217.711a47.241,47.241,0,0,0,10.153,29.334,47.445,47.445,0,1,0,74.582,0C398.283,238.973,307.188,212.386,307.188,217.711Z" transform="translate(-283.672 -113.044)" opacity="0.1"/>
    <path id="Path_3511" data-name="Path 3511" d="M561.319,639.3c-12.278,43.75-107.012,84.326-207.753,56.055S184.225,580.67,196.5,536.921s100.783-28.268,201.524,0S573.6,595.55,561.319,639.3Z" transform="translate(-229.755 -253.768)" fill="#3f3d56"/>
    <path id="Path_3512" data-name="Path 3512" d="M561.319,639.3c-12.278,43.75-107.012,84.326-207.753,56.055S184.225,580.67,196.5,536.921s100.783-28.268,201.524,0S573.6,595.55,561.319,639.3Z" transform="translate(-229.755 -253.768)" opacity="0.1"/>
    <ellipse id="Ellipse_293" data-name="Ellipse 293" cx="82.276" cy="189.455" rx="82.276" ry="189.455" transform="translate(-55.484 362.367) rotate(-74.324)" fill="#3f3d56"/>
    <ellipse id="Ellipse_294" data-name="Ellipse 294" cx="55.539" cy="16.091" rx="55.539" ry="16.091" transform="translate(62.824 320.965)" opacity="0.1"/>
    <path id="Path_3513" data-name="Path 3513" d="M512.724,484.526l-70.245,70.245-29.524-29.525a10.093,10.093,0,0,0-14.273,0l-1.061-1.586c-3.941,3.941-2.881,11.918,1.061,15.859l38.307,38.307a7.7,7.7,0,0,0,10.888,0L526.99,498.8c3.944-3.94,5.375-11.164,1.433-15.106h0C524.482,479.752,516.665,480.585,512.724,484.526Z" transform="translate(-325.973 -240.066)" fill="#57b894"/>
    <path id="Path_3514" data-name="Path 3514" d="M512.724,484.526l-70.245,70.245-29.524-29.525a10.093,10.093,0,0,0-14.273,0l-1.061-1.586c-3.941,3.941-2.881,11.918,1.061,15.859l38.307,38.307a7.7,7.7,0,0,0,10.888,0L526.99,498.8c3.944-3.94,5.375-11.164,1.433-15.106h0C524.482,479.752,516.665,480.585,512.724,484.526Z" transform="translate(-325.973 -240.066)" opacity="0.1"/>
    <path id="Path_3515" data-name="Path 3515" d="M513.264,478.942l-70.245,70.245-29.524-29.525a10.093,10.093,0,0,0-14.273,0h0a10.093,10.093,0,0,0,0,14.273l38.308,38.307a7.7,7.7,0,0,0,10.888,0l79.113-79.031a10.09,10.09,0,0,0,0-14.273h0A10.09,10.09,0,0,0,513.264,478.942Z" transform="translate(-326.514 -237.597)" fill="#57b894"/>
    <path id="Path_3516" data-name="Path 3516" d="M664.3,712.05s-6.282,1.885-9.423,5.654c0,0-5.654,2.513-9.109,1.885s-9.737,5.654-4.711,7.539,35.808,6.91,36.436,5.34.628-17.59.628-17.59Z" transform="translate(-443.342 -351.131)" fill="#052972"/>
    <path id="Path_3517" data-name="Path 3517" d="M761.711,706.854s-5.868,2.93-8.319,7.18c0,0-5.142,3.442-8.653,3.413s-8.628,7.234-3.355,8.232,36.462.693,36.813-.962-2.385-17.439-2.385-17.439Z" transform="translate(-491.407 -348.632)" fill="#052972"/>
    <circle id="Ellipse_295" data-name="Ellipse 295" cx="14.135" cy="14.135" r="14.135" transform="translate(217.031 117.019)" fill="#ffb9b9"/>
    <path id="Path_3518" data-name="Path 3518" d="M715.756,273.926s1.57,10.68,4.4,11.936a20.869,20.869,0,0,1,5.34,3.769l-7.852,3.769-15.391-.942s1.256-6.91-.942-10.365S715.756,273.926,715.756,273.926Z" transform="translate(-473.126 -140.417)" fill="#ffb9b9"/>
    <path id="Path_3519" data-name="Path 3519" d="M773.966,371.354s7.224,18.532,0,36.436S763.6,428.521,763.6,428.521l-2.2-23.558,2.528-2.294s1.531-7.147.287-11.379.64-17.424.64-17.424Z" transform="translate(-502.124 -187.274)" fill="#ffb9b9"/>
    <path id="Path_3520" data-name="Path 3520" d="M673.893,438.044s-9.109,20.731-8.167,30.782,8.167,52.455,8.167,52.455-.942,54.654,1.885,54.654,16.333,5.026,16.333,1.57,2.827-86.378,2.827-86.378,16.019,36.436,17.59,39.263,11.622,47.115,15.077,47.115,14.135-3.141,13.192-5.34-11.622-51.2-17.59-63.763-4.712-59.994-4.712-59.994l-10.051-21.987Z" transform="translate(-456.076 -213.759)" fill="#2f2e41"/>
    <path id="Path_3521" data-name="Path 3521" d="M689.018,243.346s-8.795-.628-9.423-2.827-1.885-4.083-1.256-4.083.942-1.571.942-1.571.628-.314.942,0,.628-2.2.628-2.2.314-.942.628-.314.314.314.628-.628,1.885-1.57,1.885-1.57,5.968.314,6.91-.942,11.622-.314,13.82,1.256,11.936,7.224,10.365,11.936-7.224,15.077-7.224,16.647-2.2,1.256-2.827-.314-5.654-3.455-5.654-4.4-2.827-9.737-4.4-9.109-3.455,5.654-4.083,4.712S689.018,243.346,689.018,243.346Z" transform="translate(-462.093 -118.631)" fill="#3f3d56"/>
    <path id="Path_3522" data-name="Path 3522" d="M730.454,318.35s-12.878-18.846-16.647-19.789-12.25-3.455-12.25-3.455-8.481,1.256-10.994,2.513-11.936,3.455-12.25,7.224,2.513,39.891.942,43.346-6.91,36.436-4.4,35.808.628-8.795,11.622-9.109,16.962-6.91,21.045.942,15.705,13.821,15.705,13.821a76.011,76.011,0,0,1,1.256-7.539c.942-4.4-2.513-15.077-2.513-15.077s.314-24.814,1.571-27.641S730.454,318.35,730.454,318.35Z" transform="translate(-460.183 -150.603)" fill="#0041c7"/>
    <path id="Path_3523" data-name="Path 3523" d="M768.557,338.677l4.712.628s-.314,6.282.942,8.167,3.455,11.622,2.2,11.936-12.564,2.2-12.564,2.2l-.628-14.449Z" transform="translate(-502.998 -171.559)" fill="#2733fc"/>
    <path id="Path_3524" data-name="Path 3524" d="M654.634,360.462s-3.141,20.417-4.712,22.93-9.423,37.692-9.423,37.692-12.913,17.957-6.631,17.643,12.913-16.387,12.913-16.387,19.474-35.494,19.474-39.263,4.712-22.615,4.712-22.615Z" transform="translate(-439.959 -182.036)" fill="#ffb9b9"/>
    <path id="Path_3525" data-name="Path 3525" d="M682.337,307.209l-5.654,2.2s-7.224,25.756-5.654,27.955,20.417-.942,20.731-1.885S688.3,307.209,682.337,307.209Z" transform="translate(-458.552 -156.424)" fill="#2733fc"/>
    <path id="Path_3526" data-name="Path 3526" d="M206.474,434.718c0,21.889,13.732,39.6,30.7,39.6" transform="translate(-235.234 -217.749)" fill="#3f3d56"/>
    <path id="Path_3527" data-name="Path 3527" d="M265.624,473.907c0-22.135,15.324-40.046,34.261-40.046" transform="translate(-263.682 -217.337)" fill="#6c63ff"/>
    <path id="Path_3528" data-name="Path 3528" d="M227.9,438.541c0,20.792,8.757,37.616,19.578,37.616" transform="translate(-245.541 -219.588)" fill="#473bff"/>
    <path id="Path_3529" data-name="Path 3529" d="M265.624,463.6c0-28.283,17.712-51.169,39.6-51.169" transform="translate(-263.682 -207.03)" fill="#3f3d56"/>
    <path id="Path_3530" data-name="Path 3530" d="M253.18,509.37s4.354-.134,5.666-1.068,6.7-2.05,7.023-.552,6.543,7.453,1.628,7.493-11.422-.766-12.731-1.563S253.18,509.37,253.18,509.37Z" transform="translate(-257.697 -252.521)" fill="#a8a8a8"/>
    <path id="Path_3531" data-name="Path 3531" d="M267.585,516.9c-4.916.04-11.422-.766-12.731-1.563-1-.608-1.395-2.788-1.528-3.793l-.145.006s.276,3.512,1.585,4.309,7.816,1.6,12.731,1.563c1.419-.011,1.909-.516,1.882-1.264C269.182,516.6,268.641,516.887,267.585,516.9Z" transform="translate(-257.697 -254.696)" opacity="0.2"/>
  </g>
</svg>
