<svg xmlns="http://www.w3.org/2000/svg" width="254.427" height="207.157" viewBox="0 0 254.427 207.157">
  <defs>
    <style>
      .cls-1 {
        fill: rgba(255,255,255,0.81);
      }

      .cls-2 {
        fill: #3f3d56;
      }

      .cls-3 {
        fill: #f2f2f2;
      }

      .cls-4 {
        fill: #6c63ff;
      }

      .cls-5 {
        fill: #fff;
      }

      .cls-6 {
        fill: #2f2e41;
      }

      .cls-7 {
        fill: #ffb8b8;
      }

      .cls-8 {
        opacity: 0.1;
      }

      .cls-9 {
        fill: #d0cde1;
      }

      .cls-10 {
        fill: #a0616a;
      }
    </style>
  </defs>
  <g id="Group_46" data-name="Group 46" transform="translate(-666 -602.843)">
    <g id="Group_48" data-name="Group 48" transform="translate(666 602.843)">
      <path id="Path_2266" data-name="Path 2266" class="cls-1" d="M50.343,0h85.2a50.343,50.343,0,0,1,50.343,50.343V91.651a50.343,50.343,0,0,1-50.343,50.343h-85.2A50.343,50.343,0,0,1,0,91.651V50.343A50.343,50.343,0,0,1,50.343,0Z" transform="translate(0 0)"/>
      <g id="Group_28" data-name="Group 28" transform="translate(26.774 38.047)">
        <rect id="Rectangle_685" data-name="Rectangle 685" class="cls-2" width="196.787" height="125.906" transform="translate(16.962 11.891)"/>
        <rect id="Rectangle_686" data-name="Rectangle 686" class="cls-3" width="88.601" height="103.057" transform="translate(119.553 34.624)"/>
        <path id="Path_2267" data-name="Path 2267" class="cls-2" d="M168.887,604.212c2.693,4.994,8.408,7.138,8.408,7.138s1.349-5.953-1.344-10.948-8.408-7.138-8.408-7.138S166.194,599.217,168.887,604.212Z" transform="translate(-159.866 -473.46)"/>
        <path id="Path_2268" data-name="Path 2268" class="cls-4" d="M148.247,624.806c4.862,2.925,6.734,8.735,6.734,8.735s-6.01,1.067-10.872-1.858-6.734-8.735-6.734-8.735S143.385,621.881,148.247,624.806Z" transform="translate(-137.375 -495.697)"/>
        <rect id="Rectangle_687" data-name="Rectangle 687" class="cls-5" width="53.736" height="2.167" transform="translate(149.521 44.213)"/>
        <rect id="Rectangle_688" data-name="Rectangle 688" class="cls-5" width="53.736" height="2.167" transform="translate(149.521 48.98)"/>
        <rect id="Rectangle_689" data-name="Rectangle 689" class="cls-5" width="18.201" height="2.167" transform="translate(149.521 53.747)"/>
        <rect id="Rectangle_690" data-name="Rectangle 690" class="cls-5" width="53.736" height="2.167" transform="translate(39.174 109.265)"/>
        <rect id="Rectangle_691" data-name="Rectangle 691" class="cls-5" width="53.736" height="2.167" transform="translate(39.174 114.032)"/>
        <rect id="Rectangle_692" data-name="Rectangle 692" class="cls-5" width="18.201" height="2.167" transform="translate(39.174 118.799)"/>
        <rect id="Rectangle_693" data-name="Rectangle 693" class="cls-5" width="53.736" height="2.167" transform="translate(136.93 70.794)"/>
        <rect id="Rectangle_694" data-name="Rectangle 694" class="cls-5" width="53.736" height="2.167" transform="translate(136.93 75.561)"/>
        <rect id="Rectangle_695" data-name="Rectangle 695" class="cls-5" width="53.736" height="2.167" transform="translate(136.93 80.224)"/>
        <rect id="Rectangle_696" data-name="Rectangle 696" class="cls-5" width="53.736" height="2.167" transform="translate(136.93 84.887)"/>
        <rect id="Rectangle_697" data-name="Rectangle 697" class="cls-5" width="53.736" height="2.167" transform="translate(136.93 89.55)"/>
        <rect id="Rectangle_698" data-name="Rectangle 698" class="cls-5" width="53.736" height="2.167" transform="translate(136.93 94.213)"/>
        <rect id="Rectangle_699" data-name="Rectangle 699" class="cls-5" width="53.736" height="2.167" transform="translate(136.93 98.877)"/>
        <rect id="Rectangle_700" data-name="Rectangle 700" class="cls-5" width="53.736" height="2.167" transform="translate(136.93 103.54)"/>
        <rect id="Rectangle_701" data-name="Rectangle 701" class="cls-5" width="53.736" height="2.167" transform="translate(136.93 108.203)"/>
        <rect id="Rectangle_702" data-name="Rectangle 702" class="cls-5" width="53.736" height="2.167" transform="translate(136.93 112.866)"/>
        <rect id="Rectangle_703" data-name="Rectangle 703" class="cls-5" width="53.736" height="2.167" transform="translate(136.93 117.529)"/>
        <path id="Path_2269" data-name="Path 2269" class="cls-4" d="M365.383,350.4a19.533,19.533,0,0,1-7.268,15.223,19.309,19.309,0,0,1-2.679,1.826,18.939,18.939,0,0,1-1.753.879,19.394,19.394,0,0,1-6.27,1.588q-.8.066-1.611.065a19.346,19.346,0,0,1-3.2-.263c-.373-.058-.741-.13-1.105-.214a18.852,18.852,0,0,1-1.882-.522,19.533,19.533,0,0,1-6.871-4,17.8,17.8,0,0,1-1.457-1.45,19.579,19.579,0,1,1,34.1-13.134Z" transform="translate(-279.76 -275.587)"/>
        <path id="Path_2270" data-name="Path 2270" class="cls-4" d="M671.137,278.1c.028,6.267-3.688,8.472-8.284,8.492q-.16,0-.319,0-.319-.005-.632-.026c-4.149-.275-7.382-2.561-7.408-8.39-.027-6.032,7.648-13.678,8.224-14.243h0l.033-.032S671.11,271.834,671.137,278.1Z" transform="translate(-527.261 -225.132)"/>
        <path id="Path_2271" data-name="Path 2271" class="cls-2" d="M676.825,285.636l3.025-4.266-3.03,4.733-.006.488q-.32-.005-.632-.026l.3-6.271,0-.048.006-.009.028-.593-3.08-4.717,3.087,4.273.008.126.227-4.738-2.64-4.877,2.669,4.044.214-9.822v0l-.009,7.745,2.593-3.082-2.6,3.749-.05,4.242,2.416-4.081-2.423,4.7-.028,2.359,3.508-5.682-3.518,6.5Z" transform="translate(-541.539 -225.133)"/>
        <path id="Path_2272" data-name="Path 2272" class="cls-2" d="M740.578,378.786a32.642,32.642,0,0,0-32.642,32.642h0a9.56,9.56,0,0,1-9.56,9.56H682.521a28.445,28.445,0,0,0-28.445,28.445h86.5V378.786Z" transform="translate(-526.946 -311.752)"/>
        <rect id="Rectangle_704" data-name="Rectangle 704" class="cls-6" width="4.197" height="125.906" transform="translate(113.141 11.891)"/>
        <path id="Path_2273" data-name="Path 2273" class="cls-4" d="M359.647,116.364V113.1a6.762,6.762,0,0,0-13.523,0v3.264H333.3v7.228h39.171v-7.228Zm-6.762-8.161a3.964,3.964,0,1,1-3.964,3.964,3.964,3.964,0,0,1,3.964-3.964Z" transform="translate(-285.094 -106.338)"/>
        <path id="Path_2274" data-name="Path 2274" class="cls-7" d="M385.954,403.986s-1.948,5.543-.749,6.4-4.045,7.817-4.045,7.817l-6.292-1.706,3.446-5.827s.449-5.827.449-6.68S385.954,403.986,385.954,403.986Z" transform="translate(-316.435 -330.466)"/>
        <path id="Path_2275" data-name="Path 2275" class="cls-8" d="M385.954,403.986s-1.948,5.543-.749,6.4-4.045,7.817-4.045,7.817l-6.292-1.706,3.446-5.827s.449-5.827.449-6.68S385.954,403.986,385.954,403.986Z" transform="translate(-316.435 -330.466)"/>
        <circle id="Ellipse_116" data-name="Ellipse 116" class="cls-7" cx="5.117" cy="5.117" r="5.117" transform="translate(60.423 67.408)"/>
        <path id="Path_2276" data-name="Path 2276" class="cls-9" d="M382.516,451.672a18.864,18.864,0,0,1-1.882-.522l.979-6.715.3-2.071,1.553.583c.21.077.448.168.721.268a1.637,1.637,0,0,0,1.3-.047c1.5-.688,2.395-3.364,2.395-3.364s.061.751.14,2.021c.142,2.231.347,6.069.41,10.259q-.8.066-1.611.065a19.354,19.354,0,0,1-3.2-.263C383.248,451.828,382.88,451.756,382.516,451.672Z" transform="translate(-320.782 -357.757)"/>
        <path id="Path_2277" data-name="Path 2277" class="cls-9" d="M359.956,428.064l-.436,3.994-.212,1.933-.741,6.792a18.794,18.794,0,0,1-1.882-.522,19.537,19.537,0,0,1-6.871-4l-.944-3.369a3.994,3.994,0,0,1,.061-.6.008.008,0,0,1,0-.007,4.269,4.269,0,0,1,.117-.522.019.019,0,0,0,0-.007,3.87,3.87,0,0,1,.956-1.707c1.138-1.138,8.669-4.691,8.669-4.691l.142.3Z" transform="translate(-296.833 -346.869)"/>
        <path id="Path_2278" data-name="Path 2278" class="cls-6" d="M385.3,371.66a5.69,5.69,0,0,1,3.3.551,4.839,4.839,0,0,1,1.142,1.118c.931,1.178,1.736,2.659,1.39,4.12l-.4-.157a2.632,2.632,0,0,0,.254,1.127c-.057-.164-.246.1-.2.268l.443,1.452a1.367,1.367,0,0,0-1.744,1.041c-.051-1.687-.226-3.621-1.594-4.609a5.511,5.511,0,0,0-2.4-.785,4.833,4.833,0,0,0-2.33.012,1.676,1.676,0,0,0-1.206,1.781.794.794,0,0,0-.894.441,2.316,2.316,0,0,0-.183,1.06c-.365.258-.78-.254-.929-.676a6.1,6.1,0,0,1-.471-3.074,2.344,2.344,0,0,1,2.078-2.022.728.728,0,0,1-.189-.513l.864-.073a.956.956,0,0,1-.571-.3C382.01,372.8,384.74,371.68,385.3,371.66Z" transform="translate(-319.87 -306.367)"/>
        <path id="Path_2279" data-name="Path 2279" class="cls-9" d="M407.272,430.891c-.133,1.066-.893,4.076-1.66,6.969a18.912,18.912,0,0,1-1.753.879,19.384,19.384,0,0,1-6.27,1.588q-.8.067-1.611.065a19.355,19.355,0,0,1-3.2-.263c.4-1.53.93-4.05,1.429-6.519.152-.746.3-1.49.441-2.2.548-2.793.972-5.069.972-5.069a12.2,12.2,0,0,1,2.712-2.056.876.876,0,0,1,.436-.072c.832.138,1.97,2.129,1.97,2.129s5.106,1.7,6.3,3.635A1.415,1.415,0,0,1,407.272,430.891Z" transform="translate(-329.935 -346)"/>
        <path id="Path_2280" data-name="Path 2280" class="cls-9" d="M350.994,451.365l-.3,6.379a19.379,19.379,0,0,1-2.453-1.875,17.844,17.844,0,0,1-1.457-1.45c.245-1.075.45-1.98.574-2.518a.009.009,0,0,1,0-.007c.065-.3.107-.483.117-.522a.016.016,0,0,0,0-.007Z" transform="translate(-295.261 -366.474)"/>
        <path id="Path_2281" data-name="Path 2281" class="cls-9" d="M440.521,451.279a19.323,19.323,0,0,1-2.679,1.826,18.918,18.918,0,0,1-1.753.879l-.567-3.3.569-6.253,3.173.793.238.061Z" transform="translate(-362.165 -361.244)"/>
        <path id="Path_2282" data-name="Path 2282" class="cls-10" d="M1000.611,515.332s-2.215,10.826,1.476,9.842,2.214-10.334,2.214-10.334Z" transform="translate(-787.722 -414.331)"/>
        <path id="Path_2283" data-name="Path 2283" class="cls-9" d="M1009.075,334.84h-2.46s-2.707,1.968-2.46,4.183-4.429,21.406-4.429,23.866-.984,3.2-.984,4.675.492,2.46,0,3.2a18.172,18.172,0,0,0-1.23,6.889,13.853,13.853,0,0,1,0,3.445h6.151s4.429-15.009,5.413-15.747a3.785,3.785,0,0,0,1.476-2.706c0-.738-.492-.738.738-1.722s.492-5.413.492-5.413l1.722-4.429Z" transform="translate(-785.852 -278.619)"/>
        <path id="Path_2284" data-name="Path 2284" class="cls-8" d="M1009.075,334.84h-2.46s-2.707,1.968-2.46,4.183-4.429,21.406-4.429,23.866-.984,3.2-.984,4.675.492,2.46,0,3.2a18.172,18.172,0,0,0-1.23,6.889,13.853,13.853,0,0,1,0,3.445h6.151s4.429-15.009,5.413-15.747a3.785,3.785,0,0,0,1.476-2.706c0-.738-.492-.738.738-1.722s.492-5.413.492-5.413l1.722-4.429Z" transform="translate(-785.852 -278.619)"/>
        <path id="Path_2285" data-name="Path 2285" class="cls-10" d="M902.606,490.832s-2.214,10.826,1.476,9.842S906.3,490.34,906.3,490.34Z" transform="translate(-713.83 -395.859)"/>
        <path id="Path_2286" data-name="Path 2286" class="cls-10" d="M765.726,591l-1.476,6.151,5.413,3.445,1.476-7.381Z" transform="translate(-576.212 -445.59)"/>
        <path id="Path_2287" data-name="Path 2287" class="cls-10" d="M865.957,622l-2.706,3.691,3.2,3.691h4.429V622Z" transform="translate(-650.854 -468.962)"/>
        <path id="Path_2288" data-name="Path 2288" class="cls-6" d="M999.013,738.837h-1.476a5.556,5.556,0,0,0-2.214,0c-1.476.246-3.479-2.122-3.479-2.122l-1.934,1.63s-3.937.984-1.968,5.659l4.429,2.706s2.214,4.675,6.643,3.937,1.23-5.659,1.23-5.659Z" transform="translate(-778.25 -581.616)"/>
        <path id="Path_2289" data-name="Path 2289" class="cls-6" d="M875.205,703.193l-.374-1.639-3.316.9s-6.889-4.429-6.889,1.476a8.592,8.592,0,0,0,5.413,7.873s1.968-.246,1.968,1.476,5.167,4.429,7.135,3.445a4.07,4.07,0,0,0,1.968-3.445l-.492-6.889-2.215.492s-4.182-.246-3.445-1.23A3.021,3.021,0,0,0,875.205,703.193Z" transform="translate(-685.691 -554.583)"/>
        <path id="Path_2290" data-name="Path 2290" class="cls-6" d="M911.717,480.34s-2.953,3.937-2.953,6.151-.984,21.9-.984,21.9-5.413,25.1-3.936,26.573,5.9,3.69,6.643,2.953,5.9-27.557,5.9-27.557l6.151-16.485,5.659,23.62s-.246,20.422.738,20.667,1.476.492.984,1.476-1.23,2.952-1.23,2.952,6.151,1.476,7.381.492,1.476-24.85,0-33.216.246-27.557.246-27.557Z" transform="translate(-715.067 -388.32)"/>
        <circle id="Ellipse_117" data-name="Ellipse 117" class="cls-10" cx="7.381" cy="7.381" r="7.381" transform="translate(198.249 29.648)"/>
        <path id="Path_2291" data-name="Path 2291" class="cls-10" d="M963.976,267.986s.984,5.167,0,6.643,13.286.492,13.286.492-6.889-7.873-6.151-9.35S963.976,267.986,963.976,267.986Z" transform="translate(-760.56 -226.282)"/>
        <path id="Path_2292" data-name="Path 2292" class="cls-9" d="M929.557,294.025s4.921-6.4,11.072-5.167c1.661.332,3.178.664,4.508.972a14.12,14.12,0,0,1,10.185,8.962,6.391,6.391,0,0,1,.438,3.229c-.738,3.691-.369,32.847-.369,32.847s-1.969.738-1.722,1.722,1.968,2.214.246,2.214-27.8-.984-27.311-1.722S929.557,294.025,929.557,294.025Z" transform="translate(-732.415 -243.832)"/>
        <path id="Path_2293" data-name="Path 2293" class="cls-9" d="M913.07,310.34h-2.461s-2.706,1.968-2.46,4.183-4.429,21.406-4.429,23.866-.984,3.2-.984,4.675.492,2.461,0,3.2a18.172,18.172,0,0,0-1.23,6.889,13.877,13.877,0,0,1,0,3.445h6.151s4.429-15.009,5.413-15.747a3.785,3.785,0,0,0,1.476-2.706c0-.738-.492-.738.738-1.722s.492-5.413.492-5.413l1.722-4.429Z" transform="translate(-713.468 -260.147)"/>
        <path id="Path_2294" data-name="Path 2294" class="cls-8" d="M796.671,327.784l7.4-16.283-3.7,17.317Z" transform="translate(-600.656 -234.858)"/>
        <path id="Path_2295" data-name="Path 2295" class="cls-6" d="M949.671,204.367l0-.609a4.75,4.75,0,0,1,1.527.054,2.481,2.481,0,0,0-.223-1.067,4.824,4.824,0,0,1,1.46.435l.17-1.131,4.407,1.544a8.832,8.832,0,0,1,4.281,2.5,6.357,6.357,0,0,1,.788,5.361,44.01,44.01,0,0,1-2,5.231,12.39,12.39,0,0,1-.936,2.152,5.652,5.652,0,0,1-6.7,2,3.987,3.987,0,0,1-2.131-1.72,12.832,12.832,0,0,1-.574-1.569c-.41-1.085-1.007-3.354-2-3.951-.437-.263-1.1.865-1.482.522a3.568,3.568,0,0,1-.592-3.676,27.121,27.121,0,0,1,1.354-3.676A16.511,16.511,0,0,1,949.671,204.367Z" transform="translate(-746.617 -178.5)"/>
      </g>
    </g>
  </g>
</svg>
